<?xml version="1.0" encoding="UTF-8"?><svg id="Layer_1" xmlns="http://www.w3.org/2000/svg" viewBox="0 0 1080 1080"><defs><style>.cls-1{fill:#2c9aa1;}.cls-2{stroke-width:5.49px;}.cls-2,.cls-3{fill:none;stroke:#2c9aa1;stroke-miterlimit:10;}.cls-3{stroke-width:5.49px;}.cls-4{fill:#9b4c44;}</style></defs><path class="cls-4" d="m642.61,591.58c-6.01,1.71-42.99,5.9-86.11,10.39v-104.1c0-4.56,1.29-9.02,3.77-12.83,1.66-2.55,3.87-6.7,6.62-13.45,5.86-14.37-32.19-16.95-44.06-17.4-1.55-.06-2.62,1.55-1.97,2.97,2.53,5.61,7.43,18.22,7.43,31.92v115.79c-54.76,5.56-110.78,10.88-122.14,11.96-1,.09-1.56,1.21-1.06,2.09,6.16,10.86,14.49,16.07,21.92,18.49,7.09,2.31,14.7,2.31,21.92.45,21.22-5.46,49.7-8.68,79.36-10.5v98.74c0,1.12,1.33,1.71,2.14.93,6.58-6.29,26.07-27.36,26.07-56.03v-44.98c54.92-1.89,107.35.05,119.24.55,1.61.07,3.08-.9,3.7-2.4,9.11-21.99-20.29-37.3-36.83-32.59Z"/><path class="cls-4" d="m382.96,541.33c14.06-4.89,94.24-35.76,158.24-123.23,1.48-2.03,4.45-2.12,6.07-.2,15.09,17.95,79.23,93.52,91.87,96.16s51.54,4.06,72.38-3.97c3.38-1.3,3.32-6.15-.09-7.37-25.62-9.15-104.32-40.61-156.43-97.97-.95-1.04-1.26-2.53-.82-3.87,1.14-3.46,3.83-9.84,8.38-11.01,6.31-1.62,3.46-8.5-3.09-11.75-6.09-3.02-18.79-10.56-35.73-11.42-3.37-.17-5.4,3.77-3.25,6.4.04.05.08.1.12.15,2.61,3.12,3.35,8.48,3.54,11.94.12,2.08-.4,4.13-1.45,5.91-7.82,13.2-47.16,74.91-140.11,149.52-.36.29-.06.86.37.71Z"/><path class="cls-4" d="m589.33,493.08c-.22.03-.39.21-.4.43-.06,1.31-.33,5.69-1.34,8.89-1.08,3.42-23.72,35.98-28.26,42.49-.25.36.1.83.51.68,5.44-1.93,26.55-9.93,36.92-21.53.22-.24.6-.19.73.11,1.63,3.71,10.33,22.28,19.14,17.76,9.78-5.02,18.51-16.11,9.93-19.46-8.58-3.34-27.69-5.02-19.87-8.51s12.19-8.36,9.93-11.55c-2.23-3.16-15.95-10.62-27.31-9.32Z"/><path class="cls-4" d="m590.65,541.73c-.22.03-.39.21-.4.43-.06,1.31-.33,5.69-1.34,8.89-1.08,3.42-23.72,35.98-28.26,42.49-.25.36.1.83.51.68,5.44-1.93,26.55-9.93,36.92-21.53.22-.24.6-.19.73.11,1.63,3.71,10.33,22.28,19.14,17.76,9.78-5.02,18.51-16.11,9.93-19.46s-27.69-5.02-19.87-8.51,12.19-8.36,9.93-11.55-15.95-10.62-27.31-9.32Z"/><path class="cls-4" d="m478.61,500.4c-.22.03-.39.21-.4.43-.06,1.31-.33,5.69-1.34,8.89-1.08,3.42-23.72,35.98-28.26,42.49-.25.36.1.83.51.68,5.44-1.93,26.55-9.93,36.92-21.53.22-.24.6-.19.73.11,1.63,3.71,10.33,22.28,19.14,17.76,9.78-5.02,18.51-16.11,9.93-19.46-8.58-3.34-27.69-5.02-19.87-8.51,7.83-3.5,12.19-8.36,9.93-11.55-2.23-3.16-15.95-10.62-27.31-9.32Z"/><path class="cls-4" d="m479.93,549.05c-.22.03-.39.21-.4.43-.06,1.31-.33,5.69-1.34,8.89-1.08,3.42-23.72,35.98-28.26,42.49-.25.36.1.83.51.68,5.44-1.93,26.55-9.93,36.92-21.53.22-.24.6-.19.73.11,1.63,3.71,10.33,22.28,19.14,17.76,9.78-5.02,18.51-16.11,9.93-19.46-8.58-3.34-27.69-5.02-19.87-8.51,7.83-3.5,12.19-8.36,9.93-11.55-2.23-3.16-15.95-10.62-27.31-9.32Z"/><polygon class="cls-1" points="441.4 839.66 365.36 1044.79 436.22 837.81 441.4 839.66 441.4 839.66"/><polygon class="cls-1" points="646.66 837.83 716.19 1045.27 641.48 839.64 646.66 837.83 646.66 837.83"/><polygon class="cls-1" points="802.71 703.13 982.22 813.14 799.9 707.85 802.71 703.13 802.71 703.13"/><polygon class="cls-1" points="836.48 498.64 1044.71 465.02 837.42 504.05 836.48 498.64 836.48 498.64"/><polygon class="cls-1" points="731.1 321.64 874.28 157.15 735.28 325.19 731.1 321.64 731.1 321.64"/><polygon class="cls-1" points="538.69 250.93 541.44 34.93 544.19 250.93 538.69 250.93 538.69 250.93"/><polygon class="cls-1" points="346.53 323.74 212.59 158.08 350.76 320.23 346.53 323.74 346.53 323.74"/><polygon class="cls-1" points="245.5 504.06 36.04 467.9 246.36 498.64 245.5 504.06 245.5 504.06"/><polygon class="cls-1" points="282.99 707.84 96.36 816.92 280.15 703.14 282.99 707.84 282.99 707.84"/><path class="cls-2" d="m541.44,250.93c0,11.53-185.32,79.64-192.88,70.9,7.56,8.75-91.04,181.23-102.63,179.52,11.59,1.71,45.83,197.84,35.64,204.14,10.19-6.3,161.26,121.72,157.24,133.25,4.02-11.53,201.24-11.53,205.26,0-4.02-11.53,147.05-139.55,157.24-133.25-10.19-6.3,24.05-202.44,35.64-204.14-11.59,1.71-110.19-170.78-102.63-179.52-7.56,8.75-192.88-59.37-192.88-70.9Z"/><path class="cls-3" d="m837.42,806.51c0-3.4-.31-6.72-.88-9.95-4.91,3.64-10.12,7.62-15.55,11.85-.98,21.44-18.5,38.53-39.98,38.53-2.17,0-4.3-.18-6.37-.52-5.02,4.3-9.99,8.61-14.83,12.88,6.55,2.68,13.7,4.18,21.2,4.18,31.15,0,56.4-25.5,56.4-56.96Z"/><path class="cls-3" d="m853.79,806.51c0-2.62-.14-5.21-.41-7.76-.45-4.29-1.27-8.47-2.42-12.51-4.38,2.99-9.23,6.46-14.42,10.32.56,3.23.88,6.55.88,9.95,0,31.46-25.25,56.96-56.4,56.96-7.5,0-14.65-1.49-21.2-4.18-4.57,4.02-9.03,8-13.32,11.9,3.1,1.69,6.32,3.18,9.66,4.41,5.45,2,11.21,3.36,17.18,3.99,2.53.27,5.09.41,7.68.41s5.16-.14,7.68-.41c5.97-.63,11.72-1.99,17.18-3.99,20.19-7.41,36.21-23.59,43.55-43.98,1.98-5.51,3.33-11.32,3.95-17.35.27-2.55.41-5.14.41-7.76Z"/><path class="cls-3" d="m781.02,846.94c21.48,0,39-17.08,39.98-38.53-14.63,11.41-30.75,24.65-46.35,38.01,2.08.34,4.2.52,6.37.52Z"/><path class="cls-3" d="m853.38,814.27c-.63,6.03-1.97,11.84-3.95,17.35,3.76-.8,7.65-1.22,11.64-1.22s7.88.42,11.64,1.22c-1.98-5.51-3.33-11.32-3.95-17.35-2.53-.27-5.09-.41-7.68-.41s-5.16.14-7.68.41Z"/><path class="cls-3" d="m853.38,798.75c2.53.27,5.09.41,7.68.41s5.16-.14,7.68-.41c.63-6.03,1.97-11.84,3.95-17.35-3.76.8-7.65,1.22-11.64,1.22-1.47,0-2.92-.08-4.37-.19-1.81,1.16-3.72,2.43-5.74,3.81,1.15,4.04,1.97,8.21,2.42,12.51Z"/><path class="cls-3" d="m872.71,781.41c.73-2.04,1.58-4.02,2.48-5.96l-1.18-.7c-1.93-1.15-8.22,1.86-17.3,7.7,1.44.11,2.89.19,4.37.19,3.99,0,7.88-.42,11.64-1.22Z"/><path class="cls-3" d="m853.38,798.75c.27,2.55.41,5.14.41,7.76s-.14,5.21-.41,7.76c2.53-.27,5.09-.41,7.68-.41s5.16.14,7.68.41c-.27-2.55-.41-5.14-.41-7.76s.14-5.21.41-7.76c-2.53.27-5.09.41-7.68.41s-5.16-.14-7.68-.41Z"/><path class="cls-3" d="m228.35,814.27c-.27-2.55-.41-5.14-.41-7.76s.14-5.21.41-7.76c-2.53.27-5.09.41-7.68.41s-5.16-.14-7.68-.41c.27,2.55.41,5.14.41,7.76s-.14,5.21-.41,7.76c2.53-.27,5.09-.41,7.68-.41s5.16.14,7.68.41Z"/><path class="cls-3" d="m300.71,863.47c-31.15,0-56.4-25.5-56.4-56.96,0-3.17.27-6.27.76-9.3-5.19-3.86-10.06-7.37-14.46-10.39-1.06,3.86-1.84,7.84-2.27,11.94-.27,2.55-.41,5.14-.41,7.76s.14,5.21.41,7.76c.63,6.03,1.97,11.84,3.95,17.35,7.34,20.39,23.36,36.57,43.55,43.98,5.45,2,11.21,3.36,17.18,3.99,2.53.27,5.09.41,7.68.41s5.16-.14,7.68-.41c5.97-.63,11.72-1.99,17.18-3.99,3.12-1.15,6.14-2.53,9.04-4.08-4.31-3.91-8.79-7.92-13.38-11.96-6.36,2.51-13.28,3.91-20.52,3.91Z"/><path class="cls-3" d="m220.66,813.86c-2.6,0-5.16.14-7.68.41-.63,6.03-1.97,11.84-3.95,17.35,3.76-.8,7.65-1.22,11.64-1.22s7.88.42,11.64,1.22c-1.98-5.51-3.33-11.32-3.95-17.35-2.53-.27-5.09-.41-7.68-.41Z"/><path class="cls-3" d="m851.33,140.88c-.38-1.43-.79-2.85-1.25-4.24-4.33-.06-10.78-1.08-18.89-2.88,3.72,7.31,5.92,15.54,6.19,24.26l13.95-17.14Z"/><path class="cls-3" d="m836.94,314.12c-1.6-12.54-2.57-12.93-10.88-21.54,4.04,9.54,4.57,9.25,10.88,21.54Z"/><path class="cls-3" d="m821.39,281.7c8.32,8.61,13.94,19.87,15.54,32.42,4.36,8.5,9.17,17.53,14.24,26.8,1.03-3.79,1.79-7.69,2.21-11.7.27-2.55.41-5.14.41-7.76s-.14-5.21-.41-7.76c-.63-6.03-1.97-11.84-3.95-17.35-5.92-16.45-17.5-30.16-32.35-38.73l-1.68,1.98c-1.62,1.92.84,10.09,6,22.11Z"/><path class="cls-3" d="m228.35,798.75c.43-4.09,1.21-8.07,2.27-11.94-2.29-1.57-4.44-3.01-6.47-4.31-1.15.07-2.31.12-3.49.12-3.99,0-7.88-.42-11.64-1.22,1.98,5.51,3.33,11.32,3.95,17.35,2.53.27,5.09.41,7.68.41s5.16-.14,7.68-.41Z"/><path class="cls-3" d="m831.19,133.76c-7.72-1.71-16.93-4.12-27.2-7.08,10.31,7.31,17.06,19.4,17.06,33.09,0,22.32-17.92,40.42-40.03,40.42s-40.03-18.1-40.03-40.42,17.34-39.82,38.95-40.39c-8.68-2.75-17.79-5.74-27.14-8.91-16.84,9.85-28.18,28.24-28.18,49.31,0,31.46,25.25,56.96,56.4,56.96,3.13,0,6.19-.27,9.19-.76l47.17-57.94c-.26-8.72-2.46-16.95-6.19-24.26Z"/><ellipse class="cls-3" cx="781.02" cy="159.77" rx="7.28" ry="7.35"/><path class="cls-3" d="m757.37,159.77c0,13.19,10.59,23.89,23.65,23.89s23.65-10.69,23.65-23.89-10.59-23.89-23.65-23.89-23.65,10.69-23.65,23.89Zm30.93,0c0,4.06-3.26,7.35-7.28,7.35s-7.28-3.29-7.28-7.35,3.26-7.35,7.28-7.35,7.28,3.29,7.28,7.35Z"/><path class="cls-3" d="m740.99,159.77c0,22.32,17.92,40.42,40.03,40.42s40.03-18.1,40.03-40.42c0-13.69-6.75-25.78-17.06-33.09-7.5-2.16-15.57-4.62-24.05-7.3-21.61.58-38.95,18.43-38.95,40.39Zm63.68,0c0,13.19-10.59,23.89-23.65,23.89s-23.65-10.69-23.65-23.89,10.59-23.89,23.65-23.89,23.65,10.69,23.65,23.89Z"/><path class="cls-3" d="m224.15,782.51c-9.15-5.89-15.47-8.92-17.41-7.77l-.4.24c.99,2.09,1.9,4.23,2.69,6.43,3.76.8,7.65,1.22,11.64,1.22,1.17,0,2.33-.05,3.49-.12Z"/><path class="cls-3" d="m300.71,863.47c7.24,0,14.16-1.39,20.52-3.91-4.9-4.31-9.92-8.67-14.99-13.02-1.81.25-3.65.39-5.53.39-21.2,0-38.55-16.65-39.93-37.72-5.48-4.28-10.74-8.31-15.71-12.01-.49,3.03-.76,6.13-.76,9.3,0,31.46,25.25,56.96,56.4,56.96Z"/><path class="cls-3" d="m300.71,846.94c1.88,0,3.72-.14,5.53-.39-15.28-13.09-31.06-26.06-45.45-37.32,1.38,21.06,18.72,37.72,39.93,37.72Z"/><path class="cls-3" d="m261.41,280.63c4.84-11.42,7.11-19.17,5.54-21.03l-1.88-2.22c-15.05,8.56-26.79,22.37-32.76,38.97-1.98,5.51-3.33,11.32-3.95,17.35-.27,2.55-.41,5.14-.41,7.76s.14,5.21.41,7.76c.44,4.28,1.27,8.43,2.41,12.46,4.91-8.96,9.58-17.71,13.85-25.98,1.36-13.71,7.55-25.97,16.81-35.06Z"/><path class="cls-3" d="m244.6,315.69c6.92-13.42,8.47-15.41,12.52-24.95-9.26,9.09-11.15,11.24-12.52,24.95Z"/><path class="cls-3" d="m209.03,831.62c1.98-5.51,3.33-11.32,3.95-17.35.27-2.55.41-5.14.41-7.76s-.14-5.21-.41-7.76c-.63-6.03-1.97-11.84-3.95-17.35-.79-2.2-1.7-4.33-2.69-6.43l-14.17,8.45c3.1,7.06,4.84,14.86,4.84,23.08,0,25.94-17.18,47.82-40.67,54.7,4.94,3.64,10.12,7.55,15.49,11.68,17.17-8.25,30.64-23.07,37.19-41.27Z"/><path class="cls-3" d="m275.85,875.6c-20.19-7.41-36.21-23.59-43.55-43.98-3.76-.8-7.65-1.22-11.64-1.22s-7.88.42-11.64,1.22c-6.55,18.2-20.02,33.02-37.19,41.27,3.09,2.37,6.24,4.82,9.44,7.33,3.34-18.92,19.7-33.29,39.39-33.29,22.11,0,40.03,18.1,40.03,40.42,0,16.94-10.32,31.43-24.95,37.45,1.32,1.12,2.64,2.25,3.95,3.37,8.55-13.26,21.21-23.58,36.17-29.07.79-3.79,1.21-7.72,1.21-11.75s-.42-7.96-1.21-11.75Z"/><path class="cls-3" d="m197.01,806.51c0-8.22-1.74-16.02-4.84-23.08l-14.23,8.49c1.74,4.53,2.7,9.44,2.7,14.59,0,22.32-17.92,40.42-40.03,40.42-1.67,0-3.31-.12-4.93-.32,6.16,4.11,13.12,9.04,20.65,14.59,23.49-6.88,40.67-28.75,40.67-54.7Z"/><path class="cls-3" d="m244.32,887.36c0-13.19-10.59-23.89-23.65-23.89s-23.65,10.69-23.65,23.89c0,2.08.29,4.08.78,6,7.15,5.76,14.44,11.74,21.75,17.82.37.02.74.06,1.12.06,13.06,0,23.65-10.69,23.65-23.89Zm-30.93,0c0-4.06,3.26-7.35,7.28-7.35s7.28,3.29,7.28,7.35-3.26,7.35-7.28,7.35-7.28-3.29-7.28-7.35Z"/><path class="cls-3" d="m180.64,725.67c0-6.52,1.54-12.67,4.25-18.12-.1-1.35-.22-2.74-.34-4.16-5.75,4.41-12.16,8-19.08,10.53-.79,3.79-1.21,7.72-1.21,11.75s.42,7.96,1.21,11.75c2.83,1.04,5.57,2.27,8.22,3.64l8.36-4.76c-.91-3.39-1.41-6.95-1.41-10.63Z"/><path class="cls-3" d="m197.01,887.36c0-13.19,10.59-23.89,23.65-23.89s23.65,10.69,23.65,23.89-10.59,23.89-23.65,23.89c-.38,0-.74-.04-1.12-.06,5.4,4.49,10.81,9.04,16.19,13.62,14.63-6.01,24.95-20.51,24.95-37.45,0-22.32-17.92-40.42-40.03-40.42-19.69,0-36.05,14.37-39.39,33.29,5.38,4.22,10.91,8.62,16.52,13.14-.49-1.92-.78-3.93-.78-6Z"/><ellipse class="cls-3" cx="220.66" cy="887.36" rx="7.28" ry="7.35"/><path class="cls-3" d="m140.61,620.94c-13.06,0-23.65,10.69-23.65,23.89s10.59,23.89,23.65,23.89,23.65-10.69,23.65-23.89-10.59-23.89-23.65-23.89Zm0,31.23c-4.02,0-7.28-3.29-7.28-7.35s3.26-7.35,7.28-7.35,7.28,3.29,7.28,7.35-3.26,7.35-7.28,7.35Z"/><path class="cls-3" d="m165.47,713.92c-5.45,2-11.21,3.36-17.18,3.99-.27,2.55-.41,5.14-.41,7.76s.14,5.21.41,7.76c5.97.63,11.72,1.99,17.18,3.99-.79-3.79-1.21-7.72-1.21-11.75s.42-7.96,1.21-11.75Z"/><ellipse class="cls-3" cx="140.61" cy="644.83" rx="7.28" ry="7.35"/><path class="cls-3" d="m140.61,685.25c-22.11,0-40.03-18.1-40.03-40.42s17.92-40.42,40.03-40.42c13.38,0,25.21,6.63,32.48,16.82-1.52-8.74-3.12-17.47-4.76-25.99-8.19-4.68-17.64-7.36-27.72-7.36-31.15,0-56.4,25.5-56.4,56.96s25.25,56.96,56.4,56.96c16.57,0,31.46-7.21,41.78-18.7-1-8.23-2.2-17.06-3.56-26.24-5.07,16.46-20.26,28.41-38.23,28.41Z"/><path class="cls-3" d="m140.61,604.41c-22.11,0-40.03,18.1-40.03,40.42s17.92,40.42,40.03,40.42c17.96,0,33.16-11.95,38.23-28.41-1.7-11.53-3.65-23.58-5.75-35.62-7.27-10.18-19.1-16.82-32.48-16.82Zm0,64.31c-13.06,0-23.65-10.69-23.65-23.89s10.59-23.89,23.65-23.89,23.65,10.69,23.65,23.89-10.59,23.89-23.65,23.89Z"/><path class="cls-3" d="m132.93,717.91c-5.97-.63-11.72-1.99-17.18-3.99.79,3.79,1.21,7.72,1.21,11.75s-.42,7.96-1.21,11.75c5.45-2,11.21-3.36,17.18-3.99.27-2.55.41-5.14.41-7.76s-.14-5.21-.41-7.76Z"/><path class="cls-3" d="m182.05,736.3l1.34-.76c2.45-1.39,2.72-12.04,1.5-27.99-2.71,5.45-4.25,11.61-4.25,18.12,0,3.68.5,7.24,1.41,10.63Z"/><path class="cls-3" d="m148.3,717.91c-2.53.27-5.09.41-7.68.41s-5.16-.14-7.68-.41c.27,2.55.41,5.14.41,7.76s-.14,5.21-.41,7.76c2.53-.27,5.09-.41,7.68-.41s5.16.14,7.68.41c-.27-2.55-.41-5.14-.41-7.76s.14-5.21.41-7.76Z"/><path class="cls-3" d="m710.01,952.14c.68-3.09,1.54-6.11,2.6-9.04-1.84.39-3.72.69-5.63.89l3.03,8.15Z"/><ellipse class="cls-3" cx="861.07" cy="887.36" rx="7.28" ry="7.35"/><path class="cls-3" d="m861.07,863.47c-13.06,0-23.65,10.69-23.65,23.89s10.59,23.89,23.65,23.89c.02,0,.04,0,.06,0,7.76-6.46,15.49-12.79,23.06-18.88.34-1.61.53-3.29.53-5,0-13.19-10.59-23.89-23.65-23.89Zm0,31.23c-4.02,0-7.28-3.29-7.28-7.35s3.26-7.35,7.28-7.35,7.28,3.29,7.28,7.35-3.26,7.35-7.28,7.35Z"/><path class="cls-3" d="m788.7,879.6c-2.53.27-5.09.41-7.68.41s-5.16-.14-7.68-.41c.27,2.55.41,5.14.41,7.76s-.14,5.21-.41,7.76c2.53-.27,5.09-.41,7.68-.41s5.16.14,7.68.41c-.27-2.55-.41-5.14-.41-7.76s.14-5.21.41-7.76Z"/><path class="cls-3" d="m773.33,879.6c-5.97-.63-11.72-1.99-17.18-3.99.79,3.79,1.21,7.72,1.21,11.75s-.42,7.96-1.21,11.75c5.45-2,11.21-3.36,17.18-3.99.27-2.55.41-5.14.41-7.76s-.14-5.21-.41-7.76Z"/><path class="cls-3" d="m805.88,875.6c-5.45,2-11.21,3.36-17.18,3.99-.27,2.55-.41,5.14-.41,7.76s.14,5.21.41,7.76c5.97.63,11.72,1.99,17.18,3.99-.79-3.79-1.21-7.72-1.21-11.75s.42-7.96,1.21-11.75Z"/><path class="cls-3" d="m756.16,875.6c-3.35-1.23-6.57-2.72-9.66-4.41-2.3,2.08-4.54,4.14-6.74,6.16.81,3.2,1.24,6.55,1.24,10,0,22.32-17.92,40.42-40.03,40.42,0,0,0,0-.01,0l6.03,16.21c1.9-.21,3.78-.5,5.63-.89,7.34-20.39,23.36-36.57,43.55-43.98.79-3.79,1.21-7.72,1.21-11.75s-.42-7.96-1.21-11.75Z"/><path class="cls-3" d="m325.57,875.6c-5.45,2-11.21,3.36-17.18,3.99-.27,2.55-.41,5.14-.41,7.76s.14,5.21.41,7.76c5.97.63,11.72,1.99,17.18,3.99-.79-3.79-1.21-7.72-1.21-11.75s.42-7.96,1.21-11.75Z"/><path class="cls-3" d="m369.13,943.09c.87,2.42,1.59,4.9,2.21,7.43l2.47-6.66c-1.58-.2-3.15-.44-4.69-.77Z"/><path class="cls-3" d="m308.4,879.6c-2.53.27-5.09.41-7.68.41s-5.16-.14-7.68-.41c.27,2.55.41,5.14.41,7.76s-.14,5.21-.41,7.76c2.53-.27,5.09-.41,7.68-.41s5.16.14,7.68.41c-.27-2.55-.41-5.14-.41-7.76s.14-5.21.41-7.76Z"/><path class="cls-3" d="m293.03,879.6c-5.97-.63-11.72-1.99-17.18-3.99.79,3.79,1.21,7.72,1.21,11.75s-.42,7.96-1.21,11.75c5.45-2,11.21-3.36,17.18-3.99.27-2.55.41-5.14.41-7.76s-.14-5.21-.41-7.76Z"/><path class="cls-3" d="m379.8,927.75c-21.66-.52-39.06-18.4-39.06-40.4,0-3.18.38-6.28,1.06-9.25-2.33-2.16-4.73-4.36-7.19-6.58-2.91,1.55-5.92,2.93-9.04,4.08-.79,3.79-1.21,7.72-1.21,11.75s.42,7.96,1.21,11.75c20.19,7.41,36.21,23.59,43.55,43.98,1.54.33,3.1.57,4.69.77l5.99-16.11Z"/><path class="cls-3" d="m523.88,931.54c2.09,3.67,3.9,7.52,5.35,11.56,3.76.8,7.65,1.22,11.64,1.22s7.88-.42,11.64-1.22c1.45-4.03,3.25-7.88,5.34-11.54-11.24-.14-22.71-.14-33.96-.01Z"/><path class="cls-3" d="m529.23,943.09c1.98,5.5,3.33,11.32,3.95,17.35,2.53.27,5.09.41,7.68.41s5.16-.14,7.68-.41c.63-6.03,1.97-11.84,3.95-17.35-3.76.8-7.65,1.22-11.64,1.22s-7.88-.42-11.64-1.22Z"/><path class="cls-3" d="m533.18,960.44c.27,2.55.41,5.14.41,7.76s-.14,5.21-.41,7.76c2.53-.27,5.09-.41,7.68-.41s5.16.14,7.68.41c-.27-2.55-.41-5.14-.41-7.76s.14-5.21.41-7.76c-2.53.27-5.09.41-7.68.41s-5.16-.14-7.68-.41Z"/><path class="cls-3" d="m533.18,975.96c-.63,6.03-1.97,11.84-3.95,17.35,3.76-.8,7.65-1.22,11.64-1.22s7.88.42,11.64,1.22c-1.98-5.5-3.33-11.32-3.95-17.35-2.53-.27-5.09-.41-7.68-.41s-5.16.14-7.68.41Z"/><path class="cls-3" d="m349.09,215.91c12.97-3.91,27.7-8.76,42.93-14.09-3.57-1.06-7.35-1.63-11.26-1.63-12.89,0-24.35,6.16-31.67,15.72Z"/><path class="cls-3" d="m388.45,152.01c.63-6.03,1.97-11.84,3.95-17.35-3.76.8-7.65,1.22-11.64,1.22s-7.88-.42-11.64-1.22c1.98,5.51,3.33,11.32,3.95,17.35,2.53.27,5.09.41,7.68.41s5.16-.14,7.68-.41Z"/><ellipse class="cls-3" cx="300.71" cy="159.77" rx="7.28" ry="7.35"/><path class="cls-3" d="m388.45,167.53c-.27-2.55-.41-5.14-.41-7.76s.14-5.21.41-7.76c-2.53.27-5.09.41-7.68.41s-5.16-.14-7.68-.41c.27,2.55.41,5.14.41,7.76s-.14,5.21-.41,7.76c2.53-.27,5.09-.41,7.68-.41s5.16.14,7.68.41Z"/><path class="cls-3" d="m392.4,184.87c-1.98-5.51-3.33-11.32-3.95-17.35-2.53-.27-5.09-.41-7.68-.41s-5.16.14-7.68.41c-.63,6.03-1.97,11.84-3.95,17.35,3.76-.8,7.65-1.22,11.64-1.22s7.88.42,11.64,1.22Z"/><path class="cls-3" d="m380.77,200.19c3.91,0,7.69.58,11.26,1.63,2.45-.86,4.91-1.73,7.38-2.61-2.83-4.48-5.19-9.28-7.01-14.34-3.76-.8-7.65-1.22-11.64-1.22s-7.88.42-11.64,1.22c-4.5,12.51-12.28,23.42-22.27,31.71.74-.22,1.49-.44,2.24-.67,7.32-9.56,18.78-15.72,31.67-15.72Z"/><path class="cls-3" d="m700.97,200.19c-3.01,0-5.94.35-8.77.98,13.66,4.8,26.96,9.23,39,12.96-7.34-8.54-18.16-13.95-30.23-13.95Z"/><path class="cls-3" d="m708.65,167.53c-.27-2.55-.41-5.14-.41-7.76s.14-5.21.41-7.76c-2.53.27-5.09.41-7.68.41s-5.16-.14-7.68-.41c.27,2.55.41,5.14.41,7.76s-.14,5.21-.41,7.76c2.53-.27,5.09-.41,7.68-.41s5.16.14,7.68.41Z"/><path class="cls-3" d="m712.61,184.87c-1.98-5.51-3.33-11.32-3.95-17.35-2.53-.27-5.09-.41-7.68-.41s-5.16.14-7.68.41c-.63,6.03-1.97,11.84-3.95,17.35,3.76-.8,7.65-1.22,11.64-1.22s7.88.42,11.64,1.22Z"/><path class="cls-3" d="m708.65,152.01c.63-6.03,1.97-11.84,3.95-17.35-3.76.8-7.65,1.22-11.64,1.22s-7.88-.42-11.64-1.22c1.98,5.51,3.33,11.32,3.95,17.35,2.53.27,5.09.41,7.68.41s5.16-.14,7.68-.41Z"/><path class="cls-3" d="m700.97,200.19c12.08,0,22.89,5.41,30.23,13.95.44.14.87.27,1.3.4-8.85-8-15.76-18.16-19.9-29.67-3.76-.8-7.65-1.22-11.64-1.22s-7.88.42-11.64,1.22c-1.65,4.59-3.76,8.95-6.24,13.06,3.05,1.09,6.09,2.18,9.12,3.24,2.82-.64,5.75-.98,8.77-.98Z"/><path class="cls-3" d="m300.71,183.65c13.06,0,23.65-10.69,23.65-23.89s-10.59-23.89-23.65-23.89-23.65,10.69-23.65,23.89,10.59,23.89,23.65,23.89Zm0-31.23c4.02,0,7.28,3.29,7.28,7.35s-3.26,7.35-7.28,7.35-7.28-3.29-7.28-7.35,3.26-7.35,7.28-7.35Z"/><path class="cls-3" d="m148.3,394.54c-2.53.27-5.09.41-7.68.41s-5.16-.14-7.68-.41c.27,2.55.41,5.14.41,7.76s-.14,5.21-.41,7.76c2.53-.27,5.09-.41,7.68-.41s5.16.14,7.68.41c-.27-2.55-.41-5.14-.41-7.76s.14-5.21.41-7.76Z"/><path class="cls-3" d="m132.93,394.54c-5.97-.63-11.72-1.99-17.18-3.99.79,3.79,1.21,7.72,1.21,11.75s-.42,7.96-1.21,11.75c5.45-2,11.21-3.36,17.18-3.99.27-2.55.41-5.14.41-7.76s-.14-5.21-.41-7.76Z"/><path class="cls-3" d="m165.47,390.54c-5.45,2-11.21,3.36-17.18,3.99-.27,2.55-.41,5.14-.41,7.76s.14,5.21.41,7.76c5.97.63,11.72,1.99,17.18,3.99-.79-3.79-1.21-7.72-1.21-11.75s.42-7.96,1.21-11.75Z"/><path class="cls-3" d="m180.64,402.3c0-21.91,17.26-39.74,38.8-40.39,3.04-5.35,6.05-10.7,8.99-16.01-2.54-.36-5.13-.56-7.76-.56-3.99,0-7.88.42-11.64,1.22-7.34,20.39-23.36,36.57-43.55,43.98-.79,3.79-1.21,7.72-1.21,11.75s.42,7.96,1.21,11.75c6.08,2.23,11.77,5.27,16.98,8.97.7-1.07,1.4-2.15,2.11-3.25-2.51-5.29-3.92-11.21-3.92-17.47Z"/><path class="cls-3" d="m228.35,329.21c-.27-2.55-.41-5.14-.41-7.76s.14-5.21.41-7.76c-2.53.27-5.09.41-7.68.41s-5.16-.14-7.68-.41c.27,2.55.41,5.14.41,7.76s-.14,5.21-.41,7.76c2.53-.27,5.09-.41,7.68-.41s5.16.14,7.68.41Z"/><path class="cls-3" d="m228.35,313.69c.63-6.03,1.97-11.84,3.95-17.35-3.76.8-7.65,1.22-11.64,1.22s-7.88-.42-11.64-1.22c1.98,5.51,3.33,11.32,3.95,17.35,2.53.27,5.09.41,7.68.41s5.16-.14,7.68-.41Z"/><path class="cls-3" d="m140.61,523.56c-15.34,0-28.65-8.71-35.37-21.5l-18.82-3.16c6.77,23.79,28.46,41.19,54.19,41.19,5.21,0,10.25-.73,15.04-2.06-1.62-6.09-3.18-11.43-4.66-15.85-3.31.89-6.79,1.38-10.37,1.38Z"/><path class="cls-3" d="m228.43,345.9c.78-1.41,1.56-2.82,2.32-4.22-1.14-4.02-1.96-8.18-2.41-12.46-2.53-.27-5.09-.41-7.68-.41s-5.16.14-7.68.41c-.63,6.03-1.97,11.84-3.95,17.35,3.76-.8,7.65-1.22,11.64-1.22,2.64,0,5.22.2,7.76.56Z"/><path class="cls-3" d="m140.61,442.72c8.48,0,16.33,2.67,22.8,7.21,2.88-3.56,6.2-8.04,9.82-13.23-9.21-6.61-20.46-10.51-32.63-10.51-18.24,0-34.44,8.75-44.75,22.31l19.12,3.61c6.94-5.85,15.88-9.38,25.63-9.38Z"/><path class="cls-3" d="m232.3,296.35c5.98-16.6,17.71-30.41,32.76-38.97l-5.64-6.65c-4.45,17.43-20.11,30.31-38.76,30.31-22.11,0-40.03-18.1-40.03-40.42,0-20.99,15.84-38.23,36.1-40.23l-9.46-11.15c-6.79,15.64-18.81,28.43-33.83,36.12-2.82,5.78-5.87,11.87-9.11,18.2.15,3,.54,5.95,1.13,8.81,20.19,7.41,36.21,23.59,43.55,43.98,3.76.8,7.65,1.22,11.64,1.22s7.88-.42,11.64-1.22Z"/><path class="cls-3" d="m114.98,452.1l37.83,7.13c1.85.35,5.58-3.1,10.6-9.3-6.47-4.54-14.33-7.21-22.8-7.21-9.75,0-18.69,3.53-25.63,9.38Z"/><path class="cls-3" d="m143.75,508.52l-38.51-6.46c6.72,12.79,20.04,21.5,35.37,21.5,3.59,0,7.06-.48,10.37-1.38-2.79-8.31-5.28-13.34-7.23-13.67Z"/><path class="cls-3" d="m160.6,250.79c1.65.47,3.28.99,4.87,1.57-.6-2.86-.98-5.81-1.13-8.81-1.22,2.38-2.47,4.8-3.74,7.24Z"/><path class="cls-3" d="m265.02,178.06c-2.77-5.49-4.33-11.7-4.33-18.29,0-12.53,5.65-23.73,14.51-31.15-9.67,2.68-18.2,4.78-25.18,6.16-2.73,5.65-4.56,11.82-5.31,18.32l20.31,24.95Z"/><path class="cls-3" d="m231.79,136.22c2.98.9,9.35.32,18.23-1.44-2.74,5.64-4.57,11.82-5.31,18.32l-13.16-16.16"/><path class="cls-3" d="m340.74,159.77c0,22.32-17.92,40.42-40.03,40.42-9.32,0-17.89-3.22-24.69-8.62l20.33,24.97c1.44.11,2.89.19,4.36.19,31.15,0,56.4-25.5,56.4-56.96,0-20.41-10.64-38.31-26.62-48.36-8.66,2.92-17.09,5.68-25.14,8.22,19.92,2.32,35.39,19.4,35.39,40.14Z"/><path class="cls-3" d="m300.71,200.19c22.11,0,40.03-18.1,40.03-40.42,0-20.74-15.47-37.82-35.39-40.14-10.84,3.43-21,6.47-30.15,9-8.86,7.41-14.51,18.61-14.51,31.15,0,6.58,1.57,12.79,4.33,18.29l11,13.52c6.8,5.39,15.37,8.62,24.69,8.62Zm0-64.31c13.06,0,23.65,10.69,23.65,23.89s-10.59,23.89-23.65,23.89-23.65-10.69-23.65-23.89,10.59-23.89,23.65-23.89Z"/><path class="cls-3" d="m207.28,189.23l-11.16-13.16c-1.13,4.2-3.82,6.9-5.82,10.65-3.29,9.53-9.2,22.93-16.85,38.63,15.02-7.69,27.04-20.48,33.83-36.12Z"/><path class="cls-3" d="m140.61,345.34c13.06,0,23.65-10.69,23.65-23.89s-10.59-23.89-23.65-23.89c-2,0-3.93.28-5.78.75-5.56,9.9-11.26,19.84-16.97,29.61,2.8,10.04,11.91,17.41,22.75,17.41Zm0-31.23c4.02,0,7.28,3.29,7.28,7.35s-3.26,7.35-7.28,7.35-7.28-3.29-7.28-7.35,3.26-7.35,7.28-7.35Z"/><path class="cls-3" d="m148.3,556.22c-.27,2.55-.41,5.14-.41,7.76s.14,5.21.41,7.76c5.56.59,10.93,1.84,16.05,3.62-1.57-7.49-3.15-14.64-4.71-21.3-3.68,1-7.46,1.75-11.34,2.16Z"/><ellipse class="cls-3" cx="140.61" cy="321.45" rx="7.28" ry="7.35"/><path class="cls-3" d="m148.3,556.22c-2.53.27-5.09.41-7.68.41s-5.16-.14-7.68-.41c.27,2.55.41,5.14.41,7.76s-.14,5.21-.41,7.76c2.53-.27,5.09-.41,7.68-.41s5.16.14,7.68.41c-.27-2.55-.41-5.14-.41-7.76s.14-5.21.41-7.76Z"/><path class="cls-3" d="m140.61,749.56c-25.74,0-44.05,15.5-50.82,39.3l65.53-37.33c-4.69-1.28-9.62-1.97-14.71-1.97Z"/><path class="cls-3" d="m192.54,171.85c1.42,1.67.5,6.94-2.24,14.87,2-3.75,3.59-7.76,4.72-11.95l-2.48-2.92Z"/><path class="cls-3" d="m140.61,361.88c22.11,0,40.03-18.1,40.03-40.42,0-21.06-15.95-38.35-36.31-40.24-3.1,5.66-6.28,11.37-9.49,17.11,1.85-.47,3.78-.75,5.78-.75,13.06,0,23.65,10.69,23.65,23.89s-10.59,23.89-23.65,23.89c-10.84,0-19.95-7.37-22.75-17.41-3.32,5.68-6.65,11.3-9.95,16.82,7.25,10.36,19.19,17.13,32.7,17.13Z"/><path class="cls-3" d="m300.71,927.78c22.11,0,40.03,18.1,40.03,40.42,0,14.85-7.94,27.83-19.76,34.85,4.38,4.56,8.17,8.72,11.26,12.38,15.01-10.24,24.87-27.57,24.87-47.23,0-31.46-25.25-56.96-56.4-56.96-20.59,0-38.6,11.15-48.44,27.79,4.27,3.72,8.5,7.43,12.64,11.1,6.57-13.25,20.13-22.35,35.8-22.35Z"/><path class="cls-3" d="m180.64,321.45c0,22.32-17.92,40.42-40.03,40.42-13.51,0-25.45-6.77-32.7-17.13-3.05,5.09-6.08,10.09-9.07,14.97,10.32,11.48,25.21,18.69,41.77,18.69,31.15,0,56.4-25.5,56.4-56.96,0-27.28-18.99-50.06-44.34-55.64-2.71,5.06-5.5,10.21-8.34,15.4,20.36,1.89,36.31,19.18,36.31,40.24Z"/><path class="cls-3" d="m620.92,1025.16c22.8,0,42.43-13.67,51.32-33.33l-17.73-50.77c-.45-1.29-2.68-2.93-7.48-3.48,8.52,7.41,13.92,18.38,13.92,30.62,0,22.32-17.92,40.42-40.03,40.42s-40.03-18.1-40.03-40.42c0-15.21,8.32-28.45,20.62-35.35-7.59-.39-15.68-.69-24.08-.92-8.07,9.85-12.91,22.49-12.91,36.27,0,31.46,25.25,56.96,56.4,56.96Z"/><path class="cls-3" d="m941.12,846.94c1.26,0,2.51-.07,3.74-.18,12.88-8.61,22.31-13.68,26.32-13.57.09-.1.18-.2.26-.31l-14.5-8.65c-4.19,3.82-9.73,6.17-15.83,6.17-13.06,0-23.65-10.69-23.65-23.89,0-1.88.24-3.7.64-5.46l-14.51-8.65c-1.62,4.39-2.51,9.15-2.51,14.11,0,22.32,17.92,40.42,40.03,40.42Z"/><ellipse class="cls-3" cx="460.82" cy="968.2" rx="7.28" ry="7.35"/><path class="cls-3" d="m460.82,992.09c13.06,0,23.65-10.69,23.65-23.89s-10.59-23.89-23.65-23.89-23.65,10.69-23.65,23.89,10.59,23.89,23.65,23.89Zm0-31.23c4.02,0,7.28,3.29,7.28,7.35s-3.26,7.35-7.28,7.35-7.28-3.29-7.28-7.35,3.26-7.35,7.28-7.35Z"/><path class="cls-3" d="m597.27,968.2c0,13.19,10.59,23.89,23.65,23.89s23.65-10.69,23.65-23.89-10.59-23.89-23.65-23.89-23.65,10.69-23.65,23.89Zm23.65-7.35c4.02,0,7.28,3.29,7.28,7.35s-3.26,7.35-7.28,7.35-7.28-3.29-7.28-7.35,3.26-7.35,7.28-7.35Z"/><path class="cls-3" d="m580.89,968.2c0,22.32,17.92,40.42,40.03,40.42s40.03-18.1,40.03-40.42c0-12.25-5.4-23.21-13.92-30.62-9.03-2.13-25.49-3.71-45.52-4.73-12.29,6.9-20.62,20.14-20.62,35.35Zm63.68,0c0,13.19-10.59,23.89-23.65,23.89s-23.65-10.69-23.65-23.89,10.59-23.89,23.65-23.89,23.65,10.69,23.65,23.89Z"/><path class="cls-3" d="m324.37,968.2c0-13.19-10.59-23.89-23.65-23.89-10.87,0-20,7.41-22.77,17.5,11.29,10.23,21.73,20.01,30.75,28.85,9.13-3.31,15.67-12.1,15.67-22.46Zm-23.65,7.35c-4.02,0-7.28-3.29-7.28-7.35s3.26-7.35,7.28-7.35,7.28,3.29,7.28,7.35-3.26,7.35-7.28,7.35Z"/><path class="cls-3" d="m420.79,968.2c0,22.32,17.92,40.42,40.03,40.42s40.03-18.1,40.03-40.42c0-15.24-8.36-28.51-20.7-35.4-19.47.97-35.67,2.46-45.09,4.47-8.72,7.41-14.27,18.52-14.27,30.93Zm40.03-23.89c13.06,0,23.65,10.69,23.65,23.89s-10.59,23.89-23.65,23.89-23.65-10.69-23.65-23.89,10.59-23.89,23.65-23.89Z"/><path class="cls-3" d="m340.74,968.2c0-22.32-17.92-40.42-40.03-40.42-15.67,0-29.23,9.1-35.8,22.35,4.44,3.94,8.8,7.84,13.03,11.68,2.77-10.08,11.9-17.5,22.77-17.5,13.06,0,23.65,10.69,23.65,23.89,0,10.36-6.54,19.15-15.67,22.46,4.47,4.38,8.59,8.53,12.29,12.39,11.82-7.03,19.76-20,19.76-34.85Z"/><path class="cls-3" d="m500.84,968.2c0,22.32-17.92,40.42-40.03,40.42s-40.03-18.1-40.03-40.42c0-12.41,5.55-23.51,14.27-30.93-6.66.85-8.32,2.37-8.81,3.79l-17.3,49.53c8.61,20.33,28.59,34.57,51.87,34.57,31.15,0,56.4-25.5,56.4-56.96,0-13.79-4.86-26.44-12.94-36.3-8.41.22-16.52.52-24.13.9,12.34,6.89,20.7,20.15,20.7,35.4Z"/><ellipse class="cls-3" cx="300.71" cy="968.2" rx="7.28" ry="7.35"/><path class="cls-3" d="m884.37,398.37c4.48,7.35,8.87,14.36,13.05,20.84,2.35-5.15,3.67-10.87,3.67-16.91,0-21.7-16.93-39.4-38.18-40.37,4.08,7.17,8.23,14.33,12.37,21.32,4.74,3.61,8.08,8.96,9.09,15.13Z"/><path class="cls-3" d="m875.28,383.24c3.05,5.16,6.09,10.21,9.09,15.13-1.01-6.16-4.35-11.52-9.09-15.13Z"/><path class="cls-3" d="m231.79,136.22c-.72-.22-1.25-.52-1.56-.9l1.33,1.63"/><ellipse class="cls-3" cx="620.92" cy="968.2" rx="7.28" ry="7.35"/><path class="cls-3" d="m861.07,281.03c22.11,0,40.03-18.1,40.03-40.42,0-20.79-15.55-37.91-35.54-40.16l-16.78,19.79c3.59-2.21,7.79-3.51,12.3-3.51,13.06,0,23.65,10.69,23.65,23.89s-10.59,23.89-23.65,23.89-23.65-10.69-23.65-23.89c0-3.22.64-6.28,1.78-9.09l-16.74,19.74c4.63,17.15,20.16,29.77,38.61,29.77Z"/><line class="cls-3" x1="839.2" y1="231.53" x2="848.77" y2="220.24"/><path class="cls-3" d="m935.99,811.72l-17.88-10.67c-.41,1.76-.64,3.58-.64,5.46,0,13.19,10.59,23.89,23.65,23.89,6.09,0,11.63-2.35,15.83-6.17l-17.98-10.73c-1.13-.36-2.15-.95-2.97-1.77Z"/><path class="cls-3" d="m935.99,811.72c.82.82,1.84,1.42,2.97,1.77l-2.97-1.77Z"/><path class="cls-3" d="m972.49,833.5l-1.05-.62c-.09.1-.18.21-.26.31.53.02.97.12,1.31.32Z"/><path class="cls-3" d="m460.82,119.35c-22.11,0-40.03,18.1-40.03,40.42,0,10.66,4.09,20.35,10.77,27.57,5.96-2.28,11.82-4.58,17.52-6.85-7.12-4.12-11.92-11.85-11.92-20.72,0-13.19,10.59-23.89,23.65-23.89s23.65,10.69,23.65,23.89c0,2.12-.3,4.17-.82,6.13,6.48-2.93,12.27-5.69,17.14-8.21-1.07-21.36-18.56-38.35-39.97-38.35Z"/><path class="cls-3" d="m420.79,159.77c0-22.32,17.92-40.42,40.03-40.42s38.9,16.99,39.97,38.35c7.52-3.89,12.87-7.2,15.23-9.62-5.34-25.84-28.03-45.26-55.2-45.26-31.15,0-56.4,25.5-56.4,56.96,0,12.6,4.06,24.24,10.92,33.67,5.45-2.01,10.87-4.05,16.23-6.1-6.68-7.22-10.77-16.91-10.77-27.57Z"/><path class="cls-3" d="m837.42,240.61c0,13.19,10.59,23.89,23.65,23.89s23.65-10.69,23.65-23.89-10.59-23.89-23.65-23.89c-4.51,0-8.71,1.3-12.3,3.51l-9.57,11.29c-1.14,2.8-1.78,5.87-1.78,9.09Zm23.65-7.35c4.02,0,7.28,3.29,7.28,7.35s-3.26,7.35-7.28,7.35-7.28-3.29-7.28-7.35,3.26-7.35,7.28-7.35Z"/><ellipse class="cls-3" cx="460.82" cy="159.77" rx="7.28" ry="7.35"/><path class="cls-3" d="m484.47,159.77c0-13.19-10.59-23.89-23.65-23.89s-23.65,10.69-23.65,23.89c0,8.88,4.81,16.61,11.92,20.72,12.65-5.05,24.44-10.02,34.56-14.59.52-1.96.82-4.01.82-6.13Zm-23.65,7.35c-4.02,0-7.28-3.29-7.28-7.35s3.26-7.35,7.28-7.35,7.28,3.29,7.28,7.35-3.26,7.35-7.28,7.35Z"/><path class="cls-3" d="m620.92,102.81c-23.52,0-43.66,14.54-52.13,35.2l-.08,7.7c-.02,2.03,4.58,5.45,12.41,9.75,2.13-20.3,19.13-36.12,39.8-36.12,22.11,0,40.03,18.1,40.03,40.42,0,10.06-3.65,19.25-9.67,26.33,5.28,2.04,10.63,4.07,16.02,6.07,6.31-9.2,10.02-20.36,10.02-32.4,0-31.46-25.25-56.96-56.4-56.96Z"/><ellipse class="cls-3" cx="861.07" cy="240.61" rx="7.28" ry="7.35"/><ellipse class="cls-3" cx="620.92" cy="159.77" rx="7.28" ry="7.35"/><path class="cls-3" d="m644.57,159.77c0-13.19-10.59-23.89-23.65-23.89s-23.65,10.69-23.65,23.89c0,1.34.14,2.65.35,3.93,10.43,4.85,23.04,10.22,36.73,15.73,6.18-4.31,10.23-11.5,10.23-19.66Zm-23.65,7.35c-4.02,0-7.28-3.29-7.28-7.35s3.26-7.35,7.28-7.35,7.28,3.29,7.28,7.35-3.26,7.35-7.28,7.35Z"/><path class="cls-3" d="m597.27,159.77c0-13.19,10.59-23.89,23.65-23.89s23.65,10.69,23.65,23.89c0,8.16-4.05,15.35-10.23,19.66,5.5,2.21,11.17,4.44,16.94,6.67,6.02-7.07,9.67-16.27,9.67-26.33,0-22.32-17.92-40.42-40.03-40.42-20.67,0-37.67,15.82-39.8,36.12,4.51,2.48,10.08,5.25,16.49,8.23-.21-1.28-.35-2.59-.35-3.93Z"/><path class="cls-3" d="m997.52,563.98c0-13.19,10.59-23.89,23.65-23.89,2.82,0,5.51.52,8.01,1.43,1.35-5.68,2.68-11.07,3.99-16.12-3.79-1.2-7.82-1.85-12-1.85-22.11,0-40.03,18.1-40.03,40.42,0,20.56,15.21,37.53,34.88,40.08,1.04-5.5,2.1-10.94,3.17-16.29-12.13-1.02-21.67-11.27-21.67-23.78Z"/><path class="cls-3" d="m997.52,563.98c0,12.52,9.54,22.77,21.67,23.78,1.12-5.63,2.25-11.17,3.39-16.58-.46.09-.93.14-1.41.14-4.02,0-7.28-3.29-7.28-7.35s3.26-7.35,7.28-7.35c1.59,0,3.05.53,4.24,1.4,1.26-5.71,2.52-11.23,3.77-16.5-2.5-.91-5.19-1.43-8.01-1.43-13.06,0-23.65,10.69-23.65,23.89Z"/><path class="cls-3" d="m1021.17,507.03c3.99,0,7.88.42,11.64,1.22-1.98-5.51-3.33-11.32-3.95-17.35-2.53-.27-5.09-.41-7.68-.41s-5.16.14-7.68.41c-.63,6.03-1.97,11.84-3.95,17.35,3.76-.8,7.65-1.22,11.64-1.22Z"/><path class="cls-3" d="m1013.01,620.33c-1.17-.17-2.34-.37-3.48-.61.88,2.45,1.62,4.98,2.24,7.55.41-2.31.82-4.63,1.24-6.93Z"/><path class="cls-3" d="m1021.17,556.64c-4.02,0-7.28,3.29-7.28,7.35s3.26,7.35,7.28,7.35c.48,0,.95-.05,1.41-.14.94-4.48,1.89-8.87,2.83-13.15-1.2-.87-2.65-1.4-4.24-1.4Z"/><path class="cls-3" d="m739.55,1028.57c-.35,1.04-.43,1.88-.21,2.5l-1.34-3.61"/><path class="cls-3" d="m1040.36,437.78c.62.25,1.16.34,1.61.26l-3.3.61"/><path class="cls-3" d="m1049.84,483.03l-5,.84c.02,1.66.1,3.3.26,4.92,1.75-3.51,3.35-5.53,4.74-5.76Z"/><path class="cls-3" d="m342.37,1028.43l-.97,2.64c.19-.5.16-1.15-.04-1.93"/><path class="cls-3" d="m586.79,43.42c5.59,4.3,12,7.56,18.95,9.52-7.26-3.42-13.65-6.61-18.95-9.52Z"/><path class="cls-3" d="m781.02,911.24c-31.15,0-56.4,25.5-56.4,56.96,0,19.39,9.6,36.51,24.26,46.79,3.11-3.65,6.89-7.79,11.24-12.32-11.47-7.11-19.13-19.89-19.13-34.48,0-22.32,17.92-40.42,40.03-40.42,15.43,0,28.82,8.83,35.5,21.75,4.14-3.66,8.35-7.36,12.61-11.06-9.92-16.33-27.75-27.22-48.11-27.22Z"/><path class="cls-3" d="m30.17,489.31c1.38.23,3.71,2.51,5.44,5.98.34-1.57.6-3.16.81-4.77l-6.26-1.21Z"/><path class="cls-3" d="m884.72,321.45c0,31.46,25.25,56.96,56.4,56.96,16.76,0,31.8-7.39,42.13-19.1-3-4.9-6.04-9.92-9.1-15.03-7.21,10.62-19.31,17.6-33.03,17.6-22.11,0-40.03-18.1-40.03-40.42s16.26-38.68,36.9-40.29c-2.86-5.22-5.66-10.39-8.39-15.48-25.63,5.37-44.89,28.29-44.89,55.77Z"/><path class="cls-3" d="m941.12,345.34c-13.06,0-23.65-10.69-23.65-23.89s10.59-23.89,23.65-23.89c2.26,0,4.43.34,6.5.93-3.26-5.81-6.48-11.6-9.62-17.34-20.64,1.61-36.9,19.03-36.9,40.29,0,22.32,17.92,40.42,40.03,40.42,13.72,0,25.82-6.97,33.03-17.6-3.35-5.61-6.73-11.32-10.1-17.08-2.55,10.41-11.84,18.14-22.93,18.14Z"/><path class="cls-3" d="m890.17,171.41l-3.31,3.9c1.42,5.08,3.52,9.88,6.2,14.27-3.52-9.53-4.47-16.31-2.89-18.18Z"/><ellipse class="cls-3" cx="941.12" cy="321.45" rx="7.28" ry="7.35"/><path class="cls-3" d="m917.47,321.45c0,13.19,10.59,23.89,23.65,23.89,11.1,0,20.39-7.73,22.93-18.14-5.53-9.47-11.05-19.1-16.44-28.69-2.07-.6-4.24-.93-6.5-.93-13.06,0-23.65,10.69-23.65,23.89Zm30.93,0c0,4.06-3.26,7.35-7.28,7.35s-7.28-3.29-7.28-7.35,3.26-7.35,7.28-7.35,7.28,3.29,7.28,7.35Z"/><path class="cls-3" d="m772.32,990.4c-8.75-3.5-14.95-12.11-14.95-22.2,0-13.19,10.59-23.89,23.65-23.89,10.61,0,19.58,7.05,22.58,16.77,4.2-3.8,8.51-7.66,12.91-11.56-6.68-12.92-20.06-21.75-35.5-21.75-22.11,0-40.03,18.1-40.03,40.42,0,14.59,7.65,27.37,19.13,34.48,3.68-3.83,7.77-7.95,12.2-12.28Z"/><path class="cls-3" d="m941.12,749.56c-2.32,0-4.61.16-6.85.43l58.31,33.22c-8.82-19.83-28.54-33.65-51.46-33.65Z"/><ellipse class="cls-3" cx="781.02" cy="968.2" rx="7.28" ry="7.35"/><path class="cls-3" d="m781.02,944.32c-13.06,0-23.65,10.69-23.65,23.89,0,10.09,6.2,18.7,14.95,22.2,9.17-8.98,19.8-18.92,31.28-29.31-3-9.72-11.97-16.77-22.58-16.77Zm0,31.23c-4.02,0-7.28-3.29-7.28-7.35s3.26-7.35,7.28-7.35,7.28,3.29,7.28,7.35-3.26,7.35-7.28,7.35Z"/><path class="cls-3" d="m66.58,620.62c.75,4.08,1.49,8.18,2.22,12.29.73-4.55,1.87-8.96,3.39-13.19-1.84.39-3.72.69-5.62.89Z"/><path class="cls-3" d="m100.59,563.98c0-22.32-17.92-40.42-40.03-40.42-5.11,0-10,.98-14.49,2.74,1.36,5.02,2.75,10.45,4.16,16.22,3.13-1.54,6.63-2.43,10.34-2.43,13.06,0,23.65,10.69,23.65,23.89s-10.59,23.89-23.65,23.89c-.11,0-.21-.01-.31-.02,1.09,5.39,2.18,10.87,3.26,16.43,20.73-1.52,37.08-18.98,37.08-40.3Z"/><path class="cls-3" d="m67.84,563.98c0-4.06-3.26-7.35-7.28-7.35-2.64,0-4.94,1.44-6.21,3.57.73,3.23,1.45,6.53,2.18,9.9,1.15.78,2.54,1.23,4.03,1.23,4.02,0,7.28-3.29,7.28-7.35Z"/><path class="cls-3" d="m60.56,556.64c4.02,0,7.28,3.29,7.28,7.35s-3.26,7.35-7.28,7.35c-1.49,0-2.88-.46-4.03-1.23,1.24,5.76,2.49,11.69,3.72,17.75.11,0,.21.02.31.02,13.06,0,23.65-10.69,23.65-23.89s-10.59-23.89-23.65-23.89c-3.71,0-7.21.89-10.34,2.43,1.36,5.6,2.74,11.51,4.13,17.68,1.27-2.13,3.57-3.57,6.21-3.57Z"/><path class="cls-3" d="m500.84,78.93c0,13.31,6.37,25.11,16.19,32.47l-.64-64.45c-9.46,7.39-15.55,18.96-15.55,31.97Z"/><path class="cls-3" d="m855.85,135.32c-.08.1-.18.19-.29.28.02,0,.04,0,.06,0l.23-.29Z"/><path class="cls-3" d="m580.89,78.93c0-10.91-4.28-20.8-11.24-28.07l-.56,56.72c7.29-7.32,11.8-17.46,11.8-28.66Z"/><path class="cls-3" d="m42.7,438.47l-2.34-.44c.36.07,3.21.58,3.68.44"/><path class="cls-3" d="m861.07,911.24c-13.06,0-23.65-10.69-23.65-23.89s10.59-23.89,23.65-23.89,23.65,10.69,23.65,23.89c0,1.72-.19,3.39-.53,5,5.49-4.42,10.89-8.7,16.15-12.82-3.61-18.58-19.81-32.61-39.27-32.61-22.11,0-40.03,18.1-40.03,40.42,0,16.68,10.01,31,24.29,37.17,5.25-4.46,10.53-8.91,15.8-13.29-.02,0-.04,0-.06,0Z"/><path class="cls-3" d="m180.64,402.3c0,6.26,1.41,12.19,3.92,17.47,4.03-6.24,8.27-12.99,12.59-20.06.77-7.21,4.71-13.45,10.39-17.28,3.98-6.74,7.97-13.62,11.9-20.52-21.54.65-38.8,18.48-38.8,40.39Z"/><path class="cls-3" d="m234.36,221.16l7.45,8.78c-2.71-2.64-6.91-8.36-7.45-8.78Z"/><ellipse class="cls-3" cx="220.66" cy="240.61" rx="7.28" ry="7.35"/><path class="cls-3" d="m197.01,240.61c0,13.19,10.59,23.89,23.65,23.89s23.65-10.69,23.65-23.89c0-3.84-.92-7.46-2.51-10.67l-7.45-8.78c-3.87-2.78-8.58-4.43-13.69-4.43-13.06,0-23.65,10.69-23.65,23.89Zm30.93,0c0,4.06-3.26,7.35-7.28,7.35s-7.28-3.29-7.28-7.35,3.26-7.35,7.28-7.35,7.28,3.29,7.28,7.35Z"/><path class="cls-3" d="m244.32,240.61c0,13.19-10.59,23.89-23.65,23.89s-23.65-10.69-23.65-23.89,10.59-23.89,23.65-23.89c5.11,0,9.83,1.65,13.69,4.43l-17.61-20.77c-20.26,1.99-36.1,19.24-36.1,40.23,0,22.32,17.92,40.42,40.03,40.42,18.65,0,34.32-12.88,38.76-30.31l-17.63-20.79c1.6,3.22,2.51,6.83,2.51,10.67Z"/><path class="cls-3" d="m197.16,399.71c3.42-5.59,6.9-11.38,10.39-17.28-5.68,3.83-9.62,10.07-10.39,17.28Z"/><path class="cls-3" d="m164.26,806.51c0,13.19-10.59,23.89-23.65,23.89-6.28,0-11.98-2.49-16.22-6.53l-14.44,8.62c.22.26.44.51.66.77,4.45.63,13.31,5.51,25.07,13.36,1.62.2,3.26.32,4.93.32,22.11,0,40.03-18.1,40.03-40.42,0-5.15-.96-10.06-2.7-14.59l-14.45,8.62c.49,1.91.77,3.9.77,5.97Z"/><path class="cls-3" d="m357.92,893.45c6.48,6.38,11.93,12.07,15.98,16.76"/><path class="cls-3" d="m724.14,892.16c-7.2,7.04-11.54,10.7-15.56,15.82,8.84-2.17,13.73-6.77,15.56-15.82Z"/><path class="cls-3" d="m706.57,910.54c-5.3,6.19-8.09,10.58-7.42,12.38l1.81,4.86s0,0,.01,0c22.11,0,40.03-18.1,40.03-40.42,0-3.45-.43-6.8-1.24-10-5.62,5.19-10.87,10.16-15.62,14.8-1.83,9.05-8.73,16.21-17.57,18.38Z"/><path class="cls-3" d="m373.89,910.21c5.48,6.37,8.39,10.89,7.71,12.71l-1.8,4.84c-21.66-.53-39.06-18.4-39.06-40.4,0-3.18.37-6.28,1.06-9.25,5.83,5.39,11.26,10.56,16.11,15.34"/><path class="cls-3" d="m164.26,806.51c0-2.06-.29-4.06-.77-5.97l-16.82,10.04c-1.19,1.8-3.14,3-5.38,3.21l-16.89,10.08c4.24,4.04,9.93,6.53,16.22,6.53,13.06,0,23.65-10.69,23.65-23.89Z"/><path class="cls-3" d="m146.67,810.58l-5.38,3.21c2.24-.21,4.2-1.42,5.38-3.21Z"/><path class="cls-3" d="m110.61,833.26c4.45.62,13.3,5.51,25.08,13.37"/><path class="cls-3" d="m110.61,833.26c-.22-.26-.44-.51-.66-.77"/><path class="cls-3" d="m460.82,71.58c2.6,0,5.16-.14,7.68-.41,5.97-.63,11.72-1.99,17.18-3.99,12.04-4.42,22.58-11.98,30.7-21.67l-.15-15.31c.06,6.12-31.28,21.71-73.23,39.12,3.3.84,6.68,1.48,10.14,1.85,2.53.27,5.09.41,7.68.41Z"/><path class="cls-3" d="m1013.49,490.9c2.53-.27,5.09-.41,7.68-.41s5.16.14,7.68.41c-.15-1.42-.25-2.86-.31-4.3l-14.91,2.5c-.05.6-.08,1.21-.14,1.8Z"/><path class="cls-3" d="m1032.81,508.25c.89,2.47,1.91,4.88,3.05,7.22,3.34-11.89,6.49-21.14,9.24-26.67-.16-1.62-.24-3.26-.26-4.92l-16.3,2.73c.07,1.44.17,2.88.31,4.3.63,6.03,1.97,11.84,3.95,17.35Z"/><path class="cls-3" d="m1021.17,507.03c-3.99,0-7.88.42-11.64,1.22-7.34,20.39-23.36,36.57-43.55,43.98-.79,3.79-1.21,7.72-1.21,11.75s.42,7.96,1.21,11.75c20.19,7.41,36.21,23.59,43.55,43.98,1.15.24,2.31.44,3.48.61.99-5.46,1.99-10.89,3.01-16.27-19.67-2.55-34.88-19.52-34.88-40.08,0-22.32,17.92-40.42,40.03-40.42,4.18,0,8.21.65,12,1.85.91-3.49,1.8-6.81,2.68-9.95-1.14-2.34-2.16-4.74-3.05-7.22-3.76-.8-7.65-1.22-11.64-1.22Z"/><path class="cls-3" d="m380.77,119.35c22.11,0,40.03-18.1,40.03-40.42,0-.2-.01-.4-.02-.6-5.62,2.23-11.36,4.47-17.16,6.7-2.67,10.24-11.87,17.79-22.85,17.79-5.01,0-9.65-1.58-13.47-4.27-5.81,2.1-11.6,4.16-17.35,6.17,7.34,8.94,18.42,14.63,30.82,14.63Z"/><path class="cls-3" d="m369.13,134.66c3.76.8,7.65,1.22,11.64,1.22s7.88-.42,11.64-1.22c7.34-20.39,23.36-36.57,43.55-43.98.79-3.79,1.21-7.72,1.21-11.75,0-2.38-.16-4.72-.45-7.02-5.19,2.12-10.51,4.27-15.94,6.42,0,.2.02.4.02.6,0,22.32-17.92,40.42-40.03,40.42-12.4,0-23.48-5.69-30.82-14.63-.25.09-.49.17-.74.26,8.87,8.01,15.78,18.17,19.92,29.69Z"/><path class="cls-3" d="m380.77,102.81c10.97,0,20.17-7.56,22.85-17.79-11.93,4.58-24.15,9.13-36.32,13.53,3.82,2.68,8.46,4.27,13.47,4.27Z"/><path class="cls-3" d="m392.4,134.66c-1.98,5.51-3.33,11.32-3.95,17.35-.27,2.55-.41,5.14-.41,7.76s.14,5.21.41,7.76c.63,6.03,1.97,11.84,3.95,17.35,1.82,5.07,4.18,9.87,7.01,14.34,5.29-1.88,10.62-3.82,15.92-5.78-6.86-9.43-10.92-21.07-10.92-33.67,0-31.46,25.25-56.96,56.4-56.96,27.18,0,49.19,18.3,54.54,44.14.89-.92,1.34.99,1.41.3l.29-34.1c-8.2-10.08-19-17.93-31.37-22.47-5.45-2-11.21-3.36-17.18-3.99-2.53-.27-5.09-.41-7.68-.41s-5.16.14-7.68.41c-5.97.63-11.72,1.99-17.18,3.99-20.19,7.41-36.21,23.59-43.55,43.98Z"/><path class="cls-3" d="m60.56,426.18c13.06,0,23.65-10.69,23.65-23.89,0-4.87-1.45-9.39-3.93-13.17-9.8,15.03-18.63,27.63-25.61,36.28,1.88.49,3.85.77,5.88.77Z"/><path class="cls-3" d="m132.93,394.54c2.53.27,5.09.41,7.68.41s5.16-.14,7.68-.41c5.97-.63,11.72-1.99,17.18-3.99,20.19-7.41,36.21-23.59,43.55-43.98,1.98-5.51,3.33-11.32,3.95-17.35.27-2.55.41-5.14.41-7.76s-.14-5.21-.41-7.76c-.63-6.03-1.97-11.84-3.95-17.35-7.34-20.39-23.36-36.57-43.55-43.98-1.6-.59-3.23-1.1-4.87-1.57-2.55,4.9-5.2,9.92-7.93,15.02,25.35,5.58,44.34,28.36,44.34,55.64,0,31.46-25.25,56.96-56.4,56.96-16.56,0-31.45-7.21-41.77-18.69-3.03,4.93-6.01,9.75-8.95,14.4,7.31,7.18,16.09,12.83,25.86,16.42,5.45,2,11.21,3.36,17.18,3.99Z"/><path class="cls-3" d="m468.5,86.69c-.27-2.55-.41-5.14-.41-7.76s.14-5.21.41-7.76c-2.53.27-5.09.41-7.68.41s-5.16-.14-7.68-.41c.27,2.55.41,5.14.41,7.76s-.14,5.21-.41,7.76c2.53-.27,5.09-.41,7.68-.41s5.16.14,7.68.41Z"/><path class="cls-3" d="m357.11,159.77c0,31.46-25.25,56.96-56.4,56.96-1.47,0-2.92-.07-4.36-.19l6.52,8.01c2.37,2.91,19.89-.81,43.97-7.97,9.99-8.29,17.77-19.2,22.27-31.71,1.98-5.51,3.33-11.32,3.95-17.35.27-2.55.41-5.14.41-7.76s-.14-5.21-.41-7.76c-.63-6.03-1.97-11.84-3.95-17.35-4.14-11.51-11.06-21.68-19.92-29.69-6.32,2.21-12.57,4.36-18.71,6.43,15.98,10.06,26.62,27.95,26.62,48.36Z"/><path class="cls-3" d="m689.33,134.66c3.76.8,7.65,1.22,11.64,1.22s7.88-.42,11.64-1.22c4.34-12.05,11.72-22.6,21.18-30.77-.35-.12-.71-.25-1.06-.38-7.32,9.62-18.82,15.83-31.76,15.83-22.11,0-40.03-18.1-40.03-40.42,0-.78.03-1.55.07-2.31-5.38-2.15-10.66-4.29-15.78-6.41-.43,2.84-.67,5.75-.67,8.72,0,4.03.42,7.96,1.21,11.75,20.19,7.41,36.21,23.59,43.55,43.98Z"/><path class="cls-3" d="m712.61,134.66c-1.98,5.51-3.33,11.32-3.95,17.35-.27,2.55-.41,5.14-.41,7.76s.14,5.21.41,7.76c.63,6.03,1.97,11.84,3.95,17.35,4.14,11.5,11.04,21.66,19.9,29.67,27.5,8.48,48.12,13.18,50.7,10.01l6.99-8.59c-2.99.49-6.06.76-9.19.76-31.15,0-56.4-25.5-56.4-56.96,0-21.07,11.34-39.46,28.18-49.31-6.25-2.12-12.6-4.31-19.01-6.57-9.47,8.17-16.85,18.72-21.18,30.77Z"/><path class="cls-3" d="m613.23,86.69c2.53-.27,5.09-.41,7.68-.41s5.16.14,7.68.41c-.27-2.55-.41-5.14-.41-7.76s.14-5.21.41-7.76c-2.53.27-5.09.41-7.68.41s-5.16-.14-7.68-.41c.27,2.55.41,5.14.41,7.76s-.14,5.21-.41,7.76Z"/><path class="cls-3" d="m613.64,78.93c0-2.62-.14-5.21-.41-7.76-5.97-.63-11.72-1.99-17.18-3.99.79,3.79,1.21,7.72,1.21,11.75s-.42,7.96-1.21,11.75c5.45-2,11.21-3.36,17.18-3.99.27-2.55.41-5.14.41-7.76Z"/><path class="cls-3" d="m700.97,102.81c5.64,0,10.82-2,14.88-5.33-12.82-4.65-25.67-9.47-38.14-14.3,1.99,11.16,11.63,19.63,23.26,19.63Z"/><path class="cls-3" d="m468.5,86.69c5.97.63,11.72,1.99,17.18,3.99-.79-3.79-1.21-7.72-1.21-11.75s.42-7.96,1.21-11.75c-5.45,2-11.21,3.36-17.18,3.99-.27,2.55-.41,5.14-.41,7.76s.14,5.21.41,7.76Z"/><path class="cls-3" d="m620.92,102.81c31.15,0,56.4,25.5,56.4,56.96,0,12.04-3.71,23.2-10.02,32.4,5.25,1.95,10.53,3.88,15.79,5.77,2.48-4.11,4.59-8.47,6.24-13.06,1.98-5.51,3.33-11.32,3.95-17.35.27-2.55.41-5.14.41-7.76s-.14-5.21-.41-7.76c-.63-6.03-1.97-11.84-3.95-17.35-7.34-20.39-23.36-36.57-43.55-43.98-5.45-2-11.21-3.36-17.18-3.99-2.53-.27-5.09-.41-7.68-.41s-5.16.14-7.68.41c-5.97.63-11.72,1.99-17.18,3.99-10.27,3.77-19.45,9.82-26.97,17.52l-.23,23.51c8.47-20.66,28.55-28.9,52.06-28.9Z"/><path class="cls-3" d="m700.97,119.35c12.94,0,24.44-6.21,31.76-15.83-5.6-1.97-11.23-3.99-16.88-6.04-4.07,3.33-9.24,5.33-14.88,5.33-11.62,0-21.27-8.47-23.26-19.63-5.66-2.19-11.24-4.39-16.7-6.57-.04.77-.07,1.54-.07,2.31,0,22.32,17.92,40.42,40.03,40.42Z"/><path class="cls-3" d="m403.92,1044.18c-1.17-5.71-4.37-10.65-8.78-14.07l-6.95,19.89c.78-2.23,6.45-4.17,15.73-5.82Z"/><path class="cls-3" d="m342.37,1028.43l28.97-77.91c-.62-2.53-1.35-5.02-2.21-7.43-7.34-20.4-23.36-36.57-43.56-43.99-5.45-2-11.2-3.36-17.17-4-2.52-.27-5.09-.41-7.69-.41s-5.15.14-7.68.41c-5.97.63-11.72,1.99-17.18,4-14.95,5.49-27.62,15.81-36.16,29.06,4.23,3.62,8.43,7.25,12.59,10.86,9.84-16.64,27.85-27.78,48.44-27.78,31.15,0,56.4,25.49,56.4,56.96,0,19.66-9.87,37-24.87,47.23,5.17,6.12,8.39,10.83,9.12,13.7"/><path class="cls-3" d="m133.34,563.98c0-2.62-.14-5.21-.41-7.76-5.97-.63-11.72-1.99-17.18-3.99.79,3.79,1.21,7.72,1.21,11.75s-.42,7.96-1.21,11.75c5.45-2,11.21-3.36,17.18-3.99.27-2.55.41-5.14.41-7.76Z"/><path class="cls-3" d="m140.61,556.64c2.6,0,5.16-.14,7.68-.41,3.88-.41,7.66-1.16,11.34-2.16-1.35-5.75-2.68-11.12-3.98-16.03-4.79,1.34-9.83,2.06-15.04,2.06-25.73,0-47.42-17.41-54.19-41.19l-17.45-2.93c.74,4.22,1.81,8.33,3.23,12.27,7.34,20.39,23.36,36.57,43.55,43.98,5.45,2,11.21,3.36,17.18,3.99,2.53.27,5.09.41,7.68.41Z"/><path class="cls-3" d="m140.61,426.18c12.16,0,23.41,3.9,32.63,10.51,2.89-4.13,5.98-8.73,9.21-13.67-5.2-3.7-10.89-6.74-16.98-8.97-5.45-2-11.21-3.36-17.18-3.99-2.53-.27-5.09-.41-7.68-.41s-5.16.14-7.68.41c-5.97.63-11.72,1.99-17.18,3.99-15.73,5.77-28.9,16.88-37.43,31.14l17.54,3.31c10.31-13.56,26.52-22.31,44.75-22.31Z"/><path class="cls-3" d="m42.7,438.47l21.57,4.07c20.36-1.89,36.31-19.18,36.31-40.24,0-10.76-4.16-20.52-10.95-27.76-3.19,5.07-6.31,9.95-9.35,14.6,2.47,3.78,3.93,8.3,3.93,13.17,0,13.19-10.59,23.89-23.65,23.89-2.03,0-4-.29-5.88-.77-5.81,7.2-10.3,11.72-13.04,12.57"/><path class="cls-3" d="m115.75,414.05c.79-3.79,1.21-7.72,1.21-11.75s-.42-7.96-1.21-11.75c-9.77-3.59-18.55-9.24-25.86-16.42-.09.14-.17.27-.26.41,6.78,7.24,10.95,17.01,10.95,27.76,0,21.06-15.95,38.35-36.31,40.24l14.04,2.65c8.54-14.26,21.71-25.36,37.43-31.14Z"/><path class="cls-3" d="m115.75,737.42c.79-3.79,1.21-7.72,1.21-11.75s-.42-7.96-1.21-11.75c-16.87-6.19-30.81-18.52-39.22-34.3.49,3.24.98,6.46,1.44,9.64,13.38,6.54,22.62,20.38,22.62,36.41,0,12.61-5.72,23.87-14.68,31.28.03.35.05.69.07,1.04,7.99-9.16,18.19-16.31,29.77-20.57Z"/><path class="cls-3" d="m100.59,725.67c0-16.02-9.23-29.87-22.62-36.41,1.27,8.68,2.44,17.13,3.48,25.21,1.76,3.34,2.77,7.15,2.77,11.2,0,1.99-.27,3.9-.72,5.75,1.05,9.31,1.87,17.91,2.41,25.53,8.96-7.41,14.68-18.67,14.68-31.28Z"/><path class="cls-3" d="m83.76,792.29l2.65-1.51c6.76-23.8,28.46-41.22,54.2-41.22,5.09,0,10.02.69,14.71,1.97l18.37-10.46c-2.65-1.37-5.39-2.6-8.22-3.64-5.45-2-11.21-3.36-17.18-3.99-2.53-.27-5.09-.41-7.68-.41s-5.16.14-7.68.41c-5.97.63-11.72,1.99-17.18,3.99-11.58,4.25-21.78,11.4-29.77,20.57,1.36,19.6.88,32.53-2.22,34.3Z"/><path class="cls-3" d="m115.75,713.92c5.45,2,11.21,3.36,17.18,3.99,2.53.27,5.09.41,7.68.41s5.16-.14,7.68-.41c5.97-.63,11.72-1.99,17.18-3.99,6.91-2.54,13.32-6.12,19.08-10.53-.54-6.16-1.26-12.99-2.15-20.3-10.32,11.49-25.22,18.7-41.78,18.7-31.15,0-56.4-25.5-56.4-56.96s25.25-56.96,56.4-56.96c10.08,0,19.53,2.68,27.72,7.36-1.31-6.79-2.64-13.45-3.99-19.87-5.12-1.78-10.48-3.03-16.05-3.62-2.53-.27-5.09-.41-7.68-.41s-5.16.14-7.68.41c-5.97.63-11.72,1.99-17.18,3.99-20.19,7.41-36.21,23.59-43.55,43.98-1.52,4.23-2.66,8.64-3.39,13.19,2.79,15.68,5.4,31.47,7.72,46.71,8.42,15.78,22.35,28.1,39.22,34.3Z"/><path class="cls-3" d="m84.21,725.67c0-4.05-1.01-7.86-2.77-11.2.75,5.86,1.44,11.53,2.05,16.95.45-1.84.72-3.76.72-5.75Z"/><path class="cls-3" d="m941.12,685.25c22.11,0,40.03-18.1,40.03-40.42s-17.92-40.42-40.03-40.42c-15.35,0-28.67,8.73-35.39,21.54-1.45,8.76-2.81,17.43-4.04,25.8,3.25,19.03,19.66,33.5,39.43,33.5Zm0-64.31c13.06,0,23.65,10.69,23.65,23.89s-10.59,23.89-23.65,23.89-23.65-10.69-23.65-23.89,10.59-23.89,23.65-23.89Z"/><path class="cls-3" d="m941.12,604.41c22.11,0,40.03,18.1,40.03,40.42s-17.92,40.42-40.03,40.42c-19.77,0-36.18-14.48-39.43-33.5-1.53,10.44-2.85,20.41-3.9,29.53,10.35,12.53,25.92,20.51,43.33,20.51,31.15,0,56.4-25.5,56.4-56.96s-25.25-56.96-56.4-56.96c-11.13,0-21.5,3.27-30.24,8.89-1.8,9.64-3.53,19.46-5.14,29.18,6.72-12.81,20.04-21.54,35.39-21.54Z"/><ellipse class="cls-3" cx="941.12" cy="644.83" rx="7.28" ry="7.35"/><path class="cls-3" d="m941.12,668.71c13.06,0,23.65-10.69,23.65-23.89s-10.59-23.89-23.65-23.89-23.65,10.69-23.65,23.89,10.59,23.89,23.65,23.89Zm0-31.23c4.02,0,7.28,3.29,7.28,7.35s-3.26,7.35-7.28,7.35-7.28-3.29-7.28-7.35,3.26-7.35,7.28-7.35Z"/><path class="cls-3" d="m901.09,725.67c0,1.77-.13,3.52-.34,5.23l13.13,7.48c.79-.32,1.58-.66,2.38-.95.79-3.79,1.21-7.72,1.21-11.75s-.42-7.96-1.21-11.75c-7.49-2.75-14.4-6.71-20.51-11.63-.07.99-.13,1.94-.19,2.89,3.51,6.01,5.53,13.02,5.53,20.5Z"/><path class="cls-3" d="m933.43,571.74c2.53-.27,5.09-.41,7.68-.41s5.16.14,7.68.41c-.27-2.55-.41-5.14-.41-7.76s.14-5.21.41-7.76c-2.53.27-5.09.41-7.68.41s-5.16-.14-7.68-.41c.27,2.55.41,5.14.41,7.76s-.14,5.21-.41,7.76Z"/><path class="cls-3" d="m917.15,565.23c-.87,4.07-1.43,6.81-2.3,11.07.47-.18.93-.39,1.4-.56.79-3.79,1.21-7.72,1.21-11.75,0-.07-.32,1.31-.32,1.24Z"/><path class="cls-3" d="m941.12,846.94c-22.11,0-40.03-18.1-40.03-40.42,0-4.96.89-9.72,2.51-14.11l-14.25-8.5c-2.97,6.93-4.63,14.58-4.63,22.62,0,25.68,16.83,47.39,39.96,54.49,7.35-5.41,14.14-10.22,20.17-14.25-1.23.12-2.48.18-3.74.18Z"/><path class="cls-3" d="m872.71,831.62c-3.76-.8-7.65-1.22-11.64-1.22s-7.88.42-11.64,1.22c-7.34,20.39-23.36,36.57-43.55,43.98-.79,3.79-1.21,7.72-1.21,11.75s.42,7.96,1.21,11.75c14.76,5.42,27.26,15.53,35.81,28.53,1.21-1.04,2.43-2.07,3.65-3.11-14.28-6.17-24.29-20.49-24.29-37.17,0-22.32,17.92-40.42,40.03-40.42,19.46,0,35.66,14.02,39.27,32.61,3.03-2.37,6.02-4.69,8.95-6.94-16.88-8.31-30.11-23-36.58-40.99Z"/><path class="cls-3" d="m917.47,563.98c0,4.03-.42,7.96-1.21,11.75,5.45-2,11.21-3.36,17.18-3.99.27-2.55.41-5.14.41-7.76s-.14-5.21-.41-7.76c-4.71-.5-9.28-1.47-13.69-2.83-.76,3.36-1.52,6.83-2.29,10.38,0,.07,0,.14,0,.21Z"/><path class="cls-3" d="m884.72,806.51c0-8.04,1.66-15.68,4.63-22.62l-14.17-8.45c-.9,1.95-1.74,3.93-2.48,5.96-1.98,5.51-3.33,11.32-3.95,17.35-.27,2.55-.41,5.14-.41,7.76s.14,5.21.41,7.76c.63,6.03,1.97,11.84,3.95,17.35,6.47,17.98,19.7,32.68,36.58,40.99,5.34-4.1,10.49-7.98,15.4-11.6-23.13-7.11-39.96-28.81-39.96-54.49Z"/><path class="cls-3" d="m933.43,733.43c2.53-.27,5.09-.41,7.68-.41s5.16.14,7.68.41c-.27-2.55-.41-5.14-.41-7.76s.14-5.21.41-7.76c-2.53.27-5.09.41-7.68.41s-5.16-.14-7.68-.41c.27,2.55.41,5.14.41,7.76s-.14,5.21-.41,7.76Z"/><path class="cls-3" d="m895.56,705.17c-.86,13.61-.43,22.53,1.8,23.8l3.39,1.93c.22-1.71.34-3.46.34-5.23,0-7.48-2.02-14.49-5.53-20.5Z"/><path class="cls-3" d="m948.8,733.43c5.97.63,11.72,1.99,17.18,3.99-.79-3.79-1.21-7.72-1.21-11.75s.42-7.96,1.21-11.75c-5.45,2-11.21,3.36-17.18,3.99-.27,2.55-.41,5.14-.41,7.76s.14,5.21.41,7.76Z"/><path class="cls-3" d="m917.47,735.48c5.45-2,10-1.41,15.97-2.05.27-2.55.41-5.14.41-7.76s-.14-5.21-.41-7.76c-5.97-.63-11.72-1.99-17.18-3.99.79,3.79,1.21,7.72,1.21,11.75s.79,6.01,0,9.81Z"/><path class="cls-3" d="m916.26,252.37c1.77-.65,3.58-1.2,5.41-1.72-1.45-2.79-2.87-5.53-4.25-8.24-.11,3.4-.49,6.73-1.16,9.95Z"/><path class="cls-3" d="m853.38,313.69c.27,2.55.41,5.14.41,7.76s-.14,5.21-.41,7.76c2.53-.27,5.09-.41,7.68-.41s5.16.14,7.68.41c-.27-2.55-.41-5.14-.41-7.76s.14-5.21.41-7.76c-2.53.27-5.09.41-7.68.41s-5.16-.14-7.68-.41Z"/><path class="cls-3" d="m853.38,329.21c-.42,4.01-1.18,7.91-2.21,11.7.89,1.63,1.79,3.26,2.7,4.91,2.36-.31,4.75-.48,7.19-.48,3.99,0,7.88.42,11.64,1.22-1.98-5.51-3.33-11.32-3.95-17.35-2.53-.27-5.09-.41-7.68-.41s-5.16.14-7.68.41Z"/><path class="cls-3" d="m849.43,296.35c1.98,5.51,3.33,11.32,3.95,17.35,2.53.27,5.09.41,7.68.41s5.16-.14,7.68-.41c.63-6.03,1.97-11.84,3.95-17.35-3.76.8-7.65,1.22-11.64,1.22s-7.88-.42-11.64-1.22Z"/><path class="cls-3" d="m853.88,345.82c2.95,5.34,5.98,10.72,9.04,16.1,21.25.97,38.18,18.67,38.18,40.37,0,6.04-1.32,11.77-3.67,16.91.77,1.19,1.53,2.37,2.29,3.52,5.09-3.56,10.63-6.51,16.55-8.68.79-3.79,1.21-7.72,1.21-11.75s-.42-7.96-1.21-11.75c-20.19-7.41-36.21-23.59-43.55-43.98-3.76-.8-7.65-1.22-11.64-1.22-2.44,0-4.84.18-7.19.48Z"/><path class="cls-3" d="m909.1,225.77c-7.01-14.36-12.58-26.82-16.04-36.19-2.68-4.4-4.78-9.19-6.2-14.27l-12.2,14.39c6.95,15.71,19.18,28.51,34.44,36.07Z"/><path class="cls-3" d="m850.07,136.64c.46,1.4.88,2.81,1.25,4.24l4.29-5.27s-.04,0-.06,0c-.92.75-2.79,1.08-5.49,1.04Z"/><path class="cls-3" d="m901.09,240.61c0,22.32-17.92,40.42-40.03,40.42-18.45,0-33.98-12.61-38.61-29.77l-5.38,6.35c14.86,8.58,26.43,22.28,32.35,38.73,3.76.8,7.65,1.22,11.64,1.22s7.88-.42,11.64-1.22c7.34-20.39,23.36-36.57,43.55-43.98.67-3.22,1.06-6.55,1.16-9.95-2.95-5.77-5.73-11.33-8.32-16.64-15.25-7.56-27.49-20.36-34.44-36.07l-9.11,10.75c19.99,2.25,35.54,19.37,35.54,40.16Z"/><path class="cls-3" d="m929.53,459.23l37.33-7.04c-6.96-5.91-15.94-9.48-25.74-9.48-8.31,0-16.02,2.56-22.42,6.93,5.14,6.38,8.95,9.94,10.83,9.58Z"/><path class="cls-3" d="m979.44,494.83l-19.95,3.34c-4.34,5.4-10.95,8.85-18.37,8.85-2.6,0-5.09-.44-7.43-1.22-1.73,3.32-3.67,8.65-5.73,15.51,4.13,1.45,8.55,2.25,13.17,2.25,18.08,0,33.35-12.11,38.32-28.73Z"/><path class="cls-3" d="m933.68,505.8c2.34.78,4.83,1.22,7.43,1.22,7.42,0,14.03-3.45,18.37-8.85l-22.5,3.77c-.98.16-2.09,1.53-3.31,3.86Z"/><path class="cls-3" d="m941.12,523.56c-4.61,0-9.04-.8-13.17-2.25-1.41,4.67-2.87,10.03-4.37,15.96,5.52,1.82,11.41,2.82,17.53,2.82,28.2,0,51.56-20.9,55.73-48.19l-17.41,2.92c-4.97,16.62-20.24,28.73-38.32,28.73Z"/><path class="cls-3" d="m948.8,410.06c5.97.63,11.72,1.99,17.18,3.99-.79-3.79-1.21-7.72-1.21-11.75s.42-7.96,1.21-11.75c-5.45,2-11.21,3.36-17.18,3.99-.27,2.55-.41,5.14-.41,7.76s.14,5.21.41,7.76Z"/><path class="cls-3" d="m933.43,410.06c2.53-.27,5.09-.41,7.68-.41s5.16.14,7.68.41c-.27-2.55-.41-5.14-.41-7.76s.14-5.21.41-7.76c-2.53.27-5.09.41-7.68.41s-5.16-.14-7.68-.41c.27,2.55.41,5.14.41,7.76s-.14,5.21-.41,7.76Z"/><path class="cls-3" d="m916.26,414.05c5.45-2,11.21-3.36,17.18-3.99.27-2.55.41-5.14.41-7.76s-.14-5.21-.41-7.76c-5.97-.63-11.72-1.99-17.18-3.99.79,3.79,1.21,7.72,1.21,11.75s-.42,7.96-1.21,11.75Z"/><path class="cls-3" d="m941.12,442.72c9.8,0,18.78,3.57,25.74,9.48l19.09-3.6c-10.31-13.62-26.55-22.41-44.83-22.41-11.98,0-23.08,3.78-32.22,10.22,3.61,5.18,6.92,9.66,9.8,13.25,6.4-4.37,14.11-6.93,22.42-6.93Z"/><path class="cls-3" d="m628.19,78.93c0,2.62.14,5.21.41,7.76,5.97.63,11.72,1.99,17.18,3.99-.79-3.79-1.21-7.72-1.21-11.75,0-2.97.23-5.88.67-8.72-1.29-.53-2.57-1.06-3.84-1.59-4.13,1.22-8.4,2.09-12.8,2.55-.27,2.55-.41,5.14-.41,7.76Z"/><path class="cls-3" d="m485.68,67.17c-.79,3.79-1.21,7.72-1.21,11.75s.42,7.96,1.21,11.75c12.37,4.54,23.17,12.39,31.37,22.47l-.02-1.75c-9.82-7.37-16.19-19.17-16.19-32.47s6.09-24.58,15.55-31.97v-1.45c-8.13,9.69-18.67,17.25-30.72,21.67Z"/><path class="cls-3" d="m437.16,78.93c0,4.03-.42,7.96-1.21,11.75,5.45-2,11.21-3.36,17.18-3.99.27-2.55.41-5.14.41-7.76s-.14-5.21-.41-7.76c-3.46-.37-6.84-1.01-10.14-1.85-2.07.86-4.16,1.72-6.27,2.58.28,2.3.45,4.64.45,7.02Z"/><path class="cls-3" d="m613.23,71.17c2.53.27,5.09.41,7.68.41s5.16-.14,7.68-.41c4.39-.47,8.67-1.33,12.8-2.55-13.2-5.5-25.31-10.81-35.65-15.68-6.95-1.96-13.36-5.22-18.95-9.52-10.69-5.85-16.96-10.48-16.93-13.22l-.2,20.04c7.41,7.43,16.39,13.26,26.4,16.93,5.45,2,11.21,3.36,17.18,3.99Z"/><path class="cls-3" d="m580.89,78.93c0,11.2-4.51,21.34-11.8,28.66v.62c7.51-7.71,16.69-13.75,26.97-17.52.79-3.79,1.21-7.72,1.21-11.75s-.42-7.96-1.21-11.75c-10.01-3.67-18.99-9.51-26.4-16.93v.62c6.95,7.27,11.23,17.16,11.23,28.07Z"/><path class="cls-3" d="m400.76,1014.03l-5.61,16.08c4.41,3.42,7.61,8.37,8.78,14.07,4.58-.81,10.04-1.56,16.24-2.23-2.09-11.94-9.37-22.06-19.4-27.92Z"/><path class="cls-3" d="m52.57,493.23l-16.14-2.71c-.21,1.61-.47,3.2-.81,4.77,2.53,5.05,5.38,13.24,8.42,23.73,1.9-3.43,3.55-7.03,4.9-10.77,1.72-4.79,2.93-9.82,3.64-15.02Z"/><path class="cls-3" d="m60.56,523.56c22.11,0,40.03,18.1,40.03,40.42s-16.35,38.78-37.08,40.3c1.04,5.39,2.07,10.84,3.08,16.33,1.9-.21,3.78-.5,5.62-.89,7.34-20.39,23.36-36.57,43.55-43.98.79-3.79,1.21-7.72,1.21-11.75s-.42-7.96-1.21-11.75c-20.19-7.41-36.21-23.59-43.55-43.98-3.76-.8-7.65-1.22-11.64-1.22s-7.88.42-11.64,1.22c-1.35,3.74-2.99,7.34-4.9,10.77.67,2.32,1.35,4.75,2.04,7.29,4.5-1.77,9.38-2.74,14.49-2.74Z"/><path class="cls-3" d="m60.56,507.03c3.99,0,7.88.42,11.64,1.22-1.42-3.94-2.5-8.05-3.23-12.27l-16.4-2.75c-.71,5.2-1.92,10.23-3.64,15.02,3.76-.8,7.65-1.22,11.64-1.22Z"/><path class="cls-3" d="m739.55,1028.57c1-2.97,4.26-7.64,9.33-13.58-14.66-10.29-24.26-27.41-24.26-46.79,0-31.46,25.25-56.96,56.4-56.96,20.35,0,38.19,10.89,48.1,27.22,4.15-3.61,8.35-7.22,12.57-10.83-8.54-13-21.05-23.11-35.81-28.53-5.45-2-11.2-3.36-17.17-4-2.53-.27-5.1-.41-7.69-.41s-5.15.14-7.69.41c-5.97.63-11.72,1.99-17.17,4-20.19,7.42-36.21,23.59-43.55,43.99-1.06,2.93-1.91,5.95-2.6,9.04l28,75.32"/><path class="cls-3" d="m645.78,1037.29c-.22,1.07-.41,2.15-.57,3.25,5.88.46,11.36.97,16.34,1.52,2.01-11.66,8.96-21.61,18.6-27.55l-.86-2.47c-8.42,11.42-20.03,20.29-33.52,25.24Z"/><path class="cls-3" d="m620.92,1025.16c-31.15,0-56.4-25.5-56.4-56.96,0-13.78,4.85-26.42,12.91-36.27-6.39-.17-12.95-.3-19.59-.38-2.09,3.66-3.89,7.52-5.34,11.54-1.98,5.5-3.33,11.32-3.95,17.35-.27,2.55-.41,5.14-.41,7.76s.14,5.21.41,7.76c.63,6.03,1.97,11.84,3.95,17.35,7.34,20.39,23.36,36.57,43.55,43.98.79.29,1.6.54,2.4.8,13.69.45,26.63,1.06,38.3,1.84,3.08-.69,6.1-1.56,9.02-2.64,13.49-4.95,25.09-13.83,33.52-25.24l-7.06-20.22c-8.89,19.66-28.52,33.33-51.32,33.33Z"/><path class="cls-3" d="m661.55,1042.06c6.22.69,11.69,1.46,16.23,2.3,1.07-5.44,3.98-10.21,8.03-13.64l-5.66-16.2c-9.64,5.94-16.59,15.89-18.6,27.55Z"/><path class="cls-3" d="m483.38,1038.06c.72-.02,1.44-.05,2.17-.07.05-.23.08-.47.13-.7-.76.28-1.53.51-2.3.77Z"/><path class="cls-3" d="m965.98,737.42c-5.45-2-11.21-3.36-17.18-3.99-2.53-.27-5.09-.41-7.68-.41s-5.16.14-7.68.41c-5.97.63-11.72,1.99-17.18,3.99-.81.3-1.59.63-2.38.95l20.39,11.61c2.25-.28,4.53-.43,6.85-.43,22.92,0,42.64,13.82,51.46,33.65l7.13,4.23c-2.83-1.61-6.2-14.19-5.27-30.9-7.78-8.46-17.5-15.09-28.46-19.11Z"/><path class="cls-3" d="m401.77,1011.15l-1.01,2.88c10.03,5.86,17.31,15.98,19.4,27.92,5-.54,10.48-1.04,16.35-1.49-.16-1.07-.34-2.12-.56-3.17-13.84-5.08-25.72-14.28-34.19-26.14Z"/><path class="cls-3" d="m529.23,993.31c1.98-5.5,3.33-11.32,3.95-17.35.27-2.55.41-5.14.41-7.76s-.14-5.21-.41-7.76c-.63-6.03-1.97-11.84-3.95-17.35-1.45-4.03-3.25-7.89-5.35-11.56-6.64.08-13.21.2-19.6.36,8.08,9.86,12.94,22.5,12.94,36.3,0,31.46-25.25,56.96-56.4,56.96-23.28,0-43.26-14.24-51.87-34.57l-7.18,20.56c8.47,11.85,20.35,21.06,34.19,26.14,2.85,1.04,5.78,1.9,8.78,2.59,11.78-.77,24.85-1.38,38.65-1.82.77-.25,1.54-.49,2.3-.77,20.19-7.41,36.21-23.59,43.55-43.98Z"/><path class="cls-3" d="m436.52,1040.46c2.66-.2,5.4-.4,8.22-.58-3-.68-5.93-1.54-8.78-2.59.22,1.05.4,2.1.56,3.17Z"/><path class="cls-3" d="m692.55,1050l-6.74-19.29c-4.06,3.43-6.96,8.2-8.03,13.64,8.71,1.61,14.02,3.49,14.77,5.65Z"/><path class="cls-3" d="m540.87,1008.62c-18.15,0-33.48,12.21-38.38,28.94,5.87-.12,11.81-.21,17.8-.27,4.06-7.24,11.75-12.13,20.57-12.13s16.52,4.9,20.58,12.14c5.99.07,11.94.16,17.8.28-4.89-16.74-20.22-28.96-38.38-28.96Z"/><path class="cls-3" d="m552.5,993.31c-3.76-.8-7.65-1.22-11.64-1.22s-7.88.42-11.64,1.22c-7.34,20.39-23.36,36.57-43.55,43.98-.05.23-.08.47-.13.7,5.55-.17,11.21-.31,16.94-.43,4.9-16.73,20.22-28.94,38.38-28.94s33.49,12.22,38.38,28.96c5.74.12,11.4.26,16.94.44-.05-.24-.08-.49-.13-.73-20.19-7.41-36.21-23.59-43.55-43.98Z"/><path class="cls-3" d="m596.19,1038.02c.76.02,1.52.05,2.27.07-.8-.26-1.61-.51-2.4-.8.05.24.09.49.13.73Z"/><path class="cls-3" d="m636.76,1039.93c2.9.19,5.72.4,8.45.61.16-1.09.35-2.18.57-3.25-2.92,1.07-5.94,1.95-9.02,2.64Z"/><path class="cls-3" d="m561.45,1037.3c-4.06-7.24-11.75-12.14-20.58-12.14s-16.51,4.89-20.57,12.13c13.65-.14,27.52-.14,41.16.01Z"/><path class="cls-3" d="m965.98,713.92c-.79,3.79-1.21,7.72-1.21,11.75s.42,7.96,1.21,11.75c10.96,4.02,20.68,10.65,28.46,19.11.01-.25.03-.5.04-.75-8.18-7.4-13.34-18.15-13.34-30.12,0-15.17,8.28-28.38,20.52-35.3.29-2.03.58-4.08.88-6.14-8.55,13.56-21.38,24.11-36.57,29.68Z"/><path class="cls-3" d="m997.52,402.3c0,13.19,10.59,23.89,23.65,23.89,2.22,0,4.35-.33,6.39-.91-7.03-8.73-15.92-21.45-25.8-36.6-2.67,3.87-4.24,8.56-4.24,13.63Z"/><path class="cls-3" d="m965.98,414.05c-5.45-2-11.21-3.36-17.18-3.99-2.53-.27-5.09-.41-7.68-.41s-5.16.14-7.68.41c-5.97.63-11.72,1.99-17.18,3.99-5.92,2.17-11.46,5.12-16.55,8.68,3.23,4.94,6.31,9.53,9.19,13.67,9.13-6.43,20.24-10.22,32.22-10.22,18.28,0,34.53,8.79,44.83,22.41l17.53-3.3c-8.53-14.31-21.73-25.45-37.5-31.24Z"/><path class="cls-3" d="m948.4,563.98c0,2.62.14,5.21.41,7.76,5.97.63,11.72,1.99,17.18,3.99-.79-3.79-1.21-7.72-1.21-11.75s.42-7.96,1.21-11.75c-5.45,2-11.21,3.36-17.18,3.99-.27,2.55-.41,5.14-.41,7.76Z"/><path class="cls-3" d="m981.14,725.67c0,11.97,5.15,22.72,13.34,30.12.99-17.05,3.59-40.01,7.18-65.42-12.24,6.91-20.52,20.13-20.52,35.3Z"/><path class="cls-3" d="m941.12,571.33c-2.6,0-5.16.14-7.68.41-5.97.63-11.72,1.99-17.18,3.99-.47.17-.93.38-1.4.56-1.35,6.65-2.68,13.51-3.98,20.46,8.74-5.62,19.11-8.89,30.24-8.89,31.15,0,56.4,25.5,56.4,56.96s-25.25,56.96-56.4,56.96c-17.42,0-32.99-7.98-43.33-20.51-.89,7.69-1.58,14.79-2.03,21.01,6.11,4.93,13.02,8.89,20.51,11.63,5.45,2,11.21,3.36,17.18,3.99,2.53.27,5.09.41,7.68.41s5.16-.14,7.68-.41c5.97-.63,11.72-1.99,17.18-3.99,15.19-5.58,28.02-16.12,36.57-29.68,2.67-18.31,5.81-37.72,9.22-56.97-.62-2.57-1.36-5.09-2.24-7.55-7.34-20.39-23.36-36.57-43.55-43.98-5.45-2-11.21-3.36-17.18-3.99-2.53-.27-5.09-.41-7.68-.41Z"/><path class="cls-3" d="m941.12,540.1c-6.12,0-12.01-1-17.53-2.82-1.26,5.01-2.55,10.41-3.84,16.11,4.4,1.36,8.97,2.33,13.69,2.83,2.53.27,5.09.41,7.68.41s5.16-.14,7.68-.41c5.97-.63,11.72-1.99,17.18-3.99,20.19-7.41,36.21-23.59,43.55-43.98,1.98-5.51,3.33-11.32,3.95-17.35.06-.6.09-1.2.14-1.8l-16.78,2.81c-4.18,27.29-27.54,48.19-55.73,48.19Z"/><path class="cls-3" d="m964.77,402.3c0,4.03.42,7.96,1.21,11.75,15.76,5.79,28.96,16.93,37.5,31.24l14.42-2.72c-20.57-1.69-36.75-19.07-36.75-40.28,0-10.95,4.32-20.87,11.32-28.15-.08-.13-.16-.26-.24-.39-7.38,7.35-16.3,13.13-26.24,16.78-.79,3.79-1.21,7.72-1.21,11.75Z"/><path class="cls-3" d="m941.12,378.41c-31.15,0-56.4-25.5-56.4-56.96,0-27.47,19.26-50.4,44.89-55.77-2.73-5.11-5.38-10.13-7.94-15.04-1.83.51-3.64,1.07-5.41,1.72-20.19,7.41-36.21,23.59-43.55,43.98-1.98,5.51-3.33,11.32-3.95,17.35-.27,2.55-.41,5.14-.41,7.76s.14,5.21.41,7.76c.63,6.03,1.97,11.84,3.95,17.35,7.34,20.39,23.36,36.57,43.55,43.98,5.45,2,11.21,3.36,17.18,3.99,2.53.27,5.09.41,7.68.41s5.16-.14,7.68-.41c5.97-.63,11.72-1.99,17.18-3.99,9.94-3.65,18.86-9.43,26.24-16.78-2.94-4.67-5.94-9.5-8.97-14.45-10.33,11.72-25.37,19.1-42.13,19.1Z"/><path class="cls-3" d="m1038.67,438.65l-20.78,3.93c-20.57-1.69-36.75-19.07-36.75-40.28,0-10.95,4.32-20.87,11.32-28.15,3.17,5.04,6.27,9.9,9.3,14.53-2.67,3.87-4.24,8.56-4.24,13.62,0,13.19,10.58,23.89,23.64,23.89,2.22,0,4.36-.34,6.39-.91,5.6,6.96,10.02,11.38,12.8,12.5"/></svg>