<?xml version="1.0" encoding="UTF-8"?><svg id="Layer_1" xmlns="http://www.w3.org/2000/svg" viewBox="0 0 1080 1080"><defs><style>.cls-1{fill:none;stroke:#2c9aa1;stroke-miterlimit:10;stroke-width:5.49px;}.cls-2{fill:#9b4c44;}</style></defs><path class="cls-1" d="m1045.94,485.3c.3,2.78.56,5.57.81,8.36-.02-2.86-.3-5.65-.81-8.36Z"/><path class="cls-1" d="m32.99,493.67c.25-2.79.51-5.59.81-8.37-.51,2.71-.8,5.51-.81,8.37Z"/><path class="cls-1" d="m363.93,125.28c0-2.99.16-5.94.47-8.85-2.91.31-5.86.47-8.85.47s-5.94-.16-8.85-.47c.31,2.91.47,5.86.47,8.85s-.16,5.94-.47,8.85c2.91-.31,5.86-.47,8.85-.47,4.63,0,8.38-3.75,8.38-8.38Z"/><path class="cls-1" d="m843.54,771.34c-6.76,8.86-13.89,17.43-21.38,25.66,11.95-2.6,20.95-13.04,21.38-25.66Z"/><path class="cls-1" d="m364.4,116.43c.72-6.87,2.27-13.5,4.55-19.77-4.32.91-8.8,1.39-13.4,1.39s-9.07-.48-13.4-1.39c2.28,6.28,3.83,12.9,4.55,19.77,2.91.31,5.86.47,8.85.47s5.94-.16,8.85-.47Z"/><path class="cls-1" d="m816.36,152.51c-35.86,0-64.93,29.07-64.93,64.93,0,1.54-.16,3.03-.4,4.5,5.57,3.7,11.03,7.54,16.39,11.52,1.85-4.99,2.87-10.39,2.87-16.02,0-25.45,20.63-46.08,46.08-46.08,19.05,0,35.4-11.56,42.42-28.05-5.19-4.18-10.46-8.27-15.82-12.25-2.65,12.26-13.55,21.45-26.6,21.45Z"/><path class="cls-1" d="m724.2,171.36c25.45,0,46.08-20.63,46.08-46.08,0-12.58,5.04-23.97,13.21-32.29-5.69-3.11-11.45-6.08-17.27-8.98-9.24,11.22-14.8,25.59-14.8,41.26s-12.19,27.23-27.23,27.23c-22.42,0-42.18,11.36-53.85,28.63,6.13,2.23,12.19,4.6,18.17,7.13,8.45-10.32,21.29-16.92,35.67-16.92Z"/><path class="cls-1" d="m724.2,171.36c-14.38,0-27.22,6.59-35.67,16.92,6.15,2.6,12.22,5.38,18.2,8.29,4.73-3.96,10.82-6.36,17.47-6.36,4.59,0,9.07-.48,13.4-1.39,8.45-23.25,26.89-41.69,50.14-50.14.91-4.32,1.39-8.8,1.39-13.4,0-9.26,4.63-17.43,11.7-22.35-5.71-3.42-11.48-6.74-17.34-9.94-8.17,8.31-13.21,19.71-13.21,32.29,0,25.45-20.63,46.08-46.08,46.08Z"/><path class="cls-1" d="m733.04,208.59c.72-6.87,2.27-13.5,4.55-19.77-4.32.91-8.8,1.39-13.4,1.39-6.65,0-12.74,2.39-17.47,6.36,7.88,3.84,15.62,7.92,23.19,12.28,1.05-.07,2.09-.14,3.13-.25Z"/><path class="cls-1" d="m539.87,116.9c2.99,0,5.94-.16,8.85-.47.72-6.87,2.27-13.5,4.55-19.77-4.32.91-8.8,1.39-13.4,1.39s-9.07-.48-13.4-1.39c2.28,6.28,3.83,12.9,4.55,19.77,2.91.31,5.86.47,8.85.47Z"/><path class="cls-1" d="m732.88,210.6c6.16,3.62,12.21,7.4,18.14,11.34.24-1.47.4-2.96.4-4.5,0-35.86,29.07-64.93,64.93-64.93,13.05,0,23.95-9.19,26.6-21.45-13.54-10.05-27.6-19.44-42.13-28.13-7.07,4.92-11.7,13.09-11.7,22.35,0,4.59-.48,9.07-1.39,13.4,6.28-2.28,12.9-3.83,19.77-4.55.31-2.91.47-5.86.47-8.85,0-4.63,3.75-8.38,8.38-8.38s8.38,3.75,8.38,8.38-3.75,8.38-8.38,8.38c-2.99,0-5.94.16-8.85.47-6.87.72-13.5,2.27-19.77,4.55-23.25,8.45-41.69,26.89-50.14,50.14-2.28,6.28-3.83,12.9-4.55,19.77-.07.66-.1,1.34-.16,2.01Z"/><path class="cls-1" d="m632.03,60.35c-35.86,0-64.93,29.07-64.93,64.93,0,15.04-12.19,27.23-27.23,27.23-10.42,0-20.26,2.47-28.99,6.83,9.57-.72,19.24-1.09,28.99-1.09,10.39,0,20.68.43,30.86,1.24,9.35-8.43,15.22-20.64,15.22-34.22,0-25.45,20.63-46.08,46.08-46.08s46.08,20.63,46.08,46.08c0,23.47-17.55,42.82-40.23,45.7,4.73,1.25,9.44,2.59,14.1,4.02,9.81-16.65,25.18-29.63,43.59-36.32.91-4.32,1.39-8.8,1.39-13.4,0-35.86-29.07-64.93-64.93-64.93Z"/><path class="cls-1" d="m724.2,116.9c2.99,0,5.94-.16,8.85-.47.72-6.87,2.27-13.5,4.55-19.77-4.32.91-8.8,1.39-13.4,1.39s-9.07-.48-13.4-1.39c2.28,6.28,3.83,12.9,4.55,19.77,2.91.31,5.86.47,8.85.47Z"/><path class="cls-1" d="m715.35,116.43c.31,2.91.47,5.86.47,8.85s-.16,5.94-.47,8.85c2.91-.31,5.86-.47,8.85-.47,4.63,0,8.38-3.75,8.38-8.38,0-2.99.16-5.94.47-8.85-2.91.31-5.86.47-8.85.47s-5.94-.16-8.85-.47Z"/><path class="cls-1" d="m548.25,125.28c0,4.63-3.75,8.38-8.38,8.38-2.99,0-5.94.16-8.85.47-6.87.72-13.5,2.27-19.77,4.55-13.98,5.08-26.2,13.8-35.58,24.98,11.57-1.96,23.31-3.42,35.21-4.31,8.73-4.36,18.57-6.83,28.99-6.83,15.04,0,27.23-12.19,27.23-27.23,0-35.86,29.07-64.93,64.93-64.93s64.93,29.07,64.93,64.93c0,4.59-.48,9.07-1.39,13.4,6.28-2.28,12.9-3.83,19.77-4.55.31-2.91.47-5.86.47-8.85s-.16-5.94-.47-8.85c-.72-6.87-2.27-13.5-4.55-19.77-8.45-23.25-26.89-41.69-50.14-50.14-6.28-2.28-12.9-3.83-19.77-4.55-2.91-.31-5.86-.47-8.85-.47s-5.94.16-8.85.47c-6.87.72-13.5,2.27-19.77,4.55-23.25,8.45-41.69,26.89-50.14,50.14-2.28,6.28-3.83,12.9-4.55,19.77-.31,2.91-.47,5.86-.47,8.85Z"/><path class="cls-1" d="m272.24,853.72c-2.91.31-5.86.47-8.85.47-4.63,0-8.38,3.75-8.38,8.38,0,2.99-.16,5.94-.47,8.85,2.91-.31,5.86-.47,8.85-.47s5.94.16,8.85.47c-.31-2.91-.47-5.86-.47-8.85s.16-5.94.47-8.85Z"/><path class="cls-1" d="m296.98,834.52c-4.98-4.11-9.85-8.36-14.62-12.72-2.16,3.87-4.03,7.93-5.57,12.14-2.28,6.28-3.83,12.9-4.55,19.77-.31,2.91-.47,5.86-.47,8.85s.16,5.94.47,8.85c6.87.72,13.5,2.27,19.77,4.55-.91-4.32-1.39-8.8-1.39-13.4,0-10.04,2.28-19.56,6.36-28.05Z"/><path class="cls-1" d="m346.71,945.88c.31,2.91.47,5.86.47,8.85s-.16,5.94-.47,8.85c2.91-.31,5.86-.47,8.85-.47,4.63,0,8.38-3.75,8.38-8.38,0-2.99.16-5.94.47-8.85-2.91.31-5.86.47-8.85.47s-5.94-.16-8.85-.47Z"/><path class="cls-1" d="m263.39,854.19c2.99,0,5.94-.16,8.85-.47.72-6.87,2.27-13.5,4.55-19.77-4.32.91-8.8,1.39-13.4,1.39-15.04,0-27.23,12.19-27.23,27.23,0,4.59-.48,9.07-1.39,13.4,6.28-2.28,12.9-3.83,19.77-4.55.31-2.91.47-5.86.47-8.85,0-4.63,3.75-8.38,8.38-8.38Z"/><path class="cls-1" d="m342.15,926.11c2.28,6.28,3.83,12.9,4.55,19.77,2.91.31,5.86.47,8.85.47s5.94-.16,8.85-.47c.72-6.87,2.27-13.5,4.55-19.77-4.32.91-8.8,1.39-13.4,1.39s-9.07-.48-13.4-1.39Z"/><path class="cls-1" d="m171.23,835.34c4.59,0,9.07-.48,13.4-1.39,8.45-23.25,26.89-41.69,50.14-50.14.85-4.06,1.31-8.26,1.37-12.56-5.05-6.62-9.88-13.4-14.5-20.35-2.77,5.93-4.33,12.54-4.33,19.51,0,25.45-20.63,46.08-46.08,46.08-18.01,0-33.6,10.34-41.18,25.4,4.55,6.17,9.25,12.24,14.07,18.19,1.26-13.87,12.91-24.74,27.1-24.74Z"/><path class="cls-1" d="m258.38,797.85c-33.52,2.56-59.92,30.55-59.92,64.72,0,15.04-12.19,27.23-27.23,27.23-.39,0-.77-.04-1.15-.06,5.28,5.58,10.69,11.04,16.22,16.38,18.05-6.24,31.01-23.38,31.01-43.55,0-25.45,20.63-46.08,46.08-46.08,4.05,0,7.97-.53,11.71-1.5-5.75-5.54-11.33-11.25-16.72-17.13Z"/><path class="cls-1" d="m751.43,862.57c0,15.04-12.19,27.23-27.23,27.23-6.65,0-12.74-2.39-17.47-6.36-5.98,2.91-12.05,5.69-18.2,8.29,8.45,10.32,21.29,16.92,35.67,16.92,25.45,0,46.08-20.63,46.08-46.08,0-8.33,2.22-16.14,6.09-22.88-7.99,6.32-16.25,12.31-24.74,17.98-.12,1.62-.2,3.25-.2,4.9Z"/><path class="cls-1" d="m751.43,862.57c0-1.65.08-3.28.2-4.9-14.32,9.56-29.31,18.18-44.9,25.77,4.73,3.96,10.82,6.36,17.47,6.36,15.04,0,27.23-12.19,27.23-27.23Z"/><path class="cls-1" d="m524.6,921.42c.67,1.54,1.3,3.1,1.88,4.68,4.32.91,8.8,1.39,13.4,1.39s9.07-.48,13.4-1.39c.58-1.59,1.21-3.14,1.88-4.68-5.07.2-10.16.33-15.28.33s-10.21-.13-15.28-.33Z"/><path class="cls-1" d="m171.23,816.49c25.45,0,46.08-20.63,46.08-46.08,0-6.98,1.56-13.58,4.33-19.51-3.91-5.89-7.66-11.89-11.24-17.99-7.51,10.59-11.94,23.53-11.94,37.51,0,15.04-12.19,27.23-27.23,27.23-21.92,0-41.29,10.87-53.04,27.51,3.84,5.67,7.81,11.24,11.87,16.74,7.58-15.06,23.17-25.4,41.18-25.4Z"/><path class="cls-1" d="m355.55,908.65c-25.45,0-46.08-20.63-46.08-46.08,0-5.63,1.01-11.03,2.87-16.02-5.22-3.88-10.35-7.89-15.36-12.03-4.07,8.49-6.36,18-6.36,28.05,0,4.59.48,9.07,1.39,13.4,23.25,8.45,41.69,26.89,50.14,50.14,4.32.91,8.8,1.39,13.4,1.39s9.07-.48,13.4-1.39c4.8-13.21,12.84-24.86,23.14-34.02-.29-.12-.58-.23-.87-.36-8.45,10.32-21.29,16.92-35.67,16.92Z"/><path class="cls-1" d="m531.03,945.88c-.72-6.87-2.27-13.5-4.55-19.77-.58-1.59-1.21-3.14-1.88-4.68-7.41-.29-14.78-.78-22.08-1.49,6.4,10.06,10.12,21.99,10.12,34.8,0,4.59-.48,9.07-1.39,13.4,6.28-2.28,12.9-3.83,19.77-4.55.31-2.91.47-5.86.47-8.85s-.16-5.94-.47-8.85Z"/><path class="cls-1" d="m526.47,926.11c2.28,6.28,3.83,12.9,4.55,19.77,2.91.31,5.86.47,8.85.47s5.94-.16,8.85-.47c.72-6.87,2.27-13.5,4.55-19.77-4.32.91-8.8,1.39-13.4,1.39s-9.07-.48-13.4-1.39Z"/><path class="cls-1" d="m179.61,309.6c0-2.99.16-5.94.47-8.85-2.91.31-5.86.47-8.85.47s-5.94-.16-8.85-.47c.31,2.91.47,5.86.47,8.85s-.16,5.94-.47,8.85c2.91-.31,5.86-.47,8.85-.47,4.63,0,8.38-3.75,8.38-8.38Z"/><path class="cls-1" d="m87.92,392.92c-2.91.31-5.86.47-8.85.47-4.63,0-8.38,3.75-8.38,8.38,0,2.99-.16,5.94-.47,8.85,2.91-.31,5.86-.47,8.85-.47s5.94.16,8.85.47c-.31-2.91-.47-5.86-.47-8.85s.16-5.94.47-8.85Z"/><path class="cls-1" d="m171.23,336.83c15.04,0,27.23-12.19,27.23-27.23,0-35.86,29.07-64.93,64.93-64.93,9.79,0,19.06,2.18,27.39,6.06,5.15-4.44,10.42-8.73,15.81-12.89-4.59-2.77-9.46-5.14-14.57-7-6.28-2.28-12.9-3.83-19.77-4.55-2.91-.31-5.86-.47-8.85-.47s-5.94.16-8.85.47c-6.87.72-13.5,2.27-19.77,4.55-23.25,8.45-41.69,26.89-50.14,50.14-2.28,6.28-3.83,12.9-4.55,19.77-.31,2.91-.47,5.86-.47,8.85,0,4.63-3.75,8.38-8.38,8.38-2.99,0-5.94.16-8.85.47-6.87.72-13.5,2.27-19.77,4.55-23.25,8.45-41.69,26.89-50.14,50.14-2.28,6.28-3.83,12.9-4.55,19.77-.31,2.91-.47,5.86-.47,8.85s.16,5.94.47,8.85c6.87.72,13.5,2.27,19.77,4.55-.91-4.32-1.39-8.8-1.39-13.4,0-35.86,29.07-64.93,64.93-64.93Z"/><path class="cls-1" d="m79.07,393.38c2.99,0,5.94-.16,8.85-.47.72-6.87,2.27-13.5,4.55-19.77-4.32.91-8.8,1.39-13.4,1.39-15.04,0-27.23,12.19-27.23,27.23,0,4.59-.48,9.07-1.39,13.4,6.28-2.28,12.9-3.83,19.77-4.55.31-2.91.47-5.86.47-8.85,0-4.63,3.75-8.38,8.38-8.38Z"/><path class="cls-1" d="m169.36,447.8c-24.58-.98-44.21-21.21-44.21-46.03s20.63-46.08,46.08-46.08,46.08-20.63,46.08-46.08,20.63-46.08,46.08-46.08c4.05,0,7.97.53,11.71,1.5,5.09-4.91,10.32-9.68,15.68-14.3-8.32-3.88-17.6-6.06-27.39-6.06-35.86,0-64.93,29.07-64.93,64.93,0,15.04-12.19,27.23-27.23,27.23-35.86,0-64.93,29.07-64.93,64.93,0,4.59.48,9.07,1.39,13.4,23.25,8.45,41.69,26.89,50.14,50.14,2.42.51,4.9.87,7.41,1.1,1.22-6.26,2.6-12.46,4.12-18.61Z"/><path class="cls-1" d="m900.14,770.41c0-4.63,3.75-8.38,8.38-8.38,2.99,0,5.94-.16,8.85-.47.72-6.87,2.27-13.5,4.55-19.77-4.32.91-8.8,1.39-13.4,1.39-15.04,0-27.23,12.19-27.23,27.23,0,4.59-.48,9.07-1.39,13.4,6.28-2.28,12.9-3.83,19.77-4.55.31-2.91.47-5.86.47-8.85Z"/><path class="cls-1" d="m271.77,217.44c0,2.99.16,5.94.47,8.85,6.87.72,13.5,2.27,19.77,4.55-.91-4.32-1.39-8.8-1.39-13.4,0-35.86,29.07-64.93,64.93-64.93,15.04,0,27.23-12.19,27.23-27.23,0-35.86,29.07-64.93,64.93-64.93s64.93,29.07,64.93,64.93c0,4.59-.48,9.07-1.39,13.4,6.28-2.28,12.9-3.83,19.77-4.55.31-2.91.47-5.86.47-8.85s-.16-5.94-.47-8.85c-.72-6.87-2.27-13.5-4.55-19.77-8.45-23.25-26.89-41.69-50.14-50.14-6.28-2.28-12.9-3.83-19.77-4.55-2.91-.31-5.86-.47-8.85-.47s-5.94.16-8.85.47c-6.87.72-13.5,2.27-19.77,4.55-23.25,8.45-41.69,26.89-50.14,50.14-2.28,6.28-3.83,12.9-4.55,19.77-.31,2.91-.47,5.86-.47,8.85,0,4.63-3.75,8.38-8.38,8.38-2.99,0-5.94.16-8.85.47-6.87.72-13.5,2.27-19.77,4.55-23.25,8.45-41.69,26.89-50.14,50.14-2.28,6.28-3.83,12.9-4.55,19.77-.31,2.91-.47,5.86-.47,8.85Z"/><path class="cls-1" d="m180.08,300.75c.72-6.87,2.27-13.5,4.55-19.77-4.32.91-8.8,1.39-13.4,1.39s-9.07-.48-13.4-1.39c2.28,6.28,3.83,12.9,4.55,19.77,2.91.31,5.86.47,8.85.47s5.94-.16,8.85-.47Z"/><path class="cls-1" d="m174.51,650.93c-1.88-6.21-3.61-12.48-5.18-18.81-24.57-.99-44.19-21.22-44.19-46.03,0-20.9,13.92-38.55,33-44.19,0-.63-.02-1.26-.02-1.9,0-5.9.15-11.77.42-17.6-29.79,5.9-52.24,32.17-52.24,63.68,0,4.59.48,9.07,1.39,13.4,23.25,8.45,41.69,26.89,50.14,50.14,4.32.91,8.8,1.39,13.4,1.39,1.1,0,2.2-.03,3.28-.09Z"/><path class="cls-1" d="m158.54,522.4c.29-6.47.75-12.91,1.36-19.29-5.99.81-11.78,2.21-17.3,4.22-23.25,8.45-41.69,26.89-50.14,50.14-2.28,6.28-3.83,12.9-4.55,19.77-.31,2.91-.47,5.86-.47,8.85s.16,5.94.47,8.85c6.87.72,13.5,2.27,19.77,4.55-.91-4.32-1.39-8.8-1.39-13.4,0-31.52,22.46-57.78,52.24-63.68Z"/><path class="cls-1" d="m171.23,651.02c-4.59,0-9.07-.48-13.4-1.39,2.28,6.28,3.83,12.9,4.55,19.77,2.91.31,5.86.47,8.85.47s5.94-.16,8.85-.47c.04-.38.11-.76.15-1.14-2.04-5.72-3.95-11.49-5.72-17.33-1.09.05-2.18.09-3.28.09Z"/><path class="cls-1" d="m79.07,577.71c2.99,0,5.94-.16,8.85-.47.72-6.87,2.27-13.5,4.55-19.77-4.32.91-8.8,1.39-13.4,1.39-15.04,0-27.23,12.19-27.23,27.23,0,4.59-.48,9.07-1.39,13.4,6.28-2.28,12.9-3.83,19.77-4.55.31-2.91.47-5.86.47-8.85,0-4.63,3.75-8.38,8.38-8.38Z"/><path class="cls-1" d="m157.83,465.3c2.16,5.93,3.63,12.18,4.4,18.65.87-5.9,1.88-11.75,3.01-17.55-2.51-.23-4.99-.59-7.41-1.1Z"/><path class="cls-1" d="m87.92,577.24c-2.91.31-5.86.47-8.85.47-4.63,0-8.38,3.75-8.38,8.38,0,2.99-.16,5.94-.47,8.85,2.91-.31,5.86-.47,8.85-.47s5.94.16,8.85.47c-.31-2.91-.47-5.86-.47-8.85s.16-5.94.47-8.85Z"/><path class="cls-1" d="m255.01,217.44c0-4.63,3.75-8.38,8.38-8.38,2.99,0,5.94-.16,8.85-.47.72-6.87,2.27-13.5,4.55-19.77-4.32.91-8.8,1.39-13.4,1.39-15.04,0-27.23,12.19-27.23,27.23,0,4.59-.48,9.07-1.39,13.4,6.28-2.28,12.9-3.83,19.77-4.55.31-2.91.47-5.86.47-8.85Z"/><path class="cls-1" d="m659.26,125.28c0-15.04-12.19-27.23-27.23-27.23s-27.23,12.19-27.23,27.23c0,4.59-.48,9.07-1.39,13.4,6.28-2.28,12.9-3.83,19.77-4.55.31-2.91.47-5.86.47-8.85,0-4.63,3.75-8.38,8.38-8.38s8.38,3.75,8.38,8.38-3.75,8.38-8.38,8.38c-2.99,0-5.94.16-8.85.47-6.87.72-13.5,2.27-19.77,4.55-12.22,4.44-23.1,11.67-31.91,20.89,8.7.71,17.32,1.71,25.85,2.99,10.04-6.36,21.93-10.05,34.68-10.05,15.04,0,27.23-12.19,27.23-27.23Z"/><path class="cls-1" d="m992.3,586.08c0-4.63,3.75-8.38,8.38-8.38,2.99,0,5.94-.16,8.85-.47.72-6.87,2.27-13.5,4.55-19.77-4.32.91-8.8,1.39-13.4,1.39-15.04,0-27.23,12.19-27.23,27.23,0,4.59-.48,9.07-1.39,13.4,6.28-2.28,12.9-3.83,19.77-4.55.31-2.91.47-5.86.47-8.85Z"/><path class="cls-1" d="m992.3,770.41c0,1.06-.04,2.11-.08,3.17,1.88-3.64,3.72-7.3,5.51-10.98-3.17,1.2-5.43,4.23-5.43,7.82Z"/><path class="cls-1" d="m328.32,862.57c0,15.04,12.19,27.23,27.23,27.23,6.65,0,12.74-2.39,17.47-6.36-15.37-7.48-30.16-15.97-44.3-25.38-.24,1.47-.4,2.96-.4,4.5Z"/><path class="cls-1" d="m900.14,862.57c0,4.63,3.75,8.38,8.38,8.38s8.38-3.75,8.38-8.38c0-2.99.16-5.94.47-8.85-2.91.31-5.86.47-8.85.47-4.63,0-8.38,3.75-8.38,8.38Z"/><path class="cls-1" d="m825.2,853.72c-2.91.31-5.86.47-8.85.47-4.63,0-8.38,3.75-8.38,8.38,0,2.99-.16,5.94-.47,8.85,2.91-.31,5.86-.47,8.85-.47s5.94.16,8.85.47c-.31-2.91-.47-5.86-.47-8.85s.16-5.94.47-8.85Z"/><path class="cls-1" d="m908.52,428.99c15.04,0,27.23-12.19,27.23-27.23,0-35.86,29.07-64.93,64.93-64.93,1.96,0,3.87-.22,5.72-.61-2.68-6.12-5.45-12.18-8.35-18.17-2.09.07-4.16.18-6.21.4-6.87.72-13.5,2.27-19.77,4.55-23.25,8.45-41.69,26.89-50.14,50.14-2.28,6.28-3.83,12.9-4.55,19.77-.31,2.91-.47,5.86-.47,8.85,0,4.63-3.75,8.38-8.38,8.38s-8.38-3.75-8.38-8.38,3.75-8.38,8.38-8.38c2.99,0,5.94-.16,8.85-.47.72-6.87,2.27-13.5,4.55-19.77-4.32.91-8.8,1.39-13.4,1.39-8.07,0-15.3,3.53-20.29,9.11,6.55,14.57,12.2,29.64,16.91,45.11,1.11.14,2.23.23,3.38.23Z"/><path class="cls-1" d="m548.25,125.28c0-2.99.16-5.94.47-8.85-2.91.31-5.86.47-8.85.47s-5.94-.16-8.85-.47c.31,2.91.47,5.86.47,8.85s-.16,5.94-.47,8.85c2.91-.31,5.86-.47,8.85-.47,4.63,0,8.38-3.75,8.38-8.38Z"/><path class="cls-1" d="m640.41,125.28c0-4.63-3.75-8.38-8.38-8.38s-8.38,3.75-8.38,8.38c0,2.99-.16,5.94-.47,8.85,2.91-.31,5.86-.47,8.85-.47,4.63,0,8.38-3.75,8.38-8.38Z"/><path class="cls-1" d="m272.24,208.59c-2.91.31-5.86.47-8.85.47-4.63,0-8.38,3.75-8.38,8.38,0,2.99-.16,5.94-.47,8.85,2.91-.31,5.86-.47,8.85-.47s5.94.16,8.85.47c-.31-2.91-.47-5.86-.47-8.85s.16-5.94.47-8.85Z"/><path class="cls-1" d="m992.3,401.76c0-4.63,3.75-8.38,8.38-8.38,2.99,0,5.94-.16,8.85-.47.72-6.87,2.27-13.5,4.55-19.77-4.32.91-8.8,1.39-13.4,1.39-15.04,0-27.23,12.19-27.23,27.23,0,4.59-.48,9.07-1.39,13.4,6.28-2.28,12.9-3.83,19.77-4.55.31-2.91.47-5.86.47-8.85Z"/><path class="cls-1" d="m992.3,586.08c0,2.99-.16,5.94-.47,8.85,2.91-.31,5.86-.47,8.85-.47s5.94.16,8.85.47c-.31-2.91-.47-5.86-.47-8.85s.16-5.94.47-8.85c-2.91.31-5.86.47-8.85.47-4.63,0-8.38,3.75-8.38,8.38Z"/><path class="cls-1" d="m921.92,465.3c-2.42.51-4.9.87-7.41,1.1,1.13,5.81,2.14,11.65,3.01,17.55.77-6.47,2.24-12.72,4.4-18.65Z"/><path class="cls-1" d="m328.32,862.57c0-1.54.16-3.03.4-4.5-5.57-3.7-11.03-7.54-16.39-11.52-1.85,4.99-2.87,10.39-2.87,16.02,0,25.45,20.63,46.08,46.08,46.08,14.38,0,27.22-6.59,35.67-16.92-6.15-2.6-12.22-5.38-18.2-8.29-4.73,3.96-10.82,6.36-17.47,6.36-15.04,0-27.23-12.19-27.23-27.23Z"/><path class="cls-1" d="m724.2,946.35c2.99,0,5.94-.16,8.85-.47.72-6.87,2.27-13.5,4.55-19.77-4.32.91-8.8,1.39-13.4,1.39s-9.07-.48-13.4-1.39c2.28,6.28,3.83,12.9,4.55,19.77,2.91.31,5.86.47,8.85.47Z"/><path class="cls-1" d="m162.85,770.41c0,2.99-.16,5.94-.47,8.85,2.91-.31,5.86-.47,8.85-.47,4.63,0,8.38-3.75,8.38-8.38,0-2.99.16-5.94.47-8.85-2.91.31-5.86.47-8.85.47-4.63,0-8.38,3.75-8.38,8.38Z"/><path class="cls-1" d="m715.35,945.88c.31,2.91.47,5.86.47,8.85s-.16,5.94-.47,8.85c2.91-.31,5.86-.47,8.85-.47,4.63,0,8.38-3.75,8.38-8.38,0-2.99.16-5.94.47-8.85-2.91.31-5.86.47-8.85.47s-5.94-.16-8.85-.47Z"/><path class="cls-1" d="m696.97,954.73c0,4.59-.48,9.07-1.39,13.4,6.28-2.28,12.9-3.83,19.77-4.55.31-2.91.47-5.86.47-8.85s-.16-5.94-.47-8.85c-.72-6.87-2.27-13.5-4.55-19.77-4.8-13.21-12.84-24.86-23.14-34.02-6.78,2.85-13.66,5.49-20.64,7.95,18.01,11.54,29.95,31.71,29.95,54.69Z"/><path class="cls-1" d="m807.98,862.57c0-4.63,3.75-8.38,8.38-8.38,2.99,0,5.94-.16,8.85-.47.72-6.87,2.27-13.5,4.55-19.77-4.32.91-8.8,1.39-13.4,1.39-15.04,0-27.23,12.19-27.23,27.23,0,4.59-.48,9.07-1.39,13.4,6.28-2.28,12.9-3.83,19.77-4.55.31-2.91.47-5.86.47-8.85Z"/><path class="cls-1" d="m824.74,862.57c0,2.99.16,5.94.47,8.85,6.87.72,13.5,2.27,19.77,4.55-.91-4.32-1.39-8.8-1.39-13.4,0-35.86,29.07-64.93,64.93-64.93,15.04,0,27.23-12.19,27.23-27.23,0-35.86,29.07-64.93,64.93-64.93,15.04,0,27.23-12.19,27.23-27.23s-12.19-27.23-27.23-27.23-27.23,12.19-27.23,27.23c0,4.59-.48,9.07-1.39,13.4,6.28-2.28,12.9-3.83,19.77-4.55.31-2.91.47-5.86.47-8.85,0-4.63,3.75-8.38,8.38-8.38s8.38,3.75,8.38,8.38-3.75,8.38-8.38,8.38c-2.99,0-5.94.16-8.85.47-6.87.72-13.5,2.27-19.77,4.55-23.25,8.45-41.69,26.89-50.14,50.14-2.28,6.28-3.83,12.9-4.55,19.77-.31,2.91-.47,5.86-.47,8.85,0,4.63-3.75,8.38-8.38,8.38-2.99,0-5.94.16-8.85.47-6.87.72-13.5,2.27-19.77,4.55-23.25,8.45-41.69,26.89-50.14,50.14-2.28,6.28-3.83,12.9-4.55,19.77-.31,2.91-.47,5.86-.47,8.85Z"/><path class="cls-1" d="m900.14,401.76c0,4.63,3.75,8.38,8.38,8.38s8.38-3.75,8.38-8.38c0-2.99.16-5.94.47-8.85-2.91.31-5.86.47-8.85.47-4.63,0-8.38,3.75-8.38,8.38Z"/><path class="cls-1" d="m144,770.41c0,4.59-.48,9.07-1.39,13.4,6.28-2.28,12.9-3.83,19.77-4.55.31-2.91.47-5.86.47-8.85,0-4.63,3.75-8.38,8.38-8.38,2.99,0,5.94-.16,8.85-.47.72-6.87,2.27-13.5,4.55-19.77-4.32.91-8.8,1.39-13.4,1.39-15.04,0-27.23,12.19-27.23,27.23Z"/><path class="cls-1" d="m1009.06,678.24c0-4.63-3.75-8.38-8.38-8.38s-8.38,3.75-8.38,8.38c0,2.99-.16,5.94-.47,8.85,2.91-.31,5.86-.47,8.85-.47,4.63,0,8.38-3.75,8.38-8.38Z"/><path class="cls-1" d="m992.3,309.6c0-.81.15-1.58.36-2.31-3.16-6.14-6.46-12.2-9.86-18.19-5.72,4.99-9.36,12.32-9.36,20.51,0,4.59-.48,9.07-1.39,13.4,6.28-2.28,12.9-3.83,19.77-4.55.31-2.91.47-5.86.47-8.85Z"/><path class="cls-1" d="m992.3,309.6c0,2.99-.16,5.94-.47,8.85,2.05-.21,4.12-.33,6.21-.4-1.75-3.61-3.54-7.2-5.38-10.76-.21.74-.36,1.51-.36,2.31Z"/><path class="cls-1" d="m900.14,770.41c0,2.99-.16,5.94-.47,8.85,2.91-.31,5.86-.47,8.85-.47,4.63,0,8.38-3.75,8.38-8.38,0-2.99.16-5.94.47-8.85-2.91.31-5.86.47-8.85.47-4.63,0-8.38,3.75-8.38,8.38Z"/><path class="cls-1" d="m992.3,401.76c0,2.99-.16,5.94-.47,8.85,2.91-.31,5.86-.47,8.85-.47s5.94.16,8.85.47c-.31-2.91-.47-5.86-.47-8.85s.16-5.94.47-8.85c-2.91.31-5.86.47-8.85.47-4.63,0-8.38,3.75-8.38,8.38Z"/><path class="cls-1" d="m234.77,783.8c-23.25,8.45-41.69,26.89-50.14,50.14-2.28,6.28-3.83,12.9-4.55,19.77-.31,2.91-.47,5.86-.47,8.85,0,4.63-3.75,8.38-8.38,8.38s-8.38-3.75-8.38-8.38,3.75-8.38,8.38-8.38c2.99,0,5.94-.16,8.85-.47.72-6.87,2.27-13.5,4.55-19.77-4.32.91-8.8,1.39-13.4,1.39-14.2,0-25.84,10.87-27.1,24.74,8.27,10.22,16.93,20.12,25.95,29.66.38.02.76.06,1.15.06,15.04,0,27.23-12.19,27.23-27.23,0-34.17,26.4-62.16,59.92-64.72-4.99-5.44-9.82-11.03-14.49-16.76-3.11.74-6.16,1.64-9.12,2.72Z"/><path class="cls-1" d="m816.36,244.67c-9.79,0-19.06,2.18-27.39,6.06,5.36,4.62,10.59,9.39,15.68,14.3,3.74-.98,7.66-1.5,11.71-1.5,25.45,0,46.08,20.63,46.08,46.08,0,6.98-1.56,13.58-4.33,19.51.86,1.3,1.72,2.59,2.57,3.9,5.9-4.12,12.35-7.51,19.23-10.01.91-4.32,1.39-8.8,1.39-13.4,0-35.86-29.07-64.93-64.93-64.93Z"/><path class="cls-1" d="m899.67,300.75c.31,2.91.47,5.86.47,8.85s-.16,5.94-.47,8.85c2.91-.31,5.86-.47,8.85-.47,4.63,0,8.38-3.75,8.38-8.38,0-2.99.16-5.94.47-8.85-2.91.31-5.86.47-8.85.47s-5.94-.16-8.85-.47Z"/><path class="cls-1" d="m824.74,125.28c0-4.63-3.75-8.38-8.38-8.38s-8.38,3.75-8.38,8.38c0,2.99-.16,5.94-.47,8.85,2.91-.31,5.86-.47,8.85-.47,4.63,0,8.38-3.75,8.38-8.38Z"/><path class="cls-1" d="m144,586.08c0-10.54,6-19.66,14.76-24.19-.37-6.62-.58-13.29-.62-20-19.08,5.64-33,23.28-33,44.19,0,24.82,19.62,45.04,44.19,46.03-1.6-6.45-3.03-12.96-4.29-19.54-12.05-2.8-21.04-13.59-21.04-26.5Z"/><path class="cls-1" d="m236.14,771.25c-.06,4.3-.52,8.5-1.37,12.56,2.96-1.08,6.01-1.98,9.12-2.72-2.64-3.23-5.22-6.52-7.75-9.84Z"/><path class="cls-1" d="m729.91,208.84c1,.57,1.98,1.17,2.97,1.76.05-.67.09-1.34.16-2.01-1.04.11-2.08.18-3.13.25Z"/><path class="cls-1" d="m144,586.08c0,12.91,8.99,23.69,21.04,26.5-3.18-16.54-5.31-33.46-6.28-50.69-8.76,4.53-14.76,13.65-14.76,24.19Z"/><path class="cls-1" d="m816.36,244.67c35.86,0,64.93,29.07,64.93,64.93,0,4.59-.48,9.07-1.39,13.4,6.28-2.28,12.9-3.83,19.77-4.55.31-2.91.47-5.86.47-8.85s-.16-5.94-.47-8.85c-.72-6.87-2.27-13.5-4.55-19.77-8.45-23.25-26.89-41.69-50.14-50.14-6.28-2.28-12.9-3.83-19.77-4.55-2.91-.31-5.86-.47-8.85-.47s-5.94.16-8.85.47c-6.87.72-13.5,2.27-19.77,4.55-5.11,1.86-9.98,4.23-14.57,7,5.38,4.16,10.66,8.45,15.81,12.89,8.32-3.88,17.6-6.06,27.39-6.06Z"/><path class="cls-1" d="m807.98,217.44c0,2.99-.16,5.94-.47,8.85,2.91-.31,5.86-.47,8.85-.47s5.94.16,8.85.47c-.31-2.91-.47-5.86-.47-8.85s.16-5.94.47-8.85c-2.91.31-5.86.47-8.85.47-4.63,0-8.38,3.75-8.38,8.38Z"/><path class="cls-1" d="m807.98,217.44c0-4.63,3.75-8.38,8.38-8.38,2.99,0,5.94-.16,8.85-.47.72-6.87,2.27-13.5,4.55-19.77-4.32.91-8.8,1.39-13.4,1.39-15.04,0-27.23,12.19-27.23,27.23,0,4.59-.48,9.07-1.39,13.4,6.28-2.28,12.9-3.83,19.77-4.55.31-2.91.47-5.86.47-8.85Z"/><path class="cls-1" d="m908.52,301.22c2.99,0,5.94-.16,8.85-.47.72-6.87,2.27-13.5,4.55-19.77-4.32.91-8.8,1.39-13.4,1.39s-9.07-.48-13.4-1.39c2.28,6.28,3.83,12.9,4.55,19.77,2.91.31,5.86.47,8.85.47Z"/><path class="cls-1" d="m162.85,862.57c0,4.63,3.75,8.38,8.38,8.38s8.38-3.75,8.38-8.38c0-2.99.16-5.94.47-8.85-2.91.31-5.86.47-8.85.47-4.63,0-8.38,3.75-8.38,8.38Z"/><path class="cls-1" d="m822.16,283c11.95,2.6,20.95,13.04,21.38,25.66,5.07,6.65,9.93,13.46,14.57,20.44,2.77-5.93,4.33-12.54,4.33-19.51,0-25.45-20.63-46.08-46.08-46.08-4.05,0-7.97.53-11.71,1.5,6.03,5.8,11.87,11.79,17.51,17.98Z"/><path class="cls-1" d="m456.09,125.28c0-4.63-3.75-8.38-8.38-8.38s-8.38,3.75-8.38,8.38c0,2.99-.16,5.94-.47,8.85,2.91-.31,5.86-.47,8.85-.47,4.63,0,8.38-3.75,8.38-8.38Z"/><path class="cls-1" d="m389.26,189.14c10.52-21.68,32.74-36.63,58.45-36.63,15.04,0,27.23-12.19,27.23-27.23s-12.19-27.23-27.23-27.23-27.23,12.19-27.23,27.23c0,4.59-.48,9.07-1.39,13.4,6.28-2.28,12.9-3.83,19.77-4.55.31-2.91.47-5.86.47-8.85,0-4.63,3.75-8.38,8.38-8.38s8.38,3.75,8.38,8.38-3.75,8.38-8.38,8.38c-2.99,0-5.94.16-8.85.47-6.87.72-13.5,2.27-19.77,4.55-23.25,8.45-41.69,26.89-50.14,50.14-1.34,3.67-2.39,7.48-3.2,11.37,7.69-3.95,15.53-7.63,23.51-11.06Z"/><path class="cls-1" d="m603.41,138.68c.91-4.32,1.39-8.8,1.39-13.4,0-15.04,12.19-27.23,27.23-27.23s27.23,12.19,27.23,27.23-12.19,27.23-27.23,27.23c-12.76,0-24.65,3.69-34.68,10.05,13.77,2.08,27.29,4.91,40.53,8.42,22.69-2.88,40.23-22.23,40.23-45.7,0-25.45-20.63-46.08-46.08-46.08s-46.08,20.63-46.08,46.08c0,13.58-5.88,25.79-15.22,34.22.26.02.51.05.77.07,8.81-9.22,19.69-16.45,31.91-20.89Z"/><path class="cls-1" d="m368.95,188.82c-4.32.91-8.8,1.39-13.4,1.39-15.04,0-27.23,12.19-27.23,27.23,0,1.54.16,3.03.4,4.5,11.89-7.91,24.24-15.19,37.02-21.75.81-3.89,1.87-7.7,3.2-11.37Z"/><path class="cls-1" d="m822.16,283c7.5,8.23,14.62,16.8,21.38,25.66-.43-12.63-9.43-23.07-21.38-25.66Z"/><path class="cls-1" d="m309.47,217.44c0-25.45,20.63-46.08,46.08-46.08s46.08-20.63,46.08-46.08,20.63-46.08,46.08-46.08,46.08,20.63,46.08,46.08c0,16.38-8.55,30.76-21.43,38.93,1.1-.2,2.21-.36,3.31-.55,9.38-11.18,21.6-19.9,35.58-24.98.91-4.32,1.39-8.8,1.39-13.4,0-35.86-29.07-64.93-64.93-64.93s-64.93,29.07-64.93,64.93c0,15.04-12.19,27.23-27.23,27.23-35.86,0-64.93,29.07-64.93,64.93,0,4.59.48,9.07,1.39,13.4,5.11,1.86,9.98,4.23,14.57,7,1.91-1.47,3.82-2.94,5.75-4.38-1.85-4.99-2.87-10.39-2.87-16.02Z"/><path class="cls-1" d="m184.63,373.14c-2.28,6.28-3.83,12.9-4.55,19.77-.31,2.91-.47,5.86-.47,8.85,0,4.63-3.75,8.38-8.38,8.38s-8.38-3.75-8.38-8.38,3.75-8.38,8.38-8.38c2.99,0,5.94-.16,8.85-.47.72-6.87,2.27-13.5,4.55-19.77-4.32.91-8.8,1.39-13.4,1.39-15.04,0-27.23,12.19-27.23,27.23s12.19,27.23,27.23,27.23c1.15,0,2.27-.09,3.38-.23,10.86-35.71,26.82-69.19,47.02-99.62-16.98,9.79-30.21,25.34-37,44Z"/><path class="cls-1" d="m236.21,308.67c6.76-8.86,13.89-17.43,21.38-25.66-11.95,2.6-20.95,13.04-21.38,25.66Z"/><path class="cls-1" d="m493.79,125.28c0-25.45-20.63-46.08-46.08-46.08s-46.08,20.63-46.08,46.08-20.63,46.08-46.08,46.08-46.08,20.63-46.08,46.08c0,5.63,1.01,11.03,2.87,16.02,5.35-3.98,10.82-7.82,16.39-11.52-.24-1.47-.4-2.96-.4-4.5,0-15.04,12.19-27.23,27.23-27.23,4.59,0,9.07-.48,13.4-1.39,8.45-23.25,26.89-41.69,50.14-50.14.91-4.32,1.39-8.8,1.39-13.4,0-15.04,12.19-27.23,27.23-27.23s27.23,12.19,27.23,27.23-12.19,27.23-27.23,27.23c-25.71,0-47.93,14.95-58.45,36.63,26.31-11.31,54.13-19.76,83.1-24.93,12.88-8.17,21.43-22.55,21.43-38.93Z"/><path class="cls-1" d="m171.23,428.99c-15.04,0-27.23-12.19-27.23-27.23s12.19-27.23,27.23-27.23c4.59,0,9.07-.48,13.4-1.39,6.78-18.66,20.02-34.22,37-44,4.64-6.99,9.51-13.82,14.58-20.47.43-12.63,9.43-23.07,21.38-25.66,5.63-6.19,11.48-12.18,17.51-17.98-3.74-.98-7.66-1.5-11.71-1.5-25.45,0-46.08,20.63-46.08,46.08s-20.63,46.08-46.08,46.08-46.08,20.63-46.08,46.08,19.63,45.05,44.21,46.03c1.59-6.41,3.34-12.76,5.25-19.04-1.11.14-2.23.23-3.38.23Z"/><path class="cls-1" d="m162.85,401.76c0,4.63,3.75,8.38,8.38,8.38s8.38-3.75,8.38-8.38c0-2.99.16-5.94.47-8.85-2.91.31-5.86.47-8.85.47-4.63,0-8.38,3.75-8.38,8.38Z"/><path class="cls-1" d="m531.03,945.88c.31,2.91.47,5.86.47,8.85s-.16,5.94-.47,8.85c2.91-.31,5.86-.47,8.85-.47,4.63,0,8.38-3.75,8.38-8.38,0-2.99.16-5.94.47-8.85-2.91.31-5.86.47-8.85.47s-5.94-.16-8.85-.47Z"/><path class="cls-1" d="m144,678.24c0,4.59-.48,9.07-1.39,13.4,6.28-2.28,12.9-3.83,19.77-4.55.31-2.91.47-5.86.47-8.85s-.16-5.94-.47-8.85c-.72-6.87-2.27-13.5-4.55-19.77-8.45-23.25-26.89-41.69-50.14-50.14-6.28-2.28-12.9-3.83-19.77-4.55-2.91-.31-5.86-.47-8.85-.47s-5.94.16-8.85.47c-6.87.72-13.5,2.27-19.77,4.55-5.35,1.94-10.43,4.44-15.2,7.38.91,6.97,1.97,13.89,3.17,20.77,11.13-8.95,25.26-14.32,40.65-14.32,35.86,0,64.93,29.07,64.93,64.93Z"/><path class="cls-1" d="m106.3,678.24c0-15.04-12.19-27.23-27.23-27.23s-27.23,12.19-27.23,27.23c0,1.94-.1,3.86-.27,5.75.65,2.21,1.29,4.43,1.97,6.63,5.35-1.71,10.92-2.93,16.68-3.53.31-2.91.47-5.86.47-8.85,0-4.63,3.75-8.38,8.38-8.38s8.38,3.75,8.38,8.38-3.75,8.38-8.38,8.38c-2.99,0-5.94.16-8.85.47-5.76.6-11.33,1.82-16.68,3.53,1.86,6.01,3.85,11.96,5.93,17.87,6.19-1.96,12.77-3.02,19.61-3.02,15.04,0,27.23-12.19,27.23-27.23Z"/><path class="cls-1" d="m87.45,678.24c0-4.63-3.75-8.38-8.38-8.38s-8.38,3.75-8.38,8.38c0,2.99-.16,5.94-.47,8.85,2.91-.31,5.86-.47,8.85-.47,4.63,0,8.38-3.75,8.38-8.38Z"/><path class="cls-1" d="m125.15,678.24c0-25.45-20.63-46.08-46.08-46.08-14.73,0-27.84,6.92-36.27,17.68,2.54,11.54,5.47,22.93,8.77,34.15.17-1.9.27-3.81.27-5.75,0-15.04,12.19-27.23,27.23-27.23s27.23,12.19,27.23,27.23-12.19,27.23-27.23,27.23c-6.83,0-13.42,1.06-19.61,3.02,2.09,5.95,4.25,11.87,6.55,17.72,4.14-1.22,8.52-1.89,13.05-1.89,25.45,0,46.08-20.63,46.08-46.08Z"/><path class="cls-1" d="m87.45,493.92c0-4.63-3.75-8.38-8.38-8.38s-8.38,3.75-8.38,8.38c0,2.99-.16,5.94-.47,8.85,2.91-.31,5.86-.47,8.85-.47,4.63,0,8.38-3.75,8.38-8.38Z"/><path class="cls-1" d="m51.84,586.08c0-15.04,12.19-27.23,27.23-27.23,4.59,0,9.07-.48,13.4-1.39,8.45-23.25,26.89-41.69,50.14-50.14.91-4.32,1.39-8.8,1.39-13.4,0-35.86-29.07-64.93-64.93-64.93-14.5,0-27.88,4.75-38.69,12.78-2.8,14.3-5,28.82-6.57,43.53,4.04-21.33,22.76-37.46,45.26-37.46,25.45,0,46.08,20.63,46.08,46.08s-20.63,46.08-46.08,46.08-46.08,20.63-46.08,46.08c0,.05,0,.09,0,.14.62,6.92,1.37,13.8,2.26,20.63,4.78-2.94,9.85-5.43,15.2-7.38.91-4.32,1.39-8.8,1.39-13.4Z"/><path class="cls-1" d="m92.47,741.78c8.45-23.25,26.89-41.69,50.14-50.14.91-4.32,1.39-8.8,1.39-13.4,0-35.86-29.07-64.93-64.93-64.93-15.39,0-29.53,5.37-40.65,14.32,1.3,7.46,2.76,14.86,4.38,22.21,8.44-10.76,21.54-17.68,36.27-17.68,25.45,0,46.08,20.63,46.08,46.08s-20.63,46.08-46.08,46.08c-4.54,0-8.91.67-13.05,1.89,2.33,5.92,4.79,11.77,7.33,17.58,1.85-.39,3.76-.61,5.72-.61,4.59,0,9.07-.48,13.4-1.39Z"/><path class="cls-1" d="m32.99,493.67c-.25,2.73-.5,5.45-.7,8.19.45-2.58.69-5.23.69-7.94,0-.08,0-.17,0-.25Z"/><path class="cls-1" d="m79.07,540c25.45,0,46.08-20.63,46.08-46.08s-20.63-46.08-46.08-46.08c-22.5,0-41.23,16.13-45.26,37.46-.3,2.78-.56,5.57-.81,8.37,0,.08,0,.17,0,.25,0,2.71-.25,5.36-.69,7.94-.38,5.09-.66,10.21-.89,15.35,5.85-4.06,12.23-7.41,19.04-9.89.91-4.32,1.39-8.8,1.39-13.4,0-15.04,12.19-27.23,27.23-27.23s27.23,12.19,27.23,27.23-12.19,27.23-27.23,27.23c-19.11,0-36.28,8.25-48.16,21.39.07,14.72.78,29.29,2.08,43.68,0-.05,0-.09,0-.14,0-25.45,20.63-46.08,46.08-46.08Z"/><path class="cls-1" d="m79.07,521.15c15.04,0,27.23-12.19,27.23-27.23s-12.19-27.23-27.23-27.23-27.23,12.19-27.23,27.23c0,4.59-.48,9.07-1.39,13.4,6.28-2.28,12.9-3.83,19.77-4.55.31-2.91.47-5.86.47-8.85,0-4.63,3.75-8.38,8.38-8.38s8.38,3.75,8.38,8.38-3.75,8.38-8.38,8.38c-2.99,0-5.94.16-8.85.47-6.87.72-13.5,2.27-19.77,4.55-6.81,2.47-13.19,5.83-19.04,9.89-.33,7.56-.53,15.15-.53,22.8,0,.85.03,1.69.03,2.54,11.88-13.13,29.06-21.39,48.16-21.39Z"/><path class="cls-1" d="m171.23,797.64c15.04,0,27.23-12.19,27.23-27.23,0-13.98,4.43-26.91,11.94-37.51-3.44-5.86-6.73-11.81-9.86-17.87-6.85,7.77-12.3,16.82-15.91,26.75-2.28,6.28-3.83,12.9-4.55,19.77-.31,2.91-.47,5.86-.47,8.85,0,4.63-3.75,8.38-8.38,8.38-2.99,0-5.94.16-8.85.47-6.87.72-13.5,2.27-19.77,4.55-13.82,5.02-25.92,13.6-35.26,24.6,3.51,5.65,7.11,11.24,10.83,16.74,11.76-16.63,31.13-27.51,53.04-27.51Z"/><path class="cls-1" d="m234.77,875.97c.91-4.32,1.39-8.8,1.39-13.4,0-15.04,12.19-27.23,27.23-27.23,4.59,0,9.07-.48,13.4-1.39,1.53-4.22,3.41-8.27,5.57-12.14-2.45-2.24-4.87-4.52-7.26-6.82-3.74.98-7.66,1.5-11.71,1.5-25.45,0-46.08,20.63-46.08,46.08,0,20.17-12.97,37.3-31.01,43.55,1.81,1.75,3.63,3.48,5.46,5.2,9.83-16.18,24.96-28.78,43.01-35.34Z"/><path class="cls-1" d="m142.61,783.8c.91-4.32,1.39-8.8,1.39-13.4,0-15.04,12.19-27.23,27.23-27.23,4.59,0,9.07-.48,13.4-1.39,3.61-9.93,9.06-18.98,15.91-26.75-.15-.29-.31-.58-.46-.87-7.9,6.35-17.93,10.16-28.85,10.16-25.45,0-46.08,20.63-46.08,46.08,0,15.1-7.26,28.5-18.48,36.9.23.37.46.73.68,1.1,9.34-11,21.44-19.58,35.26-24.6Z"/><path class="cls-1" d="m263.39,889.8c35.86,0,64.93,29.07,64.93,64.93,0,4.59-.48,9.07-1.39,13.4,6.28-2.28,12.9-3.83,19.77-4.55.31-2.91.47-5.86.47-8.85s-.16-5.94-.47-8.85c-.72-6.87-2.27-13.5-4.55-19.77-8.45-23.25-26.89-41.69-50.14-50.14-6.28-2.28-12.9-3.83-19.77-4.55-2.91-.31-5.86-.47-8.85-.47s-5.94.16-8.85.47c-6.87.72-13.5,2.27-19.77,4.55-18.05,6.56-33.18,19.16-43.01,35.34,4.69,4.4,9.44,8.72,14.29,12.94,10.92-20.49,32.49-34.45,57.34-34.45Z"/><path class="cls-1" d="m271.77,954.73c0-4.63-3.75-8.38-8.38-8.38s-8.38,3.75-8.38,8.38c0,2.34-.13,4.65-.32,6.94.84.57,1.7,1.13,2.54,1.7,2.03-.15,4.08-.25,6.15-.25,4.63,0,8.38-3.75,8.38-8.38Z"/><path class="cls-1" d="m87.92,761.56c-2.05.21-4.12.33-6.21.4,1.75,3.61,3.54,7.2,5.38,10.76.21-.74.36-1.51.36-2.31,0-2.99.16-5.94.47-8.85Z"/><path class="cls-1" d="m125.15,770.41c0-25.45,20.63-46.08,46.08-46.08,10.92,0,20.95-3.81,28.85-10.16-3-5.85-5.86-11.79-8.56-17.8-4.99,5.58-12.22,9.11-20.29,9.11-35.86,0-64.93,29.07-64.93,64.93,0,8.19-3.63,15.52-9.36,20.51,3.14,5.53,6.39,10.99,9.73,16.4,11.22-8.4,18.48-21.81,18.48-36.9Z"/><path class="cls-1" d="m106.3,770.41c0-35.86,29.07-64.93,64.93-64.93,8.07,0,15.3-3.53,20.29-9.11-4.13-9.18-7.88-18.55-11.29-28.1-.05.38-.11.76-.15,1.14-.31,2.91-.47,5.86-.47,8.85,0,4.63-3.75,8.38-8.38,8.38-2.99,0-5.94.16-8.85.47-6.87.72-13.5,2.27-19.77,4.55-23.25,8.45-41.69,26.89-50.14,50.14-2.28,6.28-3.83,12.9-4.55,19.77-.31,2.91-.47,5.86-.47,8.85,0,.81-.15,1.57-.36,2.31,3.16,6.14,6.46,12.2,9.86,18.19,5.72-4.99,9.36-12.32,9.36-20.51Z"/><path class="cls-1" d="m87.92,761.56c.72-6.87,2.27-13.5,4.55-19.77-4.32.91-8.8,1.39-13.4,1.39-1.96,0-3.87.22-5.72.61,2.68,6.12,5.45,12.18,8.35,18.17,2.09-.07,4.16-.18,6.21-.4Z"/><path class="cls-1" d="m355.55,98.05c4.59,0,9.07-.48,13.4-1.39,8.45-23.25,26.89-41.69,50.14-50.14.08-.37.13-.74.2-1.11-7.15,1.74-14.25,3.61-21.29,5.65-7,16.53-23.37,28.14-42.46,28.14-7.56,0-14.68-1.83-20.98-5.06-1.21.53-2.43,1.05-3.64,1.59,4.67,6.35,8.48,13.38,11.22,20.92,4.32.91,8.8,1.39,13.4,1.39Z"/><path class="cls-1" d="m328.32,125.28c0,4.59-.48,9.07-1.39,13.4,6.28-2.28,12.9-3.83,19.77-4.55.31-2.91.47-5.86.47-8.85s-.16-5.94-.47-8.85c-.72-6.87-2.27-13.5-4.55-19.77-2.74-7.54-6.55-14.57-11.22-20.92-5.87,2.64-11.66,5.42-17.41,8.28,9.24,11.22,14.8,25.59,14.8,41.26Z"/><path class="cls-1" d="m271.77,125.28c0-4.63-3.75-8.38-8.38-8.38s-8.38,3.75-8.38,8.38c0,2.99-.16,5.94-.47,8.85,2.91-.31,5.86-.47,8.85-.47,4.63,0,8.38-3.75,8.38-8.38Z"/><path class="cls-1" d="m162.85,217.44c0,4.63,3.75,8.38,8.38,8.38s8.38-3.75,8.38-8.38c0-2.99.16-5.94.47-8.85-2.91.31-5.86.47-8.85.47-4.63,0-8.38,3.75-8.38,8.38Z"/><path class="cls-1" d="m398.01,51.06c-21.78,6.31-42.96,14.04-63.43,23.08,6.29,3.23,13.42,5.06,20.98,5.06,19.08,0,35.46-11.6,42.46-28.14Z"/><path class="cls-1" d="m254.54,134.13c.31-2.91.47-5.86.47-8.85,0-4.63,3.75-8.38,8.38-8.38s8.38,3.75,8.38,8.38-3.75,8.38-8.38,8.38c-2.99,0-5.94.16-8.85.47-6.87.72-13.5,2.27-19.77,4.55-23.25,8.45-41.69,26.89-50.14,50.14-2.28,6.28-3.83,12.9-4.55,19.77-.31,2.91-.47,5.86-.47,8.85,0,4.63-3.75,8.38-8.38,8.38s-8.38-3.75-8.38-8.38,3.75-8.38,8.38-8.38c2.99,0,5.94-.16,8.85-.47.72-6.87,2.27-13.5,4.55-19.77-4.32.91-8.8,1.39-13.4,1.39-.39,0-.77.04-1.15.06-9.03,9.54-17.68,19.44-25.95,29.66,1.26,13.87,12.91,24.74,27.1,24.74,15.04,0,27.23-12.19,27.23-27.23,0-35.86,29.07-64.93,64.93-64.93,15.04,0,27.23-12.19,27.23-27.23,0-9.26-4.63-17.43-11.7-22.35-14.87,8.9-29.26,18.51-43.09,28.83-.23,2.34-.59,4.65-1.06,6.92,6.28-2.28,12.9-3.83,19.77-4.55Z"/><path class="cls-1" d="m447.71,41.5c2.99,0,5.94.16,8.85.47-.14-1.35-.25-2.71-.32-4.08-5.8.96-11.57,1.99-17.29,3.15-.03.31-.04.63-.07.94,2.91-.31,5.86-.47,8.85-.47Z"/><path class="cls-1" d="m476.33,46.52c-.78-3.7-1.22-7.52-1.34-11.42-6.29.8-12.54,1.75-18.76,2.78.08,1.37.18,2.73.32,4.08,6.87.72,13.5,2.27,19.77,4.55Z"/><path class="cls-1" d="m144,493.92c0,4.59-.48,9.07-1.39,13.4,5.51-2,11.31-3.41,17.3-4.22.62-6.43,1.39-12.82,2.33-19.15-.77-6.47-2.24-12.72-4.4-18.65-8.45-23.25-26.89-41.69-50.14-50.14-6.28-2.28-12.9-3.83-19.77-4.55-2.91-.31-5.86-.47-8.85-.47s-5.94.16-8.85.47c-6.87.72-13.5,2.27-19.77,4.55-1.55.56-3.07,1.18-4.57,1.82-2.03,8.19-3.87,16.45-5.5,24.79,10.81-8.03,24.19-12.78,38.69-12.78,35.86,0,64.93,29.07,64.93,64.93Z"/><path class="cls-1" d="m438.87,41.96c.03-.31.05-.63.07-.94-6.6,1.33-13.14,2.8-19.65,4.38-.07.37-.13.74-.2,1.11,6.28-2.28,12.9-3.83,19.77-4.55Z"/><path class="cls-1" d="m170.08,190.27c.38-.02.76-.06,1.15-.06,4.59,0,9.07-.48,13.4-1.39,8.45-23.25,26.89-41.69,50.14-50.14.48-2.27.83-4.58,1.06-6.92-10.78,8.04-21.21,16.51-31.31,25.36-1.78,1.86-3.7,3.58-5.77,5.12-9.92,8.97-19.49,18.32-28.68,28.03Z"/><path class="cls-1" d="m106.3,309.6c0-8.19-3.63-15.52-9.36-20.51-3.4,5.99-6.7,12.05-9.86,18.19.21.74.36,1.51.36,2.31,0,3.59-2.26,6.62-5.43,7.82-3.16,6.49-6.18,13.07-9.07,19.71,2.01-.19,4.05-.3,6.12-.3,15.04,0,27.23-12.19,27.23-27.23Z"/><path class="cls-1" d="m87.45,309.6c0-.81-.15-1.57-.36-2.31-1.73,3.35-3.41,6.73-5.07,10.13,3.17-1.2,5.43-4.23,5.43-7.82Z"/><path class="cls-1" d="m51.84,401.76c0-15.04,12.19-27.23,27.23-27.23,4.59,0,9.07-.48,13.4-1.39,8.45-23.25,26.89-41.69,50.14-50.14.91-4.32,1.39-8.8,1.39-13.4,0-21.75-10.71-40.99-27.13-52.77-3.5,5.22-6.9,10.52-10.21,15.87,11.22,8.4,18.48,21.81,18.48,36.9,0,25.45-20.63,46.08-46.08,46.08-5.14,0-10.07.85-14.68,2.4-7.32,19.11-13.51,38.77-18.51,58.9,1.5-.65,3.02-1.26,4.57-1.82.91-4.32,1.39-8.8,1.39-13.4Z"/><path class="cls-1" d="m125.15,309.6c0-15.1-7.26-28.5-18.48-36.9-3.34,5.4-6.58,10.86-9.73,16.4,5.72,4.99,9.36,12.32,9.36,20.51,0,15.04-12.19,27.23-27.23,27.23-2.06,0-4.1.11-6.12.3-3.01,6.91-5.86,13.9-8.57,20.96,4.61-1.55,9.55-2.4,14.68-2.4,25.45,0,46.08-20.63,46.08-46.08Z"/><path class="cls-1" d="m290.62,125.28c0,15.04-12.19,27.23-27.23,27.23-35.86,0-64.93,29.07-64.93,64.93,0,15.04-12.19,27.23-27.23,27.23-14.2,0-25.84-10.87-27.1-24.74-4.82,5.96-9.52,12.02-14.07,18.19,7.58,15.06,23.17,25.4,41.18,25.4,25.45,0,46.08-20.63,46.08-46.08s20.63-46.08,46.08-46.08,46.08-20.63,46.08-46.08c0-12.58-5.04-23.97-13.21-32.29-5.85,3.2-11.63,6.52-17.34,9.94,7.07,4.92,11.7,13.09,11.7,22.35Z"/><path class="cls-1" d="m144,309.6c0,4.59-.48,9.07-1.39,13.4,6.28-2.28,12.9-3.83,19.77-4.55.31-2.91.47-5.86.47-8.85s-.16-5.94-.47-8.85c-.72-6.87-2.27-13.5-4.55-19.77-5.84-16.07-16.47-29.84-30.15-39.61-3.69,5.09-7.3,10.23-10.81,15.46,16.42,11.78,27.13,31.02,27.13,52.77Z"/><path class="cls-1" d="m157.83,280.98c4.32.91,8.8,1.39,13.4,1.39s9.07-.48,13.4-1.39c8.45-23.25,26.89-41.69,50.14-50.14.91-4.32,1.39-8.8,1.39-13.4,0-15.04,12.19-27.23,27.23-27.23,4.59,0,9.07-.48,13.4-1.39,8.45-23.25,26.89-41.69,50.14-50.14.91-4.32,1.39-8.8,1.39-13.4,0-15.67-5.55-30.04-14.8-41.26-5.82,2.89-11.58,5.87-17.27,8.98,8.17,8.31,13.21,19.71,13.21,32.29,0,25.45-20.63,46.08-46.08,46.08s-46.08,20.63-46.08,46.08-20.63,46.08-46.08,46.08c-18.01,0-33.6-10.34-41.18-25.4-.8,1.08-1.58,2.16-2.37,3.25,13.68,9.77,24.31,23.54,30.15,39.61Z"/><path class="cls-1" d="m447.71,1000.81c25.45,0,46.08-20.63,46.08-46.08,0-16.38-8.55-30.76-21.43-38.93-10.32-1.84-20.48-4.12-30.5-6.77-22.69,2.88-40.23,22.23-40.23,45.7,0,25.45-20.63,46.08-46.08,46.08-7.56,0-14.68,1.83-20.98,5.06,10.48,4.62,21.13,8.92,31.97,12.84.81-.14,1.61-.27,2.41-.44,8.45-23.25,26.89-41.69,50.14-50.14.91-4.32,1.39-8.8,1.39-13.4,0-15.04,12.19-27.23,27.23-27.23s27.23,12.19,27.23,27.23-12.19,27.23-27.23,27.23c-28.34,0-52.43,18.17-61.29,43.48,5.99,1.89,12.03,3.66,18.11,5.34,6.53-17.5,23.4-29.97,43.18-29.97Z"/><path class="cls-1" d="m921.92,833.95c-2.28,6.28-3.83,12.9-4.55,19.77-.31,2.91-.47,5.86-.47,8.85,0,4.63-3.75,8.38-8.38,8.38s-8.38-3.75-8.38-8.38,3.75-8.38,8.38-8.38c2.99,0,5.94-.16,8.85-.47.72-6.87,2.27-13.5,4.55-19.77-4.32.91-8.8,1.39-13.4,1.39-15.04,0-27.23,12.19-27.23,27.23s12.19,27.23,27.23,27.23c.39,0,.77-.04,1.15-.06,9.1-9.62,17.81-19.6,26.15-29.9,1.08-25.96,17.38-47.97,40.23-57.35,4.52-7.49,8.84-15.11,12.97-22.85-5.87.82-11.55,2.2-16.96,4.17-23.25,8.45-41.69,26.89-50.14,50.14Z"/><path class="cls-1" d="m816.36,927.5c-15.04,0-27.23,12.19-27.23,27.23,0,4.59-.48,9.07-1.39,13.4,6.28-2.28,12.9-3.83,19.77-4.55.31-2.91.47-5.86.47-8.85,0-4.63,3.75-8.38,8.38-8.38s8.38,3.75,8.38,8.38-3.75,8.38-8.38,8.38c-2.99,0-5.94.16-8.85.47-6.87.72-13.5,2.27-19.77,4.55-19.32,7.02-35.3,20.96-45,38.81,35.72-15.54,69.32-35.05,100.23-57.99-2.65-12.26-13.55-21.45-26.6-21.45Z"/><path class="cls-1" d="m935.82,859.83c14.67-18.13,28.13-37.28,40.23-57.35-22.84,9.38-39.15,31.39-40.23,57.35Z"/><path class="cls-1" d="m992.3,770.41c0-3.59,2.26-6.62,5.43-7.82,3.16-6.49,6.18-13.07,9.07-19.71-2.02.19-4.05.3-6.12.3-15.04,0-27.23,12.19-27.23,27.23,0,4.59-.48,9.07-1.39,13.4,5.41-1.97,11.09-3.35,16.96-4.17,1.08-2.01,2.15-4.03,3.2-6.06.04-1.05.08-2.1.08-3.17Z"/><path class="cls-1" d="m290.62,954.73c0-15.04-12.19-27.23-27.23-27.23-13.05,0-23.95,9.19-26.6,21.45,5.87,4.36,11.84,8.61,17.91,12.72.19-2.29.32-4.6.32-6.94,0-4.63,3.75-8.38,8.38-8.38s8.38,3.75,8.38,8.38-3.75,8.38-8.38,8.38c-2.07,0-4.12.1-6.15.25,7.1,4.75,14.33,9.32,21.68,13.72,7.06-4.92,11.7-13.09,11.7-22.35Z"/><path class="cls-1" d="m862.44,862.57c0-25.45,20.63-46.08,46.08-46.08s46.08-20.63,46.08-46.08,20.63-46.08,46.08-46.08c5.14,0,10.07-.85,14.68-2.4,8.9-23.26,16.15-47.33,21.59-72.08-8.44-10.76-21.54-17.68-36.27-17.68-25.45,0-46.08,20.63-46.08,46.08s-20.63,46.08-46.08,46.08-46.08,20.63-46.08,46.08-20.63,46.08-46.08,46.08c-5.84,0-11.42,1.1-16.56,3.08-7.54,7.01-15.34,13.73-23.43,20.12-3.87,6.74-6.09,14.55-6.09,22.88,0,25.45-20.63,46.08-46.08,46.08-14.38,0-27.22-6.59-35.67-16.92-.29.12-.58.24-.87.36,10.31,9.16,18.34,20.81,23.14,34.02,4.32.91,8.8,1.39,13.4,1.39s9.07-.48,13.4-1.39c8.45-23.25,26.89-41.69,50.14-50.14.91-4.32,1.39-8.8,1.39-13.4,0-15.04,12.19-27.23,27.23-27.23,4.59,0,9.07-.48,13.4-1.39,8.45-23.25,26.89-41.69,50.14-50.14.91-4.32,1.39-8.8,1.39-13.4,0-15.04,12.19-27.23,27.23-27.23,4.59,0,9.07-.48,13.4-1.39,8.45-23.25,26.89-41.69,50.14-50.14.91-4.32,1.39-8.8,1.39-13.4,0-15.04,12.19-27.23,27.23-27.23s27.23,12.19,27.23,27.23-12.19,27.23-27.23,27.23c-35.86,0-64.93,29.07-64.93,64.93,0,15.04-12.19,27.23-27.23,27.23-35.86,0-64.93,29.07-64.93,64.93,0,4.59.48,9.07,1.39,13.4,18.05,6.56,33.18,19.16,43.01,35.34,1.83-1.72,3.66-3.45,5.46-5.2-18.05-6.24-31.01-23.38-31.01-43.55Z"/><path class="cls-1" d="m816.36,889.8c-35.86,0-64.93,29.07-64.93,64.93,0,15.04-12.19,27.23-27.23,27.23-31.66,0-58.01,22.66-63.75,52.64,7.16-1.74,14.26-3.62,21.3-5.65,7-16.53,23.37-28.14,42.46-28.14,25.45,0,46.08-20.63,46.08-46.08s20.63-46.08,46.08-46.08c19.05,0,35.4,11.56,42.42,28.05,5.05-4.06,10.03-8.2,14.92-12.45-10.92-20.49-32.49-34.45-57.34-34.45Z"/><path class="cls-1" d="m816.36,908.65c-25.45,0-46.08,20.63-46.08,46.08s-20.63,46.08-46.08,46.08c-19.08,0-35.46,11.6-42.46,28.14,20.92-6.06,41.28-13.43,60.99-22.01,9.71-17.85,25.69-31.78,45-38.81.91-4.32,1.39-8.8,1.39-13.4,0-15.04,12.19-27.23,27.23-27.23,13.05,0,23.95,9.19,26.6,21.45,5.36-3.98,10.62-8.07,15.82-12.25-7.02-16.49-23.37-28.05-42.42-28.05Z"/><path class="cls-1" d="m844.98,875.97c-6.28-2.28-12.9-3.83-19.77-4.55-2.91-.31-5.86-.47-8.85-.47s-5.94.16-8.85.47c-6.87.72-13.5,2.27-19.77,4.55-23.25,8.45-41.69,26.89-50.14,50.14-2.28,6.28-3.83,12.9-4.55,19.77-.31,2.91-.47,5.86-.47,8.85,0,4.63-3.75,8.38-8.38,8.38-2.99,0-5.94.16-8.85.47-6.87.72-13.5,2.27-19.77,4.55-23.25,8.45-41.69,26.89-50.14,50.14-2.28,6.28-3.83,12.9-4.55,19.77-.03.31-.05.62-.07.94,6.59-1.33,13.13-2.8,19.63-4.38,5.75-29.98,32.1-52.64,63.75-52.64,15.04,0,27.23-12.19,27.23-27.23,0-35.86,29.07-64.93,64.93-64.93,24.84,0,46.42,13.96,57.34,34.45,4.85-4.22,9.61-8.54,14.29-12.94-9.83-16.18-24.96-28.78-43.01-35.34Z"/><path class="cls-1" d="m881.29,862.57c0-15.04,12.19-27.23,27.23-27.23,4.59,0,9.07-.48,13.4-1.39,8.45-23.25,26.89-41.69,50.14-50.14.91-4.32,1.39-8.8,1.39-13.4,0-15.04,12.19-27.23,27.23-27.23,2.07,0,4.1-.11,6.12-.3,3-6.91,5.86-13.89,8.56-20.95-4.61,1.55-9.55,2.4-14.68,2.4-25.45,0-46.08,20.63-46.08,46.08s-20.63,46.08-46.08,46.08-46.08,20.63-46.08,46.08c0,20.17,12.96,37.3,31.01,43.55,5.53-5.34,10.94-10.79,16.22-16.38-.38.02-.76.06-1.15.06-15.04,0-27.23-12.19-27.23-27.23Z"/><path class="cls-1" d="m1029.3,415.16c1.55.56,3.07,1.18,4.57,1.82-1.75-7.06-3.65-14.05-5.69-20.99-.17,1.9-.27,3.82-.27,5.77,0,4.59.48,9.07,1.39,13.4Z"/><path class="cls-1" d="m1009.53,392.92c-.31,2.91-.47,5.86-.47,8.85s.16,5.94.47,8.85c6.87.72,13.5,2.27,19.77,4.55-.91-4.32-1.39-8.8-1.39-13.4,0-1.95.1-3.87.27-5.77-3.14-10.65-6.58-21.16-10.38-31.51-1.39,2.8-2.64,5.69-3.72,8.65-2.28,6.28-3.83,12.9-4.55,19.77Z"/><path class="cls-1" d="m1009.53,410.61c-2.91-.31-5.86-.47-8.85-.47s-5.94.16-8.85.47c-6.87.72-13.5,2.27-19.77,4.55-23.25,8.45-41.69,26.89-50.14,50.14-2.16,5.93-3.63,12.18-4.4,18.65,1.65,11.24,2.82,22.63,3.47,34.16,8.76-4.53,14.76-13.65,14.76-24.19,0-35.86,29.07-64.93,64.93-64.93,14.5,0,27.88,4.75,38.69,12.78-1.63-8.34-3.46-16.6-5.5-24.79-1.5-.65-3.02-1.26-4.57-1.82-6.28-2.28-12.9-3.83-19.77-4.55Z"/><path class="cls-1" d="m1000.68,355.68c-25.45,0-46.08,20.63-46.08,46.08s-19.63,45.05-44.21,46.03c1.52,6.15,2.9,12.35,4.12,18.61,2.51-.23,4.99-.59,7.41-1.1,8.45-23.25,26.89-41.69,50.14-50.14.91-4.32,1.39-8.8,1.39-13.4,0-15.04,12.19-27.23,27.23-27.23,4.59,0,9.07-.48,13.4-1.39,1.08-2.97,2.32-5.85,3.72-8.65-1.32-3.58-2.67-7.15-4.06-10.69-4.14,1.22-8.52,1.89-13.05,1.89Z"/><path class="cls-1" d="m1027.91,586.08c0,4.59.48,9.07,1.39,13.4,5.35,1.94,10.43,4.44,15.2,7.38.9-6.83,1.64-13.72,2.26-20.63,0-.05,0-.09,0-.14,0-2.71.25-5.36.7-7.94.93-12.59,1.42-25.31,1.42-38.14,0-.56-.02-1.11-.02-1.67-12.87,11.87-20.94,28.86-20.94,47.75Z"/><path class="cls-1" d="m1046.76,586.23c.24-2.69.49-5.38.69-8.08-.45,2.58-.7,5.23-.7,7.94,0,.05,0,.09,0,.14Z"/><path class="cls-1" d="m1046.76,493.92c0,25.45-20.63,46.08-46.08,46.08s-46.08,20.63-46.08,46.08-19.62,45.04-44.19,46.03c-1.57,6.33-3.29,12.61-5.18,18.81,1.09.05,2.18.09,3.28.09,4.59,0,9.07-.48,13.4-1.39,8.45-23.25,26.89-41.69,50.14-50.14.91-4.32,1.39-8.8,1.39-13.4,0-15.04,12.19-27.23,27.23-27.23,4.59,0,9.07-.48,13.4-1.39,6.4-17.62,18.56-32.47,34.18-42.31-.35-7.2-.87-14.36-1.51-21.49,0,.09,0,.17,0,.26Z"/><path class="cls-1" d="m1014.08,557.46c-2.28,6.28-3.83,12.9-4.55,19.77-.31,2.91-.47,5.86-.47,8.85s.16,5.94.47,8.85c6.87.72,13.5,2.27,19.77,4.55-.91-4.32-1.39-8.8-1.39-13.4,0-18.89,8.07-35.89,20.94-47.75-.02-7.77-.22-15.5-.59-23.18-15.63,9.84-27.78,24.69-34.18,42.31Z"/><path class="cls-1" d="m1009.53,594.93c-2.91-.31-5.86-.47-8.85-.47s-5.94.16-8.85.47c-6.87.72-13.5,2.27-19.77,4.55-23.25,8.45-41.69,26.89-50.14,50.14-2.28,6.28-3.83,12.9-4.55,19.77-.31,2.91-.47,5.86-.47,8.85,0,4.63-3.75,8.38-8.38,8.38-2.99,0-5.94.16-8.85.47-2.69.28-5.34.73-7.95,1.26-3.33,7.9-6.94,15.65-10.78,23.26,8.37-3.93,17.71-6.14,27.57-6.14,15.04,0,27.23-12.19,27.23-27.23,0-35.86,29.07-64.93,64.93-64.93,15.39,0,29.53,5.37,40.65,14.32,1.19-6.88,2.25-13.8,3.17-20.77-4.78-2.94-9.85-5.43-15.2-7.38-6.28-2.28-12.9-3.83-19.77-4.55Z"/><path class="cls-1" d="m456.09,954.73c0-4.63-3.75-8.38-8.38-8.38s-8.38,3.75-8.38,8.38c0,2.99-.16,5.94-.47,8.85,2.91-.31,5.86-.47,8.85-.47,4.63,0,8.38-3.75,8.38-8.38Z"/><path class="cls-1" d="m366.54,1018.71c.67.24,1.35.47,2.03.71.13-.38.24-.78.38-1.16-.8.17-1.6.3-2.41.44Z"/><path class="cls-1" d="m447.71,981.96c15.04,0,27.23-12.19,27.23-27.23s-12.19-27.23-27.23-27.23-27.23,12.19-27.23,27.23c0,4.59-.48,9.07-1.39,13.4,6.28-2.28,12.9-3.83,19.77-4.55.31-2.91.47-5.86.47-8.85,0-4.63,3.75-8.38,8.38-8.38s8.38,3.75,8.38,8.38-3.75,8.38-8.38,8.38c-2.99,0-5.94.16-8.85.47-6.87.72-13.5,2.27-19.77,4.55-23.25,8.45-41.69,26.89-50.14,50.14-.14.38-.25.77-.38,1.16,5.9,2.11,11.85,4.12,17.85,6.02,8.86-25.32,32.95-43.48,61.29-43.48Z"/><path class="cls-1" d="m401.63,954.73c0-23.47,17.55-42.82,40.23-45.7-9.87-2.62-19.59-5.62-29.13-8.99-18.01,11.54-29.95,31.71-29.95,54.69,0,15.04-12.19,27.23-27.23,27.23s-29.79,5.46-40.96,14.56c6.58,3.25,13.24,6.37,19.99,9.35,6.29-3.23,13.42-5.06,20.98-5.06,25.45,0,46.08-20.63,46.08-46.08Z"/><path class="cls-1" d="m263.39,908.65c-19.05,0-35.4,11.56-42.42,28.05,5.19,4.18,10.46,8.27,15.82,12.25,2.65-12.26,13.55-21.45,26.6-21.45,15.04,0,27.23,12.19,27.23,27.23,0,9.26-4.63,17.43-11.7,22.35,5.71,3.42,11.48,6.74,17.34,9.94,8.17-8.31,13.21-19.71,13.21-32.29,0-25.45-20.63-46.08-46.08-46.08Z"/><path class="cls-1" d="m526.47,96.66c4.32.91,8.8,1.39,13.4,1.39s9.07-.48,13.4-1.39c8.45-23.25,26.89-41.69,50.14-50.14.78-3.7,1.22-7.52,1.34-11.42-21.25-2.7-42.9-4.1-64.88-4.1s-43.63,1.39-64.88,4.1c.12,3.9.56,7.72,1.34,11.42,23.25,8.45,41.69,26.89,50.14,50.14Zm13.4-55.16c4.63,0,8.38-3.75,8.38-8.38,0,4.63-3.75,8.38-8.38,8.38s-8.38-3.75-8.38-8.38c0,4.63,3.75,8.38,8.38,8.38Zm0,18.85c15.04,0,27.23-12.19,27.23-27.23,0,15.04-12.19,27.23-27.23,27.23s-27.23-12.19-27.23-27.23c0,15.04,12.19,27.23,27.23,27.23Zm0,18.85c25.45,0,46.08-20.63,46.08-46.08,0,25.45-20.63,46.08-46.08,46.08s-46.08-20.63-46.08-46.08c0,25.45,20.63,46.08,46.08,46.08Z"/><path class="cls-1" d="m382.78,954.73c0-22.98,11.94-43.15,29.95-54.69-6.97-2.46-13.86-5.1-20.64-7.95-10.31,9.16-18.34,20.81-23.14,34.02-2.28,6.28-3.83,12.9-4.55,19.77-.31,2.91-.47,5.86-.47,8.85,0,4.63-3.75,8.38-8.38,8.38-2.99,0-5.94.16-8.85.47-6.87.72-13.5,2.27-19.77,4.55-11.45,4.16-21.72,10.75-30.22,19.14,5.88,3.21,11.85,6.27,17.87,9.25,11.17-9.1,25.43-14.56,40.96-14.56s27.23-12.19,27.23-27.23Z"/><path class="cls-1" d="m328.32,954.73c0-35.86-29.07-64.93-64.93-64.93-24.84,0-46.42,13.96-57.34,34.45,4.89,4.25,9.87,8.39,14.92,12.45,7.02-16.49,23.37-28.05,42.42-28.05,25.45,0,46.08,20.63,46.08,46.08,0,12.58-5.04,23.97-13.21,32.29.15.08.3.17.45.25,8.5-8.39,18.77-14.98,30.22-19.14.91-4.32,1.39-8.8,1.39-13.4Z"/><path class="cls-1" d="m447.71,1019.66c4.59,0,9.07-.48,13.4-1.39,8.45-23.25,26.89-41.69,50.14-50.14.91-4.32,1.39-8.8,1.39-13.4,0-12.81-3.72-24.74-10.12-34.8-10.17-.99-20.24-2.36-30.16-4.13,12.88,8.17,21.43,22.55,21.43,38.93,0,25.45-20.63,46.08-46.08,46.08-19.78,0-36.65,12.47-43.18,29.97,6.11,1.68,12.27,3.27,18.47,4.72,4.31-9.34,13.74-15.84,24.71-15.84Z"/><path class="cls-1" d="m640.41,954.73c0-4.63-3.75-8.38-8.38-8.38s-8.38,3.75-8.38,8.38c0,2.99-.16,5.94-.47,8.85,2.91-.31,5.86-.47,8.85-.47,4.63,0,8.38-3.75,8.38-8.38Z"/><path class="cls-1" d="m632.03,1038.51c2.99,0,5.94-.16,8.85-.47.72-6.87,2.27-13.5,4.55-19.77-4.32.91-8.8,1.39-13.4,1.39-14.36,0-26.1,11.13-27.13,25.23,6.88-.88,13.71-1.93,20.51-3.08,1.53-1.99,3.91-3.3,6.62-3.3Z"/><path class="cls-1" d="m632.03,1019.66c4.59,0,9.07-.48,13.4-1.39,8.45-23.25,26.89-41.69,50.14-50.14.91-4.32,1.39-8.8,1.39-13.4,0-22.98-11.94-43.15-29.95-54.69-9.54,3.37-19.26,6.38-29.13,8.99,22.69,2.88,40.23,22.23,40.23,45.7,0,25.45-20.63,46.08-46.08,46.08s-46.08,20.63-46.08,46.08c0-25.45,20.63-46.08,46.08-46.08s46.08-20.63,46.08-46.08c0-23.47-17.55-42.82-40.23-45.7-10.01,2.65-20.18,4.93-30.5,6.77-12.88,8.17-21.43,22.55-21.43,38.93,0,25.45-20.63,46.08-46.08,46.08s-46.08,20.63-46.08,46.08c0-25.45,20.63-46.08,46.08-46.08s46.08-20.63,46.08-46.08c0-16.38,8.55-30.76,21.43-38.93-9.92,1.77-19.99,3.14-30.16,4.13-6.4,10.06-10.12,21.99-10.12,34.8,0,15.04-12.19,27.23-27.23,27.23-35.2,0-63.83,28.01-64.88,62.95,21.25,2.7,42.9,4.1,64.88,4.1s43.74-1.4,65.03-4.12c1.03-14.1,12.77-25.23,27.13-25.23Zm0-92.16c-15.04,0-27.23,12.19-27.23,27.23,0,4.59-.48,9.07-1.39,13.4,6.28-2.28,12.9-3.83,19.77-4.55.31-2.91.47-5.86.47-8.85,0-4.63,3.75-8.38,8.38-8.38s8.38,3.75,8.38,8.38-3.75,8.38-8.38,8.38c-2.99,0-5.94.16-8.85.47-6.87.72-13.5,2.27-19.77,4.55-23.25,8.45-41.69,26.89-50.14,50.14-2.28,6.28-3.83,12.9-4.55,19.77-.31,2.91-.47,5.86-.47,8.85,0-2.99.16-5.94.47-8.85-2.91.31-5.86.47-8.85.47-4.63,0-8.38,3.75-8.38,8.38,0-4.63,3.75-8.38,8.38-8.38,2.99,0,5.94-.16,8.85-.47.72-6.87,2.27-13.5,4.55-19.77-4.32.91-8.8,1.39-13.4,1.39-15.04,0-27.23,12.19-27.23,27.23,0-15.04,12.19-27.23,27.23-27.23,4.59,0,9.07-.48,13.4-1.39,8.45-23.25,26.89-41.69,50.14-50.14.91-4.32,1.39-8.8,1.39-13.4,0-15.04,12.19-27.23,27.23-27.23s27.23,12.19,27.23,27.23-12.19,27.23-27.23,27.23c-35.86,0-64.93,29.07-64.93,64.93,0-35.86,29.07-64.93,64.93-64.93,15.04,0,27.23-12.19,27.23-27.23s-12.19-27.23-27.23-27.23Z"/><path class="cls-1" d="m632.03,1038.51c-2.71,0-5.09,1.31-6.62,3.3,5.16-.87,10.29-1.8,15.39-2.83.03-.31.04-.63.07-.94-2.91.31-5.86.47-8.85.47Z"/><path class="cls-1" d="m456.56,1038.04c.72-6.87,2.27-13.5,4.55-19.77-4.32.91-8.8,1.39-13.4,1.39-10.97,0-20.4,6.5-24.71,15.84,6.7,1.58,13.47,3,20.27,4.31,1.29-.81,2.8-1.3,4.44-1.3,2.99,0,5.94-.16,8.85-.47Z"/><path class="cls-1" d="m824.74,954.73c0-4.63-3.75-8.38-8.38-8.38s-8.38,3.75-8.38,8.38c0,2.99-.16,5.94-.47,8.85,2.91-.31,5.86-.47,8.85-.47,4.63,0,8.38-3.75,8.38-8.38Z"/><path class="cls-1" d="m447.71,1038.51c-1.64,0-3.15.49-4.44,1.3,4.3.83,8.62,1.6,12.96,2.32.08-1.37.18-2.73.32-4.08-2.91.31-5.86.47-8.85.47Z"/><path class="cls-1" d="m539.87,981.96c15.04,0,27.23-12.19,27.23-27.23,0-12.81,3.72-24.74,10.12-34.8-7.3.71-14.66,1.2-22.08,1.49-.67,1.54-1.3,3.1-1.88,4.68-2.28,6.28-3.83,12.9-4.55,19.77-.31,2.91-.47,5.86-.47,8.85,0,4.63-3.75,8.38-8.38,8.38-2.99,0-5.94.16-8.85.47-6.87.72-13.5,2.27-19.77,4.55-23.25,8.45-41.69,26.89-50.14,50.14-2.28,6.28-3.83,12.9-4.55,19.77-.14,1.35-.25,2.71-.32,4.08,6.22,1.03,12.46,1.98,18.76,2.78,1.05-34.94,29.69-62.95,64.88-62.95Z"/><path class="cls-1" d="m204.52,157.12c-1.93,1.69-3.86,3.39-5.77,5.12,2.07-1.54,3.99-3.26,5.77-5.12Z"/><path class="cls-1" d="m914.7,612.58c12.05-2.8,21.04-13.59,21.04-26.5,0-35.86,29.07-64.93,64.93-64.93,15.04,0,27.23-12.19,27.23-27.23s-12.19-27.23-27.23-27.23-27.23,12.19-27.23,27.23c0,4.59-.48,9.07-1.39,13.4,6.28-2.28,12.9-3.83,19.77-4.55.31-2.91.47-5.86.47-8.85,0-4.63,3.75-8.38,8.38-8.38s8.38,3.75,8.38,8.38-3.75,8.38-8.38,8.38c-2.99,0-5.94.16-8.85.47-6.87.72-13.5,2.27-19.77,4.55-23.25,8.45-41.69,26.89-50.14,50.14-.29.8-.54,1.63-.81,2.45-.92,17.91-3.1,35.49-6.41,52.67Z"/><path class="cls-1" d="m921.92,557.46c-.24.05-.48.08-.71.13-.03.77-.06,1.55-.09,2.32.27-.82.51-1.64.81-2.45Z"/><path class="cls-1" d="m822.16,797c-7.13,7.83-14.61,15.35-22.36,22.56,5.14-1.98,10.72-3.08,16.56-3.08,25.45,0,46.08-20.63,46.08-46.08s20.63-46.08,46.08-46.08,46.08-20.63,46.08-46.08,20.63-46.08,46.08-46.08c14.73,0,27.84,6.92,36.27,17.68,1.62-7.35,3.09-14.75,4.38-22.21-11.13-8.95-25.26-14.32-40.65-14.32-35.86,0-64.93,29.07-64.93,64.93,0,15.04-12.19,27.23-27.23,27.23-9.86,0-19.2,2.21-27.57,6.14-10.64,21.11-23.19,41.09-37.4,59.72-.43,12.63-9.43,23.07-21.38,25.66Z"/><path class="cls-1" d="m1000.68,447.84c-25.45,0-46.08,20.63-46.08,46.08,0,20.9-13.92,38.55-33,44.19,0,.63.02,1.26.02,1.9,0,5.9-.15,11.76-.42,17.59.24-.05.48-.08.71-.13,8.45-23.25,26.89-41.69,50.14-50.14.91-4.32,1.39-8.8,1.39-13.4,0-15.04,12.19-27.23,27.23-27.23s27.23,12.19,27.23,27.23-12.19,27.23-27.23,27.23c-35.86,0-64.93,29.07-64.93,64.93,0,12.91-8.99,23.69-21.04,26.5-1.27,6.57-2.7,13.09-4.29,19.54,24.57-.99,44.19-21.22,44.19-46.03s20.63-46.08,46.08-46.08,46.08-20.63,46.08-46.08c0-.09,0-.17,0-.26-.25-2.79-.51-5.58-.81-8.36-4.04-21.33-22.76-37.46-45.26-37.46Z"/><path class="cls-1" d="m921.92,280.98c-2.28,6.28-3.83,12.9-4.55,19.77-.31,2.91-.47,5.86-.47,8.85,0,4.63-3.75,8.38-8.38,8.38-2.99,0-5.94.16-8.85.47-6.87.72-13.5,2.27-19.77,4.55-6.88,2.5-13.32,5.9-19.23,10.01,3.41,5.28,6.7,10.65,9.86,16.1,10.68-7.72,23.8-12.29,37.99-12.29,15.04,0,27.23-12.19,27.23-27.23,0-21.75,10.71-40.99,27.13-52.77-3.5-5.22-7.12-10.37-10.81-15.46-13.68,9.77-24.31,23.54-30.15,39.61Z"/><path class="cls-1" d="m900.14,217.44c0,4.63,3.75,8.38,8.38,8.38s8.38-3.75,8.38-8.38c0-2.99.16-5.94.47-8.85-2.91.31-5.86.47-8.85.47-4.63,0-8.38,3.75-8.38,8.38Z"/><path class="cls-1" d="m1000.68,336.83c-35.86,0-64.93,29.07-64.93,64.93,0,15.04-12.19,27.23-27.23,27.23-1.15,0-2.27-.09-3.38-.23,1.91,6.28,3.66,12.62,5.25,19.04,24.58-.98,44.21-21.21,44.21-46.03s20.63-46.08,46.08-46.08c4.54,0,8.91-.67,13.05-1.89-2.33-5.92-4.79-11.77-7.33-17.58-1.85.39-3.76.61-5.72.61Z"/><path class="cls-1" d="m862.44,217.44c0,25.45,20.63,46.08,46.08,46.08,18.01,0,33.6-10.34,41.18-25.4-4.55-6.17-9.25-12.24-14.07-18.19-1.26,13.87-12.91,24.74-27.1,24.74-15.04,0-27.23-12.19-27.23-27.23s12.19-27.23,27.23-27.23c.36,0,.71-.02,1.07-.03-5.26-5.55-10.64-10.98-16.14-16.29-18.05,6.24-31.01,23.38-31.01,43.55Z"/><path class="cls-1" d="m1009.06,493.92c0-4.63-3.75-8.38-8.38-8.38s-8.38,3.75-8.38,8.38c0,2.99-.16,5.94-.47,8.85,2.91-.31,5.86-.47,8.85-.47,4.63,0,8.38-3.75,8.38-8.38Z"/><path class="cls-1" d="m917.36,208.59c-.31,2.91-.47,5.86-.47,8.85,0,4.63-3.75,8.38-8.38,8.38s-8.38-3.75-8.38-8.38,3.75-8.38,8.38-8.38c2.99,0,5.94-.16,8.85-.47.3-2.88.78-5.7,1.37-8.48-3.01-3.35-6.05-6.66-9.14-9.93-.36,0-.71.03-1.07.03-15.04,0-27.23,12.19-27.23,27.23s12.19,27.23,27.23,27.23c14.2,0,25.84-10.87,27.1-24.74-5.47-6.75-11.09-13.36-16.89-19.82-.59,2.78-1.06,5.6-1.37,8.48Z"/><path class="cls-1" d="m899.67,669.4c-.04-.38-.11-.76-.15-1.14-2.42,6.78-5.01,13.49-7.79,20.09,2.61-.53,5.25-.98,7.95-1.26.31-2.91.47-5.86.47-8.85s-.16-5.94-.47-8.85Z"/><path class="cls-1" d="m843.59,217.44c0,4.59.48,9.07,1.39,13.4,23.25,8.45,41.69,26.89,50.14,50.14,4.32.91,8.8,1.39,13.4,1.39s9.07-.48,13.4-1.39c5.84-16.07,16.47-29.84,30.15-39.61-.79-1.09-1.57-2.17-2.37-3.25-7.58,15.06-23.17,25.4-41.18,25.4-25.45,0-46.08-20.63-46.08-46.08,0-20.17,12.97-37.3,31.01-43.55-4.92-4.76-9.95-9.41-15.06-13.97-20.68,10.86-34.8,32.53-34.8,57.51Z"/><path class="cls-1" d="m899.67,669.4c2.91.31,5.86.47,8.85.47s5.94-.16,8.85-.47c.72-6.87,2.27-13.5,4.55-19.77-4.32.91-8.8,1.39-13.4,1.39-1.1,0-2.2-.03-3.28-.09-1.77,5.84-3.68,11.62-5.72,17.33.05.38.11.75.15,1.14Z"/><path class="cls-1" d="m899.67,669.4c.31,2.91.47,5.86.47,8.85s-.16,5.94-.47,8.85c2.91-.31,5.86-.47,8.85-.47,4.63,0,8.38-3.75,8.38-8.38,0-2.99.16-5.94.47-8.85-2.91.31-5.86.47-8.85.47s-5.94-.16-8.85-.47Z"/><path class="cls-1" d="m954.6,493.92c0-25.45,20.63-46.08,46.08-46.08,22.5,0,41.23,16.13,45.26,37.46-1.57-14.71-3.78-29.22-6.58-43.53-10.81-8.03-24.19-12.78-38.69-12.78-35.86,0-64.93,29.07-64.93,64.93,0,10.54-6,19.66-14.76,24.19.37,6.62.58,13.29.62,20,19.08-5.64,33-23.28,33-44.19Z"/><path class="cls-1" d="m954.6,309.6c0,25.45-20.63,46.08-46.08,46.08-10.92,0-20.95,3.81-28.85,10.16,3,5.85,5.86,11.79,8.56,17.8,4.99-5.58,12.22-9.11,20.29-9.11,4.59,0,9.07-.48,13.4-1.39,8.45-23.25,26.89-41.69,50.14-50.14.91-4.32,1.39-8.8,1.39-13.4,0-8.19,3.63-15.52,9.36-20.51-3.14-5.53-6.39-10.99-9.73-16.4-11.22,8.4-18.48,21.81-18.48,36.9Z"/><path class="cls-1" d="m724.2,79.2c7.56,0,14.68-1.83,20.98-5.06-20.47-9.04-41.65-16.77-63.43-23.08,7,16.53,23.37,28.14,42.46,28.14Z"/><path class="cls-1" d="m829.76,188.82c-2.28,6.28-3.83,12.9-4.55,19.77-.31,2.91-.47,5.86-.47,8.85s.16,5.94.47,8.85c6.87.72,13.5,2.27,19.77,4.55-.91-4.32-1.39-8.8-1.39-13.4,0-24.98,14.12-46.66,34.8-57.51-4.96-4.42-9.99-8.77-15.12-13-15.3,9.84-27.2,24.52-33.51,41.89Z"/><path class="cls-1" d="m623.19,41.96c.14-1.35.25-2.71.32-4.08-6.22-1.03-12.47-1.98-18.76-2.78-.12,3.9-.56,7.72-1.34,11.42,6.28-2.28,12.9-3.83,19.77-4.55Z"/><path class="cls-1" d="m660.66,46.52c-.08-.37-.13-.74-.2-1.11-6.5-1.58-13.05-3.05-19.65-4.38.03.31.04.63.07.94,6.87.72,13.5,2.27,19.77,4.55Z"/><path class="cls-1" d="m632.03,41.5c2.99,0,5.94.16,8.85.47-.03-.31-.05-.63-.07-.94-5.73-1.15-11.5-2.19-17.29-3.15-.08,1.37-.18,2.73-.32,4.08,2.91-.31,5.86-.47,8.85-.47Z"/><path class="cls-1" d="m710.8,96.66c4.32.91,8.8,1.39,13.4,1.39s9.07-.48,13.4-1.39c2.74-7.54,6.55-14.57,11.22-20.92-1.21-.54-2.43-1.06-3.64-1.59-6.29,3.23-13.42,5.06-20.98,5.06-19.08,0-35.46-11.6-42.46-28.14-7.03-2.04-14.13-3.91-21.29-5.65.07.37.13.74.2,1.11,23.25,8.45,41.69,26.89,50.14,50.14Z"/><path class="cls-1" d="m935.75,309.6c0,15.04-12.19,27.23-27.23,27.23-14.19,0-27.3,4.56-37.99,12.29,3.18,5.49,6.23,11.07,9.13,16.73,7.9-6.35,17.93-10.16,28.85-10.16,25.45,0,46.08-20.63,46.08-46.08,0-15.1,7.26-28.5,18.48-36.9-3.31-5.35-6.71-10.65-10.21-15.87-16.42,11.78-27.13,31.02-27.13,52.77Z"/><path class="cls-1" d="m816.36,171.36c-25.45,0-46.08,20.63-46.08,46.08,0,5.63-1.01,11.03-2.87,16.02,1.93,1.44,3.85,2.9,5.75,4.38,4.59-2.77,9.46-5.14,14.57-7,.91-4.32,1.39-8.8,1.39-13.4,0-15.04,12.19-27.23,27.23-27.23,4.59,0,9.07-.48,13.4-1.39,6.31-17.37,18.21-32.05,33.51-41.89-1.48-1.22-2.99-2.41-4.49-3.62-7.02,16.49-23.37,28.05-42.42,28.05Z"/><path class="cls-1" d="m733.04,116.43c-.31,2.91-.47,5.86-.47,8.85,0,4.63-3.75,8.38-8.38,8.38-2.99,0-5.94.16-8.85.47-6.87.72-13.5,2.27-19.77,4.55-18.41,6.69-33.79,19.67-43.59,36.32,6.19,1.9,12.32,3.95,18.37,6.15,11.67-17.28,31.43-28.63,53.85-28.63,15.04,0,27.23-12.19,27.23-27.23s5.55-30.04,14.8-41.26c-5.75-2.86-11.54-5.64-17.41-8.28-4.67,6.35-8.48,13.38-11.22,20.92-2.28,6.28-3.83,12.9-4.55,19.77Z"/><path class="cls-2" d="m661.73,596.01c-7.64,2.15-54.6,7.42-109.36,13.07v-130.91c0-5.73,1.64-11.35,4.79-16.13,2.11-3.2,4.91-8.42,8.41-16.92,7.44-18.08-40.88-21.31-55.95-21.88-1.97-.07-3.32,1.94-2.5,3.74,3.22,7.05,9.43,22.91,9.43,40.14v145.61c-69.54,6.99-140.68,13.68-155.11,15.03-1.27.12-1.98,1.52-1.34,2.63,7.83,13.66,18.41,20.21,27.84,23.25,9,2.9,18.67,2.9,27.83.57,26.95-6.86,63.12-10.91,100.78-13.2v124.16c0,1.41,1.69,2.15,2.71,1.18,8.35-7.91,33.11-34.41,33.11-70.46v-56.56c69.75-2.38,136.33.07,151.43.69,2.05.09,3.91-1.13,4.7-3.02,11.57-27.66-25.77-46.9-46.77-40.99Z"/><path class="cls-2" d="m331.99,532.83c17.86-6.15,119.68-44.97,200.96-154.96,1.88-2.55,5.65-2.67,7.71-.25,19.16,22.57,100.62,117.6,116.68,120.92,15.75,3.26,65.45,5.11,91.92-5,4.29-1.64,4.21-7.74-.12-9.27-32.54-11.51-132.48-51.07-198.66-123.2-1.21-1.31-1.61-3.18-1.04-4.87,1.45-4.35,4.86-12.37,10.64-13.84,8.01-2.04,4.4-10.68-3.93-14.77-7.73-3.79-23.86-13.28-45.37-14.36-4.28-.22-6.85,4.74-4.12,8.04.05.06.1.12.16.19,3.32,3.92,4.25,10.67,4.5,15.02.15,2.61-.51,5.19-1.85,7.43-9.93,16.6-59.88,94.2-177.94,188.02-.45.36-.08,1.08.47.89Z"/><path class="cls-2" d="m594.07,472.15c-.28.03-.49.26-.5.54-.08,1.65-.41,7.16-1.7,11.18-1.38,4.3-30.12,45.25-35.89,53.44-.32.45.13,1.04.65.86,6.91-2.42,33.72-12.48,46.89-27.07.28-.31.76-.23.93.14,2.07,4.67,13.11,28.01,24.31,22.33,12.42-6.31,23.51-20.26,12.62-24.47-10.9-4.21-35.17-6.31-25.23-10.7,9.94-4.4,15.48-10.51,12.62-14.53-2.84-3.97-20.25-13.36-34.69-11.72Z"/><path class="cls-2" d="m595.75,533.33c-.28.03-.49.26-.5.54-.08,1.65-.41,7.16-1.7,11.18-1.38,4.3-30.12,45.25-35.89,53.44-.32.45.13,1.04.65.86,6.91-2.42,33.72-12.48,46.89-27.07.28-.31.76-.23.93.14,2.07,4.67,13.11,28.01,24.31,22.33,12.42-6.31,23.51-20.26,12.62-24.47-10.9-4.21-35.17-6.31-25.23-10.7,9.94-4.4,15.48-10.51,12.62-14.53-2.84-3.97-20.25-13.36-34.69-11.72Z"/><path class="cls-2" d="m453.46,481.35c-.28.03-.49.26-.5.54-.08,1.65-.41,7.16-1.7,11.18-1.38,4.3-30.12,45.25-35.89,53.44-.32.45.13,1.04.65.86,6.91-2.42,33.72-12.48,46.89-27.07.28-.31.76-.23.93.14,2.07,4.67,13.11,28.01,24.31,22.33,12.42-6.31,23.51-20.26,12.62-24.47-10.9-4.21-35.17-6.31-25.23-10.7,9.94-4.4,15.48-10.51,12.62-14.53-2.84-3.97-20.25-13.36-34.69-11.72Z"/><path class="cls-2" d="m455.14,542.53c-.28.03-.49.26-.5.54-.08,1.65-.41,7.16-1.7,11.18-1.38,4.3-30.12,45.25-35.89,53.44-.32.45.13,1.04.65.86,6.91-2.42,33.72-12.48,46.89-27.07.28-.31.76-.23.93.14,2.07,4.67,13.11,28.01,24.31,22.33,12.42-6.31,23.51-20.26,12.62-24.47-10.9-4.21-35.17-6.31-25.23-10.7,9.94-4.4,15.48-10.51,12.62-14.53s-20.25-13.36-34.69-11.72Z"/></svg>