<?xml version="1.0" encoding="UTF-8"?><svg id="Layer_1" xmlns="http://www.w3.org/2000/svg" viewBox="0 0 1080 1080"><defs><style>.cls-1{letter-spacing:-.07em;}.cls-2{letter-spacing:-.04em;}.cls-3{fill:none;stroke:#2c9aa1;stroke-miterlimit:10;stroke-width:5.49px;}.cls-4{font-family:Jaapokkisubtract-Regular, 'Jaapokki subtract';font-size:160px;}.cls-4,.cls-5{fill:#9b4c44;}.cls-6{fill:#231f20;}</style></defs><text class="cls-4" transform="translate(215.28 -52.5)"><tspan x="0" y="0">NU</tspan><tspan class="cls-2" x="215.04" y="0">K</tspan><tspan class="cls-1" x="315.84" y="0">A</tspan><tspan class="cls-2" x="432.48" y="0">S</tspan><tspan x="521.6" y="0">A</tspan></text><text class="cls-4" transform="translate(215.16 1047.5)"><tspan x="0" y="0">NU</tspan><tspan class="cls-2" x="215.04" y="0">K</tspan><tspan class="cls-1" x="315.84" y="0">A</tspan><tspan class="cls-2" x="432.48" y="0">S</tspan><tspan x="521.6" y="0">A</tspan></text><path class="cls-3" d="m947.34,430.65c.24,2.24.45,4.49.65,6.73-.01-2.3-.24-4.55-.65-6.73Z"/><path class="cls-3" d="m131.76,437.38c.2-2.25.41-4.5.65-6.74-.41,2.18-.64,4.43-.65,6.74Z"/><path class="cls-3" d="m398.21,140.77c0-2.41.13-4.78.38-7.12-2.34.25-4.72.38-7.12.38s-4.78-.13-7.12-.38c.25,2.34.38,4.72.38,7.12s-.13,4.78-.38,7.12c2.34-.25,4.72-.38,7.12-.38,3.73,0,6.75-3.02,6.75-6.75Z"/><path class="cls-3" d="m784.37,660.95c-5.44,7.14-11.18,14.04-17.22,20.66,9.63-2.09,16.87-10.5,17.22-20.66Z"/><path class="cls-3" d="m398.59,133.65c.58-5.53,1.83-10.87,3.67-15.92-3.48.73-7.09,1.12-10.79,1.12s-7.31-.39-10.79-1.12c1.84,5.05,3.08,10.39,3.67,15.92,2.34.25,4.72.38,7.12.38s4.78-.13,7.12-.38Z"/><path class="cls-3" d="m762.48,162.7c-28.87,0-52.28,23.41-52.28,52.28,0,1.24-.13,2.44-.32,3.62,4.48,2.98,8.88,6.07,13.2,9.27,1.49-4.02,2.31-8.36,2.31-12.9,0-20.49,16.61-37.1,37.1-37.1,15.34,0,28.5-9.31,34.15-22.58-4.18-3.37-8.42-6.66-12.73-9.86-2.14,9.87-10.91,17.27-21.42,17.27Z"/><path class="cls-3" d="m688.28,177.87c20.49,0,37.1-16.61,37.1-37.1,0-10.13,4.06-19.3,10.64-25.99-4.58-2.5-9.22-4.9-13.9-7.23-7.44,9.03-11.91,20.61-11.91,33.22s-9.82,21.92-21.92,21.92c-18.05,0-33.96,9.15-43.35,23.05,4.94,1.8,9.82,3.71,14.63,5.74,6.8-8.31,17.14-13.62,28.72-13.62Z"/><path class="cls-3" d="m688.28,177.87c-11.58,0-21.92,5.31-28.72,13.62,4.95,2.1,9.84,4.33,14.66,6.67,3.81-3.19,8.71-5.12,14.07-5.12,3.7,0,7.31-.39,10.79-1.12,6.8-18.72,21.65-33.57,40.37-40.37.73-3.48,1.12-7.09,1.12-10.79,0-7.46,3.73-14.03,9.42-17.99-4.6-2.75-9.25-5.43-13.96-8-6.58,6.69-10.64,15.87-10.64,25.99,0,20.49-16.61,37.1-37.1,37.1Z"/><path class="cls-3" d="m695.4,207.85c.58-5.53,1.83-10.87,3.67-15.92-3.48.73-7.09,1.12-10.79,1.12-5.36,0-10.26,1.93-14.07,5.12,6.35,3.09,12.58,6.38,18.67,9.88.84-.06,1.69-.11,2.52-.2Z"/><path class="cls-3" d="m539.87,134.03c2.41,0,4.78-.13,7.12-.38.58-5.53,1.83-10.87,3.67-15.92-3.48.73-7.09,1.12-10.79,1.12s-7.31-.39-10.79-1.12c1.84,5.05,3.08,10.39,3.67,15.92,2.34.25,4.72.38,7.12.38Z"/><path class="cls-3" d="m695.28,209.47c4.96,2.91,9.83,5.96,14.6,9.13.2-1.18.32-2.39.32-3.62,0-28.87,23.41-52.28,52.28-52.28,10.51,0,19.28-7.4,21.42-17.27-10.9-8.09-22.23-15.65-33.92-22.65-5.69,3.96-9.42,10.54-9.42,17.99,0,3.7-.39,7.31-1.12,10.79,5.05-1.84,10.39-3.08,15.92-3.67.25-2.34.38-4.72.38-7.12,0-3.73,3.02-6.75,6.75-6.75s6.75,3.02,6.75,6.75-3.02,6.75-6.75,6.75c-2.41,0-4.78.13-7.12.38-5.53.58-10.87,1.83-15.92,3.67-18.72,6.8-33.57,21.65-40.37,40.37-1.84,5.05-3.08,10.39-3.67,15.92-.06.53-.08,1.08-.13,1.61Z"/><path class="cls-3" d="m614.08,88.49c-28.87,0-52.28,23.41-52.28,52.28,0,12.11-9.82,21.92-21.92,21.92-8.39,0-16.32,1.99-23.34,5.5,7.71-.58,15.49-.88,23.34-.88,8.36,0,16.65.35,24.84,1,7.53-6.79,12.26-16.62,12.26-27.55,0-20.49,16.61-37.1,37.1-37.1s37.1,16.61,37.1,37.1c0,18.89-14.13,34.48-32.39,36.79,3.81,1.01,7.6,2.08,11.35,3.24,7.9-13.41,20.28-23.85,35.1-29.24.73-3.48,1.12-7.09,1.12-10.79,0-28.87-23.41-52.28-52.28-52.28Z"/><path class="cls-3" d="m688.28,134.03c2.41,0,4.78-.13,7.12-.38.58-5.53,1.83-10.87,3.67-15.92-3.48.73-7.09,1.12-10.79,1.12s-7.31-.39-10.79-1.12c1.84,5.05,3.08,10.39,3.67,15.92,2.34.25,4.72.38,7.12.38Z"/><path class="cls-3" d="m681.16,133.65c.25,2.34.38,4.72.38,7.12s-.13,4.78-.38,7.12c2.34-.25,4.72-.38,7.12-.38,3.73,0,6.75-3.02,6.75-6.75,0-2.41.13-4.78.38-7.12-2.34.25-4.72.38-7.12.38s-4.78-.13-7.12-.38Z"/><path class="cls-3" d="m546.62,140.77c0,3.73-3.02,6.75-6.75,6.75-2.41,0-4.78.13-7.12.38-5.53.58-10.87,1.83-15.92,3.67-11.26,4.09-21.1,11.11-28.65,20.11,9.32-1.58,18.77-2.75,28.35-3.47,7.03-3.51,14.95-5.5,23.34-5.5,12.11,0,21.92-9.82,21.92-21.92,0-28.87,23.41-52.28,52.28-52.28s52.28,23.41,52.28,52.28c0,3.7-.39,7.31-1.12,10.79,5.05-1.84,10.39-3.08,15.92-3.67.25-2.34.38-4.72.38-7.12s-.13-4.78-.38-7.12c-.58-5.53-1.83-10.87-3.67-15.92-6.8-18.72-21.65-33.57-40.37-40.37-5.05-1.84-10.39-3.08-15.92-3.67-2.34-.25-4.72-.38-7.12-.38s-4.78.13-7.12.38c-5.53.58-10.87,1.83-15.92,3.67-18.72,6.8-33.57,21.65-40.37,40.37-1.84,5.05-3.08,10.39-3.67,15.92-.25,2.34-.38,4.72-.38,7.12Z"/><path class="cls-3" d="m324.39,727.28c-2.34.25-4.72.38-7.12.38-3.73,0-6.75,3.02-6.75,6.75,0,2.41-.13,4.78-.38,7.12,2.34-.25,4.72-.38,7.12-.38s4.78.13,7.12.38c-.25-2.34-.38-4.72-.38-7.12s.13-4.78.38-7.12Z"/><path class="cls-3" d="m344.3,711.82c-4.01-3.31-7.93-6.73-11.77-10.24-1.74,3.12-3.25,6.38-4.48,9.78-1.84,5.05-3.08,10.39-3.67,15.92-.25,2.34-.38,4.72-.38,7.12s.13,4.78.38,7.12c5.53.58,10.87,1.83,15.92,3.67-.73-3.48-1.12-7.09-1.12-10.79,0-8.09,1.84-15.75,5.12-22.58Z"/><path class="cls-3" d="m384.34,801.48c.25,2.34.38,4.72.38,7.12s-.13,4.78-.38,7.12c2.34-.25,4.72-.38,7.12-.38,3.73,0,6.75-3.02,6.75-6.75,0-2.41.13-4.78.38-7.12-2.34.25-4.72.38-7.12.38s-4.78-.13-7.12-.38Z"/><path class="cls-3" d="m317.26,727.66c2.41,0,4.78-.13,7.12-.38.58-5.53,1.83-10.87,3.67-15.92-3.48.73-7.09,1.12-10.79,1.12-12.11,0-21.92,9.82-21.92,21.92,0,3.7-.39,7.31-1.12,10.79,5.05-1.84,10.39-3.08,15.92-3.67.25-2.34.38-4.72.38-7.12,0-3.73,3.02-6.75,6.75-6.75Z"/><path class="cls-3" d="m380.68,785.56c1.84,5.05,3.08,10.39,3.67,15.92,2.34.25,4.72.38,7.12.38s4.78-.13,7.12-.38c.58-5.53,1.83-10.87,3.67-15.92-3.48.73-7.09,1.12-10.79,1.12s-7.31-.39-10.79-1.12Z"/><path class="cls-3" d="m243.06,712.48c3.7,0,7.31-.39,10.79-1.12,6.8-18.72,21.65-33.57,40.37-40.37.69-3.27,1.06-6.65,1.1-10.11-4.06-5.33-7.96-10.79-11.67-16.39-2.23,4.77-3.49,10.09-3.49,15.71,0,20.49-16.61,37.1-37.1,37.1-14.5,0-27.05,8.32-33.15,20.45,3.67,4.97,7.45,9.85,11.33,14.65,1.01-11.17,10.39-19.92,21.82-19.92Z"/><path class="cls-3" d="m313.23,682.29c-26.99,2.06-48.24,24.6-48.24,52.11,0,12.11-9.82,21.92-21.92,21.92-.31,0-.62-.03-.93-.05,4.25,4.49,8.61,8.89,13.06,13.18,14.53-5.03,24.97-18.82,24.97-35.06,0-20.49,16.61-37.1,37.1-37.1,3.26,0,6.42-.42,9.43-1.21-4.63-4.46-9.12-9.06-13.46-13.8Z"/><path class="cls-3" d="m710.2,734.4c0,12.11-9.82,21.92-21.92,21.92-5.36,0-10.26-1.93-14.07-5.12-4.82,2.35-9.7,4.58-14.66,6.67,6.8,8.31,17.14,13.62,28.72,13.62,20.49,0,37.1-16.61,37.1-37.1,0-6.71,1.79-12.99,4.9-18.42-6.43,5.09-13.08,9.91-19.92,14.48-.1,1.3-.16,2.62-.16,3.95Z"/><path class="cls-3" d="m710.2,734.4c0-1.33.07-2.64.16-3.95-11.53,7.7-23.6,14.64-36.16,20.75,3.81,3.19,8.71,5.12,14.07,5.12,12.11,0,21.92-9.82,21.92-21.92Z"/><path class="cls-3" d="m527.57,781.79c.54,1.24,1.05,2.49,1.51,3.77,3.48.73,7.09,1.12,10.79,1.12s7.31-.39,10.79-1.12c.46-1.28.97-2.53,1.51-3.77-4.08.16-8.18.27-12.3.27s-8.22-.11-12.3-.27Z"/><path class="cls-3" d="m243.06,697.3c20.49,0,37.1-16.61,37.1-37.1,0-5.62,1.25-10.94,3.49-15.71-3.15-4.74-6.16-9.57-9.05-14.49-6.05,8.53-9.62,18.94-9.62,30.2,0,12.11-9.82,21.92-21.92,21.92-17.65,0-33.24,8.75-42.71,22.15,3.09,4.56,6.29,9.05,9.56,13.48,6.1-12.13,18.65-20.45,33.15-20.45Z"/><path class="cls-3" d="m391.47,771.5c-20.49,0-37.1-16.61-37.1-37.1,0-4.54.82-8.88,2.31-12.9-4.2-3.13-8.33-6.35-12.37-9.68-3.28,6.84-5.12,14.49-5.12,22.58,0,3.7.39,7.31,1.12,10.79,18.72,6.8,33.57,21.65,40.37,40.37,3.48.73,7.09,1.12,10.79,1.12s7.31-.39,10.79-1.12c3.87-10.64,10.34-20.02,18.63-27.39-.23-.1-.47-.19-.7-.29-6.8,8.31-17.14,13.62-28.72,13.62Z"/><path class="cls-3" d="m532.75,801.48c-.58-5.53-1.83-10.87-3.67-15.92-.46-1.28-.97-2.53-1.51-3.77-5.97-.24-11.9-.63-17.77-1.2,5.15,8.1,8.15,17.71,8.15,28.02,0,3.7-.39,7.31-1.12,10.79,5.05-1.84,10.39-3.08,15.92-3.67.25-2.34.38-4.72.38-7.12s-.13-4.78-.38-7.12Z"/><path class="cls-3" d="m529.09,785.56c1.84,5.05,3.08,10.39,3.67,15.92,2.34.25,4.72.38,7.12.38s4.78-.13,7.12-.38c.58-5.53,1.83-10.87,3.67-15.92-3.48.73-7.09,1.12-10.79,1.12s-7.31-.39-10.79-1.12Z"/><path class="cls-3" d="m249.81,289.18c0-2.41.13-4.78.38-7.12-2.34.25-4.72.38-7.12.38s-4.78-.13-7.12-.38c.25,2.34.38,4.72.38,7.12s-.13,4.78-.38,7.12c2.34-.25,4.72-.38,7.12-.38,3.73,0,6.75-3.02,6.75-6.75Z"/><path class="cls-3" d="m175.98,356.26c-2.34.25-4.72.38-7.12.38-3.73,0-6.75,3.02-6.75,6.75,0,2.41-.13,4.78-.38,7.12,2.34-.25,4.72-.38,7.12-.38s4.78.13,7.12.38c-.25-2.34-.38-4.72-.38-7.12s.13-4.78.38-7.12Z"/><path class="cls-3" d="m243.06,311.1c12.11,0,21.92-9.82,21.92-21.92,0-28.87,23.41-52.28,52.28-52.28,7.88,0,15.35,1.75,22.05,4.88,4.15-3.57,8.39-7.03,12.73-10.38-3.7-2.23-7.62-4.14-11.73-5.63-5.05-1.84-10.39-3.08-15.92-3.67-2.34-.25-4.72-.38-7.12-.38s-4.78.13-7.12.38c-5.53.58-10.87,1.83-15.92,3.67-18.72,6.8-33.57,21.65-40.37,40.37-1.84,5.05-3.08,10.39-3.67,15.92-.25,2.34-.38,4.72-.38,7.12,0,3.73-3.02,6.75-6.75,6.75-2.41,0-4.78.13-7.12.38-5.53.58-10.87,1.83-15.92,3.67-18.72,6.8-33.57,21.65-40.37,40.37-1.84,5.05-3.08,10.39-3.67,15.92-.25,2.34-.38,4.72-.38,7.12s.13,4.78.38,7.12c5.53.58,10.87,1.83,15.92,3.67-.73-3.48-1.12-7.09-1.12-10.79,0-28.87,23.41-52.28,52.28-52.28Z"/><path class="cls-3" d="m168.86,356.64c2.41,0,4.78-.13,7.12-.38.58-5.53,1.83-10.87,3.67-15.92-3.48.73-7.09,1.12-10.79,1.12-12.11,0-21.92,9.82-21.92,21.92,0,3.7-.39,7.31-1.12,10.79,5.05-1.84,10.39-3.08,15.92-3.67.25-2.34.38-4.72.38-7.12,0-3.73,3.02-6.75,6.75-6.75Z"/><path class="cls-3" d="m241.56,400.45c-19.79-.79-35.6-17.08-35.6-37.06s16.61-37.1,37.1-37.1,37.1-16.61,37.1-37.1,16.61-37.1,37.1-37.1c3.26,0,6.42.42,9.43,1.21,4.1-3.95,8.31-7.79,12.62-11.51-6.7-3.12-14.17-4.88-22.05-4.88-28.87,0-52.28,23.41-52.28,52.28,0,12.11-9.82,21.92-21.92,21.92-28.87,0-52.28,23.41-52.28,52.28,0,3.7.39,7.31,1.12,10.79,18.72,6.8,33.57,21.65,40.37,40.37,1.95.41,3.94.7,5.97.89.98-5.04,2.09-10.03,3.32-14.98Z"/><path class="cls-3" d="m829.94,660.2c0-3.73,3.02-6.75,6.75-6.75,2.41,0,4.78-.13,7.12-.38.58-5.53,1.83-10.87,3.67-15.92-3.48.73-7.09,1.12-10.79,1.12-12.11,0-21.92,9.82-21.92,21.92,0,3.7-.39,7.31-1.12,10.79,5.05-1.84,10.39-3.08,15.92-3.67.25-2.34.38-4.72.38-7.12Z"/><path class="cls-3" d="m324.01,214.98c0,2.41.13,4.78.38,7.12,5.53.58,10.87,1.83,15.92,3.67-.73-3.48-1.12-7.09-1.12-10.79,0-28.87,23.41-52.28,52.28-52.28,12.11,0,21.92-9.82,21.92-21.92,0-28.87,23.41-52.28,52.28-52.28s52.28,23.41,52.28,52.28c0,3.7-.39,7.31-1.12,10.79,5.05-1.84,10.39-3.08,15.92-3.67.25-2.34.38-4.72.38-7.12s-.13-4.78-.38-7.12c-.58-5.53-1.83-10.87-3.67-15.92-6.8-18.72-21.65-33.57-40.37-40.37-5.05-1.84-10.39-3.08-15.92-3.67-2.34-.25-4.72-.38-7.12-.38s-4.78.13-7.12.38c-5.53.58-10.87,1.83-15.92,3.67-18.72,6.8-33.57,21.65-40.37,40.37-1.84,5.05-3.08,10.39-3.67,15.92-.25,2.34-.38,4.72-.38,7.12,0,3.73-3.02,6.75-6.75,6.75-2.41,0-4.78.13-7.12.38-5.53.58-10.87,1.83-15.92,3.67-18.72,6.8-33.57,21.65-40.37,40.37-1.84,5.05-3.08,10.39-3.67,15.92-.25,2.34-.38,4.72-.38,7.12Z"/><path class="cls-3" d="m250.18,282.06c.58-5.53,1.83-10.87,3.67-15.92-3.48.73-7.09,1.12-10.79,1.12s-7.31-.39-10.79-1.12c1.84,5.05,3.08,10.39,3.67,15.92,2.34.25,4.72.38,7.12.38s4.78-.13,7.12-.38Z"/><path class="cls-3" d="m245.7,564c-1.51-5-2.9-10.05-4.17-15.15-19.78-.8-35.58-17.08-35.58-37.06,0-16.83,11.21-31.04,26.57-35.58,0-.51-.02-1.02-.02-1.53,0-4.75.12-9.47.34-14.17-23.98,4.75-42.06,25.9-42.06,51.27,0,3.7.39,7.31,1.12,10.79,18.72,6.8,33.57,21.65,40.37,40.37,3.48.73,7.09,1.12,10.79,1.12.89,0,1.77-.03,2.64-.07Z"/><path class="cls-3" d="m232.84,460.52c.24-5.21.6-10.39,1.1-15.53-4.82.65-9.49,1.78-13.93,3.39-18.72,6.8-33.57,21.65-40.37,40.37-1.84,5.05-3.08,10.39-3.67,15.92-.25,2.34-.38,4.72-.38,7.12s.13,4.78.38,7.12c5.53.58,10.87,1.83,15.92,3.67-.73-3.48-1.12-7.09-1.12-10.79,0-25.38,18.08-46.52,42.06-51.27Z"/><path class="cls-3" d="m243.06,564.07c-3.7,0-7.31-.39-10.79-1.12,1.84,5.05,3.08,10.39,3.67,15.92,2.34.25,4.72.38,7.12.38s4.78-.13,7.12-.38c.03-.31.09-.61.12-.92-1.64-4.6-3.18-9.25-4.6-13.95-.88.04-1.76.07-2.64.07Z"/><path class="cls-3" d="m168.86,505.05c2.41,0,4.78-.13,7.12-.38.58-5.53,1.83-10.87,3.67-15.92-3.48.73-7.09,1.12-10.79,1.12-12.11,0-21.92,9.82-21.92,21.92,0,3.7-.39,7.31-1.12,10.79,5.05-1.84,10.39-3.08,15.92-3.67.25-2.34.38-4.72.38-7.12,0-3.73,3.02-6.75,6.75-6.75Z"/><path class="cls-3" d="m232.27,414.54c1.74,4.77,2.92,9.81,3.54,15.02.7-4.75,1.51-9.46,2.42-14.13-2.02-.19-4.02-.48-5.97-.89Z"/><path class="cls-3" d="m175.98,504.67c-2.34.25-4.72.38-7.12.38-3.73,0-6.75,3.02-6.75,6.75,0,2.41-.13,4.78-.38,7.12,2.34-.25,4.72-.38,7.12-.38s4.78.13,7.12.38c-.25-2.34-.38-4.72-.38-7.12s.13-4.78.38-7.12Z"/><path class="cls-3" d="m310.52,214.98c0-3.73,3.02-6.75,6.75-6.75,2.41,0,4.78-.13,7.12-.38.58-5.53,1.83-10.87,3.67-15.92-3.48.73-7.09,1.12-10.79,1.12-12.11,0-21.92,9.82-21.92,21.92,0,3.7-.39,7.31-1.12,10.79,5.05-1.84,10.39-3.08,15.92-3.67.25-2.34.38-4.72.38-7.12Z"/><path class="cls-3" d="m636,140.77c0-12.11-9.82-21.92-21.92-21.92s-21.92,9.82-21.92,21.92c0,3.7-.39,7.31-1.12,10.79,5.05-1.84,10.39-3.08,15.92-3.67.25-2.34.38-4.72.38-7.12,0-3.73,3.02-6.75,6.75-6.75s6.75,3.02,6.75,6.75-3.02,6.75-6.75,6.75c-2.41,0-4.78.13-7.12.38-5.53.58-10.87,1.83-15.92,3.67-9.84,3.58-18.6,9.4-25.7,16.82,7.01.57,13.95,1.37,20.81,2.41,8.08-5.12,17.65-8.09,27.93-8.09,12.11,0,21.92-9.82,21.92-21.92Z"/><path class="cls-3" d="m904.15,511.79c0-3.73,3.02-6.75,6.75-6.75,2.41,0,4.78-.13,7.12-.38.58-5.53,1.83-10.87,3.67-15.92-3.48.73-7.09,1.12-10.79,1.12-12.11,0-21.92,9.82-21.92,21.92,0,3.7-.39,7.31-1.12,10.79,5.05-1.84,10.39-3.08,15.92-3.67.25-2.34.38-4.72.38-7.12Z"/><path class="cls-3" d="m904.15,660.2c0,.86-.04,1.7-.07,2.55,1.51-2.93,2.99-5.88,4.44-8.84-2.55.96-4.37,3.41-4.37,6.29Z"/><path class="cls-3" d="m369.54,734.4c0,12.11,9.82,21.92,21.92,21.92,5.36,0,10.26-1.93,14.07-5.12-12.38-6.03-24.29-12.86-35.67-20.43-.2,1.18-.32,2.39-.32,3.62Z"/><path class="cls-3" d="m829.94,734.4c0,3.73,3.02,6.75,6.75,6.75s6.75-3.02,6.75-6.75c0-2.41.13-4.78.38-7.12-2.34.25-4.72.38-7.12.38-3.73,0-6.75,3.02-6.75,6.75Z"/><path class="cls-3" d="m769.61,727.28c-2.34.25-4.72.38-7.12.38-3.73,0-6.75,3.02-6.75,6.75,0,2.41-.13,4.78-.38,7.12,2.34-.25,4.72-.38,7.12-.38s4.78.13,7.12.38c-.25-2.34-.38-4.72-.38-7.12s.13-4.78.38-7.12Z"/><path class="cls-3" d="m836.69,385.31c12.11,0,21.92-9.82,21.92-21.92,0-28.87,23.41-52.28,52.28-52.28,1.58,0,3.12-.18,4.6-.49-2.15-4.92-4.39-9.81-6.73-14.63-1.68.05-3.35.15-5,.32-5.53.58-10.87,1.83-15.92,3.67-18.72,6.8-33.57,21.65-40.37,40.37-1.84,5.05-3.08,10.39-3.67,15.92-.25,2.34-.38,4.72-.38,7.12,0,3.73-3.02,6.75-6.75,6.75s-6.75-3.02-6.75-6.75,3.02-6.75,6.75-6.75c2.41,0,4.78-.13,7.12-.38.58-5.53,1.83-10.87,3.67-15.92-3.48.73-7.09,1.12-10.79,1.12-6.5,0-12.32,2.85-16.34,7.34,5.27,11.73,9.83,23.86,13.62,36.32.89.11,1.8.19,2.72.19Z"/><path class="cls-3" d="m546.62,140.77c0-2.41.13-4.78.38-7.12-2.34.25-4.72.38-7.12.38s-4.78-.13-7.12-.38c.25,2.34.38,4.72.38,7.12s-.13,4.78-.38,7.12c2.34-.25,4.72-.38,7.12-.38,3.73,0,6.75-3.02,6.75-6.75Z"/><path class="cls-3" d="m620.82,140.77c0-3.73-3.02-6.75-6.75-6.75s-6.75,3.02-6.75,6.75c0,2.41-.13,4.78-.38,7.12,2.34-.25,4.72-.38,7.12-.38,3.73,0,6.75-3.02,6.75-6.75Z"/><path class="cls-3" d="m324.39,207.85c-2.34.25-4.72.38-7.12.38-3.73,0-6.75,3.02-6.75,6.75,0,2.41-.13,4.78-.38,7.12,2.34-.25,4.72-.38,7.12-.38s4.78.13,7.12.38c-.25-2.34-.38-4.72-.38-7.12s.13-4.78.38-7.12Z"/><path class="cls-3" d="m904.15,363.38c0-3.73,3.02-6.75,6.75-6.75,2.41,0,4.78-.13,7.12-.38.58-5.53,1.83-10.87,3.67-15.92-3.48.73-7.09,1.12-10.79,1.12-12.11,0-21.92,9.82-21.92,21.92,0,3.7-.39,7.31-1.12,10.79,5.05-1.84,10.39-3.08,15.92-3.67.25-2.34.38-4.72.38-7.12Z"/><path class="cls-3" d="m904.15,511.79c0,2.41-.13,4.78-.38,7.12,2.34-.25,4.72-.38,7.12-.38s4.78.13,7.12.38c-.25-2.34-.38-4.72-.38-7.12s.13-4.78.38-7.12c-2.34.25-4.72.38-7.12.38-3.73,0-6.75,3.02-6.75,6.75Z"/><path class="cls-3" d="m847.48,414.54c-1.95.41-3.94.7-5.97.89.91,4.67,1.72,9.38,2.42,14.13.62-5.21,1.81-10.24,3.54-15.02Z"/><path class="cls-3" d="m369.54,734.4c0-1.24.13-2.44.32-3.62-4.48-2.98-8.88-6.07-13.2-9.27-1.49,4.02-2.31,8.36-2.31,12.9,0,20.49,16.61,37.1,37.1,37.1,11.58,0,21.92-5.31,28.72-13.62-4.95-2.1-9.84-4.33-14.66-6.67-3.81,3.19-8.71,5.12-14.07,5.12-12.11,0-21.92-9.82-21.92-21.92Z"/><path class="cls-3" d="m688.28,801.86c2.41,0,4.78-.13,7.12-.38.58-5.53,1.83-10.87,3.67-15.92-3.48.73-7.09,1.12-10.79,1.12s-7.31-.39-10.79-1.12c1.84,5.05,3.08,10.39,3.67,15.92,2.34.25,4.72.38,7.12.38Z"/><path class="cls-3" d="m236.31,660.2c0,2.41-.13,4.78-.38,7.12,2.34-.25,4.72-.38,7.12-.38,3.73,0,6.75-3.02,6.75-6.75,0-2.41.13-4.78.38-7.12-2.34.25-4.72.38-7.12.38-3.73,0-6.75,3.02-6.75,6.75Z"/><path class="cls-3" d="m681.16,801.48c.25,2.34.38,4.72.38,7.12s-.13,4.78-.38,7.12c2.34-.25,4.72-.38,7.12-.38,3.73,0,6.75-3.02,6.75-6.75,0-2.41.13-4.78.38-7.12-2.34.25-4.72.38-7.12.38s-4.78-.13-7.12-.38Z"/><path class="cls-3" d="m666.36,808.6c0,3.7-.39,7.31-1.12,10.79,5.05-1.84,10.39-3.08,15.92-3.67.25-2.34.38-4.72.38-7.12s-.13-4.78-.38-7.12c-.58-5.53-1.83-10.87-3.67-15.92-3.87-10.64-10.34-20.02-18.63-27.39-5.46,2.29-11,4.42-16.61,6.4,14.5,9.29,24.11,25.53,24.11,44.03Z"/><path class="cls-3" d="m755.74,734.4c0-3.73,3.02-6.75,6.75-6.75,2.41,0,4.78-.13,7.12-.38.58-5.53,1.83-10.87,3.67-15.92-3.48.73-7.09,1.12-10.79,1.12-12.11,0-21.92,9.82-21.92,21.92,0,3.7-.39,7.31-1.12,10.79,5.05-1.84,10.39-3.08,15.92-3.67.25-2.34.38-4.72.38-7.12Z"/><path class="cls-3" d="m769.23,734.4c0,2.41.13,4.78.38,7.12,5.53.58,10.87,1.83,15.92,3.67-.73-3.48-1.12-7.09-1.12-10.79,0-28.87,23.41-52.28,52.28-52.28,12.11,0,21.92-9.82,21.92-21.92,0-28.87,23.41-52.28,52.28-52.28,12.11,0,21.92-9.82,21.92-21.92s-9.82-21.92-21.92-21.92-21.92,9.82-21.92,21.92c0,3.7-.39,7.31-1.12,10.79,5.05-1.84,10.39-3.08,15.92-3.67.25-2.34.38-4.72.38-7.12,0-3.73,3.02-6.75,6.75-6.75s6.75,3.02,6.75,6.75-3.02,6.75-6.75,6.75c-2.41,0-4.78.13-7.12.38-5.53.58-10.87,1.83-15.92,3.67-18.72,6.8-33.57,21.65-40.37,40.37-1.84,5.05-3.08,10.39-3.67,15.92-.25,2.34-.38,4.72-.38,7.12,0,3.73-3.02,6.75-6.75,6.75-2.41,0-4.78.13-7.12.38-5.53.58-10.87,1.83-15.92,3.67-18.72,6.8-33.57,21.65-40.37,40.37-1.84,5.05-3.08,10.39-3.67,15.92-.25,2.34-.38,4.72-.38,7.12Z"/><path class="cls-3" d="m829.94,363.38c0,3.73,3.02,6.75,6.75,6.75s6.75-3.02,6.75-6.75c0-2.41.13-4.78.38-7.12-2.34.25-4.72.38-7.12.38-3.73,0-6.75,3.02-6.75,6.75Z"/><path class="cls-3" d="m221.14,660.2c0,3.7-.39,7.31-1.12,10.79,5.05-1.84,10.39-3.08,15.92-3.67.25-2.34.38-4.72.38-7.12,0-3.73,3.02-6.75,6.75-6.75,2.41,0,4.78-.13,7.12-.38.58-5.53,1.83-10.87,3.67-15.92-3.48.73-7.09,1.12-10.79,1.12-12.11,0-21.92,9.82-21.92,21.92Z"/><path class="cls-3" d="m917.64,585.99c0-3.73-3.02-6.75-6.75-6.75s-6.75,3.02-6.75,6.75c0,2.41-.13,4.78-.38,7.12,2.34-.25,4.72-.38,7.12-.38,3.73,0,6.75-3.02,6.75-6.75Z"/><path class="cls-3" d="m904.15,289.18c0-.65.12-1.27.29-1.86-2.55-4.94-5.2-9.82-7.94-14.65-4.61,4.02-7.53,9.92-7.53,16.51,0,3.7-.39,7.31-1.12,10.79,5.05-1.84,10.39-3.08,15.92-3.67.25-2.34.38-4.72.38-7.12Z"/><path class="cls-3" d="m904.15,289.18c0,2.41-.13,4.78-.38,7.12,1.65-.17,3.32-.27,5-.32-1.41-2.91-2.85-5.8-4.33-8.67-.17.6-.29,1.21-.29,1.86Z"/><path class="cls-3" d="m829.94,660.2c0,2.41-.13,4.78-.38,7.12,2.34-.25,4.72-.38,7.12-.38,3.73,0,6.75-3.02,6.75-6.75,0-2.41.13-4.78.38-7.12-2.34.25-4.72.38-7.12.38-3.73,0-6.75,3.02-6.75,6.75Z"/><path class="cls-3" d="m904.15,363.38c0,2.41-.13,4.78-.38,7.12,2.34-.25,4.72-.38,7.12-.38s4.78.13,7.12.38c-.25-2.34-.38-4.72-.38-7.12s.13-4.78.38-7.12c-2.34.25-4.72.38-7.12.38-3.73,0-6.75,3.02-6.75,6.75Z"/><path class="cls-3" d="m294.22,670.99c-18.72,6.8-33.57,21.65-40.37,40.37-1.84,5.05-3.08,10.39-3.67,15.92-.25,2.34-.38,4.72-.38,7.12,0,3.73-3.02,6.75-6.75,6.75s-6.75-3.02-6.75-6.75,3.02-6.75,6.75-6.75c2.41,0,4.78-.13,7.12-.38.58-5.53,1.83-10.87,3.67-15.92-3.48.73-7.09,1.12-10.79,1.12-11.43,0-20.81,8.75-21.82,19.92,6.66,8.23,13.63,16.2,20.9,23.88.31.01.61.05.93.05,12.11,0,21.92-9.82,21.92-21.92,0-27.51,21.26-50.05,48.24-52.11-4.02-4.38-7.9-8.88-11.66-13.49-2.5.6-4.96,1.32-7.34,2.19Z"/><path class="cls-3" d="m762.48,236.9c-7.88,0-15.35,1.75-22.05,4.88,4.32,3.72,8.52,7.56,12.62,11.51,3.01-.79,6.17-1.21,9.43-1.21,20.49,0,37.1,16.61,37.1,37.1,0,5.62-1.25,10.94-3.49,15.71.69,1.04,1.39,2.09,2.07,3.14,4.75-3.31,9.94-6.05,15.48-8.06.73-3.48,1.12-7.09,1.12-10.79,0-28.87-23.41-52.28-52.28-52.28Z"/><path class="cls-3" d="m829.57,282.06c.25,2.34.38,4.72.38,7.12s-.13,4.78-.38,7.12c2.34-.25,4.72-.38,7.12-.38,3.73,0,6.75-3.02,6.75-6.75,0-2.41.13-4.78.38-7.12-2.34.25-4.72.38-7.12.38s-4.78-.13-7.12-.38Z"/><path class="cls-3" d="m769.23,140.77c0-3.73-3.02-6.75-6.75-6.75s-6.75,3.02-6.75,6.75c0,2.41-.13,4.78-.38,7.12,2.34-.25,4.72-.38,7.12-.38,3.73,0,6.75-3.02,6.75-6.75Z"/><path class="cls-3" d="m221.14,511.79c0-8.49,4.83-15.83,11.89-19.48-.3-5.33-.47-10.7-.5-16.1-15.36,4.54-26.57,18.75-26.57,35.58,0,19.98,15.8,36.26,35.58,37.06-1.29-5.19-2.44-10.44-3.46-15.73-9.71-2.26-16.94-10.94-16.94-21.33Z"/><path class="cls-3" d="m295.32,660.88c-.04,3.46-.42,6.84-1.1,10.11,2.39-.87,4.84-1.59,7.34-2.19-2.12-2.6-4.2-5.25-6.24-7.92Z"/><path class="cls-3" d="m692.88,208.05c.8.46,1.59.95,2.39,1.41.04-.54.07-1.08.13-1.61-.83.09-1.68.14-2.52.2Z"/><path class="cls-3" d="m221.14,511.79c0,10.39,7.24,19.08,16.94,21.33-2.56-13.32-4.27-26.94-5.06-40.81-7.05,3.64-11.89,10.99-11.89,19.48Z"/><path class="cls-3" d="m762.48,236.9c28.87,0,52.28,23.41,52.28,52.28,0,3.7-.39,7.31-1.12,10.79,5.05-1.84,10.39-3.08,15.92-3.67.25-2.34.38-4.72.38-7.12s-.13-4.78-.38-7.12c-.58-5.53-1.83-10.87-3.67-15.92-6.8-18.72-21.65-33.57-40.37-40.37-5.05-1.84-10.39-3.08-15.92-3.67-2.34-.25-4.72-.38-7.12-.38s-4.78.13-7.12.38c-5.53.58-10.87,1.83-15.92,3.67-4.12,1.5-8.03,3.4-11.73,5.63,4.33,3.35,8.58,6.81,12.73,10.38,6.7-3.12,14.17-4.88,22.05-4.88Z"/><path class="cls-3" d="m755.74,214.98c0,2.41-.13,4.78-.38,7.12,2.34-.25,4.72-.38,7.12-.38s4.78.13,7.12.38c-.25-2.34-.38-4.72-.38-7.12s.13-4.78.38-7.12c-2.34.25-4.72.38-7.12.38-3.73,0-6.75,3.02-6.75,6.75Z"/><path class="cls-3" d="m755.74,214.98c0-3.73,3.02-6.75,6.75-6.75,2.41,0,4.78-.13,7.12-.38.58-5.53,1.83-10.87,3.67-15.92-3.48.73-7.09,1.12-10.79,1.12-12.11,0-21.92,9.82-21.92,21.92,0,3.7-.39,7.31-1.12,10.79,5.05-1.84,10.39-3.08,15.92-3.67.25-2.34.38-4.72.38-7.12Z"/><path class="cls-3" d="m836.69,282.43c2.41,0,4.78-.13,7.12-.38.58-5.53,1.83-10.87,3.67-15.92-3.48.73-7.09,1.12-10.79,1.12s-7.31-.39-10.79-1.12c1.84,5.05,3.08,10.39,3.67,15.92,2.34.25,4.72.38,7.12.38Z"/><path class="cls-3" d="m236.31,734.4c0,3.73,3.02,6.75,6.75,6.75s6.75-3.02,6.75-6.75c0-2.41.13-4.78.38-7.12-2.34.25-4.72.38-7.12.38-3.73,0-6.75,3.02-6.75,6.75Z"/><path class="cls-3" d="m767.15,267.77c9.63,2.09,16.87,10.5,17.22,20.66,4.08,5.35,8,10.84,11.73,16.46,2.23-4.77,3.49-10.09,3.49-15.71,0-20.49-16.61-37.1-37.1-37.1-3.26,0-6.42.42-9.43,1.21,4.85,4.67,9.56,9.5,14.09,14.48Z"/><path class="cls-3" d="m472.42,140.77c0-3.73-3.02-6.75-6.75-6.75s-6.75,3.02-6.75,6.75c0,2.41-.13,4.78-.38,7.12,2.34-.25,4.72-.38,7.12-.38,3.73,0,6.75-3.02,6.75-6.75Z"/><path class="cls-3" d="m418.61,192.19c8.47-17.45,26.36-29.49,47.06-29.49,12.11,0,21.92-9.82,21.92-21.92s-9.82-21.92-21.92-21.92-21.92,9.82-21.92,21.92c0,3.7-.39,7.31-1.12,10.79,5.05-1.84,10.39-3.08,15.92-3.67.25-2.34.38-4.72.38-7.12,0-3.73,3.02-6.75,6.75-6.75s6.75,3.02,6.75,6.75-3.02,6.75-6.75,6.75c-2.41,0-4.78.13-7.12.38-5.53.58-10.87,1.83-15.92,3.67-18.72,6.8-33.57,21.65-40.37,40.37-1.08,2.96-1.92,6.02-2.58,9.16,6.19-3.18,12.51-6.14,18.93-8.9Z"/><path class="cls-3" d="m591.03,151.56c.73-3.48,1.12-7.09,1.12-10.79,0-12.11,9.82-21.92,21.92-21.92s21.92,9.82,21.92,21.92-9.82,21.92-21.92,21.92c-10.27,0-19.85,2.97-27.93,8.09,11.09,1.67,21.97,3.95,32.64,6.78,18.27-2.32,32.39-17.9,32.39-36.79,0-20.49-16.61-37.1-37.1-37.1s-37.1,16.61-37.1,37.1c0,10.93-4.73,20.76-12.26,27.55.21.02.41.04.62.06,7.1-7.42,15.85-13.24,25.7-16.82Z"/><path class="cls-3" d="m402.26,191.93c-3.48.73-7.09,1.12-10.79,1.12-12.11,0-21.92,9.82-21.92,21.92,0,1.24.13,2.44.32,3.62,9.58-6.37,19.52-12.23,29.81-17.51.66-3.13,1.5-6.2,2.58-9.16Z"/><path class="cls-3" d="m767.15,267.77c6.04,6.63,11.77,13.53,17.22,20.66-.35-10.17-7.59-18.57-17.22-20.66Z"/><path class="cls-3" d="m354.37,214.98c0-20.49,16.61-37.1,37.1-37.1s37.1-16.61,37.1-37.1,16.61-37.1,37.1-37.1,37.1,16.61,37.1,37.1c0,13.19-6.89,24.76-17.26,31.34.89-.16,1.78-.29,2.67-.44,7.55-9,17.39-16.02,28.65-20.11.73-3.48,1.12-7.09,1.12-10.79,0-28.87-23.41-52.28-52.28-52.28s-52.28,23.41-52.28,52.28c0,12.11-9.82,21.92-21.92,21.92-28.87,0-52.28,23.41-52.28,52.28,0,3.7.39,7.31,1.12,10.79,4.12,1.5,8.03,3.4,11.73,5.63,1.53-1.19,3.07-2.37,4.63-3.53-1.49-4.02-2.31-8.36-2.31-12.9Z"/><path class="cls-3" d="m253.85,340.34c-1.84,5.05-3.08,10.39-3.67,15.92-.25,2.34-.38,4.72-.38,7.12,0,3.73-3.02,6.75-6.75,6.75s-6.75-3.02-6.75-6.75,3.02-6.75,6.75-6.75c2.41,0,4.78-.13,7.12-.38.58-5.53,1.83-10.87,3.67-15.92-3.48.73-7.09,1.12-10.79,1.12-12.11,0-21.92,9.82-21.92,21.92s9.82,21.92,21.92,21.92c.92,0,1.83-.08,2.72-.19,8.75-28.75,21.59-55.71,37.85-80.21-13.67,7.88-24.33,20.4-29.79,35.43Z"/><path class="cls-3" d="m295.38,288.43c5.44-7.14,11.18-14.04,17.22-20.66-9.63,2.09-16.87,10.5-17.22,20.66Z"/><path class="cls-3" d="m502.77,140.77c0-20.49-16.61-37.1-37.1-37.1s-37.1,16.61-37.1,37.1-16.61,37.1-37.1,37.1-37.1,16.61-37.1,37.1c0,4.54.82,8.88,2.31,12.9,4.31-3.21,8.71-6.29,13.2-9.27-.2-1.18-.32-2.39-.32-3.62,0-12.11,9.82-21.92,21.92-21.92,3.7,0,7.31-.39,10.79-1.12,6.8-18.72,21.65-33.57,40.37-40.37.73-3.48,1.12-7.09,1.12-10.79,0-12.11,9.82-21.92,21.92-21.92s21.92,9.82,21.92,21.92-9.82,21.92-21.92,21.92c-20.7,0-38.59,12.04-47.06,29.49,21.18-9.1,43.58-15.91,66.91-20.07,10.37-6.58,17.26-18.15,17.26-31.34Z"/><path class="cls-3" d="m243.06,385.31c-12.11,0-21.92-9.82-21.92-21.92s9.82-21.92,21.92-21.92c3.7,0,7.31-.39,10.79-1.12,5.46-15.03,16.12-27.55,29.79-35.43,3.74-5.63,7.65-11.12,11.74-16.48.35-10.17,7.59-18.57,17.22-20.66,4.54-4.98,9.24-9.8,14.09-14.48-3.01-.79-6.17-1.21-9.43-1.21-20.49,0-37.1,16.61-37.1,37.1s-16.61,37.1-37.1,37.1-37.1,16.61-37.1,37.1,15.81,36.27,35.6,37.06c1.28-5.16,2.69-10.27,4.22-15.33-.89.11-1.8.19-2.72.19Z"/><path class="cls-3" d="m236.31,363.38c0,3.73,3.02,6.75,6.75,6.75s6.75-3.02,6.75-6.75c0-2.41.13-4.78.38-7.12-2.34.25-4.72.38-7.12.38-3.73,0-6.75,3.02-6.75,6.75Z"/><path class="cls-3" d="m532.75,801.48c.25,2.34.38,4.72.38,7.12s-.13,4.78-.38,7.12c2.34-.25,4.72-.38,7.12-.38,3.73,0,6.75-3.02,6.75-6.75,0-2.41.13-4.78.38-7.12-2.34.25-4.72.38-7.12.38s-4.78-.13-7.12-.38Z"/><path class="cls-3" d="m221.14,585.99c0,3.7-.39,7.31-1.12,10.79,5.05-1.84,10.39-3.08,15.92-3.67.25-2.34.38-4.72.38-7.12s-.13-4.78-.38-7.12c-.58-5.53-1.83-10.87-3.67-15.92-6.8-18.72-21.65-33.57-40.37-40.37-5.05-1.84-10.39-3.08-15.92-3.67-2.34-.25-4.72-.38-7.12-.38s-4.78.13-7.12.38c-5.53.58-10.87,1.83-15.92,3.67-4.31,1.56-8.39,3.57-12.24,5.94.74,5.61,1.59,11.19,2.55,16.72,8.96-7.21,20.34-11.53,32.73-11.53,28.87,0,52.28,23.41,52.28,52.28Z"/><path class="cls-3" d="m190.78,585.99c0-12.11-9.82-21.92-21.92-21.92s-21.92,9.82-21.92,21.92c0,1.56-.08,3.11-.22,4.63.52,1.78,1.04,3.57,1.59,5.34,4.31-1.38,8.8-2.36,13.43-2.85.25-2.34.38-4.72.38-7.12,0-3.73,3.02-6.75,6.75-6.75s6.75,3.02,6.75,6.75-3.02,6.75-6.75,6.75c-2.41,0-4.78.13-7.12.38-4.64.49-9.12,1.47-13.43,2.85,1.5,4.84,3.1,9.63,4.77,14.39,4.98-1.58,10.28-2.43,15.79-2.43,12.11,0,21.92-9.82,21.92-21.92Z"/><path class="cls-3" d="m175.6,585.99c0-3.73-3.02-6.75-6.75-6.75s-6.75,3.02-6.75,6.75c0,2.41-.13,4.78-.38,7.12,2.34-.25,4.72-.38,7.12-.38,3.73,0,6.75-3.02,6.75-6.75Z"/><path class="cls-3" d="m205.96,585.99c0-20.49-16.61-37.1-37.1-37.1-11.86,0-22.41,5.57-29.21,14.23,2.04,9.29,4.4,18.46,7.06,27.5.14-1.53.22-3.07.22-4.63,0-12.11,9.82-21.92,21.92-21.92s21.92,9.82,21.92,21.92-9.82,21.92-21.92,21.92c-5.5,0-10.8.86-15.79,2.43,1.68,4.79,3.42,9.56,5.28,14.27,3.33-.98,6.86-1.52,10.51-1.52,20.49,0,37.1-16.61,37.1-37.1Z"/><path class="cls-3" d="m175.6,437.59c0-3.73-3.02-6.75-6.75-6.75s-6.75,3.02-6.75,6.75c0,2.41-.13,4.78-.38,7.12,2.34-.25,4.72-.38,7.12-.38,3.73,0,6.75-3.02,6.75-6.75Z"/><path class="cls-3" d="m146.93,511.79c0-12.11,9.82-21.92,21.92-21.92,3.7,0,7.31-.39,10.79-1.12,6.8-18.72,21.65-33.57,40.37-40.37.73-3.48,1.12-7.09,1.12-10.79,0-28.87-23.41-52.28-52.28-52.28-11.67,0-22.45,3.83-31.15,10.29-2.25,11.52-4.03,23.2-5.29,35.05,3.25-17.17,18.33-30.16,36.44-30.16,20.49,0,37.1,16.61,37.1,37.1s-16.61,37.1-37.1,37.1-37.1,16.61-37.1,37.1c0,.04,0,.08,0,.11.5,5.57,1.1,11.11,1.82,16.61,3.85-2.37,7.93-4.37,12.24-5.94.73-3.48,1.12-7.09,1.12-10.79Z"/><path class="cls-3" d="m179.64,637.15c6.8-18.72,21.65-33.57,40.37-40.37.73-3.48,1.12-7.09,1.12-10.79,0-28.87-23.41-52.28-52.28-52.28-12.39,0-23.77,4.32-32.73,11.53,1.04,6.01,2.23,11.97,3.53,17.88,6.79-8.66,17.34-14.23,29.21-14.23,20.49,0,37.1,16.61,37.1,37.1s-16.61,37.1-37.1,37.1c-3.65,0-7.18.54-10.51,1.52,1.87,4.77,3.86,9.48,5.9,14.15,1.49-.32,3.02-.49,4.6-.49,3.7,0,7.31-.39,10.79-1.12Z"/><path class="cls-3" d="m131.76,437.38c-.2,2.2-.4,4.39-.56,6.59.36-2.08.56-4.21.56-6.39,0-.07,0-.14,0-.2Z"/><path class="cls-3" d="m168.86,474.69c20.49,0,37.1-16.61,37.1-37.1s-16.61-37.1-37.1-37.1c-18.12,0-33.19,12.99-36.44,30.16-.24,2.24-.45,4.49-.65,6.74,0,.07,0,.14,0,.2,0,2.18-.2,4.31-.56,6.39-.3,4.1-.53,8.22-.71,12.36,4.71-3.27,9.85-5.97,15.33-7.96.73-3.48,1.12-7.09,1.12-10.79,0-12.11,9.82-21.92,21.92-21.92s21.92,9.82,21.92,21.92-9.82,21.92-21.92,21.92c-15.38,0-29.21,6.65-38.78,17.22.06,11.85.63,23.58,1.67,35.17,0-.04,0-.08,0-.11,0-20.49,16.61-37.1,37.1-37.1Z"/><path class="cls-3" d="m168.86,459.51c12.11,0,21.92-9.82,21.92-21.92s-9.82-21.92-21.92-21.92-21.92,9.82-21.92,21.92c0,3.7-.39,7.31-1.12,10.79,5.05-1.84,10.39-3.08,15.92-3.67.25-2.34.38-4.72.38-7.12,0-3.73,3.02-6.75,6.75-6.75s6.75,3.02,6.75,6.75-3.02,6.75-6.75,6.75c-2.41,0-4.78.13-7.12.38-5.53.58-10.87,1.83-15.92,3.67-5.48,1.99-10.62,4.69-15.33,7.96-.27,6.09-.43,12.2-.43,18.35,0,.68.02,1.36.03,2.04,9.57-10.57,23.4-17.22,38.78-17.22Z"/><path class="cls-3" d="m243.06,682.12c12.11,0,21.92-9.82,21.92-21.92,0-11.25,3.57-21.67,9.62-30.2-2.77-4.72-5.42-9.51-7.94-14.38-5.52,6.26-9.9,13.54-12.81,21.54-1.84,5.05-3.08,10.39-3.67,15.92-.25,2.34-.38,4.72-.38,7.12,0,3.73-3.02,6.75-6.75,6.75-2.41,0-4.78.13-7.12.38-5.53.58-10.87,1.83-15.92,3.67-11.13,4.04-20.87,10.95-28.39,19.81,2.83,4.55,5.72,9.05,8.72,13.48,9.47-13.39,25.06-22.15,42.71-22.15Z"/><path class="cls-3" d="m294.22,745.19c.73-3.48,1.12-7.09,1.12-10.79,0-12.11,9.82-21.92,21.92-21.92,3.7,0,7.31-.39,10.79-1.12,1.23-3.4,2.74-6.66,4.48-9.78-1.97-1.8-3.92-3.64-5.84-5.49-3.01.79-6.17,1.21-9.43,1.21-20.49,0-37.1,16.61-37.1,37.1,0,16.24-10.44,30.03-24.97,35.06,1.46,1.41,2.92,2.8,4.4,4.18,7.91-13.03,20.1-23.17,34.63-28.46Z"/><path class="cls-3" d="m220.02,670.99c.73-3.48,1.12-7.09,1.12-10.79,0-12.11,9.82-21.92,21.92-21.92,3.7,0,7.31-.39,10.79-1.12,2.91-8,7.29-15.28,12.81-21.54-.12-.23-.25-.47-.37-.7-6.36,5.11-14.43,8.18-23.23,8.18-20.49,0-37.1,16.61-37.1,37.1,0,12.16-5.85,22.95-14.88,29.71.18.29.37.59.55.88,7.52-8.86,17.26-15.76,28.39-19.81Z"/><path class="cls-3" d="m317.26,756.33c28.87,0,52.28,23.41,52.28,52.28,0,3.7-.39,7.31-1.12,10.79,5.05-1.84,10.39-3.08,15.92-3.67.25-2.34.38-4.72.38-7.12s-.13-4.78-.38-7.12c-.58-5.53-1.83-10.87-3.67-15.92-6.8-18.72-21.65-33.57-40.37-40.37-5.05-1.84-10.39-3.08-15.92-3.67-2.34-.25-4.72-.38-7.12-.38s-4.78.13-7.12.38c-5.53.58-10.87,1.83-15.92,3.67-14.53,5.28-26.71,15.43-34.63,28.46,3.77,3.54,7.6,7.02,11.51,10.42,8.79-16.5,26.16-27.74,46.16-27.74Z"/><path class="cls-3" d="m324.01,808.6c0-3.73-3.02-6.75-6.75-6.75s-6.75,3.02-6.75,6.75c0,1.88-.1,3.74-.25,5.59.68.46,1.37.91,2.05,1.37,1.64-.12,3.28-.2,4.95-.2,3.73,0,6.75-3.02,6.75-6.75Z"/><path class="cls-3" d="m175.98,653.08c-1.65.17-3.32.27-5,.32,1.41,2.91,2.85,5.8,4.33,8.67.17-.6.29-1.21.29-1.86,0-2.41.13-4.78.38-7.12Z"/><path class="cls-3" d="m205.96,660.2c0-20.49,16.61-37.1,37.1-37.1,8.8,0,16.87-3.07,23.23-8.18-2.42-4.71-4.72-9.49-6.89-14.34-4.01,4.49-9.84,7.34-16.34,7.34-28.87,0-52.28,23.41-52.28,52.28,0,6.59-2.93,12.49-7.53,16.51,2.53,4.45,5.14,8.85,7.83,13.2,9.03-6.77,14.88-17.56,14.88-29.71Z"/><path class="cls-3" d="m190.78,660.2c0-28.87,23.41-52.28,52.28-52.28,6.5,0,12.32-2.85,16.34-7.34-3.32-7.39-6.35-14.94-9.09-22.62-.04.31-.09.61-.12.92-.25,2.34-.38,4.72-.38,7.12,0,3.73-3.02,6.75-6.75,6.75-2.41,0-4.78.13-7.12.38-5.53.58-10.87,1.83-15.92,3.67-18.72,6.8-33.57,21.65-40.37,40.37-1.84,5.05-3.08,10.39-3.67,15.92-.25,2.34-.38,4.72-.38,7.12,0,.65-.12,1.27-.29,1.86,2.55,4.94,5.2,9.82,7.94,14.65,4.61-4.02,7.53-9.92,7.53-16.51Z"/><path class="cls-3" d="m175.98,653.08c.58-5.53,1.83-10.87,3.67-15.92-3.48.73-7.09,1.12-10.79,1.12-1.58,0-3.12.18-4.6.49,2.15,4.92,4.39,9.81,6.73,14.63,1.68-.05,3.35-.15,5-.32Z"/><path class="cls-3" d="m391.47,118.85c3.7,0,7.31-.39,10.79-1.12,6.8-18.72,21.65-33.57,40.37-40.37.06-.29.11-.59.16-.89-5.76,1.4-11.48,2.91-17.14,4.55-5.63,13.31-18.82,22.65-34.18,22.65-6.09,0-11.82-1.47-16.89-4.07-.98.43-1.96.84-2.93,1.28,3.76,5.12,6.83,10.77,9.03,16.85,3.48.73,7.09,1.12,10.79,1.12Z"/><path class="cls-3" d="m369.54,140.77c0,3.7-.39,7.31-1.12,10.79,5.05-1.84,10.39-3.08,15.92-3.67.25-2.34.38-4.72.38-7.12s-.13-4.78-.38-7.12c-.58-5.53-1.83-10.87-3.67-15.92-2.21-6.07-5.27-11.73-9.03-16.85-4.72,2.13-9.39,4.37-14.01,6.67,7.44,9.03,11.91,20.61,11.91,33.22Z"/><path class="cls-3" d="m324.01,140.77c0-3.73-3.02-6.75-6.75-6.75s-6.75,3.02-6.75,6.75c0,2.41-.13,4.78-.38,7.12,2.34-.25,4.72-.38,7.12-.38,3.73,0,6.75-3.02,6.75-6.75Z"/><path class="cls-3" d="m236.31,214.98c0,3.73,3.02,6.75,6.75,6.75s6.75-3.02,6.75-6.75c0-2.41.13-4.78.38-7.12-2.34.25-4.72.38-7.12.38-3.73,0-6.75,3.02-6.75,6.75Z"/><path class="cls-3" d="m425.65,81.02c-17.54,5.08-34.59,11.31-51.07,18.58,5.07,2.6,10.81,4.07,16.89,4.07,15.37,0,28.55-9.34,34.18-22.65Z"/><path class="cls-3" d="m310.14,147.9c.25-2.34.38-4.72.38-7.12,0-3.73,3.02-6.75,6.75-6.75s6.75,3.02,6.75,6.75-3.02,6.75-6.75,6.75c-2.41,0-4.78.13-7.12.38-5.53.58-10.87,1.83-15.92,3.67-18.72,6.8-33.57,21.65-40.37,40.37-1.84,5.05-3.08,10.39-3.67,15.92-.25,2.34-.38,4.72-.38,7.12,0,3.73-3.02,6.75-6.75,6.75s-6.75-3.02-6.75-6.75,3.02-6.75,6.75-6.75c2.41,0,4.78-.13,7.12-.38.58-5.53,1.83-10.87,3.67-15.92-3.48.73-7.09,1.12-10.79,1.12-.31,0-.62.03-.93.05-7.27,7.68-14.23,15.65-20.9,23.88,1.01,11.17,10.39,19.92,21.82,19.92,12.11,0,21.92-9.82,21.92-21.92,0-28.87,23.41-52.28,52.28-52.28,12.11,0,21.92-9.82,21.92-21.92,0-7.46-3.73-14.03-9.42-17.99-11.97,7.16-23.56,14.9-34.69,23.21-.19,1.89-.47,3.75-.85,5.57,5.05-1.84,10.39-3.08,15.92-3.67Z"/><path class="cls-3" d="m465.67,73.32c2.41,0,4.78.13,7.12.38-.11-1.09-.2-2.18-.26-3.29-4.67.77-9.31,1.61-13.92,2.53-.02.25-.03.5-.06.75,2.34-.25,4.72-.38,7.12-.38Z"/><path class="cls-3" d="m488.71,77.36c-.62-2.98-.98-6.05-1.08-9.19-5.07.64-10.1,1.41-15.1,2.24.06,1.1.15,2.2.26,3.29,5.53.58,10.87,1.83,15.92,3.67Z"/><path class="cls-3" d="m221.14,437.59c0,3.7-.39,7.31-1.12,10.79,4.44-1.61,9.11-2.74,13.93-3.39.5-5.18,1.12-10.32,1.87-15.42-.62-5.21-1.81-10.24-3.54-15.02-6.8-18.72-21.65-33.57-40.37-40.37-5.05-1.84-10.39-3.08-15.92-3.67-2.34-.25-4.72-.38-7.12-.38s-4.78.13-7.12.38c-5.53.58-10.87,1.83-15.92,3.67-1.25.45-2.47.95-3.68,1.47-1.64,6.59-3.11,13.25-4.42,19.96,8.7-6.47,19.48-10.29,31.15-10.29,28.87,0,52.28,23.41,52.28,52.28Z"/><path class="cls-3" d="m458.55,73.69c.03-.25.04-.5.06-.75-5.31,1.07-10.58,2.26-15.82,3.53-.06.3-.1.6-.16.89,5.05-1.84,10.39-3.08,15.92-3.67Z"/><path class="cls-3" d="m242.13,193.1c.31-.01.61-.05.93-.05,3.7,0,7.31-.39,10.79-1.12,6.8-18.72,21.65-33.57,40.37-40.37.38-1.82.67-3.68.85-5.57-8.68,6.47-17.08,13.29-25.21,20.42-1.43,1.5-2.98,2.88-4.64,4.12-7.99,7.22-15.69,14.75-23.09,22.57Z"/><path class="cls-3" d="m190.78,289.18c0-6.59-2.93-12.49-7.53-16.51-2.74,4.82-5.39,9.7-7.94,14.65.17.6.29,1.21.29,1.86,0,2.89-1.82,5.33-4.37,6.29-2.55,5.23-4.97,10.52-7.3,15.87,1.62-.15,3.26-.24,4.92-.24,12.11,0,21.92-9.82,21.92-21.92Z"/><path class="cls-3" d="m175.6,289.18c0-.65-.12-1.27-.29-1.86-1.39,2.7-2.75,5.42-4.08,8.16,2.55-.96,4.37-3.41,4.37-6.29Z"/><path class="cls-3" d="m146.93,363.38c0-12.11,9.82-21.92,21.92-21.92,3.7,0,7.31-.39,10.79-1.12,6.8-18.72,21.65-33.57,40.37-40.37.73-3.48,1.12-7.09,1.12-10.79,0-17.51-8.62-33-21.84-42.49-2.82,4.2-5.55,8.47-8.22,12.78,9.03,6.77,14.88,17.56,14.88,29.71,0,20.49-16.61,37.1-37.1,37.1-4.14,0-8.11.69-11.82,1.94-5.89,15.38-10.88,31.21-14.9,47.42,1.21-.52,2.44-1.02,3.68-1.47.73-3.48,1.12-7.09,1.12-10.79Z"/><path class="cls-3" d="m205.96,289.18c0-12.16-5.85-22.95-14.88-29.71-2.69,4.35-5.3,8.75-7.83,13.2,4.61,4.02,7.53,9.92,7.53,16.51,0,12.11-9.82,21.92-21.92,21.92-1.66,0-3.3.09-4.92.24-2.42,5.56-4.72,11.19-6.9,16.88,3.71-1.25,7.69-1.94,11.82-1.94,20.49,0,37.1-16.61,37.1-37.1Z"/><path class="cls-3" d="m339.19,140.77c0,12.11-9.82,21.92-21.92,21.92-28.87,0-52.28,23.41-52.28,52.28,0,12.11-9.82,21.92-21.92,21.92-11.43,0-20.81-8.75-21.82-19.92-3.88,4.8-7.66,9.68-11.33,14.65,6.1,12.13,18.65,20.45,33.15,20.45,20.49,0,37.1-16.61,37.1-37.1s16.61-37.1,37.1-37.1,37.1-16.61,37.1-37.1c0-10.13-4.06-19.3-10.64-25.99-4.71,2.57-9.36,5.25-13.96,8,5.69,3.96,9.42,10.54,9.42,17.99Z"/><path class="cls-3" d="m221.14,289.18c0,3.7-.39,7.31-1.12,10.79,5.05-1.84,10.39-3.08,15.92-3.67.25-2.34.38-4.72.38-7.12s-.13-4.78-.38-7.12c-.58-5.53-1.83-10.87-3.67-15.92-4.7-12.94-13.26-24.03-24.27-31.89-2.97,4.09-5.88,8.24-8.7,12.44,13.22,9.49,21.84,24.98,21.84,42.49Z"/><path class="cls-3" d="m232.27,266.14c3.48.73,7.09,1.12,10.79,1.12s7.31-.39,10.79-1.12c6.8-18.72,21.65-33.57,40.37-40.37.73-3.48,1.12-7.09,1.12-10.79,0-12.11,9.82-21.92,21.92-21.92,3.7,0,7.31-.39,10.79-1.12,6.8-18.72,21.65-33.57,40.37-40.37.73-3.48,1.12-7.09,1.12-10.79,0-12.62-4.47-24.19-11.91-33.22-4.68,2.33-9.32,4.73-13.9,7.23,6.58,6.69,10.64,15.87,10.64,25.99,0,20.49-16.61,37.1-37.1,37.1s-37.1,16.61-37.1,37.1-16.61,37.1-37.1,37.1c-14.5,0-27.05-8.32-33.15-20.45-.64.87-1.27,1.74-1.91,2.62,11.02,7.86,19.57,18.95,24.27,31.89Z"/><path class="cls-3" d="m465.67,845.71c20.49,0,37.1-16.61,37.1-37.1,0-13.19-6.89-24.76-17.26-31.34-8.31-1.48-16.49-3.32-24.55-5.45-18.27,2.32-32.39,17.9-32.39,36.79,0,20.49-16.61,37.1-37.1,37.1-6.09,0-11.82,1.47-16.89,4.07,8.44,3.72,17.02,7.18,25.74,10.34.65-.11,1.3-.22,1.94-.36,6.8-18.72,21.65-33.57,40.37-40.37.73-3.48,1.12-7.09,1.12-10.79,0-12.11,9.82-21.92,21.92-21.92s21.92,9.82,21.92,21.92-9.82,21.92-21.92,21.92c-22.82,0-42.21,14.63-49.35,35.01,4.82,1.52,9.68,2.95,14.58,4.3,5.26-14.09,18.84-24.13,34.77-24.13Z"/><path class="cls-3" d="m847.48,711.36c-1.84,5.05-3.08,10.39-3.67,15.92-.25,2.34-.38,4.72-.38,7.12,0,3.73-3.02,6.75-6.75,6.75s-6.75-3.02-6.75-6.75,3.02-6.75,6.75-6.75c2.41,0,4.78-.13,7.12-.38.58-5.53,1.83-10.87,3.67-15.92-3.48.73-7.09,1.12-10.79,1.12-12.11,0-21.92,9.82-21.92,21.92s9.82,21.92,21.92,21.92c.31,0,.62-.03.93-.05,7.33-7.74,14.34-15.78,21.05-24.08.87-20.9,14-38.62,32.39-46.17,3.64-6.03,7.12-12.17,10.45-18.4-4.72.66-9.3,1.77-13.65,3.36-18.72,6.8-33.57,21.65-40.37,40.37Z"/><path class="cls-3" d="m762.48,786.68c-12.11,0-21.92,9.82-21.92,21.92,0,3.7-.39,7.31-1.12,10.79,5.05-1.84,10.39-3.08,15.92-3.67.25-2.34.38-4.72.38-7.12,0-3.73,3.02-6.75,6.75-6.75s6.75,3.02,6.75,6.75-3.02,6.75-6.75,6.75c-2.41,0-4.78.13-7.12.38-5.53.58-10.87,1.83-15.92,3.67-15.55,5.65-28.42,16.88-36.24,31.25,28.76-12.51,55.82-28.22,80.7-46.69-2.14-9.87-10.91-17.27-21.42-17.27Z"/><path class="cls-3" d="m858.67,732.2c11.81-14.6,22.65-30.02,32.39-46.17-18.39,7.55-31.52,25.27-32.39,46.17Z"/><path class="cls-3" d="m904.15,660.2c0-2.89,1.82-5.33,4.37-6.29,2.55-5.23,4.97-10.52,7.3-15.87-1.62.15-3.26.24-4.93.24-12.11,0-21.92,9.82-21.92,21.92,0,3.7-.39,7.31-1.12,10.79,4.36-1.58,8.93-2.7,13.65-3.36.87-1.62,1.73-3.25,2.58-4.88.03-.85.07-1.69.07-2.55Z"/><path class="cls-3" d="m339.19,808.6c0-12.11-9.82-21.92-21.92-21.92-10.51,0-19.28,7.4-21.42,17.27,4.73,3.51,9.53,6.93,14.42,10.24.15-1.84.25-3.7.25-5.59,0-3.73,3.02-6.75,6.75-6.75s6.75,3.02,6.75,6.75-3.02,6.75-6.75,6.75c-1.67,0-3.31.08-4.95.2,5.72,3.82,11.54,7.5,17.46,11.04,5.69-3.96,9.42-10.54,9.42-17.99Z"/><path class="cls-3" d="m799.59,734.4c0-20.49,16.61-37.1,37.1-37.1s37.1-16.61,37.1-37.1,16.61-37.1,37.1-37.1c4.14,0,8.11-.69,11.82-1.94,7.17-18.72,13-38.11,17.38-58.03-6.79-8.66-17.34-14.23-29.21-14.23-20.49,0-37.1,16.61-37.1,37.1s-16.61,37.1-37.1,37.1-37.1,16.61-37.1,37.1-16.61,37.1-37.1,37.1c-4.7,0-9.2.88-13.34,2.48-6.07,5.64-12.35,11.05-18.86,16.2-3.11,5.43-4.9,11.72-4.9,18.42,0,20.49-16.61,37.1-37.1,37.1-11.58,0-21.92-5.31-28.72-13.62-.23.1-.47.19-.7.29,8.3,7.37,14.77,16.75,18.63,27.39,3.48.73,7.09,1.12,10.79,1.12s7.31-.39,10.79-1.12c6.8-18.72,21.65-33.57,40.37-40.37.73-3.48,1.12-7.09,1.12-10.79,0-12.11,9.82-21.92,21.92-21.92,3.7,0,7.31-.39,10.79-1.12,6.8-18.72,21.65-33.57,40.37-40.37.73-3.48,1.12-7.09,1.12-10.79,0-12.11,9.82-21.92,21.92-21.92,3.7,0,7.31-.39,10.79-1.12,6.8-18.72,21.65-33.57,40.37-40.37.73-3.48,1.12-7.09,1.12-10.79,0-12.11,9.82-21.92,21.92-21.92s21.92,9.82,21.92,21.92-9.82,21.92-21.92,21.92c-28.87,0-52.28,23.41-52.28,52.28,0,12.11-9.82,21.92-21.92,21.92-28.87,0-52.28,23.41-52.28,52.28,0,3.7.39,7.31,1.12,10.79,14.53,5.28,26.71,15.43,34.63,28.46,1.48-1.38,2.94-2.78,4.4-4.18-14.53-5.03-24.97-18.82-24.97-35.06Z"/><path class="cls-3" d="m762.48,756.33c-28.87,0-52.28,23.41-52.28,52.28,0,12.11-9.82,21.92-21.92,21.92-25.49,0-46.71,18.24-51.33,42.38,5.76-1.4,11.48-2.91,17.15-4.55,5.63-13.31,18.82-22.65,34.18-22.65,20.49,0,37.1-16.61,37.1-37.1s16.61-37.1,37.1-37.1c15.34,0,28.5,9.31,34.15,22.58,4.06-3.27,8.08-6.6,12.01-10.02-8.79-16.5-26.16-27.74-46.16-27.74Z"/><path class="cls-3" d="m762.48,771.5c-20.49,0-37.1,16.61-37.1,37.1s-16.61,37.1-37.1,37.1c-15.37,0-28.55,9.34-34.18,22.65,16.84-4.88,33.23-10.82,49.11-17.72,7.81-14.37,20.68-25.59,36.24-31.25.73-3.48,1.12-7.09,1.12-10.79,0-12.11,9.82-21.92,21.92-21.92,10.51,0,19.28,7.4,21.42,17.27,4.31-3.2,8.55-6.5,12.73-9.86-5.65-13.28-18.81-22.58-34.15-22.58Z"/><path class="cls-3" d="m785.53,745.19c-5.05-1.84-10.39-3.08-15.92-3.67-2.34-.25-4.72-.38-7.12-.38s-4.78.13-7.12.38c-5.53.58-10.87,1.83-15.92,3.67-18.72,6.8-33.57,21.65-40.37,40.37-1.84,5.05-3.08,10.39-3.67,15.92-.25,2.34-.38,4.72-.38,7.12,0,3.73-3.02,6.75-6.75,6.75-2.41,0-4.78.13-7.12.38-5.53.58-10.87,1.83-15.92,3.67-18.72,6.8-33.57,21.65-40.37,40.37-1.84,5.05-3.08,10.39-3.67,15.92-.03.25-.04.5-.06.75,5.31-1.07,10.58-2.25,15.81-3.53,4.63-24.14,25.84-42.38,51.33-42.38,12.11,0,21.92-9.82,21.92-21.92,0-28.87,23.41-52.28,52.28-52.28,20,0,37.37,11.24,46.16,27.74,3.91-3.4,7.73-6.88,11.51-10.42-7.91-13.03-20.1-23.17-34.63-28.46Z"/><path class="cls-3" d="m814.76,734.4c0-12.11,9.82-21.92,21.92-21.92,3.7,0,7.31-.39,10.79-1.12,6.8-18.72,21.65-33.57,40.37-40.37.73-3.48,1.12-7.09,1.12-10.79,0-12.11,9.82-21.92,21.92-21.92,1.66,0,3.3-.09,4.93-.24,2.42-5.56,4.72-11.18,6.9-16.87-3.71,1.25-7.69,1.94-11.82,1.94-20.49,0-37.1,16.61-37.1,37.1s-16.61,37.1-37.1,37.1-37.1,16.61-37.1,37.1c0,16.24,10.44,30.03,24.97,35.06,4.45-4.3,8.81-8.69,13.06-13.18-.31.01-.61.05-.93.05-12.11,0-21.92-9.82-21.92-21.92Z"/><path class="cls-3" d="m933.94,374.17c1.25.45,2.47.95,3.68,1.47-1.41-5.68-2.94-11.32-4.58-16.9-.13,1.53-.22,3.08-.22,4.64,0,3.7.39,7.31,1.12,10.79Z"/><path class="cls-3" d="m918.01,356.26c-.25,2.34-.38,4.72-.38,7.12s.13,4.78.38,7.12c5.53.58,10.87,1.83,15.92,3.67-.73-3.48-1.12-7.09-1.12-10.79,0-1.57.08-3.11.22-4.64-2.52-8.57-5.3-17.04-8.36-25.37-1.12,2.25-2.13,4.58-2.99,6.97-1.84,5.05-3.08,10.39-3.67,15.92Z"/><path class="cls-3" d="m918.01,370.51c-2.34-.25-4.72-.38-7.12-.38s-4.78.13-7.12.38c-5.53.58-10.87,1.83-15.92,3.67-18.72,6.8-33.57,21.65-40.37,40.37-1.74,4.77-2.92,9.81-3.54,15.02,1.33,9.05,2.27,18.22,2.79,27.5,7.05-3.64,11.89-10.99,11.89-19.48,0-28.87,23.41-52.28,52.28-52.28,11.67,0,22.45,3.83,31.15,10.29-1.31-6.71-2.79-13.37-4.42-19.96-1.21-.52-2.44-1.02-3.68-1.47-5.05-1.84-10.39-3.08-15.92-3.67Z"/><path class="cls-3" d="m910.89,326.28c-20.49,0-37.1,16.61-37.1,37.1s-15.81,36.27-35.6,37.06c1.23,4.95,2.33,9.94,3.32,14.98,2.02-.19,4.02-.48,5.97-.89,6.8-18.72,21.65-33.57,40.37-40.37.73-3.48,1.12-7.09,1.12-10.79,0-12.11,9.82-21.92,21.92-21.92,3.7,0,7.31-.39,10.79-1.12.87-2.39,1.87-4.71,2.99-6.97-1.06-2.88-2.15-5.75-3.27-8.61-3.33.98-6.86,1.52-10.51,1.52Z"/><path class="cls-3" d="m932.82,511.79c0,3.7.39,7.31,1.12,10.79,4.31,1.56,8.39,3.57,12.24,5.94.72-5.5,1.32-11.04,1.82-16.61,0-.04,0-.08,0-.11,0-2.18.2-4.31.56-6.39.75-10.14,1.14-20.38,1.14-30.71,0-.45-.02-.9-.02-1.34-10.37,9.55-16.86,23.24-16.86,38.45Z"/><path class="cls-3" d="m948,511.91c.19-2.17.4-4.33.56-6.5-.36,2.08-.56,4.21-.56,6.39,0,.04,0,.08,0,.11Z"/><path class="cls-3" d="m947.99,437.59c0,20.49-16.61,37.1-37.1,37.1s-37.1,16.61-37.1,37.1-15.8,36.26-35.58,37.06c-1.26,5.1-2.65,10.15-4.17,15.15.88.04,1.76.07,2.64.07,3.7,0,7.31-.39,10.79-1.12,6.8-18.72,21.65-33.57,40.37-40.37.73-3.48,1.12-7.09,1.12-10.79,0-12.11,9.82-21.92,21.92-21.92,3.7,0,7.31-.39,10.79-1.12,5.16-14.19,14.94-26.14,27.52-34.07-.28-5.8-.7-11.56-1.22-17.3,0,.07,0,.14,0,.21Z"/><path class="cls-3" d="m921.68,488.75c-1.84,5.05-3.08,10.39-3.67,15.92-.25,2.34-.38,4.72-.38,7.12s.13,4.78.38,7.12c5.53.58,10.87,1.83,15.92,3.67-.73-3.48-1.12-7.09-1.12-10.79,0-15.21,6.5-28.89,16.86-38.45-.02-6.26-.18-12.48-.48-18.66-12.58,7.92-22.37,19.88-27.52,34.07Z"/><path class="cls-3" d="m918.01,518.91c-2.34-.25-4.72-.38-7.12-.38s-4.78.13-7.12.38c-5.53.58-10.87,1.83-15.92,3.67-18.72,6.8-33.57,21.65-40.37,40.37-1.84,5.05-3.08,10.39-3.67,15.92-.25,2.34-.38,4.72-.38,7.12,0,3.73-3.02,6.75-6.75,6.75-2.41,0-4.78.13-7.12.38-2.17.23-4.3.59-6.4,1.01-2.68,6.36-5.59,12.6-8.68,18.73,6.74-3.17,14.26-4.95,22.2-4.95,12.11,0,21.92-9.82,21.92-21.92,0-28.87,23.41-52.28,52.28-52.28,12.39,0,23.77,4.32,32.73,11.53.96-5.54,1.81-11.11,2.55-16.72-3.85-2.37-7.93-4.37-12.24-5.94-5.05-1.84-10.39-3.08-15.92-3.67Z"/><path class="cls-3" d="m472.42,808.6c0-3.73-3.02-6.75-6.75-6.75s-6.75,3.02-6.75,6.75c0,2.41-.13,4.78-.38,7.12,2.34-.25,4.72-.38,7.12-.38,3.73,0,6.75-3.02,6.75-6.75Z"/><path class="cls-3" d="m400.32,860.12c.54.2,1.09.38,1.63.57.11-.31.2-.62.31-.93-.64.13-1.29.24-1.94.36Z"/><path class="cls-3" d="m465.67,830.53c12.11,0,21.92-9.82,21.92-21.92s-9.82-21.92-21.92-21.92-21.92,9.82-21.92,21.92c0,3.7-.39,7.31-1.12,10.79,5.05-1.84,10.39-3.08,15.92-3.67.25-2.34.38-4.72.38-7.12,0-3.73,3.02-6.75,6.75-6.75s6.75,3.02,6.75,6.75-3.02,6.75-6.75,6.75c-2.41,0-4.78.13-7.12.38-5.53.58-10.87,1.83-15.92,3.67-18.72,6.8-33.57,21.65-40.37,40.37-.11.31-.2.62-.31.93,4.75,1.7,9.54,3.32,14.38,4.85,7.13-20.39,26.53-35.01,49.35-35.01Z"/><path class="cls-3" d="m428.57,808.6c0-18.89,14.13-34.48,32.39-36.79-7.95-2.11-15.77-4.53-23.46-7.24-14.5,9.29-24.11,25.53-24.11,44.03,0,12.11-9.82,21.92-21.92,21.92s-23.98,4.4-32.98,11.72c5.3,2.62,10.66,5.13,16.09,7.53,5.07-2.6,10.81-4.07,16.89-4.07,20.49,0,37.1-16.61,37.1-37.1Z"/><path class="cls-3" d="m317.26,771.5c-15.34,0-28.5,9.31-34.15,22.58,4.18,3.37,8.42,6.66,12.73,9.86,2.14-9.87,10.91-17.27,21.42-17.27,12.11,0,21.92,9.82,21.92,21.92,0,7.46-3.73,14.03-9.42,17.99,4.6,2.75,9.25,5.43,13.96,8,6.58-6.69,10.64-15.87,10.64-25.99,0-20.49-16.61-37.1-37.1-37.1Z"/><path class="cls-3" d="m529.09,117.73c3.48.73,7.09,1.12,10.79,1.12s7.31-.39,10.79-1.12c6.8-18.72,21.65-33.57,40.37-40.37.62-2.98.98-6.05,1.08-9.19-17.11-2.18-34.54-3.3-52.24-3.3s-35.13,1.12-52.24,3.3c.1,3.14.45,6.21,1.08,9.19,18.72,6.8,33.57,21.65,40.37,40.37Zm10.79-44.41c3.73,0,6.75-3.02,6.75-6.75,0,3.73-3.02,6.75-6.75,6.75s-6.75-3.02-6.75-6.75c0,3.73,3.02,6.75,6.75,6.75Zm0,15.18c12.11,0,21.92-9.82,21.92-21.92,0,12.11-9.82,21.92-21.92,21.92s-21.92-9.82-21.92-21.92c0,12.11,9.82,21.92,21.92,21.92Zm0,15.18c20.49,0,37.1-16.61,37.1-37.1,0,20.49-16.61,37.1-37.1,37.1s-37.1-16.61-37.1-37.1c0,20.49,16.61,37.1,37.1,37.1Z"/><path class="cls-3" d="m413.39,808.6c0-18.5,9.62-34.74,24.11-44.03-5.61-1.98-11.16-4.11-16.61-6.4-8.3,7.37-14.77,16.75-18.63,27.39-1.84,5.05-3.08,10.39-3.67,15.92-.25,2.34-.38,4.72-.38,7.12,0,3.73-3.02,6.75-6.75,6.75-2.41,0-4.78.13-7.12.38-5.53.58-10.87,1.83-15.92,3.67-9.22,3.35-17.49,8.66-24.33,15.41,4.74,2.58,9.54,5.05,14.39,7.45,9-7.33,20.47-11.72,32.98-11.72s21.92-9.82,21.92-21.92Z"/><path class="cls-3" d="m369.54,808.6c0-28.87-23.41-52.28-52.28-52.28-20,0-37.37,11.24-46.16,27.74,3.93,3.42,7.95,6.75,12.01,10.02,5.65-13.28,18.81-22.58,34.15-22.58,20.49,0,37.1,16.61,37.1,37.1,0,10.13-4.06,19.3-10.64,25.99.12.07.24.14.37.2,6.84-6.75,15.11-12.06,24.33-15.41.73-3.48,1.12-7.09,1.12-10.79Z"/><path class="cls-3" d="m465.67,860.88c3.7,0,7.31-.39,10.79-1.12,6.8-18.72,21.65-33.57,40.37-40.37.73-3.48,1.12-7.09,1.12-10.79,0-10.31-3-19.92-8.15-28.02-8.19-.8-16.29-1.9-24.28-3.33,10.37,6.58,17.26,18.15,17.26,31.34,0,20.49-16.61,37.1-37.1,37.1-15.93,0-29.51,10.04-34.77,24.13,4.92,1.35,9.88,2.63,14.87,3.8,3.47-7.52,11.06-12.75,19.89-12.75Z"/><path class="cls-3" d="m620.82,808.6c0-3.73-3.02-6.75-6.75-6.75s-6.75,3.02-6.75,6.75c0,2.41-.13,4.78-.38,7.12,2.34-.25,4.72-.38,7.12-.38,3.73,0,6.75-3.02,6.75-6.75Z"/><path class="cls-3" d="m614.08,876.06c2.41,0,4.78-.13,7.12-.38.58-5.53,1.83-10.87,3.67-15.92-3.48.73-7.09,1.12-10.79,1.12-11.56,0-21.01,8.96-21.84,20.31,5.54-.71,11.04-1.55,16.51-2.48,1.23-1.6,3.15-2.66,5.33-2.66Z"/><path class="cls-3" d="m614.08,860.88c3.7,0,7.31-.39,10.79-1.12,6.8-18.72,21.65-33.57,40.37-40.37.73-3.48,1.12-7.09,1.12-10.79,0-18.5-9.62-34.74-24.11-44.03-7.68,2.71-15.51,5.13-23.46,7.24,18.27,2.32,32.39,17.9,32.39,36.79,0,20.49-16.61,37.1-37.1,37.1s-37.1,16.61-37.1,37.1c0-20.49,16.61-37.1,37.1-37.1s37.1-16.61,37.1-37.1c0-18.89-14.13-34.48-32.39-36.79-8.06,2.14-16.25,3.97-24.55,5.45-10.37,6.58-17.26,18.15-17.26,31.34,0,20.49-16.61,37.1-37.1,37.1s-37.1,16.61-37.1,37.1c0-20.49,16.61-37.1,37.1-37.1s37.1-16.61,37.1-37.1c0-13.19,6.89-24.76,17.26-31.34-7.99,1.43-16.09,2.53-24.28,3.33-5.15,8.1-8.15,17.71-8.15,28.02,0,12.11-9.82,21.92-21.92,21.92-28.34,0-51.39,22.55-52.24,50.68,17.11,2.18,34.54,3.3,52.24,3.3s35.22-1.13,52.36-3.32c.83-11.35,10.28-20.31,21.84-20.31Zm0-74.2c-12.11,0-21.92,9.82-21.92,21.92,0,3.7-.39,7.31-1.12,10.79,5.05-1.84,10.39-3.08,15.92-3.67.25-2.34.38-4.72.38-7.12,0-3.73,3.02-6.75,6.75-6.75s6.75,3.02,6.75,6.75-3.02,6.75-6.75,6.75c-2.41,0-4.78.13-7.12.38-5.53.58-10.87,1.83-15.92,3.67-18.72,6.8-33.57,21.65-40.37,40.37-1.84,5.05-3.08,10.39-3.67,15.92-.25,2.34-.38,4.72-.38,7.12,0-2.41.13-4.78.38-7.12-2.34.25-4.72.38-7.12.38-3.73,0-6.75,3.02-6.75,6.75,0-3.73,3.02-6.75,6.75-6.75,2.41,0,4.78-.13,7.12-.38.58-5.53,1.83-10.87,3.67-15.92-3.48.73-7.09,1.12-10.79,1.12-12.11,0-21.92,9.82-21.92,21.92,0-12.11,9.82-21.92,21.92-21.92,3.7,0,7.31-.39,10.79-1.12,6.8-18.72,21.65-33.57,40.37-40.37.73-3.48,1.12-7.09,1.12-10.79,0-12.11,9.82-21.92,21.92-21.92s21.92,9.82,21.92,21.92-9.82,21.92-21.92,21.92c-28.87,0-52.28,23.41-52.28,52.28,0-28.87,23.41-52.28,52.28-52.28,12.11,0,21.92-9.82,21.92-21.92s-9.82-21.92-21.92-21.92Z"/><path class="cls-3" d="m614.08,876.06c-2.18,0-4.1,1.05-5.33,2.66,4.15-.7,8.29-1.45,12.39-2.28.02-.25.03-.5.06-.75-2.34.25-4.72.38-7.12.38Z"/><path class="cls-3" d="m472.79,875.69c.58-5.53,1.83-10.87,3.67-15.92-3.48.73-7.09,1.12-10.79,1.12-8.83,0-16.42,5.23-19.89,12.75,5.4,1.27,10.84,2.42,16.32,3.47,1.04-.65,2.26-1.04,3.57-1.04,2.41,0,4.78-.13,7.12-.38Z"/><path class="cls-3" d="m769.23,808.6c0-3.73-3.02-6.75-6.75-6.75s-6.75,3.02-6.75,6.75c0,2.41-.13,4.78-.38,7.12,2.34-.25,4.72-.38,7.12-.38,3.73,0,6.75-3.02,6.75-6.75Z"/><path class="cls-3" d="m465.67,876.06c-1.32,0-2.54.39-3.57,1.04,3.46.67,6.94,1.29,10.44,1.86.06-1.1.15-2.2.26-3.29-2.34.25-4.72.38-7.12.38Z"/><path class="cls-3" d="m539.87,830.53c12.11,0,21.92-9.82,21.92-21.92,0-10.31,3-19.92,8.15-28.02-5.88.57-11.81.97-17.77,1.2-.54,1.24-1.05,2.49-1.51,3.77-1.84,5.05-3.08,10.39-3.67,15.92-.25,2.34-.38,4.72-.38,7.12,0,3.73-3.02,6.75-6.75,6.75-2.41,0-4.78.13-7.12.38-5.53.58-10.87,1.83-15.92,3.67-18.72,6.8-33.57,21.65-40.37,40.37-1.84,5.05-3.08,10.39-3.67,15.92-.11,1.09-.2,2.18-.26,3.29,5.01.83,10.04,1.6,15.1,2.24.85-28.13,23.9-50.68,52.24-50.68Z"/><path class="cls-3" d="m269.86,166.41c-1.56,1.36-3.11,2.73-4.64,4.12,1.66-1.24,3.21-2.62,4.64-4.12Z"/><path class="cls-3" d="m841.67,533.12c9.7-2.26,16.94-10.94,16.94-21.33,0-28.87,23.41-52.28,52.28-52.28,12.11,0,21.92-9.82,21.92-21.92s-9.82-21.92-21.92-21.92-21.92,9.82-21.92,21.92c0,3.7-.39,7.31-1.12,10.79,5.05-1.84,10.39-3.08,15.92-3.67.25-2.34.38-4.72.38-7.12,0-3.73,3.02-6.75,6.75-6.75s6.75,3.02,6.75,6.75-3.02,6.75-6.75,6.75c-2.41,0-4.78.13-7.12.38-5.53.58-10.87,1.83-15.92,3.67-18.72,6.8-33.57,21.65-40.37,40.37-.24.65-.43,1.31-.65,1.97-.74,14.42-2.5,28.58-5.16,42.41Z"/><path class="cls-3" d="m847.48,488.75c-.19.04-.38.07-.57.11-.03.62-.04,1.24-.08,1.86.22-.66.41-1.32.65-1.97Z"/><path class="cls-3" d="m767.15,681.61c-5.74,6.31-11.76,12.36-18.01,18.17,4.14-1.6,8.63-2.48,13.34-2.48,20.49,0,37.1-16.61,37.1-37.1s16.61-37.1,37.1-37.1,37.1-16.61,37.1-37.1,16.61-37.1,37.1-37.1c11.86,0,22.41,5.57,29.21,14.23,1.3-5.92,2.48-11.88,3.53-17.88-8.96-7.21-20.34-11.53-32.73-11.53-28.87,0-52.28,23.41-52.28,52.28,0,12.11-9.82,21.92-21.92,21.92-7.94,0-15.46,1.78-22.2,4.95-8.57,16.99-18.67,33.08-30.12,48.08-.35,10.17-7.59,18.57-17.22,20.66Z"/><path class="cls-3" d="m910.89,400.49c-20.49,0-37.1,16.61-37.1,37.1,0,16.83-11.21,31.04-26.57,35.58,0,.51.02,1.02.02,1.53,0,4.75-.12,9.47-.34,14.16.19-.04.38-.07.57-.11,6.8-18.72,21.65-33.57,40.37-40.37.73-3.48,1.12-7.09,1.12-10.79,0-12.11,9.82-21.92,21.92-21.92s21.92,9.82,21.92,21.92-9.82,21.92-21.92,21.92c-28.87,0-52.28,23.41-52.28,52.28,0,10.39-7.24,19.08-16.94,21.33-1.02,5.29-2.17,10.54-3.46,15.73,19.78-.8,35.58-17.08,35.58-37.06s16.61-37.1,37.1-37.1,37.1-16.61,37.1-37.1c0-.07,0-.14,0-.21-.2-2.25-.41-4.5-.65-6.73-3.25-17.17-18.33-30.16-36.44-30.16Z"/><path class="cls-3" d="m847.48,266.14c-1.84,5.05-3.08,10.39-3.67,15.92-.25,2.34-.38,4.72-.38,7.12,0,3.73-3.02,6.75-6.75,6.75-2.41,0-4.78.13-7.12.38-5.53.58-10.87,1.83-15.92,3.67-5.54,2.01-10.73,4.75-15.48,8.06,2.75,4.25,5.4,8.57,7.94,12.97,8.6-6.22,19.16-9.89,30.58-9.89,12.11,0,21.92-9.82,21.92-21.92,0-17.51,8.62-33,21.84-42.49-2.82-4.21-5.73-8.35-8.7-12.44-11.02,7.86-19.57,18.95-24.27,31.89Z"/><path class="cls-3" d="m829.94,214.98c0,3.73,3.02,6.75,6.75,6.75s6.75-3.02,6.75-6.75c0-2.41.13-4.78.38-7.12-2.34.25-4.72.38-7.12.38-3.73,0-6.75,3.02-6.75,6.75Z"/><path class="cls-3" d="m910.89,311.1c-28.87,0-52.28,23.41-52.28,52.28,0,12.11-9.82,21.92-21.92,21.92-.92,0-1.83-.08-2.72-.19,1.54,5.05,2.94,10.17,4.22,15.33,19.79-.79,35.6-17.08,35.6-37.06s16.61-37.1,37.1-37.1c3.65,0,7.18-.54,10.51-1.52-1.87-4.77-3.86-9.48-5.9-14.15-1.49.32-3.02.49-4.6.49Z"/><path class="cls-3" d="m799.59,214.98c0,20.49,16.61,37.1,37.1,37.1,14.5,0,27.05-8.32,33.15-20.45-3.67-4.97-7.45-9.85-11.33-14.65-1.01,11.17-10.39,19.92-21.82,19.92-12.11,0-21.92-9.82-21.92-21.92s9.82-21.92,21.92-21.92c.29,0,.57-.02.86-.02-4.23-4.47-8.57-8.84-12.99-13.12-14.53,5.03-24.97,18.82-24.97,35.06Z"/><path class="cls-3" d="m917.64,437.59c0-3.73-3.02-6.75-6.75-6.75s-6.75,3.02-6.75,6.75c0,2.41-.13,4.78-.38,7.12,2.34-.25,4.72-.38,7.12-.38,3.73,0,6.75-3.02,6.75-6.75Z"/><path class="cls-3" d="m843.81,207.85c-.25,2.34-.38,4.72-.38,7.12,0,3.73-3.02,6.75-6.75,6.75s-6.75-3.02-6.75-6.75,3.02-6.75,6.75-6.75c2.41,0,4.78-.13,7.12-.38.24-2.32.63-4.59,1.1-6.83-2.42-2.7-4.87-5.37-7.36-8-.29,0-.57.02-.86.02-12.11,0-21.92,9.82-21.92,21.92s9.82,21.92,21.92,21.92c11.43,0,20.81-8.75,21.82-19.92-4.4-5.43-8.93-10.76-13.6-15.96-.47,2.24-.86,4.51-1.1,6.83Z"/><path class="cls-3" d="m829.57,578.87c-.03-.31-.09-.61-.12-.92-1.95,5.46-4.03,10.86-6.27,16.18,2.1-.43,4.23-.79,6.4-1.01.25-2.34.38-4.72.38-7.12s-.13-4.78-.38-7.12Z"/><path class="cls-3" d="m784.41,214.98c0,3.7.39,7.31,1.12,10.79,18.72,6.8,33.57,21.65,40.37,40.37,3.48.73,7.09,1.12,10.79,1.12s7.31-.39,10.79-1.12c4.7-12.94,13.26-24.03,24.27-31.89-.63-.87-1.27-1.75-1.91-2.62-6.1,12.13-18.65,20.45-33.15,20.45-20.49,0-37.1-16.61-37.1-37.1,0-16.24,10.44-30.03,24.97-35.06-3.97-3.83-8.01-7.58-12.13-11.25-16.65,8.74-28.02,26.19-28.02,46.31Z"/><path class="cls-3" d="m829.57,578.87c2.34.25,4.72.38,7.12.38s4.78-.13,7.12-.38c.58-5.53,1.83-10.87,3.67-15.92-3.48.73-7.09,1.12-10.79,1.12-.89,0-1.77-.03-2.64-.07-1.43,4.7-2.96,9.35-4.6,13.95.04.31.09.61.12.92Z"/><path class="cls-3" d="m829.57,578.87c.25,2.34.38,4.72.38,7.12s-.13,4.78-.38,7.12c2.34-.25,4.72-.38,7.12-.38,3.73,0,6.75-3.02,6.75-6.75,0-2.41.13-4.78.38-7.12-2.34.25-4.72.38-7.12.38s-4.78-.13-7.12-.38Z"/><path class="cls-3" d="m873.79,437.59c0-20.49,16.61-37.1,37.1-37.1,18.12,0,33.19,12.99,36.44,30.16-1.27-11.84-3.04-23.53-5.29-35.05-8.7-6.47-19.48-10.29-31.15-10.29-28.87,0-52.28,23.41-52.28,52.28,0,8.49-4.83,15.83-11.89,19.48.3,5.33.47,10.7.5,16.1,15.36-4.54,26.57-18.75,26.57-35.58Z"/><path class="cls-3" d="m873.79,289.18c0,20.49-16.61,37.1-37.1,37.1-8.8,0-16.87,3.07-23.23,8.18,2.42,4.71,4.72,9.49,6.89,14.34,4.01-4.49,9.84-7.34,16.34-7.34,3.7,0,7.31-.39,10.79-1.12,6.8-18.72,21.65-33.57,40.37-40.37.73-3.48,1.12-7.09,1.12-10.79,0-6.59,2.93-12.49,7.53-16.51-2.53-4.45-5.14-8.85-7.83-13.2-9.03,6.77-14.88,17.56-14.88,29.71Z"/><path class="cls-3" d="m688.28,103.67c6.09,0,11.82-1.47,16.89-4.07-16.48-7.28-33.53-13.5-51.07-18.58,5.63,13.31,18.82,22.65,34.18,22.65Z"/><path class="cls-3" d="m773.27,191.93c-1.84,5.05-3.08,10.39-3.67,15.92-.25,2.34-.38,4.72-.38,7.12s.13,4.78.38,7.12c5.53.58,10.87,1.83,15.92,3.67-.73-3.48-1.12-7.09-1.12-10.79,0-20.11,11.37-37.57,28.02-46.31-3.99-3.56-8.04-7.06-12.18-10.46-12.32,7.92-21.9,19.75-26.98,33.73Z"/><path class="cls-3" d="m606.95,73.69c.11-1.09.2-2.18.26-3.29-5.01-.83-10.04-1.6-15.1-2.24-.1,3.14-.45,6.21-1.08,9.19,5.05-1.84,10.39-3.08,15.92-3.67Z"/><path class="cls-3" d="m637.12,77.36c-.06-.29-.11-.59-.16-.89-5.24-1.27-10.51-2.46-15.82-3.53.02.25.03.5.06.75,5.53.58,10.87,1.83,15.92,3.67Z"/><path class="cls-3" d="m614.08,73.32c2.41,0,4.78.13,7.12.38-.03-.25-.04-.5-.06-.75-4.61-.93-9.26-1.76-13.92-2.53-.06,1.1-.15,2.2-.26,3.29,2.34-.25,4.72-.38,7.12-.38Z"/><path class="cls-3" d="m677.49,117.73c3.48.73,7.09,1.12,10.79,1.12s7.31-.39,10.79-1.12c2.21-6.07,5.27-11.73,9.03-16.85-.97-.44-1.96-.85-2.93-1.28-5.07,2.6-10.81,4.07-16.89,4.07-15.37,0-28.55-9.34-34.18-22.65-5.66-1.64-11.38-3.15-17.14-4.55.06.3.1.6.16.89,18.72,6.8,33.57,21.65,40.37,40.37Z"/><path class="cls-3" d="m858.61,289.18c0,12.11-9.82,21.92-21.92,21.92-11.42,0-21.98,3.67-30.58,9.89,2.56,4.42,5.01,8.91,7.35,13.47,6.36-5.11,14.43-8.18,23.23-8.18,20.49,0,37.1-16.61,37.1-37.1,0-12.16,5.85-22.95,14.88-29.71-2.67-4.31-5.4-8.58-8.22-12.78-13.22,9.49-21.84,24.98-21.84,42.49Z"/><path class="cls-3" d="m762.48,177.87c-20.49,0-37.1,16.61-37.1,37.1,0,4.54-.82,8.88-2.31,12.9,1.56,1.16,3.1,2.34,4.63,3.53,3.7-2.23,7.62-4.14,11.73-5.63.73-3.48,1.12-7.09,1.12-10.79,0-12.11,9.82-21.92,21.92-21.92,3.7,0,7.31-.39,10.79-1.12,5.08-13.98,14.66-25.8,26.98-33.73-1.19-.98-2.41-1.94-3.62-2.91-5.65,13.28-18.81,22.58-34.15,22.58Z"/><path class="cls-3" d="m695.4,133.65c-.25,2.34-.38,4.72-.38,7.12,0,3.73-3.02,6.75-6.75,6.75-2.41,0-4.78.13-7.12.38-5.53.58-10.87,1.83-15.92,3.67-14.82,5.39-27.2,15.84-35.1,29.24,4.98,1.53,9.92,3.18,14.79,4.95,9.39-13.91,25.31-23.05,43.35-23.05,12.11,0,21.92-9.82,21.92-21.92s4.47-24.19,11.91-33.22c-4.63-2.3-9.29-4.54-14.01-6.67-3.76,5.12-6.83,10.77-9.03,16.85-1.84,5.05-3.08,10.39-3.67,15.92Z"/><path class="cls-5" d="m650.7,523.2c-6.61,1.86-47.29,6.42-94.73,11.32v-113.4c0-4.96,1.42-9.83,4.15-13.98,1.83-2.77,4.25-7.29,7.28-14.65,6.45-15.66-35.41-18.46-48.46-18.95-1.71-.06-2.88,1.68-2.17,3.24,2.79,6.11,8.17,19.84,8.17,34.77v126.13c-60.24,6.05-121.86,11.85-134.36,13.02-1.1.1-1.71,1.32-1.16,2.28,6.78,11.83,15.94,17.5,24.11,20.14,7.8,2.52,16.17,2.52,24.11.49,23.34-5.95,54.67-9.45,87.3-11.44v107.55c0,1.23,1.46,1.86,2.35,1.02,7.23-6.85,28.68-29.8,28.68-61.03v-48.99c60.42-2.06,118.09.06,131.17.6,1.77.07,3.39-.98,4.07-2.62,10.02-23.96-22.32-40.62-40.51-35.5Z"/><path class="cls-5" d="m365.07,468.47c15.47-5.33,103.67-38.95,174.07-134.23,1.63-2.21,4.9-2.31,6.68-.22,16.6,19.55,87.16,101.87,101.07,104.74,13.65,2.82,56.69,4.43,79.62-4.33,3.72-1.42,3.65-6.7-.1-8.03-28.19-9.97-114.76-44.24-172.08-106.72-1.04-1.14-1.39-2.75-.9-4.22,1.26-3.77,4.21-10.71,9.22-11.99,6.94-1.77,3.81-9.25-3.4-12.79-6.7-3.29-20.67-11.5-39.3-12.44-3.71-.19-5.94,4.11-3.57,6.97.04.05.09.11.14.16,2.87,3.39,3.69,9.24,3.9,13.01.13,2.26-.44,4.49-1.6,6.44-8.6,14.38-51.87,81.6-154.13,162.87-.39.31-.07.94.41.77Z"/><path class="cls-5" d="m592.09,415.92c-.24.03-.43.23-.44.47-.07,1.43-.36,6.2-1.47,9.68-1.19,3.72-26.09,39.19-31.09,46.29-.28.39.11.9.56.74,5.98-2.1,29.2-10.81,40.62-23.45.24-.26.66-.2.81.12,1.8,4.05,11.36,24.26,21.06,19.34,10.76-5.46,20.37-17.55,10.93-21.19-9.44-3.64-30.47-5.46-21.86-9.27,8.61-3.81,13.41-9.11,10.93-12.58-2.46-3.44-17.54-11.57-30.04-10.15Z"/><path class="cls-5" d="m593.54,468.91c-.24.03-.43.23-.44.47-.07,1.43-.36,6.2-1.47,9.68-1.19,3.72-26.09,39.19-31.09,46.29-.28.39.11.9.56.74,5.98-2.1,29.2-10.81,40.62-23.45.24-.26.66-.2.81.12,1.8,4.05,11.36,24.26,21.06,19.34,10.76-5.46,20.37-17.55,10.93-21.19-9.44-3.64-30.47-5.46-21.86-9.27s13.41-9.11,10.93-12.58c-2.46-3.44-17.54-11.57-30.04-10.15Z"/><path class="cls-5" d="m470.29,423.89c-.24.03-.43.23-.44.47-.07,1.43-.36,6.2-1.47,9.68-1.19,3.72-26.09,39.19-31.09,46.29-.28.39.11.9.56.74,5.98-2.1,29.2-10.81,40.62-23.45.24-.26.66-.2.81.12,1.8,4.05,11.36,24.26,21.06,19.34,10.76-5.46,20.37-17.55,10.93-21.19-9.44-3.64-30.47-5.46-21.86-9.27,8.61-3.81,13.41-9.11,10.93-12.58-2.46-3.44-17.54-11.57-30.04-10.15Z"/><path class="cls-5" d="m471.74,476.87c-.24.03-.43.23-.44.47-.07,1.43-.36,6.2-1.47,9.68-1.19,3.72-26.09,39.19-31.09,46.29-.28.39.11.9.56.74,5.98-2.1,29.2-10.81,40.62-23.45.24-.26.66-.2.81.12,1.8,4.05,11.36,24.26,21.06,19.34,10.76-5.46,20.37-17.55,10.93-21.19-9.44-3.64-30.47-5.46-21.86-9.27,8.61-3.81,13.41-9.11,10.93-12.58s-17.54-11.57-30.04-10.15Z"/><path class="cls-6" d="m543.79,637.86c3.22,0,3.22-5,0-5s-3.22,5,0,5h0Z"/></svg>