<?xml version="1.0" encoding="UTF-8"?><svg id="Layer_1" xmlns="http://www.w3.org/2000/svg" viewBox="0 0 1080 1080"><defs><style>.cls-1{fill:#2c9aa1;}.cls-2{letter-spacing:-.07em;}.cls-3{stroke-width:5.49px;}.cls-3,.cls-4{fill:none;stroke:#2c9aa1;stroke-miterlimit:10;}.cls-5{letter-spacing:-.04em;}.cls-4{stroke-width:5.49px;}.cls-6{font-family:Jaapokkisubtract-Regular, 'Jaapokki subtract';font-size:160px;}.cls-6,.cls-7{fill:#9b4c44;}</style></defs><text class="cls-6" transform="translate(215.44 -50.95)"><tspan x="0" y="0">NU</tspan><tspan class="cls-5" x="215.04" y="0">K</tspan><tspan class="cls-2" x="315.84" y="0">A</tspan><tspan class="cls-5" x="432.48" y="0">S</tspan><tspan x="521.6" y="0">A</tspan></text><text class="cls-6" transform="translate(215.31 1049.05)"><tspan x="0" y="0">NU</tspan><tspan class="cls-5" x="215.04" y="0">K</tspan><tspan class="cls-2" x="315.84" y="0">A</tspan><tspan class="cls-5" x="432.48" y="0">S</tspan><tspan x="521.6" y="0">A</tspan></text><path class="cls-7" d="m618.54,518.4c-4.59,1.29-32.81,4.44-65.71,7.82v-78.34c0-3.43.98-6.79,2.88-9.65,1.27-1.92,2.95-5.04,5.05-10.12,4.47-10.82-24.56-12.75-33.62-13.09-1.18-.04-2,1.16-1.5,2.24,1.93,4.22,5.67,13.71,5.67,24.02v87.13c-41.78,4.18-84.53,8.19-93.2,9-.76.07-1.19.91-.81,1.57,4.7,8.17,11.06,12.09,16.73,13.91,5.41,1.74,11.22,1.74,16.72.34,16.19-4.11,37.92-6.53,60.56-7.9v74.3c0,.85,1.01,1.29,1.63.7,5.02-4.73,19.89-20.59,19.89-42.16v-33.84c41.91-1.42,81.91.04,90.98.41,1.23.05,2.35-.68,2.82-1.81,6.95-16.55-15.49-28.06-28.1-24.53Z"/><path class="cls-7" d="m420.42,480.59c10.73-3.68,71.91-26.91,120.75-92.73,1.13-1.53,3.4-1.6,4.63-.15,11.51,13.51,60.46,70.37,70.11,72.36,9.47,1.95,39.33,3.06,55.23-2.99,2.58-.98,2.53-4.63-.07-5.55-19.55-6.89-79.6-30.56-119.36-73.72-.72-.79-.96-1.9-.63-2.91.87-2.6,2.92-7.4,6.39-8.28,4.81-1.22,2.64-6.39-2.36-8.84-4.65-2.27-14.34-7.94-27.26-8.59-2.57-.13-4.12,2.84-2.48,4.81.03.04.06.07.09.11,1.99,2.35,2.56,6.38,2.7,8.99.09,1.56-.3,3.11-1.11,4.45-5.96,9.93-35.98,56.37-106.91,112.51-.27.21-.05.65.28.53Z"/><path class="cls-7" d="m577.89,444.29c-.17.02-.3.16-.3.32-.05.98-.25,4.28-1.02,6.69-.83,2.57-18.1,27.07-21.56,31.98-.19.27.08.62.39.51,4.15-1.45,20.26-7.47,28.17-16.2.17-.18.46-.14.56.08,1.25,2.8,7.88,16.76,14.61,13.36,7.47-3.77,14.13-12.12,7.58-14.64-6.55-2.52-21.13-3.77-15.16-6.41,5.97-2.63,9.3-6.29,7.58-8.69s-12.17-7.99-20.84-7.01Z"/><path class="cls-7" d="m578.9,480.89c-.17.02-.3.16-.3.32-.05.98-.25,4.28-1.02,6.69-.83,2.57-18.1,27.07-21.56,31.98-.19.27.08.62.39.51,4.15-1.45,20.26-7.47,28.17-16.2.17-.18.46-.14.56.08,1.25,2.8,7.88,16.76,14.61,13.36,7.47-3.77,14.13-12.12,7.58-14.64-6.55-2.52-21.13-3.77-15.16-6.41,5.97-2.63,9.3-6.29,7.58-8.69-1.7-2.38-12.17-7.99-20.84-7.01Z"/><path class="cls-7" d="m493.4,449.79c-.17.02-.3.16-.3.32-.05.98-.25,4.28-1.02,6.69-.83,2.57-18.1,27.07-21.56,31.98-.19.27.08.62.39.51,4.15-1.45,20.26-7.47,28.17-16.2.17-.18.46-.14.56.08,1.25,2.8,7.88,16.76,14.61,13.36,7.47-3.77,14.13-12.12,7.58-14.64-6.55-2.52-21.13-3.77-15.16-6.41s9.3-6.29,7.58-8.69c-1.7-2.38-12.17-7.99-20.84-7.01Z"/><path class="cls-7" d="m494.41,486.4c-.17.02-.3.16-.3.32-.05.98-.25,4.28-1.02,6.69-.83,2.57-18.1,27.07-21.56,31.98-.19.27.08.62.39.51,4.15-1.45,20.26-7.47,28.17-16.2.17-.18.46-.14.56.08,1.25,2.8,7.88,16.76,14.61,13.36,7.47-3.77,14.13-12.12,7.58-14.64-6.55-2.52-21.13-3.77-15.16-6.41,5.97-2.63,9.3-6.29,7.58-8.69s-12.17-7.99-20.84-7.01Z"/><polygon class="cls-1" points="463.02 706.39 402.87 864.7 457.85 704.52 463.02 706.39 463.02 706.39"/><polygon class="cls-1" points="623.89 704.54 677.82 865.07 618.71 706.37 623.89 704.54 623.89 704.54"/><polygon class="cls-1" points="745.92 600.11 886.31 685.67 743.14 604.84 745.92 600.11 745.92 600.11"/><polygon class="cls-1" points="772 442 935.29 416.63 772.93 447.41 772 442 772 442"/><polygon class="cls-1" points="689.06 305.4 801.72 178.69 693.23 308.98 689.06 305.4 689.06 305.4"/><polygon class="cls-1" points="538.12 251.17 540.87 84.23 543.61 251.17 538.12 251.17 538.12 251.17"/><polygon class="cls-1" points="387.85 307.8 283.15 179.41 392.05 304.26 387.85 307.8 387.85 307.8"/><polygon class="cls-1" points="308.85 447.42 144.78 418.85 309.7 441.99 308.85 447.42 308.85 447.42"/><polygon class="cls-1" points="338.61 604.84 192.05 688.59 335.8 600.11 338.61 604.84 338.61 604.84"/><path class="cls-3" d="m540.87,251.17c0,8.91-145.24,61.55-151.16,54.79,5.93,6.76-71.35,140.06-80.43,138.74,9.08,1.32,35.92,152.9,27.93,157.77,7.99-4.87,126.38,94.07,123.23,102.98,3.15-8.91,157.71-8.91,160.87,0-3.15-8.91,115.24-107.85,123.23-102.98-7.99-4.87,18.85-156.45,27.93-157.77-9.08,1.32-86.36-131.98-80.43-138.74-5.93,6.76-151.16-45.89-151.16-54.79Z"/><path class="cls-4" d="m781.57,690.1c0-2.75-.25-5.43-.71-8.05-3.99,2.94-8.22,6.16-12.63,9.58-.8,17.34-15.03,31.15-32.47,31.15-1.76,0-3.49-.15-5.17-.42-4.08,3.48-8.11,6.96-12.04,10.41,5.32,2.17,11.13,3.38,17.22,3.38,25.3,0,45.8-20.62,45.8-46.06Z"/><path class="cls-4" d="m794.87,690.1c0-2.12-.11-4.21-.33-6.28-.36-3.47-1.03-6.85-1.96-10.11-3.56,2.42-7.5,5.23-11.71,8.34.46,2.61.71,5.3.71,8.05,0,25.44-20.51,46.06-45.8,46.06-6.09,0-11.9-1.21-17.22-3.38-3.71,3.25-7.33,6.47-10.82,9.62,2.52,1.37,5.13,2.57,7.85,3.57,4.43,1.62,9.1,2.72,13.95,3.23,2.05.22,4.13.33,6.24.33s4.19-.12,6.24-.33c4.85-.51,9.52-1.61,13.95-3.23,16.4-5.99,29.41-19.08,35.37-35.57,1.61-4.45,2.7-9.15,3.21-14.03.22-2.06.33-4.16.33-6.28Z"/><path class="cls-4" d="m735.77,722.79c17.44,0,31.67-13.81,32.47-31.15-11.88,9.23-24.97,19.93-37.64,30.74,1.69.27,3.41.42,5.17.42Z"/><path class="cls-4" d="m794.54,696.37c-.51,4.88-1.6,9.58-3.21,14.03,3.05-.64,6.21-.99,9.45-.99s6.4.34,9.45.99c-1.61-4.45-2.7-9.15-3.21-14.03-2.05-.22-4.13-.33-6.24-.33s-4.19.12-6.24.33Z"/><path class="cls-4" d="m794.54,683.82c2.05.22,4.13.33,6.24.33s4.19-.12,6.24-.33c.51-4.88,1.6-9.58,3.21-14.03-3.05.64-6.21.99-9.45.99-1.19,0-2.37-.06-3.54-.15-1.47.94-3.02,1.97-4.66,3.08.93,3.27,1.6,6.64,1.96,10.11Z"/><path class="cls-4" d="m810.23,669.79c.6-1.65,1.28-3.25,2.01-4.82l-.96-.57c-1.57-.93-6.67,1.5-14.05,6.22,1.17.09,2.35.15,3.54.15,3.24,0,6.4-.34,9.45-.99Z"/><path class="cls-4" d="m794.54,683.82c.22,2.06.33,4.16.33,6.28s-.11,4.21-.33,6.28c2.05-.22,4.13-.33,6.24-.33s4.19.12,6.24.33c-.22-2.06-.33-4.16-.33-6.28s.11-4.21.33-6.28c-2.05.22-4.13.33-6.24.33s-4.19-.12-6.24-.33Z"/><path class="cls-4" d="m286.93,696.37c-.22-2.06-.33-4.16-.33-6.28s.11-4.21.33-6.28c-2.05.22-4.13.33-6.24.33s-4.19-.12-6.24-.33c.22,2.06.33,4.16.33,6.28s-.11,4.21-.33,6.28c2.05-.22,4.13-.33,6.24-.33s4.19.12,6.24.33Z"/><path class="cls-4" d="m345.7,736.16c-25.3,0-45.8-20.62-45.8-46.06,0-2.56.22-5.07.62-7.52-4.22-3.12-8.17-5.96-11.74-8.4-.86,3.12-1.5,6.34-1.84,9.65-.22,2.06-.33,4.16-.33,6.28s.11,4.21.33,6.28c.51,4.88,1.6,9.58,3.21,14.03,5.96,16.49,18.97,29.57,35.37,35.57,4.43,1.62,9.1,2.72,13.95,3.23,2.05.22,4.13.33,6.24.33s4.19-.12,6.24-.33c4.85-.51,9.52-1.61,13.95-3.23,2.54-.93,4.98-2.04,7.34-3.3-3.5-3.16-7.14-6.4-10.87-9.67-5.17,2.03-10.78,3.16-16.67,3.16Z"/><path class="cls-4" d="m280.69,696.04c-2.11,0-4.19.12-6.24.33-.51,4.88-1.6,9.58-3.21,14.03,3.05-.64,6.21-.99,9.45-.99s6.4.34,9.45.99c-1.61-4.45-2.7-9.15-3.21-14.03-2.05-.22-4.13-.33-6.24-.33Z"/><path class="cls-4" d="m792.87,151.81c-.31-1.16-.64-2.3-1.02-3.43-3.51-.05-8.76-.88-15.34-2.33,3.02,5.91,4.81,12.57,5.02,19.62l11.33-13.86Z"/><path class="cls-4" d="m781.18,291.91c-1.3-10.14-2.09-10.46-8.84-17.42,3.28,7.71,3.71,7.48,8.84,17.42Z"/><path class="cls-4" d="m768.56,265.69c6.75,6.97,11.33,16.07,12.62,26.21,3.54,6.87,7.45,14.18,11.57,21.67.84-3.07,1.45-6.22,1.79-9.46.22-2.06.33-4.16.33-6.28s-.11-4.21-.33-6.28c-.51-4.88-1.6-9.58-3.21-14.03-4.81-13.3-14.21-24.39-26.28-31.32l-1.36,1.6c-1.32,1.55.68,8.16,4.87,17.88Z"/><path class="cls-4" d="m286.93,683.82c.35-3.31.98-6.53,1.84-9.65-1.86-1.27-3.61-2.43-5.25-3.48-.94.06-1.88.1-2.83.1-3.24,0-6.4-.34-9.45-.99,1.61,4.45,2.7,9.15,3.21,14.03,2.05.22,4.13.33,6.24.33s4.19-.12,6.24-.33Z"/><path class="cls-4" d="m776.51,146.05c-6.27-1.38-13.75-3.33-22.09-5.73,8.37,5.91,13.85,15.69,13.85,26.76,0,18.05-14.55,32.69-32.51,32.69s-32.51-14.64-32.51-32.69,14.08-32.2,31.63-32.67c-7.05-2.22-14.45-4.64-22.04-7.21-13.68,7.97-22.89,22.83-22.89,39.87,0,25.44,20.51,46.06,45.8,46.06,2.54,0,5.03-.22,7.46-.62l38.31-46.86c-.21-7.05-2-13.71-5.02-19.62Z"/><ellipse class="cls-4" cx="735.77" cy="167.08" rx="5.91" ry="5.94"/><path class="cls-4" d="m716.56,167.08c0,10.67,8.6,19.32,19.21,19.32s19.21-8.65,19.21-19.32-8.6-19.32-19.21-19.32-19.21,8.65-19.21,19.32Zm25.12,0c0,3.28-2.65,5.94-5.91,5.94s-5.91-2.66-5.91-5.94,2.65-5.94,5.91-5.94,5.91,2.66,5.91,5.94Z"/><path class="cls-4" d="m703.26,167.08c0,18.05,14.55,32.69,32.51,32.69s32.51-14.64,32.51-32.69c0-11.07-5.48-20.85-13.85-26.76-6.09-1.75-12.65-3.73-19.53-5.9-17.55.47-31.63,14.91-31.63,32.67Zm51.71,0c0,10.67-8.6,19.32-19.21,19.32s-19.21-8.65-19.21-19.32,8.6-19.32,19.21-19.32,19.21,8.65,19.21,19.32Z"/><path class="cls-4" d="m283.52,670.69c-7.43-4.76-12.57-7.22-14.14-6.28l-.33.19c.8,1.69,1.54,3.42,2.18,5.2,3.05.64,6.21.99,9.45.99.95,0,1.89-.04,2.83-.1Z"/><path class="cls-4" d="m345.7,736.16c5.88,0,11.5-1.13,16.67-3.16-3.98-3.49-8.05-7.01-12.18-10.53-1.47.2-2.97.32-4.49.32-17.22,0-31.3-13.47-32.43-30.5-4.45-3.47-8.72-6.72-12.76-9.71-.4,2.45-.62,4.96-.62,7.52,0,25.44,20.51,46.06,45.8,46.06Z"/><path class="cls-4" d="m345.7,722.79c1.52,0,3.02-.11,4.49-.32-12.41-10.58-25.22-21.08-36.91-30.18,1.12,17.03,15.2,30.5,32.43,30.5Z"/><path class="cls-4" d="m313.78,264.82c3.93-9.23,5.78-15.51,4.5-17.01l-1.53-1.79c-12.23,6.92-21.75,18.09-26.61,31.52-1.61,4.45-2.7,9.15-3.21,14.03-.22,2.06-.33,4.16-.33,6.28s.11,4.21.33,6.28c.36,3.46,1.03,6.82,1.95,10.08,3.99-7.24,7.78-14.32,11.25-21.01,1.11-11.09,6.13-21,13.65-28.36Z"/><path class="cls-4" d="m300.13,293.18c5.62-10.85,6.88-12.46,10.17-20.18-7.52,7.35-9.06,9.09-10.17,20.18Z"/><path class="cls-4" d="m271.24,710.4c1.61-4.45,2.7-9.15,3.21-14.03.22-2.06.33-4.16.33-6.28s-.11-4.21-.33-6.28c-.51-4.88-1.6-9.58-3.21-14.03-.64-1.78-1.38-3.5-2.18-5.2l-11.5,6.83c2.52,5.71,3.93,12.02,3.93,18.67,0,20.98-13.95,38.67-33.03,44.23,4.01,2.94,8.22,6.11,12.58,9.45,13.94-6.67,24.89-18.66,30.21-33.38Z"/><path class="cls-4" d="m325.51,745.97c-16.4-5.99-29.41-19.08-35.37-35.57-3.05-.64-6.21-.99-9.45-.99s-6.4.34-9.45.99c-5.32,14.72-16.26,26.7-30.21,33.38,2.51,1.92,5.07,3.9,7.67,5.93,2.71-15.3,16-26.92,31.99-26.92,17.95,0,32.51,14.64,32.51,32.69,0,13.7-8.38,25.42-20.27,30.28,1.07.91,2.14,1.82,3.21,2.73,6.94-10.73,17.22-19.07,29.37-23.51.64-3.07.98-6.25.98-9.5s-.34-6.44-.98-9.5Z"/><path class="cls-4" d="m261.48,690.1c0-6.65-1.41-12.96-3.93-18.67l-11.56,6.87c1.41,3.66,2.19,7.64,2.19,11.8,0,18.05-14.55,32.69-32.51,32.69-1.36,0-2.69-.09-4-.26,5,3.33,10.65,7.31,16.77,11.8,19.08-5.56,33.03-23.25,33.03-44.23Z"/><path class="cls-4" d="m299.9,755.47c0-10.67-8.6-19.32-19.21-19.32s-19.21,8.65-19.21,19.32c0,1.68.24,3.3.64,4.86,5.81,4.66,11.72,9.49,17.67,14.41.3.01.6.05.91.05,10.61,0,19.21-8.65,19.21-19.32Zm-25.12,0c0-3.28,2.65-5.94,5.91-5.94s5.91,2.66,5.91,5.94-2.65,5.94-5.91,5.94-5.91-2.66-5.91-5.94Z"/><path class="cls-4" d="m248.18,624.72c0-5.27,1.25-10.25,3.45-14.66-.08-1.09-.18-2.22-.28-3.37-4.67,3.57-9.88,6.47-15.49,8.52-.64,3.07-.98,6.25-.98,9.5s.34,6.44.98,9.5c2.3.84,4.52,1.83,6.67,2.94l6.79-3.85c-.74-2.74-1.14-5.62-1.14-8.6Z"/><path class="cls-4" d="m261.48,755.47c0-10.67,8.6-19.32,19.21-19.32s19.21,8.65,19.21,19.32-8.6,19.32-19.21,19.32c-.31,0-.6-.03-.91-.05,4.38,3.63,8.78,7.31,13.15,11.01,11.88-4.86,20.27-16.59,20.27-30.28,0-18.05-14.55-32.69-32.51-32.69-15.99,0-29.28,11.62-31.99,26.92,4.37,3.41,8.86,6.97,13.42,10.63-.4-1.55-.64-3.18-.64-4.86Z"/><ellipse class="cls-4" cx="280.69" cy="755.47" rx="5.91" ry="5.94"/><path class="cls-4" d="m215.68,540.03c-10.61,0-19.21,8.65-19.21,19.32s8.6,19.32,19.21,19.32,19.21-8.65,19.21-19.32-8.6-19.32-19.21-19.32Zm0,25.26c-3.26,0-5.91-2.66-5.91-5.94s2.65-5.94,5.91-5.94,5.91,2.66,5.91,5.94-2.65,5.94-5.91,5.94Z"/><path class="cls-4" d="m235.87,615.22c-4.43,1.62-9.1,2.72-13.95,3.23-.22,2.06-.33,4.16-.33,6.28s.11,4.21.33,6.28c4.85.51,9.52,1.61,13.95,3.23-.64-3.07-.98-6.25-.98-9.5s.34-6.44.98-9.5Z"/><ellipse class="cls-4" cx="215.68" cy="559.34" rx="5.91" ry="5.94"/><path class="cls-4" d="m215.68,592.03c-17.95,0-32.51-14.64-32.51-32.69s14.55-32.69,32.51-32.69c10.86,0,20.48,5.37,26.38,13.6-1.24-7.07-2.53-14.13-3.87-21.02-6.65-3.78-14.33-5.95-22.51-5.95-25.3,0-45.8,20.62-45.8,46.06s20.51,46.06,45.8,46.06c13.45,0,25.55-5.83,33.93-15.12-.81-6.66-1.79-13.8-2.89-21.22-4.11,13.31-16.46,22.97-31.05,22.97Z"/><path class="cls-4" d="m215.68,526.66c-17.95,0-32.51,14.64-32.51,32.69s14.55,32.69,32.51,32.69c14.59,0,26.93-9.66,31.05-22.97-1.38-9.32-2.96-19.07-4.67-28.81-5.9-8.23-15.51-13.6-26.38-13.6Zm0,52c-10.61,0-19.21-8.65-19.21-19.32s8.6-19.32,19.21-19.32,19.21,8.65,19.21,19.32-8.6,19.32-19.21,19.32Z"/><path class="cls-4" d="m209.44,618.45c-4.85-.51-9.52-1.61-13.95-3.23.64,3.07.98,6.25.98,9.5s-.34,6.44-.98,9.5c4.43-1.62,9.1-2.72,13.95-3.23.22-2.06.33-4.16.33-6.28s-.11-4.21-.33-6.28Z"/><path class="cls-4" d="m249.33,633.32l1.09-.62c1.99-1.13,2.21-9.73,1.22-22.64-2.2,4.41-3.45,9.39-3.45,14.66,0,2.98.4,5.86,1.14,8.6Z"/><path class="cls-4" d="m221.92,618.45c-2.05.22-4.13.33-6.24.33s-4.19-.12-6.24-.33c.22,2.06.33,4.16.33,6.28s-.11,4.21-.33,6.28c2.05-.22,4.13-.33,6.24-.33s4.19.12,6.24.33c-.22-2.06-.33-4.16-.33-6.28s.11-4.21.33-6.28Z"/><path class="cls-4" d="m678.1,807.86c.55-2.5,1.25-4.94,2.11-7.31-1.5.32-3.02.56-4.57.72l2.46,6.59Z"/><ellipse class="cls-4" cx="800.78" cy="755.47" rx="5.91" ry="5.94"/><path class="cls-4" d="m800.78,736.16c-10.61,0-19.21,8.65-19.21,19.32s8.6,19.32,19.21,19.32c.02,0,.03,0,.05,0,6.3-5.22,12.58-10.34,18.73-15.27.28-1.31.43-2.66.43-4.05,0-10.67-8.6-19.32-19.21-19.32Zm0,25.26c-3.26,0-5.91-2.66-5.91-5.94s2.65-5.94,5.91-5.94,5.91,2.66,5.91,5.94-2.65,5.94-5.91,5.94Z"/><path class="cls-4" d="m742.01,749.2c-2.05.22-4.13.33-6.24.33s-4.19-.12-6.24-.33c.22,2.06.33,4.16.33,6.28s-.11,4.21-.33,6.28c2.05-.22,4.13-.33,6.24-.33s4.19.12,6.24.33c-.22-2.06-.33-4.16-.33-6.28s.11-4.21.33-6.28Z"/><path class="cls-4" d="m729.53,749.2c-4.85-.51-9.52-1.61-13.95-3.23.64,3.07.98,6.25.98,9.5s-.34,6.44-.98,9.5c4.43-1.62,9.1-2.72,13.95-3.23.22-2.06.33-4.16.33-6.28s-.11-4.21-.33-6.28Z"/><path class="cls-4" d="m755.96,745.97c-4.43,1.62-9.1,2.72-13.95,3.23-.22,2.06-.33,4.16-.33,6.28s.11,4.21.33,6.28c4.85.51,9.52,1.61,13.95,3.23-.64-3.07-.98-6.25-.98-9.5s.34-6.44.98-9.5Z"/><path class="cls-4" d="m715.58,745.97c-2.72-.99-5.33-2.2-7.85-3.57-1.87,1.68-3.69,3.35-5.47,4.99.65,2.59,1,5.29,1,8.09,0,18.05-14.55,32.69-32.51,32.69,0,0,0,0-.01,0l4.89,13.11c1.55-.17,3.07-.41,4.57-.72,5.96-16.49,18.97-29.58,35.37-35.57.64-3.07.98-6.25.98-9.5s-.34-6.44-.98-9.5Z"/><path class="cls-4" d="m365.89,745.97c-4.43,1.62-9.1,2.72-13.95,3.23-.22,2.06-.33,4.16-.33,6.28s.11,4.21.33,6.28c4.85.51,9.52,1.61,13.95,3.23-.64-3.07-.98-6.25-.98-9.5s.34-6.44.98-9.5Z"/><path class="cls-4" d="m401.26,800.55c.71,1.95,1.29,3.96,1.8,6.01l2.01-5.38c-1.28-.16-2.56-.36-3.81-.62Z"/><path class="cls-4" d="m351.94,749.2c-2.05.22-4.13.33-6.24.33s-4.19-.12-6.24-.33c.22,2.06.33,4.16.33,6.28s-.11,4.21-.33,6.28c2.05-.22,4.13-.33,6.24-.33s4.19.12,6.24.33c-.22-2.06-.33-4.16-.33-6.28s.11-4.21.33-6.28Z"/><path class="cls-4" d="m339.46,749.2c-4.85-.51-9.52-1.61-13.95-3.23.64,3.07.98,6.25.98,9.5s-.34,6.44-.98,9.5c4.43-1.62,9.1-2.72,13.95-3.23.22-2.06.33-4.16.33-6.28s-.11-4.21-.33-6.28Z"/><path class="cls-4" d="m409.93,788.14c-17.59-.42-31.72-14.88-31.72-32.67,0-2.57.31-5.08.86-7.48-1.9-1.75-3.84-3.52-5.84-5.32-2.36,1.25-4.81,2.37-7.34,3.3-.64,3.07-.98,6.25-.98,9.5s.34,6.44.98,9.5c16.4,5.99,29.41,19.08,35.37,35.57,1.25.26,2.52.46,3.81.62l4.86-13.03Z"/><path class="cls-4" d="m526.94,791.2c1.7,2.96,3.16,6.08,4.34,9.35,3.05.64,6.21.99,9.45.99s6.4-.34,9.45-.99c1.18-3.26,2.64-6.37,4.34-9.34-9.13-.11-18.44-.11-27.58,0Z"/><path class="cls-4" d="m531.28,800.55c1.61,4.45,2.7,9.15,3.21,14.03,2.05.22,4.13.33,6.24.33s4.19-.12,6.24-.33c.51-4.88,1.6-9.58,3.21-14.03-3.05.64-6.21.99-9.45.99s-6.4-.34-9.45-.99Z"/><path class="cls-4" d="m534.49,814.58c.22,2.06.33,4.16.33,6.28s-.11,4.21-.33,6.28c2.05-.22,4.13-.33,6.24-.33s4.19.12,6.24.33c-.22-2.06-.33-4.16-.33-6.28s.11-4.21.33-6.28c-2.05.22-4.13.33-6.24.33s-4.19-.12-6.24-.33Z"/><path class="cls-4" d="m534.49,827.13c-.51,4.88-1.6,9.58-3.21,14.03,3.05-.64,6.21-.99,9.45-.99s6.4.34,9.45.99c-1.61-4.45-2.7-9.15-3.21-14.03-2.05-.22-4.13-.33-6.24-.33s-4.19.12-6.24.33Z"/><path class="cls-4" d="m384.99,212.49c10.53-3.16,22.5-7.08,34.87-11.39-2.9-.85-5.97-1.32-9.15-1.32-10.47,0-19.78,4.98-25.72,12.71Z"/><path class="cls-4" d="m416.95,160.81c.51-4.88,1.6-9.58,3.21-14.03-3.05.64-6.21.99-9.45.99s-6.4-.34-9.45-.99c1.61,4.45,2.7,9.15,3.21,14.03,2.05.22,4.13.33,6.24.33s4.19-.12,6.24-.33Z"/><ellipse class="cls-4" cx="345.7" cy="167.08" rx="5.91" ry="5.94"/><path class="cls-4" d="m416.95,173.36c-.22-2.06-.33-4.16-.33-6.28s.11-4.21.33-6.28c-2.05.22-4.13.33-6.24.33s-4.19-.12-6.24-.33c.22,2.06.33,4.16.33,6.28s-.11,4.21-.33,6.28c2.05-.22,4.13-.33,6.24-.33s4.19.12,6.24.33Z"/><path class="cls-4" d="m420.16,187.39c-1.61-4.45-2.7-9.15-3.21-14.03-2.05-.22-4.13-.33-6.24-.33s-4.19.12-6.24.33c-.51,4.88-1.6,9.58-3.21,14.03,3.05-.64,6.21-.99,9.45-.99s6.4.34,9.45.99Z"/><path class="cls-4" d="m410.71,199.77c3.18,0,6.24.47,9.15,1.32,1.99-.69,3.99-1.4,6-2.11-2.29-3.62-4.21-7.5-5.69-11.6-3.05-.64-6.21-.99-9.45-.99s-6.4.34-9.45.99c-3.66,10.12-9.97,18.94-18.09,25.64.6-.18,1.21-.36,1.82-.54,5.95-7.73,15.25-12.71,25.72-12.71Z"/><path class="cls-4" d="m670.76,199.77c-2.45,0-4.83.28-7.12.8,11.1,3.88,21.89,7.46,31.67,10.48-5.96-6.91-14.75-11.28-24.55-11.28Z"/><path class="cls-4" d="m677,173.36c-.22-2.06-.33-4.16-.33-6.28s.11-4.21.33-6.28c-2.05.22-4.13.33-6.24.33s-4.19-.12-6.24-.33c.22,2.06.33,4.16.33,6.28s-.11,4.21-.33,6.28c2.05-.22,4.13-.33,6.24-.33s4.19.12,6.24.33Z"/><path class="cls-4" d="m680.21,187.39c-1.61-4.45-2.7-9.15-3.21-14.03-2.05-.22-4.13-.33-6.24-.33s-4.19.12-6.24.33c-.51,4.88-1.6,9.58-3.21,14.03,3.05-.64,6.21-.99,9.45-.99s6.4.34,9.45.99Z"/><path class="cls-4" d="m677,160.81c.51-4.88,1.6-9.58,3.21-14.03-3.05.64-6.21.99-9.45.99s-6.4-.34-9.45-.99c1.61,4.45,2.7,9.15,3.21,14.03,2.05.22,4.13.33,6.24.33s4.19-.12,6.24-.33Z"/><path class="cls-4" d="m670.76,199.77c9.81,0,18.59,4.37,24.55,11.28.35.11.71.22,1.06.33-7.19-6.47-12.8-14.69-16.16-23.99-3.05-.64-6.21-.99-9.45-.99s-6.4.34-9.45.99c-1.34,3.71-3.06,7.24-5.07,10.56,2.48.89,4.95,1.76,7.4,2.62,2.29-.52,4.67-.8,7.12-.8Z"/><path class="cls-4" d="m345.7,186.4c10.61,0,19.21-8.65,19.21-19.32s-8.6-19.32-19.21-19.32-19.21,8.65-19.21,19.32,8.6,19.32,19.21,19.32Zm0-25.26c3.26,0,5.91,2.66,5.91,5.94s-2.65,5.94-5.91,5.94-5.91-2.66-5.91-5.94,2.65-5.94,5.91-5.94Z"/><path class="cls-4" d="m221.92,356.94c-2.05.22-4.13.33-6.24.33s-4.19-.12-6.24-.33c.22,2.06.33,4.16.33,6.28s-.11,4.21-.33,6.28c2.05-.22,4.13-.33,6.24-.33s4.19.12,6.24.33c-.22-2.06-.33-4.16-.33-6.28s.11-4.21.33-6.28Z"/><path class="cls-4" d="m209.44,356.94c-4.85-.51-9.52-1.61-13.95-3.23.64,3.07.98,6.25.98,9.5s-.34,6.44-.98,9.5c4.43-1.62,9.1-2.72,13.95-3.23.22-2.06.33-4.16.33-6.28s-.11-4.21-.33-6.28Z"/><path class="cls-4" d="m235.87,353.71c-4.43,1.62-9.1,2.72-13.95,3.23-.22,2.06-.33,4.16-.33,6.28s.11,4.21.33,6.28c4.85.51,9.52,1.61,13.95,3.23-.64-3.07-.98-6.25-.98-9.5s.34-6.44.98-9.5Z"/><path class="cls-4" d="m248.18,363.21c0-17.72,14.02-32.13,31.51-32.66,2.47-4.32,4.92-8.66,7.3-12.95-2.06-.29-4.16-.45-6.31-.45-3.24,0-6.4.34-9.45.99-5.96,16.49-18.97,29.58-35.37,35.57-.64,3.07-.98,6.25-.98,9.5s.34,6.44.98,9.5c4.94,1.81,9.56,4.26,13.79,7.25.57-.86,1.14-1.74,1.72-2.63-2.04-4.28-3.19-9.07-3.19-14.13Z"/><path class="cls-4" d="m286.93,304.11c-.22-2.06-.33-4.16-.33-6.28s.11-4.21.33-6.28c-2.05.22-4.13.33-6.24.33s-4.19-.12-6.24-.33c.22,2.06.33,4.16.33,6.28s-.11,4.21-.33,6.28c2.05-.22,4.13-.33,6.24-.33s4.19.12,6.24.33Z"/><path class="cls-4" d="m286.93,291.56c.51-4.88,1.6-9.58,3.21-14.03-3.05.64-6.21.99-9.45.99s-6.4-.34-9.45-.99c1.61,4.45,2.7,9.15,3.21,14.03,2.05.22,4.13.33,6.24.33s4.19-.12,6.24-.33Z"/><path class="cls-4" d="m215.68,461.28c-12.45,0-23.27-7.05-28.73-17.39l-15.29-2.55c5.5,19.24,23.12,33.31,44.01,33.31,4.23,0,8.32-.59,12.21-1.67-1.31-4.92-2.58-9.25-3.79-12.82-2.69.72-5.51,1.12-8.43,1.12Z"/><path class="cls-4" d="m286.99,317.6c.63-1.14,1.26-2.28,1.89-3.42-.92-3.25-1.59-6.62-1.95-10.08-2.05-.22-4.13-.33-6.24-.33s-4.19.12-6.24.33c-.51,4.88-1.6,9.58-3.21,14.03,3.05-.64,6.21-.99,9.45-.99,2.14,0,4.24.16,6.31.45Z"/><path class="cls-4" d="m215.68,395.9c6.88,0,13.26,2.16,18.52,5.83,2.34-2.88,5.03-6.5,7.98-10.7-7.48-5.35-16.62-8.5-26.5-8.5-14.81,0-27.97,7.08-36.34,18.04l15.53,2.92c5.64-4.73,12.9-7.59,20.82-7.59Z"/><path class="cls-4" d="m290.14,277.53c4.85-13.43,14.38-24.59,26.61-31.52l-4.58-5.38c-3.61,14.1-16.34,24.51-31.48,24.51-17.95,0-32.51-14.64-32.51-32.69,0-16.97,12.86-30.92,29.32-32.53l-7.68-9.02c-5.51,12.65-15.27,22.99-27.47,29.21-2.29,4.68-4.77,9.6-7.4,14.72.12,2.43.44,4.81.92,7.13,16.4,5.99,29.41,19.08,35.37,35.57,3.05.64,6.21.99,9.45.99s6.4-.34,9.45-.99Z"/><path class="cls-4" d="m194.86,403.49l30.73,5.77c1.5.28,4.53-2.51,8.61-7.52-5.26-3.67-11.64-5.83-18.52-5.83-7.92,0-15.18,2.85-20.82,7.59Z"/><path class="cls-4" d="m218.23,449.11l-31.28-5.22c5.46,10.34,16.27,17.39,28.73,17.39,2.91,0,5.74-.39,8.43-1.12-2.27-6.72-4.29-10.79-5.88-11.05Z"/><path class="cls-4" d="m231.91,240.69c1.34.38,2.66.8,3.96,1.27-.48-2.32-.8-4.7-.92-7.13-.99,1.93-2,3.88-3.04,5.85Z"/><path class="cls-4" d="m316.71,181.87c-2.25-4.44-3.52-9.46-3.52-14.79,0-10.13,4.59-19.19,11.79-25.19-7.86,2.16-14.78,3.86-20.45,4.98-2.22,4.57-3.71,9.56-4.32,14.82l16.5,20.18Z"/><path class="cls-4" d="m289.73,148.04c2.42.73,7.59.26,14.81-1.16-2.22,4.56-3.71,9.56-4.31,14.82l-10.69-13.07"/><path class="cls-4" d="m378.21,167.08c0,18.05-14.55,32.69-32.51,32.69-7.57,0-14.53-2.61-20.05-6.97l16.51,20.19c1.17.09,2.35.15,3.54.15,25.3,0,45.8-20.62,45.8-46.06,0-16.51-8.64-30.98-21.62-39.11-7.03,2.36-13.88,4.59-20.42,6.65,16.18,1.88,28.74,15.69,28.74,32.46Z"/><path class="cls-4" d="m345.7,199.77c17.95,0,32.51-14.64,32.51-32.69,0-16.77-12.56-30.58-28.74-32.46-8.8,2.77-17.06,5.23-24.48,7.28-7.2,6-11.79,15.05-11.79,25.19,0,5.32,1.27,10.35,3.52,14.79l8.94,10.93c5.52,4.36,12.48,6.97,20.05,6.97Zm0-52c10.61,0,19.21,8.65,19.21,19.32s-8.6,19.32-19.21,19.32-19.21-8.65-19.21-19.32,8.6-19.32,19.21-19.32Z"/><path class="cls-4" d="m269.82,190.91l-9.06-10.64c-.92,3.39-3.1,5.58-4.73,8.61-2.67,7.71-7.47,18.54-13.69,31.24,12.2-6.22,21.96-16.56,27.47-29.21Z"/><path class="cls-4" d="m215.68,317.15c10.61,0,19.21-8.65,19.21-19.32s-8.6-19.32-19.21-19.32c-1.62,0-3.19.22-4.69.61-4.51,8-9.14,16.04-13.78,23.94,2.27,8.12,9.67,14.08,18.47,14.08Zm0-25.26c3.26,0,5.91,2.66,5.91,5.94s-2.65,5.94-5.91,5.94-5.91-2.66-5.91-5.94,2.65-5.94,5.91-5.94Z"/><path class="cls-4" d="m221.92,487.69c-.22,2.06-.33,4.16-.33,6.28s.11,4.21.33,6.28c4.52.48,8.88,1.48,13.03,2.93-1.27-6.06-2.56-11.84-3.83-17.23-2.99.81-6.06,1.42-9.21,1.75Z"/><ellipse class="cls-4" cx="215.68" cy="297.84" rx="5.91" ry="5.94"/><path class="cls-4" d="m221.92,487.69c-2.05.22-4.13.33-6.24.33s-4.19-.12-6.24-.33c.22,2.06.33,4.16.33,6.28s-.11,4.21-.33,6.28c2.05-.22,4.13-.33,6.24-.33s4.19.12,6.24.33c-.22-2.06-.33-4.16-.33-6.28s.11-4.21.33-6.28Z"/><path class="cls-4" d="m215.68,644.04c-20.91,0-35.78,12.53-41.27,31.78l53.22-30.19c-3.81-1.03-7.81-1.59-11.94-1.59Z"/><path class="cls-4" d="m257.85,176.85c1.15,1.35.4,5.61-1.82,12.03,1.62-3.03,2.91-6.27,3.83-9.67l-2.01-2.36Z"/><path class="cls-4" d="m215.68,330.53c17.95,0,32.51-14.64,32.51-32.69,0-17.03-12.95-31.01-29.49-32.54-2.52,4.58-5.1,9.2-7.71,13.83,1.51-.38,3.07-.61,4.69-.61,10.61,0,19.21,8.65,19.21,19.32s-8.6,19.32-19.21,19.32c-8.8,0-16.2-5.96-18.47-14.08-2.7,4.59-5.4,9.14-8.08,13.61,5.89,8.38,15.58,13.85,26.56,13.85Z"/><path class="cls-4" d="m345.7,788.16c17.95,0,32.51,14.64,32.51,32.69,0,12.01-6.45,22.5-16.04,28.18,3.55,3.69,6.63,7.05,9.14,10.01,12.19-8.28,20.2-22.3,20.2-38.2,0-25.44-20.51-46.06-45.8-46.06-16.72,0-31.34,9.02-39.34,22.47,3.47,3.01,6.9,6.01,10.27,8.98,5.34-10.72,16.35-18.08,29.08-18.08Z"/><path class="cls-4" d="m248.18,297.84c0,18.05-14.55,32.69-32.51,32.69-10.97,0-20.67-5.47-26.56-13.85-2.47,4.12-4.93,8.16-7.37,12.11,8.38,9.28,20.47,15.11,33.92,15.11,25.3,0,45.8-20.62,45.8-46.06,0-22.06-15.42-40.48-36.01-44.99-2.2,4.09-4.46,8.25-6.78,12.45,16.54,1.53,29.49,15.51,29.49,32.54Z"/><path class="cls-4" d="m605.74,866.91c18.52,0,34.45-11.06,41.67-26.95l-14.4-41.06c-.37-1.04-2.17-2.37-6.07-2.81,6.92,5.99,11.3,14.86,11.3,24.76,0,18.05-14.55,32.69-32.51,32.69s-32.51-14.64-32.51-32.69c0-12.3,6.76-23.01,16.74-28.59-6.16-.31-12.73-.56-19.55-.74-6.55,7.97-10.49,18.19-10.49,29.33,0,25.44,20.51,46.06,45.8,46.06Z"/><path class="cls-4" d="m865.79,722.79c1.02,0,2.04-.05,3.04-.15,10.46-6.96,18.12-11.07,21.38-10.97.07-.08.14-.17.21-.25l-11.78-7c-3.41,3.09-7.9,4.99-12.85,4.99-10.61,0-19.21-8.65-19.21-19.32,0-1.52.19-2.99.52-4.41l-11.78-7c-1.32,3.55-2.04,7.4-2.04,11.41,0,18.05,14.55,32.69,32.51,32.69Z"/><ellipse class="cls-4" cx="475.72" cy="820.85" rx="5.91" ry="5.94"/><path class="cls-4" d="m475.72,840.17c10.61,0,19.21-8.65,19.21-19.32s-8.6-19.32-19.21-19.32-19.21,8.65-19.21,19.32,8.6,19.32,19.21,19.32Zm0-25.26c3.26,0,5.91,2.66,5.91,5.94s-2.65,5.94-5.91,5.94-5.91-2.66-5.91-5.94,2.65-5.94,5.91-5.94Z"/><path class="cls-4" d="m586.54,820.85c0,10.67,8.6,19.32,19.21,19.32s19.21-8.65,19.21-19.32-8.6-19.32-19.21-19.32-19.21,8.65-19.21,19.32Zm19.21-5.94c3.26,0,5.91,2.66,5.91,5.94s-2.65,5.94-5.91,5.94-5.91-2.66-5.91-5.94,2.65-5.94,5.91-5.94Z"/><path class="cls-4" d="m573.24,820.85c0,18.05,14.55,32.69,32.51,32.69s32.51-14.64,32.51-32.69c0-9.9-4.38-18.77-11.3-24.76-7.34-1.72-20.7-3-36.97-3.82-9.98,5.58-16.74,16.29-16.74,28.59Zm51.71,0c0,10.67-8.6,19.32-19.21,19.32s-19.21-8.65-19.21-19.32,8.6-19.32,19.21-19.32,19.21,8.65,19.21,19.32Z"/><path class="cls-4" d="m364.91,820.85c0-10.67-8.6-19.32-19.21-19.32-8.83,0-16.24,5.99-18.49,14.15,9.17,8.27,17.64,16.18,24.97,23.33,7.41-2.68,12.73-9.79,12.73-18.16Zm-19.21,5.94c-3.26,0-5.91-2.66-5.91-5.94s2.65-5.94,5.91-5.94,5.91,2.66,5.91,5.94-2.65,5.94-5.91,5.94Z"/><path class="cls-4" d="m443.22,820.85c0,18.05,14.55,32.69,32.51,32.69s32.51-14.64,32.51-32.69c0-12.33-6.79-23.06-16.81-28.63-15.82.78-28.97,1.99-36.62,3.61-7.08,6-11.59,14.97-11.59,25.01Zm32.51-19.32c10.61,0,19.21,8.65,19.21,19.32s-8.6,19.32-19.21,19.32-19.21-8.65-19.21-19.32,8.6-19.32,19.21-19.32Z"/><path class="cls-4" d="m378.21,820.85c0-18.05-14.55-32.69-32.51-32.69-12.73,0-23.74,7.36-29.08,18.08,3.61,3.19,7.14,6.34,10.58,9.45,2.25-8.15,9.67-14.15,18.49-14.15,10.61,0,19.21,8.65,19.21,19.32,0,8.38-5.31,15.49-12.73,18.16,3.63,3.54,6.97,6.9,9.98,10.02,9.6-5.68,16.04-16.17,16.04-28.18Z"/><path class="cls-4" d="m508.23,820.85c0,18.05-14.55,32.69-32.51,32.69s-32.51-14.64-32.51-32.69c0-10.04,4.5-19.02,11.59-25.01-5.41.68-6.76,1.91-7.16,3.06l-14.05,40.06c7,16.44,23.22,27.96,42.12,27.96,25.3,0,45.8-20.62,45.8-46.06,0-11.16-3.94-21.38-10.51-29.35-6.83.18-13.42.42-19.6.73,10.02,5.57,16.81,16.3,16.81,28.63Z"/><ellipse class="cls-4" cx="345.7" cy="820.85" rx="5.91" ry="5.94"/><path class="cls-4" d="m819.7,360.04c3.64,5.94,7.2,11.61,10.6,16.85,1.91-4.16,2.98-8.79,2.98-13.68,0-17.55-13.75-31.86-31.01-32.65,3.32,5.8,6.69,11.59,10.05,17.24,3.85,2.92,6.56,7.25,7.38,12.24Z"/><path class="cls-4" d="m812.32,347.8c2.48,4.17,4.95,8.26,7.38,12.24-.82-4.99-3.53-9.32-7.38-12.24Z"/><path class="cls-4" d="m289.73,148.04c-.58-.18-1.01-.42-1.27-.73l1.08,1.32"/><ellipse class="cls-4" cx="605.74" cy="820.85" rx="5.91" ry="5.94"/><path class="cls-4" d="m800.78,265.15c17.95,0,32.51-14.64,32.51-32.69,0-16.82-12.63-30.66-28.87-32.48l-13.63,16c2.91-1.79,6.32-2.84,9.99-2.84,10.61,0,19.21,8.65,19.21,19.32s-8.6,19.32-19.21,19.32-19.21-8.65-19.21-19.32c0-2.6.52-5.08,1.45-7.35l-13.59,15.96c3.76,13.87,16.37,24.07,31.36,24.07Z"/><line class="cls-4" x1="783.02" y1="225.11" x2="790.79" y2="215.98"/><path class="cls-4" d="m861.62,694.31l-14.52-8.63c-.33,1.42-.52,2.89-.52,4.41,0,10.67,8.6,19.32,19.21,19.32,4.95,0,9.45-1.9,12.85-4.99l-14.61-8.68c-.92-.29-1.75-.77-2.41-1.43Z"/><path class="cls-4" d="m861.62,694.31c.66.66,1.5,1.15,2.41,1.43l-2.41-1.43Z"/><path class="cls-4" d="m891.27,711.92l-.85-.51c-.07.08-.14.17-.21.25.43.01.79.09,1.06.26Z"/><path class="cls-4" d="m475.72,134.4c-17.95,0-32.51,14.64-32.51,32.69,0,8.62,3.32,16.46,8.75,22.3,4.84-1.85,9.6-3.7,14.23-5.54-5.78-3.33-9.68-9.58-9.68-16.76,0-10.67,8.6-19.32,19.21-19.32s19.21,8.65,19.21,19.32c0,1.72-.24,3.37-.66,4.96,5.26-2.37,9.96-4.6,13.92-6.64-.87-17.27-15.07-31.01-32.46-31.01Z"/><path class="cls-4" d="m443.22,167.08c0-18.05,14.55-32.69,32.51-32.69s31.59,13.74,32.46,31.01c6.11-3.14,10.45-5.82,12.37-7.78-4.34-20.9-22.76-36.6-44.83-36.6-25.3,0-45.8,20.62-45.8,46.06,0,10.19,3.3,19.6,8.87,27.23,4.42-1.63,8.83-3.28,13.18-4.93-5.42-5.84-8.75-13.68-8.75-22.3Z"/><path class="cls-4" d="m781.57,232.46c0,10.67,8.6,19.32,19.21,19.32s19.21-8.65,19.21-19.32-8.6-19.32-19.21-19.32c-3.66,0-7.07,1.05-9.99,2.84l-7.77,9.13c-.93,2.27-1.45,4.74-1.45,7.35Zm19.21-5.94c3.26,0,5.91,2.66,5.91,5.94s-2.65,5.94-5.91,5.94-5.91-2.66-5.91-5.94,2.65-5.94,5.91-5.94Z"/><ellipse class="cls-4" cx="475.72" cy="167.08" rx="5.91" ry="5.94"/><path class="cls-4" d="m494.93,167.08c0-10.67-8.6-19.32-19.21-19.32s-19.21,8.65-19.21,19.32c0,7.18,3.9,13.43,9.68,16.76,10.27-4.09,19.85-8.1,28.07-11.8.42-1.59.66-3.24.66-4.96Zm-19.21,5.94c-3.26,0-5.91-2.66-5.91-5.94s2.65-5.94,5.91-5.94,5.91,2.66,5.91,5.94-2.65,5.94-5.91,5.94Z"/><path class="cls-4" d="m605.74,121.02c-19.1,0-35.46,11.76-42.33,28.46l-.06,6.23c-.02,1.64,3.72,4.41,10.08,7.89,1.73-16.42,15.54-29.21,32.32-29.21,17.95,0,32.51,14.64,32.51,32.69,0,8.13-2.96,15.57-7.85,21.29,4.28,1.65,8.63,3.29,13.01,4.91,5.13-7.44,8.14-16.46,8.14-26.2,0-25.44-20.51-46.06-45.8-46.06Z"/><ellipse class="cls-4" cx="800.78" cy="232.46" rx="5.91" ry="5.94"/><ellipse class="cls-4" cx="605.74" cy="167.08" rx="5.91" ry="5.94"/><path class="cls-4" d="m624.95,167.08c0-10.67-8.6-19.32-19.21-19.32s-19.21,8.65-19.21,19.32c0,1.08.11,2.14.28,3.18,8.47,3.92,18.71,8.27,29.83,12.72,5.02-3.48,8.31-9.3,8.31-15.9Zm-19.21,5.94c-3.26,0-5.91-2.66-5.91-5.94s2.65-5.94,5.91-5.94,5.91,2.66,5.91,5.94-2.65,5.94-5.91,5.94Z"/><path class="cls-4" d="m586.54,167.08c0-10.67,8.6-19.32,19.21-19.32s19.21,8.65,19.21,19.32c0,6.6-3.29,12.41-8.31,15.9,4.46,1.79,9.07,3.59,13.76,5.39,4.89-5.72,7.85-13.15,7.85-21.29,0-18.05-14.55-32.69-32.51-32.69-16.78,0-30.59,12.79-32.32,29.21,3.66,2.01,8.19,4.25,13.39,6.66-.17-1.04-.28-2.09-.28-3.18Z"/><path class="cls-4" d="m911.59,493.97c0-10.67,8.6-19.32,19.21-19.32,2.29,0,4.47.42,6.51,1.16,1.09-4.59,2.18-8.95,3.24-13.04-3.08-.97-6.35-1.5-9.75-1.5-17.95,0-32.51,14.64-32.51,32.69,0,16.63,12.35,30.35,28.33,32.41.85-4.45,1.7-8.85,2.57-13.18-9.85-.82-17.6-9.11-17.6-19.23Z"/><path class="cls-4" d="m911.59,493.97c0,10.12,7.75,18.41,17.6,19.23.91-4.56,1.83-9.03,2.75-13.41-.37.07-.75.12-1.15.12-3.26,0-5.91-2.66-5.91-5.94s2.65-5.94,5.91-5.94c1.29,0,2.47.43,3.45,1.13,1.02-4.62,2.05-9.08,3.06-13.34-2.03-.74-4.22-1.16-6.51-1.16-10.61,0-19.21,8.65-19.21,19.32Z"/><path class="cls-4" d="m930.8,447.91c3.24,0,6.4.34,9.45.99-1.61-4.45-2.7-9.15-3.21-14.03-2.05-.22-4.13-.33-6.24-.33s-4.19.12-6.24.33c-.51,4.88-1.6,9.58-3.21,14.03,3.05-.64,6.21-.99,9.45-.99Z"/><path class="cls-4" d="m924.18,539.54c-.95-.14-1.9-.3-2.83-.49.72,1.98,1.31,4.03,1.82,6.1.33-1.87.67-3.74,1.01-5.61Z"/><path class="cls-4" d="m930.8,488.02c-3.26,0-5.91,2.66-5.91,5.94s2.65,5.94,5.91,5.94c.39,0,.78-.04,1.15-.12.77-3.63,1.53-7.18,2.3-10.64-.97-.71-2.16-1.13-3.45-1.13Z"/><path class="cls-4" d="m702.09,869.67c-.29.84-.35,1.52-.17,2.02l-1.08-2.92"/><path class="cls-4" d="m946.39,391.91c.5.2.94.27,1.31.21l-2.68.5"/><path class="cls-4" d="m954.08,428.5l-4.06.68c.02,1.34.08,2.67.21,3.98,1.42-2.84,2.72-4.47,3.85-4.66Z"/><path class="cls-4" d="m379.53,869.56l-.79,2.13c.15-.4.13-.93-.03-1.56"/><path class="cls-4" d="m578.03,73c4.54,3.48,9.75,6.11,15.39,7.7-5.9-2.76-11.08-5.35-15.39-7.7Z"/><path class="cls-4" d="m735.77,774.79c-25.3,0-45.8,20.62-45.8,46.06,0,15.68,7.8,29.52,19.7,37.84,2.53-2.95,5.6-6.3,9.13-9.96-9.32-5.75-15.53-16.08-15.53-27.88,0-18.05,14.55-32.69,32.51-32.69,12.53,0,23.4,7.14,28.83,17.59,3.36-2.96,6.78-5.95,10.24-8.95-8.05-13.2-22.54-22.01-39.07-22.01Z"/><path class="cls-4" d="m125.98,433.58c1.12.19,3.01,2.03,4.42,4.84.27-1.27.49-2.55.66-3.85l-5.08-.98Z"/><path class="cls-4" d="m819.99,297.84c0,25.44,20.51,46.06,45.8,46.06,13.61,0,25.82-5.97,34.21-15.45-2.44-3.96-4.91-8.02-7.39-12.15-5.86,8.59-15.69,14.23-26.83,14.23-17.95,0-32.51-14.64-32.51-32.69s13.2-31.28,29.97-32.58c-2.32-4.22-4.6-8.4-6.81-12.52-20.81,4.34-36.45,22.88-36.45,45.1Z"/><path class="cls-4" d="m865.79,317.15c-10.61,0-19.21-8.65-19.21-19.32s8.6-19.32,19.21-19.32c1.83,0,3.6.27,5.28.76-2.65-4.7-5.26-9.38-7.82-14.02-16.76,1.3-29.97,15.39-29.97,32.58,0,18.05,14.55,32.69,32.51,32.69,11.14,0,20.97-5.64,26.83-14.23-2.72-4.53-5.46-9.15-8.2-13.82-2.07,8.42-9.61,14.67-18.63,14.67Z"/><path class="cls-4" d="m824.42,176.5l-2.69,3.16c1.16,4.11,2.86,7.99,5.04,11.54-2.86-7.71-3.63-13.19-2.35-14.7Z"/><ellipse class="cls-4" cx="865.79" cy="297.84" rx="5.91" ry="5.94"/><path class="cls-4" d="m846.58,297.84c0,10.67,8.6,19.32,19.21,19.32,9.01,0,16.56-6.25,18.63-14.67-4.49-7.66-8.97-15.45-13.35-23.2-1.68-.48-3.44-.76-5.28-.76-10.61,0-19.21,8.65-19.21,19.32Zm25.12,0c0,3.28-2.65,5.94-5.91,5.94s-5.91-2.66-5.91-5.94,2.65-5.94,5.91-5.94,5.91,2.66,5.91,5.94Z"/><path class="cls-4" d="m728.7,838.8c-7.11-2.83-12.14-9.79-12.14-17.95,0-10.67,8.6-19.32,19.21-19.32,8.62,0,15.91,5.7,18.34,13.56,3.41-3.07,6.91-6.2,10.49-9.35-5.42-10.45-16.29-17.59-28.83-17.59-17.95,0-32.51,14.64-32.51,32.69,0,11.8,6.22,22.13,15.53,27.88,2.99-3.1,6.31-6.43,9.91-9.93Z"/><path class="cls-4" d="m865.79,644.04c-1.89,0-3.74.13-5.57.35l47.36,26.86c-7.16-16.04-23.17-27.21-41.79-27.21Z"/><ellipse class="cls-4" cx="735.77" cy="820.85" rx="5.91" ry="5.94"/><path class="cls-4" d="m735.77,801.54c-10.61,0-19.21,8.65-19.21,19.32,0,8.16,5.04,15.12,12.14,17.95,7.45-7.27,16.08-15.3,25.4-23.7-2.44-7.86-9.73-13.56-18.34-13.56Zm0,25.26c-3.26,0-5.91-2.66-5.91-5.94s2.65-5.94,5.91-5.94,5.91,2.66,5.91,5.94-2.65,5.94-5.91,5.94Z"/><path class="cls-4" d="m155.56,539.76c.61,3.3,1.21,6.62,1.81,9.94.6-3.68,1.52-7.25,2.76-10.66-1.5.32-3.02.56-4.56.72Z"/><path class="cls-4" d="m183.17,493.97c0-18.05-14.55-32.69-32.51-32.69-4.15,0-8.12.79-11.77,2.22,1.11,4.06,2.23,8.45,3.38,13.12,2.54-1.24,5.38-1.96,8.4-1.96,10.61,0,19.21,8.65,19.21,19.32s-8.6,19.32-19.21,19.32c-.09,0-.17-.01-.25-.01.89,4.36,1.77,8.79,2.64,13.29,16.84-1.23,30.12-15.35,30.12-32.59Z"/><path class="cls-4" d="m156.58,493.97c0-3.28-2.65-5.94-5.91-5.94-2.15,0-4.01,1.16-5.04,2.88.59,2.61,1.18,5.28,1.77,8,.94.63,2.06,1,3.27,1,3.26,0,5.91-2.66,5.91-5.94Z"/><path class="cls-4" d="m150.67,488.02c3.26,0,5.91,2.66,5.91,5.94s-2.65,5.94-5.91,5.94c-1.21,0-2.34-.37-3.27-1,1.01,4.66,2.02,9.45,3.02,14.36.09,0,.17.01.25.01,10.61,0,19.21-8.65,19.21-19.32s-8.6-19.32-19.21-19.32c-3.01,0-5.86.72-8.4,1.96,1.11,4.53,2.23,9.31,3.35,14.29,1.04-1.72,2.9-2.88,5.04-2.88Z"/><path class="cls-4" d="m508.23,101.71c0,10.76,5.17,20.3,13.15,26.26l-.52-52.12c-7.68,5.98-12.63,15.33-12.63,25.86Z"/><path class="cls-4" d="m796.54,147.31c-.07.08-.15.16-.24.23.02,0,.03,0,.05,0l.19-.23Z"/><path class="cls-4" d="m573.24,101.71c0-8.82-3.48-16.82-9.13-22.7l-.46,45.87c5.92-5.92,9.58-14.12,9.58-23.17Z"/><path class="cls-4" d="m136.16,392.47l-1.9-.35c.3.06,2.61.47,2.99.35"/><path class="cls-4" d="m800.78,774.79c-10.61,0-19.21-8.65-19.21-19.32s8.6-19.32,19.21-19.32,19.21,8.65,19.21,19.32c0,1.39-.15,2.74-.43,4.05,4.46-3.57,8.84-7.04,13.11-10.37-2.93-15.03-16.09-26.37-31.89-26.37-17.95,0-32.51,14.64-32.51,32.69,0,13.49,8.13,25.07,19.73,30.06,4.26-3.61,8.55-7.2,12.83-10.75-.02,0-.03,0-.05,0Z"/><path class="cls-4" d="m248.18,363.21c0,5.06,1.14,9.85,3.19,14.13,3.28-5.05,6.71-10.51,10.23-16.23.63-5.83,3.83-10.88,8.44-13.97,3.23-5.45,6.47-11.01,9.66-16.59-17.49.53-31.51,14.94-31.51,32.66Z"/><path class="cls-4" d="m291.81,216.73l6.05,7.1c-2.2-2.13-5.61-6.76-6.05-7.1Z"/><ellipse class="cls-4" cx="280.69" cy="232.46" rx="5.91" ry="5.94"/><path class="cls-4" d="m261.48,232.46c0,10.67,8.6,19.32,19.21,19.32s19.21-8.65,19.21-19.32c0-3.11-.75-6.03-2.04-8.63l-6.05-7.1c-3.14-2.25-6.97-3.58-11.12-3.58-10.61,0-19.21,8.65-19.21,19.32Zm25.12,0c0,3.28-2.65,5.94-5.91,5.94s-5.91-2.66-5.91-5.94,2.65-5.94,5.91-5.94,5.91,2.66,5.91,5.94Z"/><path class="cls-4" d="m299.9,232.46c0,10.67-8.6,19.32-19.21,19.32s-19.21-8.65-19.21-19.32,8.6-19.32,19.21-19.32c4.15,0,7.98,1.34,11.12,3.58l-14.3-16.8c-16.46,1.61-29.32,15.56-29.32,32.53,0,18.05,14.55,32.69,32.51,32.69,15.14,0,27.87-10.41,31.48-24.51l-14.31-16.81c1.3,2.6,2.04,5.52,2.04,8.63Z"/><path class="cls-4" d="m261.6,361.12c2.78-4.52,5.6-9.2,8.44-13.97-4.61,3.1-7.81,8.15-8.44,13.97Z"/><path class="cls-4" d="m234.89,690.1c0,10.67-8.6,19.32-19.21,19.32-5.1,0-9.73-2.01-13.17-5.28l-11.73,6.97c.17.21.35.42.53.62,3.61.51,10.81,4.46,20.36,10.81,1.31.16,2.65.26,4,.26,17.95,0,32.51-14.64,32.51-32.69,0-4.16-.78-8.14-2.19-11.8l-11.74,6.97c.4,1.55.63,3.16.63,4.83Z"/><path class="cls-4" d="m392.15,760.4c5.26,5.16,9.69,9.76,12.97,13.55"/><path class="cls-4" d="m689.57,759.36c-5.85,5.7-9.37,8.65-12.64,12.8,7.18-1.76,11.15-5.48,12.64-12.8Z"/><path class="cls-4" d="m675.3,774.22c-4.31,5.01-6.57,8.56-6.02,10.01l1.47,3.93s0,0,.01,0c17.95,0,32.51-14.64,32.51-32.69,0-2.79-.35-5.5-1-8.09-4.57,4.2-8.83,8.22-12.68,11.97-1.49,7.32-7.09,13.11-14.27,14.86Z"/><path class="cls-4" d="m405.13,773.95c4.45,5.15,6.81,8.8,6.26,10.28l-1.46,3.91c-17.59-.43-31.72-14.88-31.72-32.67,0-2.57.3-5.08.86-7.48,4.74,4.36,9.15,8.54,13.09,12.41"/><path class="cls-4" d="m234.89,690.1c0-1.67-.23-3.28-.63-4.83l-13.66,8.12c-.96,1.45-2.55,2.43-4.37,2.6l-13.71,8.15c3.44,3.26,8.07,5.28,13.17,5.28,10.61,0,19.21-8.65,19.21-19.32Z"/><path class="cls-4" d="m220.6,693.39l-4.37,2.6c1.82-.17,3.41-1.14,4.37-2.6Z"/><path class="cls-4" d="m191.31,711.72c3.61.51,10.8,4.46,20.37,10.81"/><path class="cls-4" d="m191.31,711.72c-.18-.21-.36-.41-.53-.63"/><path class="cls-4" d="m475.72,95.76c2.11,0,4.19-.12,6.24-.33,4.85-.51,9.52-1.61,13.95-3.23,9.78-3.57,18.34-9.69,24.93-17.52l-.12-12.38c.05,4.95-25.4,17.56-59.48,31.64,2.68.68,5.42,1.2,8.24,1.49,2.05.22,4.13.33,6.24.33Z"/><path class="cls-4" d="m924.56,434.87c2.05-.22,4.13-.33,6.24-.33s4.19.12,6.24.33c-.12-1.15-.2-2.31-.26-3.48l-12.11,2.02c-.04.49-.06.98-.11,1.46Z"/><path class="cls-4" d="m940.25,448.89c.72,2,1.55,3.94,2.48,5.83,2.71-9.62,5.27-17.1,7.51-21.57-.13-1.31-.19-2.64-.21-3.98l-13.24,2.21c.06,1.17.14,2.33.26,3.48.51,4.88,1.6,9.58,3.21,14.03Z"/><path class="cls-4" d="m930.8,447.91c-3.24,0-6.4.34-9.45.99-5.96,16.49-18.97,29.58-35.37,35.57-.64,3.07-.98,6.25-.98,9.5s.34,6.44.98,9.5c16.4,5.99,29.41,19.08,35.37,35.57.93.2,1.88.36,2.83.49.8-4.41,1.62-8.81,2.45-13.16-15.98-2.06-28.33-15.78-28.33-32.41,0-18.05,14.55-32.69,32.51-32.69,3.4,0,6.67.53,9.75,1.5.74-2.82,1.46-5.51,2.18-8.05-.92-1.89-1.75-3.84-2.48-5.83-3.05-.64-6.21-.99-9.45-.99Z"/><path class="cls-4" d="m410.71,134.4c17.95,0,32.51-14.64,32.51-32.69,0-.16,0-.33-.01-.49-4.57,1.8-9.22,3.61-13.94,5.41-2.17,8.28-9.64,14.39-18.55,14.39-4.07,0-7.83-1.28-10.94-3.45-4.72,1.7-9.42,3.36-14.09,4.99,5.96,7.23,14.96,11.83,25.03,11.83Z"/><path class="cls-4" d="m401.26,146.78c3.05.64,6.21.99,9.45.99s6.4-.34,9.45-.99c5.96-16.49,18.97-29.58,35.37-35.57.64-3.07.98-6.25.98-9.5,0-1.92-.13-3.82-.36-5.68-4.21,1.72-8.54,3.45-12.95,5.19,0,.16.01.32.01.49,0,18.05-14.55,32.69-32.51,32.69-10.07,0-19.07-4.6-25.03-11.83-.2.07-.4.14-.6.21,7.2,6.48,12.81,14.7,16.18,24.01Z"/><path class="cls-4" d="m410.71,121.02c8.91,0,16.38-6.11,18.55-14.39-9.69,3.7-19.61,7.39-29.49,10.94,3.11,2.17,6.87,3.45,10.94,3.45Z"/><path class="cls-4" d="m420.16,146.78c-1.61,4.45-2.7,9.15-3.21,14.03-.22,2.06-.33,4.16-.33,6.28s.11,4.21.33,6.28c.51,4.88,1.6,9.58,3.21,14.03,1.48,4.1,3.4,7.98,5.69,11.6,4.3-1.52,8.62-3.09,12.93-4.67-5.57-7.63-8.87-17.04-8.87-27.23,0-25.44,20.51-46.06,45.8-46.06,22.07,0,39.95,14.8,44.29,35.7.72-.74,1.09.8,1.15.24l.23-27.58c-6.66-8.15-15.43-14.5-25.48-18.17-4.43-1.62-9.1-2.72-13.95-3.23-2.05-.22-4.13-.33-6.24-.33s-4.19.12-6.24.33c-4.85.51-9.52,1.61-13.95,3.23-16.4,5.99-29.41,19.08-35.37,35.57Z"/><path class="cls-4" d="m150.67,382.53c10.61,0,19.21-8.65,19.21-19.32,0-3.94-1.18-7.59-3.19-10.65-7.96,12.15-15.13,22.34-20.79,29.34,1.53.39,3.12.63,4.78.63Z"/><path class="cls-4" d="m209.44,356.94c2.05.22,4.13.33,6.24.33s4.19-.12,6.24-.33c4.85-.51,9.52-1.61,13.95-3.23,16.4-5.99,29.41-19.08,35.37-35.57,1.61-4.45,2.7-9.15,3.21-14.03.22-2.06.33-4.16.33-6.28s-.11-4.21-.33-6.28c-.51-4.88-1.6-9.58-3.21-14.03-5.96-16.49-18.97-29.57-35.37-35.57-1.3-.47-2.62-.89-3.96-1.27-2.07,3.96-4.22,8.02-6.44,12.15,20.59,4.51,36.01,22.94,36.01,44.99,0,25.44-20.51,46.06-45.8,46.06-13.45,0-25.54-5.83-33.92-15.11-2.46,3.99-4.88,7.88-7.26,11.65,5.93,5.8,13.06,10.38,21,13.28,4.43,1.62,9.1,2.72,13.95,3.23Z"/><path class="cls-4" d="m481.96,107.98c-.22-2.06-.33-4.16-.33-6.28s.11-4.21.33-6.28c-2.05.22-4.13.33-6.24.33s-4.19-.12-6.24-.33c.22,2.06.33,4.16.33,6.28s-.11,4.21-.33,6.28c2.05-.22,4.13-.33,6.24-.33s4.19.12,6.24.33Z"/><path class="cls-4" d="m391.5,167.08c0,25.44-20.51,46.06-45.8,46.06-1.19,0-2.37-.06-3.54-.15l5.3,6.48c1.92,2.35,16.15-.65,35.71-6.45,8.12-6.7,14.43-15.53,18.09-25.64,1.61-4.45,2.7-9.15,3.21-14.03.22-2.06.33-4.16.33-6.28s-.11-4.21-.33-6.28c-.51-4.88-1.6-9.58-3.21-14.03-3.36-9.31-8.98-17.53-16.18-24.01-5.13,1.79-10.21,3.52-15.2,5.2,12.98,8.13,21.62,22.6,21.62,39.11Z"/><path class="cls-4" d="m661.3,146.78c3.05.64,6.21.99,9.45.99s6.4-.34,9.45-.99c3.52-9.74,9.52-18.28,17.2-24.88-.29-.1-.58-.2-.86-.3-5.94,7.78-15.28,12.8-25.79,12.8-17.95,0-32.51-14.64-32.51-32.69,0-.63.02-1.25.06-1.87-4.37-1.74-8.66-3.47-12.81-5.18-.35,2.3-.54,4.65-.54,7.05,0,3.26.34,6.44.98,9.5,16.4,5.99,29.41,19.08,35.37,35.57Z"/><path class="cls-4" d="m680.21,146.78c-1.61,4.45-2.7,9.15-3.21,14.03-.22,2.06-.33,4.16-.33,6.28s.11,4.21.33,6.28c.51,4.88,1.6,9.58,3.21,14.03,3.36,9.3,8.97,17.52,16.16,23.99,22.34,6.86,39.08,10.66,41.18,8.1l5.68-6.95c-2.43.4-4.92.62-7.46.62-25.3,0-45.8-20.62-45.8-46.06,0-17.04,9.21-31.91,22.89-39.87-5.07-1.71-10.23-3.49-15.44-5.31-7.69,6.6-13.68,15.14-17.2,24.88Z"/><path class="cls-4" d="m599.5,107.98c2.05-.22,4.13-.33,6.24-.33s4.19.12,6.24.33c-.22-2.06-.33-4.16-.33-6.28s.11-4.21.33-6.28c-2.05.22-4.13.33-6.24.33s-4.19-.12-6.24-.33c.22,2.06.33,4.16.33,6.28s-.11,4.21-.33,6.28Z"/><path class="cls-4" d="m599.83,101.71c0-2.12-.11-4.21-.33-6.28-4.85-.51-9.52-1.61-13.95-3.23.64,3.07.98,6.25.98,9.5s-.34,6.44-.98,9.5c4.43-1.62,9.1-2.72,13.95-3.23.22-2.06.33-4.16.33-6.28Z"/><path class="cls-4" d="m670.76,121.02c4.58,0,8.78-1.62,12.09-4.31-10.41-3.76-20.85-7.66-30.97-11.56,1.62,9.02,9.45,15.88,18.89,15.88Z"/><path class="cls-4" d="m481.96,107.98c4.85.51,9.52,1.61,13.95,3.23-.64-3.07-.98-6.25-.98-9.5s.34-6.44.98-9.5c-4.43,1.62-9.1,2.72-13.95,3.23-.22,2.06-.33,4.16-.33,6.28s.11,4.21.33,6.28Z"/><path class="cls-4" d="m605.74,121.02c25.3,0,45.8,20.62,45.8,46.06,0,9.74-3.01,18.76-8.14,26.2,4.27,1.58,8.55,3.14,12.82,4.67,2.01-3.32,3.73-6.85,5.07-10.56,1.61-4.45,2.7-9.15,3.21-14.03.22-2.06.33-4.16.33-6.28s-.11-4.21-.33-6.28c-.51-4.88-1.6-9.58-3.21-14.03-5.96-16.49-18.97-29.57-35.37-35.57-4.43-1.62-9.1-2.72-13.95-3.23-2.05-.22-4.13-.33-6.24-.33s-4.19.12-6.24.33c-4.85.51-9.52,1.61-13.95,3.23-8.34,3.05-15.8,7.94-21.9,14.17l-.19,19.01c6.87-16.71,23.19-23.37,42.28-23.37Z"/><path class="cls-4" d="m670.76,134.4c10.51,0,19.85-5.02,25.79-12.8-4.54-1.6-9.12-3.23-13.7-4.88-3.3,2.69-7.5,4.31-12.09,4.31-9.44,0-17.27-6.85-18.89-15.88-4.6-1.77-9.13-3.55-13.56-5.31-.03.62-.06,1.24-.06,1.87,0,18.05,14.55,32.69,32.51,32.69Z"/><path class="cls-4" d="m429.52,882.3c-.95-4.61-3.55-8.61-7.13-11.38l-5.64,16.09c.63-1.81,5.24-3.37,12.77-4.71Z"/><path class="cls-4" d="m379.53,869.56l23.52-63c-.5-2.04-1.09-4.06-1.79-6.01-5.96-16.49-18.97-29.57-35.37-35.57-4.43-1.62-9.1-2.72-13.95-3.23-2.05-.22-4.13-.33-6.24-.33s-4.19.11-6.24.33c-4.85.51-9.52,1.61-13.95,3.23-12.14,4.44-22.43,12.78-29.37,23.5,3.44,2.93,6.85,5.86,10.22,8.78,7.99-13.46,22.61-22.47,39.34-22.47,25.3,0,45.8,20.62,45.8,46.06,0,15.9-8.01,29.92-20.2,38.19,4.2,4.95,6.81,8.76,7.41,11.08"/><path class="cls-4" d="m209.77,493.97c0-2.12-.11-4.21-.33-6.28-4.85-.51-9.52-1.61-13.95-3.23.64,3.07.98,6.25.98,9.5s-.34,6.44-.98,9.5c4.43-1.62,9.1-2.72,13.95-3.23.22-2.06.33-4.16.33-6.28Z"/><path class="cls-4" d="m215.68,488.02c2.11,0,4.19-.12,6.24-.33,3.15-.33,6.22-.94,9.21-1.75-1.09-4.65-2.18-8.99-3.23-12.96-3.89,1.08-7.98,1.67-12.21,1.67-20.9,0-38.51-14.08-44.01-33.31l-14.17-2.37c.6,3.41,1.47,6.73,2.63,9.92,5.96,16.49,18.97,29.57,35.37,35.57,4.43,1.62,9.1,2.72,13.95,3.23,2.05.22,4.13.33,6.24.33Z"/><path class="cls-4" d="m215.68,382.53c9.88,0,19.02,3.15,26.5,8.5,2.35-3.34,4.85-7.06,7.48-11.06-4.22-2.99-8.85-5.45-13.79-7.25-4.43-1.62-9.1-2.72-13.95-3.23-2.05-.22-4.13-.33-6.24-.33s-4.19.12-6.24.33c-4.85.51-9.52,1.61-13.95,3.23-12.77,4.67-23.47,13.65-30.4,25.18l14.25,2.67c8.37-10.97,21.53-18.04,36.34-18.04Z"/><path class="cls-4" d="m136.16,392.47l17.52,3.29c16.54-1.53,29.49-15.51,29.49-32.54,0-8.7-3.38-16.59-8.89-22.45-2.59,4.1-5.13,8.04-7.59,11.8,2.01,3.06,3.19,6.71,3.19,10.65,0,10.67-8.6,19.32-19.21,19.32-1.65,0-3.25-.23-4.78-.63-4.72,5.82-8.37,9.48-10.59,10.16"/><path class="cls-4" d="m195.49,372.72c.64-3.07.98-6.25.98-9.5s-.34-6.44-.98-9.5c-7.93-2.9-15.07-7.47-21-13.28-.07.11-.14.22-.21.33,5.51,5.86,8.89,13.75,8.89,22.45,0,17.03-12.95,31.01-29.49,32.54l11.4,2.14c6.93-11.53,17.63-20.51,30.4-25.18Z"/><path class="cls-4" d="m195.49,634.23c.64-3.07.98-6.25.98-9.5s-.34-6.44-.98-9.5c-13.7-5.01-25.02-14.98-31.86-27.74.4,2.62.79,5.22,1.17,7.8,10.87,5.29,18.37,16.48,18.37,29.44,0,10.2-4.64,19.3-11.92,25.3.02.28.04.56.06.84,6.49-7.41,14.77-13.19,24.18-16.63Z"/><path class="cls-4" d="m183.17,624.72c0-12.96-7.5-24.15-18.37-29.44,1.03,7.02,1.98,13.85,2.82,20.39,1.43,2.7,2.25,5.78,2.25,9.06,0,1.61-.22,3.16-.58,4.65.85,7.53,1.51,14.48,1.96,20.65,7.28-5.99,11.92-15.1,11.92-25.3Z"/><path class="cls-4" d="m169.5,678.6l2.16-1.22c5.49-19.25,23.11-33.34,44.02-33.34,4.13,0,8.14.56,11.94,1.59l14.92-8.46c-2.15-1.11-4.38-2.1-6.67-2.94-4.43-1.62-9.1-2.72-13.95-3.23-2.05-.22-4.13-.33-6.24-.33s-4.19.12-6.24.33c-4.85.51-9.52,1.61-13.95,3.23-9.41,3.44-17.69,9.22-24.18,16.63,1.11,15.85.72,26.31-1.81,27.74Z"/><path class="cls-4" d="m195.49,615.22c4.43,1.62,9.1,2.72,13.95,3.23,2.05.22,4.13.33,6.24.33s4.19-.12,6.24-.33c4.85-.51,9.52-1.61,13.95-3.23,5.61-2.05,10.82-4.95,15.49-8.52-.44-4.98-1.03-10.5-1.75-16.41-8.38,9.29-20.48,15.12-33.93,15.12-25.3,0-45.8-20.62-45.8-46.06s20.51-46.06,45.8-46.06c8.19,0,15.86,2.17,22.51,5.95-1.06-5.49-2.15-10.88-3.24-16.07-4.16-1.44-8.51-2.45-13.03-2.93-2.05-.22-4.13-.33-6.24-.33s-4.19.12-6.24.33c-4.85.51-9.52,1.61-13.95,3.23-16.4,5.99-29.41,19.08-35.37,35.57-1.24,3.42-2.16,6.99-2.76,10.66,2.26,12.68,4.38,25.45,6.27,37.77,6.84,12.76,18.15,22.73,31.86,27.74Z"/><path class="cls-4" d="m169.87,624.72c0-3.27-.82-6.35-2.25-9.06.61,4.74,1.17,9.32,1.66,13.71.37-1.49.58-3.04.58-4.65Z"/><path class="cls-4" d="m865.79,592.03c17.95,0,32.51-14.64,32.51-32.69s-14.55-32.69-32.51-32.69c-12.46,0-23.29,7.06-28.74,17.42-1.18,7.08-2.28,14.09-3.28,20.87,2.64,15.39,15.97,27.09,32.02,27.09Zm0-52c10.61,0,19.21,8.65,19.21,19.32s-8.6,19.32-19.21,19.32-19.21-8.65-19.21-19.32,8.6-19.32,19.21-19.32Z"/><path class="cls-4" d="m865.79,526.66c17.95,0,32.51,14.64,32.51,32.69s-14.55,32.69-32.51,32.69c-16.05,0-29.38-11.71-32.02-27.09-1.24,8.44-2.32,16.51-3.17,23.88,8.4,10.13,21.05,16.59,35.19,16.59,25.3,0,45.8-20.62,45.8-46.06s-20.51-46.06-45.8-46.06c-9.04,0-17.46,2.64-24.56,7.19-1.46,7.8-2.87,15.74-4.18,23.6,5.45-10.36,16.27-17.42,28.74-17.42Z"/><ellipse class="cls-4" cx="865.79" cy="559.34" rx="5.91" ry="5.94"/><path class="cls-4" d="m865.79,578.66c10.61,0,19.21-8.65,19.21-19.32s-8.6-19.32-19.21-19.32-19.21,8.65-19.21,19.32,8.6,19.32,19.21,19.32Zm0-25.26c3.26,0,5.91,2.66,5.91,5.94s-2.65,5.94-5.91,5.94-5.91-2.66-5.91-5.94,2.65-5.94,5.91-5.94Z"/><path class="cls-4" d="m833.28,624.72c0,1.43-.1,2.84-.28,4.23l10.66,6.05c.64-.26,1.28-.53,1.94-.77.64-3.07.98-6.25.98-9.5s-.34-6.44-.98-9.5c-6.08-2.22-11.69-5.42-16.65-9.41-.06.8-.11,1.57-.16,2.33,2.85,4.86,4.49,10.53,4.49,16.58Z"/><path class="cls-4" d="m859.55,500.24c2.05-.22,4.13-.33,6.24-.33s4.19.12,6.24.33c-.22-2.06-.33-4.16-.33-6.28s.11-4.21.33-6.28c-2.05.22-4.13.33-6.24.33s-4.19-.12-6.24-.33c.22,2.06.33,4.16.33,6.28s-.11,4.21-.33,6.28Z"/><path class="cls-4" d="m846.33,494.97c-.71,3.29-1.16,5.5-1.87,8.95.38-.15.76-.31,1.14-.45.64-3.07.98-6.25.98-9.5,0-.06-.26,1.06-.26,1Z"/><path class="cls-4" d="m865.79,722.79c-17.95,0-32.51-14.64-32.51-32.69,0-4.01.72-7.86,2.04-11.41l-11.58-6.88c-2.42,5.61-3.76,11.79-3.76,18.29,0,20.77,13.67,38.32,32.46,44.07,5.97-4.38,11.48-8.26,16.38-11.53-1,.09-2.01.15-3.04.15Z"/><path class="cls-4" d="m810.23,710.4c-3.05-.64-6.21-.99-9.45-.99s-6.4.34-9.45.99c-5.96,16.49-18.97,29.57-35.37,35.57-.64,3.07-.98,6.25-.98,9.5s.34,6.44.98,9.5c11.98,4.38,22.14,12.56,29.08,23.07.99-.84,1.97-1.68,2.96-2.52-11.6-4.99-19.73-16.57-19.73-30.06,0-18.05,14.55-32.69,32.51-32.69,15.8,0,28.96,11.34,31.89,26.37,2.46-1.92,4.89-3.79,7.27-5.61-13.71-6.72-24.45-18.6-29.71-33.14Z"/><path class="cls-4" d="m846.58,493.97c0,3.26-.34,6.44-.98,9.5,4.43-1.62,9.1-2.72,13.95-3.23.22-2.06.33-4.16.33-6.28s-.11-4.21-.33-6.28c-3.83-.4-7.54-1.19-11.11-2.29-.62,2.72-1.24,5.52-1.86,8.4,0,.06,0,.11,0,.17Z"/><path class="cls-4" d="m819.99,690.1c0-6.5,1.35-12.68,3.76-18.29l-11.51-6.84c-.73,1.57-1.42,3.18-2.01,4.82-1.61,4.45-2.7,9.15-3.21,14.03-.22,2.06-.33,4.16-.33,6.28s.11,4.21.33,6.28c.51,4.88,1.6,9.58,3.21,14.03,5.26,14.54,16,26.43,29.71,33.14,4.34-3.32,8.52-6.46,12.51-9.38-18.78-5.75-32.46-23.3-32.46-44.07Z"/><path class="cls-4" d="m859.55,631c2.05-.22,4.13-.33,6.24-.33s4.19.12,6.24.33c-.22-2.06-.33-4.16-.33-6.28s.11-4.21.33-6.28c-2.05.22-4.13.33-6.24.33s-4.19-.12-6.24-.33c.22,2.06.33,4.16.33,6.28s-.11,4.21-.33,6.28Z"/><path class="cls-4" d="m828.79,608.14c-.7,11.01-.35,18.22,1.46,19.24l2.76,1.56c.18-1.38.28-2.79.28-4.23,0-6.05-1.64-11.72-4.49-16.58Z"/><path class="cls-4" d="m872.03,631c4.85.51,9.52,1.61,13.95,3.23-.64-3.07-.98-6.25-.98-9.5s.34-6.44.98-9.5c-4.43,1.62-9.1,2.72-13.95,3.23-.22,2.06-.33,4.16-.33,6.28s.11,4.21.33,6.28Z"/><path class="cls-4" d="m846.58,632.65c4.43-1.62,8.12-1.14,12.97-1.66.22-2.06.33-4.16.33-6.28s-.11-4.21-.33-6.28c-4.85-.51-9.52-1.61-13.95-3.23.64,3.07.98,6.25.98,9.5s.64,4.86,0,7.93Z"/><path class="cls-4" d="m845.6,241.97c1.44-.53,2.91-.97,4.39-1.39-1.18-2.25-2.33-4.47-3.45-6.66-.09,2.75-.4,5.44-.94,8.05Z"/><path class="cls-4" d="m794.54,291.56c.22,2.06.33,4.16.33,6.28s-.11,4.21-.33,6.28c2.05-.22,4.13-.33,6.24-.33s4.19.12,6.24.33c-.22-2.06-.33-4.16-.33-6.28s.11-4.21.33-6.28c-2.05.22-4.13.33-6.24.33s-4.19-.12-6.24-.33Z"/><path class="cls-4" d="m794.54,304.11c-.34,3.24-.96,6.4-1.79,9.46.72,1.32,1.45,2.64,2.19,3.97,1.91-.25,3.86-.39,5.84-.39,3.24,0,6.4.34,9.45.99-1.61-4.45-2.7-9.15-3.21-14.03-2.05-.22-4.13-.33-6.24-.33s-4.19.12-6.24.33Z"/><path class="cls-4" d="m791.33,277.53c1.61,4.45,2.7,9.15,3.21,14.03,2.05.22,4.13.33,6.24.33s4.19-.12,6.24-.33c.51-4.88,1.6-9.58,3.21-14.03-3.05.64-6.21.99-9.45.99s-6.4-.34-9.45-.99Z"/><path class="cls-4" d="m794.94,317.54c2.4,4.32,4.85,8.67,7.34,13.02,17.26.79,31.01,15.1,31.01,32.65,0,4.88-1.07,9.51-2.98,13.68.62.97,1.24,1.91,1.86,2.85,4.13-2.88,8.64-5.26,13.44-7.02.64-3.07.98-6.25.98-9.5s-.34-6.44-.98-9.5c-16.4-5.99-29.41-19.08-35.37-35.57-3.05-.64-6.21-.99-9.45-.99-1.98,0-3.93.14-5.84.39Z"/><path class="cls-4" d="m839.79,220.46c-5.69-11.62-10.22-21.69-13.02-29.26-2.18-3.56-3.88-7.43-5.04-11.54l-9.91,11.63c5.64,12.71,15.58,23.06,27.97,29.17Z"/><path class="cls-4" d="m791.85,148.38c.37,1.13.71,2.27,1.02,3.43l3.49-4.26s-.03,0-.05,0c-.75.6-2.27.87-4.46.84Z"/><path class="cls-4" d="m833.28,232.46c0,18.05-14.55,32.69-32.51,32.69-14.99,0-27.59-10.2-31.36-24.07l-4.37,5.13c12.06,6.94,21.47,18.02,26.28,31.32,3.05.64,6.21.99,9.45.99s6.4-.34,9.45-.99c5.96-16.49,18.97-29.58,35.37-35.57.54-2.61.86-5.3.94-8.05-2.39-4.66-4.65-9.16-6.76-13.46-12.39-6.11-22.32-16.47-27.97-29.17l-7.4,8.69c16.24,1.82,28.87,15.66,28.87,32.48Z"/><path class="cls-4" d="m856.38,409.26l30.32-5.69c-5.65-4.78-12.94-7.66-20.9-7.66-6.75,0-13.01,2.07-18.2,5.6,4.17,5.16,7.27,8.04,8.79,7.75Z"/><path class="cls-4" d="m896.91,438.04l-16.2,2.7c-3.52,4.36-8.89,7.16-14.92,7.16-2.11,0-4.14-.36-6.04-.99-1.4,2.68-2.98,6.99-4.66,12.54,3.35,1.17,6.95,1.82,10.69,1.82,14.68,0,27.09-9.79,31.12-23.24Z"/><path class="cls-4" d="m859.75,446.92c1.9.63,3.93.99,6.04.99,6.02,0,11.4-2.79,14.92-7.16l-18.27,3.05c-.79.13-1.7,1.23-2.69,3.12Z"/><path class="cls-4" d="m865.79,461.28c-3.75,0-7.34-.65-10.69-1.82-1.14,3.78-2.33,8.11-3.55,12.91,4.48,1.47,9.27,2.28,14.24,2.28,22.9,0,41.87-16.9,45.26-38.97l-14.14,2.36c-4.03,13.44-16.44,23.24-31.12,23.24Z"/><path class="cls-4" d="m872.03,369.49c4.85.51,9.52,1.61,13.95,3.23-.64-3.07-.98-6.25-.98-9.5s.34-6.44.98-9.5c-4.43,1.62-9.1,2.72-13.95,3.23-.22,2.06-.33,4.16-.33,6.28s.11,4.21.33,6.28Z"/><path class="cls-4" d="m859.55,369.49c2.05-.22,4.13-.33,6.24-.33s4.19.12,6.24.33c-.22-2.06-.33-4.16-.33-6.28s.11-4.21.33-6.28c-2.05.22-4.13.33-6.24.33s-4.19-.12-6.24-.33c.22,2.06.33,4.16.33,6.28s-.11,4.21-.33,6.28Z"/><path class="cls-4" d="m845.6,372.72c4.43-1.62,9.1-2.72,13.95-3.23.22-2.06.33-4.16.33-6.28s-.11-4.21-.33-6.28c-4.85-.51-9.52-1.61-13.95-3.23.64,3.07.98,6.25.98,9.5s-.34,6.44-.98,9.5Z"/><path class="cls-4" d="m865.79,395.9c7.96,0,15.25,2.88,20.9,7.66l15.5-2.91c-8.37-11.01-21.56-18.12-36.41-18.12-9.73,0-18.75,3.06-26.16,8.26,2.93,4.19,5.62,7.81,7.96,10.71,5.19-3.54,11.46-5.6,18.2-5.6Z"/><path class="cls-4" d="m611.65,101.71c0,2.12.11,4.21.33,6.28,4.85.51,9.52,1.61,13.95,3.23-.64-3.07-.98-6.25-.98-9.5,0-2.4.19-4.75.54-7.05-1.05-.43-2.08-.86-3.12-1.29-3.35.99-6.82,1.69-10.39,2.06-.22,2.06-.33,4.16-.33,6.28Z"/><path class="cls-4" d="m495.91,92.2c-.64,3.07-.98,6.25-.98,9.5s.34,6.44.98,9.5c10.05,3.67,18.82,10.02,25.48,18.17v-1.42c-7.99-5.96-13.16-15.5-13.16-26.26s4.95-19.88,12.63-25.86v-1.17c-6.61,7.84-15.16,13.95-24.95,17.52Z"/><path class="cls-4" d="m456.51,101.71c0,3.26-.34,6.44-.98,9.5,4.43-1.62,9.1-2.72,13.95-3.23.22-2.06.33-4.16.33-6.28s-.11-4.21-.33-6.28c-2.81-.3-5.56-.81-8.24-1.49-1.68.69-3.38,1.39-5.09,2.09.23,1.86.36,3.75.36,5.68Z"/><path class="cls-4" d="m599.5,95.43c2.05.22,4.13.33,6.24.33s4.19-.12,6.24-.33c3.57-.38,7.04-1.08,10.39-2.06-10.72-4.45-20.55-8.74-28.96-12.68-5.65-1.58-10.85-4.22-15.39-7.7-8.68-4.73-13.77-8.48-13.75-10.69l-.16,16.21c6.02,6.01,13.31,10.72,21.44,13.69,4.43,1.62,9.1,2.72,13.95,3.23Z"/><path class="cls-4" d="m573.24,101.71c0,9.06-3.66,17.25-9.58,23.17v.5c6.1-6.23,13.56-11.12,21.9-14.17.64-3.07.98-6.25.98-9.5s-.34-6.44-.98-9.5c-8.13-2.97-15.42-7.69-21.44-13.69v.5c5.64,5.88,9.12,13.88,9.12,22.7Z"/><path class="cls-4" d="m426.95,857.91l-4.56,13c3.58,2.77,6.18,6.77,7.13,11.38,3.72-.66,8.16-1.26,13.19-1.81-1.7-9.65-7.61-17.84-15.76-22.58Z"/><path class="cls-4" d="m144.17,436.75l-13.11-2.19c-.17,1.3-.39,2.59-.66,3.85,2.05,4.08,4.37,10.71,6.84,19.19,1.55-2.77,2.88-5.68,3.98-8.71,1.4-3.87,2.38-7.94,2.96-12.14Z"/><path class="cls-4" d="m150.67,461.28c17.95,0,32.51,14.64,32.51,32.69s-13.28,31.36-30.12,32.59c.85,4.36,1.68,8.77,2.5,13.21,1.54-.17,3.07-.41,4.56-.72,5.96-16.49,18.97-29.58,35.37-35.57.64-3.07.98-6.25.98-9.5s-.34-6.44-.98-9.5c-16.4-5.99-29.41-19.08-35.37-35.57-3.05-.64-6.21-.99-9.45-.99s-6.4.34-9.45.99c-1.09,3.03-2.43,5.94-3.98,8.71.55,1.88,1.1,3.84,1.66,5.9,3.65-1.43,7.62-2.22,11.77-2.22Z"/><path class="cls-4" d="m150.67,447.91c3.24,0,6.4.34,9.45.99-1.15-3.19-2.03-6.51-2.63-9.92l-13.32-2.22c-.57,4.2-1.56,8.27-2.96,12.14,3.05-.64,6.21-.99,9.45-.99Z"/><path class="cls-4" d="m702.09,869.67c.81-2.41,3.46-6.17,7.58-10.98-11.91-8.32-19.7-22.16-19.7-37.84,0-25.44,20.51-46.06,45.8-46.06,16.53,0,31.01,8.8,39.07,22.01,3.37-2.92,6.78-5.84,10.21-8.76-6.94-10.51-17.1-18.69-29.08-23.07-4.43-1.62-9.1-2.72-13.95-3.23-2.06-.22-4.14-.33-6.24-.33s-4.19.11-6.24.33c-4.85.51-9.52,1.61-13.95,3.23-16.39,6-29.41,19.08-35.37,35.57-.86,2.37-1.55,4.81-2.11,7.31l22.74,60.91"/><path class="cls-4" d="m625.93,876.72c-.18.87-.33,1.74-.46,2.63,4.78.37,9.22.78,13.27,1.23,1.63-9.43,7.28-17.47,15.11-22.28l-.7-1.99c-6.84,9.23-16.27,16.41-27.22,20.41Z"/><path class="cls-4" d="m605.74,866.91c-25.3,0-45.8-20.62-45.8-46.06,0-11.15,3.94-21.36,10.49-29.33-5.19-.14-10.51-.24-15.91-.31-1.7,2.96-3.16,6.08-4.34,9.34-1.61,4.45-2.7,9.15-3.21,14.03-.22,2.06-.33,4.16-.33,6.28s.11,4.21.33,6.28c.51,4.88,1.6,9.58,3.21,14.03,5.96,16.49,18.97,29.58,35.37,35.57.64.23,1.3.43,1.95.65,11.11.36,21.63.86,31.1,1.49,2.5-.56,4.95-1.26,7.33-2.13,10.95-4,20.38-11.18,27.22-20.41l-5.73-16.35c-7.22,15.9-23.16,26.95-41.67,26.95Z"/><path class="cls-4" d="m638.74,880.58c5.05.56,9.49,1.18,13.18,1.86.87-4.4,3.23-8.26,6.52-11.03l-4.59-13.1c-7.83,4.8-13.47,12.85-15.11,22.28Z"/><path class="cls-4" d="m494.05,877.34c.59-.02,1.17-.04,1.76-.06.04-.19.06-.38.1-.56-.61.22-1.24.41-1.87.62Z"/><path class="cls-4" d="m885.98,634.23c-4.43-1.62-9.1-2.72-13.95-3.23-2.05-.22-4.13-.33-6.24-.33s-4.19.12-6.24.33c-4.85.51-9.52,1.61-13.95,3.23-.65.24-1.29.51-1.94.77l16.56,9.39c1.83-.22,3.68-.35,5.57-.35,18.62,0,34.63,11.18,41.79,27.21l5.79,3.42c-2.3-1.3-5.04-11.47-4.28-24.99-6.32-6.84-14.21-12.2-23.11-15.46Z"/><path class="cls-4" d="m427.77,855.58l-.82,2.33c8.15,4.74,14.06,12.92,15.76,22.58,4.06-.44,8.51-.84,13.28-1.2-.13-.86-.28-1.72-.46-2.56-11.24-4.11-20.89-11.55-27.77-21.14Z"/><path class="cls-4" d="m531.28,841.15c1.61-4.45,2.7-9.15,3.21-14.03.22-2.06.33-4.16.33-6.28s-.11-4.21-.33-6.28c-.51-4.88-1.6-9.58-3.21-14.03-1.18-3.26-2.64-6.38-4.34-9.35-5.39.06-10.73.16-15.92.29,6.56,7.97,10.51,18.2,10.51,29.35,0,25.44-20.51,46.06-45.8,46.06-18.9,0-35.13-11.52-42.12-27.96l-5.83,16.63c6.88,9.59,16.53,17.03,27.77,21.14,2.31.84,4.69,1.54,7.13,2.09,9.57-.63,20.18-1.12,31.38-1.47.62-.2,1.25-.39,1.87-.62,16.4-5.99,29.41-19.08,35.37-35.57Z"/><path class="cls-4" d="m455.99,879.29c2.16-.17,4.39-.32,6.67-.47-2.44-.55-4.82-1.25-7.13-2.09.18.85.32,1.7.46,2.56Z"/><path class="cls-4" d="m663.92,887l-5.47-15.6c-3.3,2.77-5.65,6.63-6.52,11.03,7.07,1.3,11.38,2.83,11.99,4.57Z"/><path class="cls-4" d="m540.73,853.54c-14.74,0-27.19,9.87-31.17,23.4,4.76-.1,9.59-.17,14.46-.22,3.3-5.85,9.54-9.81,16.71-9.81s13.42,3.96,16.71,9.82c4.87.05,9.69.13,14.46.23-3.97-13.54-16.42-23.42-31.17-23.42Z"/><path class="cls-4" d="m550.19,841.15c-3.05-.64-6.21-.99-9.45-.99s-6.4.34-9.45.99c-5.96,16.49-18.97,29.58-35.37,35.57-.04.19-.07.38-.1.56,4.5-.14,9.1-.25,13.76-.35,3.98-13.53,16.42-23.4,31.17-23.4s27.2,9.88,31.17,23.42c4.66.1,9.25.21,13.76.35-.04-.2-.07-.39-.11-.59-16.4-5.99-29.41-19.08-35.37-35.57Z"/><path class="cls-4" d="m585.66,877.31c.62.02,1.23.04,1.84.06-.65-.21-1.31-.41-1.95-.65.04.19.07.39.11.59Z"/><path class="cls-4" d="m618.61,878.85c2.35.16,4.64.32,6.86.49.13-.88.28-1.76.46-2.63-2.37.87-4.82,1.57-7.33,2.13Z"/><path class="cls-4" d="m557.45,876.73c-3.3-5.86-9.54-9.82-16.71-9.82s-13.41,3.96-16.71,9.81c11.09-.11,22.35-.11,33.42,0Z"/><path class="cls-4" d="m885.98,615.22c-.64,3.07-.98,6.25-.98,9.5s.34,6.44.98,9.5c8.9,3.25,16.79,8.61,23.11,15.46.01-.2.02-.4.04-.6-6.65-5.99-10.83-14.68-10.83-24.36,0-12.27,6.73-22.95,16.67-28.54.23-1.64.47-3.3.72-4.97-6.94,10.97-17.36,19.5-29.7,24.01Z"/><path class="cls-4" d="m911.59,363.21c0,10.67,8.6,19.32,19.21,19.32,1.8,0,3.54-.27,5.19-.73-5.71-7.06-12.93-17.35-20.95-29.6-2.17,3.13-3.44,6.92-3.44,11.02Z"/><path class="cls-4" d="m885.98,372.72c-4.43-1.62-9.1-2.72-13.95-3.23-2.05-.22-4.13-.33-6.24-.33s-4.19.12-6.24.33c-4.85.51-9.52,1.61-13.95,3.23-4.81,1.76-9.31,4.14-13.44,7.02,2.62,4,5.12,7.71,7.47,11.05,7.42-5.2,16.43-8.26,26.16-8.26,14.85,0,28.04,7.11,36.41,18.12l14.23-2.67c-6.93-11.57-17.65-20.58-30.45-25.26Z"/><path class="cls-4" d="m871.7,493.97c0,2.12.11,4.21.33,6.28,4.85.51,9.52,1.61,13.95,3.23-.64-3.07-.98-6.25-.98-9.5s.34-6.44.98-9.5c-4.43,1.62-9.1,2.72-13.95,3.23-.22,2.06-.33,4.16-.33,6.28Z"/><path class="cls-4" d="m898.29,624.72c0,9.68,4.19,18.37,10.83,24.36.8-13.78,2.91-32.35,5.83-52.9-9.94,5.59-16.67,16.28-16.67,28.54Z"/><path class="cls-4" d="m865.79,499.91c-2.11,0-4.19.12-6.24.33-4.85.51-9.52,1.61-13.95,3.23-.39.14-.76.3-1.14.45-1.1,5.38-2.18,10.92-3.23,16.55,7.1-4.55,15.52-7.19,24.56-7.19,25.3,0,45.8,20.62,45.8,46.06s-20.51,46.06-45.8,46.06c-14.15,0-26.79-6.45-35.19-16.59-.72,6.22-1.28,11.96-1.65,16.99,4.96,3.98,10.57,7.19,16.65,9.41,4.43,1.62,9.1,2.72,13.95,3.23,2.05.22,4.13.33,6.24.33s4.19-.12,6.24-.33c4.85-.51,9.52-1.61,13.95-3.23,12.34-4.51,22.76-13.04,29.7-24.01,2.17-14.81,4.72-30.5,7.49-46.07-.51-2.08-1.1-4.12-1.82-6.1-5.96-16.49-18.97-29.57-35.37-35.57-4.43-1.62-9.1-2.72-13.95-3.23-2.05-.22-4.13-.33-6.24-.33Z"/><path class="cls-4" d="m865.79,474.65c-4.97,0-9.76-.81-14.24-2.28-1.02,4.05-2.07,8.42-3.12,13.03,3.57,1.1,7.29,1.89,11.11,2.29,2.05.22,4.13.33,6.24.33s4.19-.12,6.24-.33c4.85-.51,9.52-1.61,13.95-3.23,16.4-5.99,29.41-19.08,35.37-35.57,1.61-4.45,2.7-9.15,3.21-14.03.05-.48.08-.97.11-1.46l-13.62,2.27c-3.39,22.07-22.36,38.97-45.26,38.97Z"/><path class="cls-4" d="m885,363.21c0,3.26.34,6.44.98,9.5,12.8,4.68,23.52,13.69,30.45,25.26l11.71-2.2c-16.71-1.36-29.84-15.42-29.84-32.57,0-8.85,3.51-16.88,9.19-22.77-.07-.1-.13-.21-.2-.31-5.99,5.95-13.24,10.62-21.31,13.57-.64,3.07-.98,6.25-.98,9.5Z"/><path class="cls-4" d="m865.79,343.9c-25.3,0-45.8-20.62-45.8-46.06,0-22.22,15.64-40.76,36.45-45.1-2.22-4.13-4.37-8.19-6.45-12.16-1.49.41-2.96.86-4.39,1.39-16.4,5.99-29.41,19.08-35.37,35.57-1.61,4.45-2.7,9.15-3.21,14.03-.22,2.06-.33,4.16-.33,6.28s.11,4.21.33,6.28c.51,4.88,1.6,9.58,3.21,14.03,5.96,16.49,18.97,29.57,35.37,35.57,4.43,1.62,9.1,2.72,13.95,3.23,2.05.22,4.13.33,6.24.33s4.19-.12,6.24-.33c4.85-.51,9.52-1.61,13.95-3.23,8.07-2.95,15.32-7.63,21.31-13.57-2.39-3.78-4.82-7.68-7.29-11.69-8.39,9.48-20.61,15.45-34.21,15.45Z"/><path class="cls-4" d="m945.01,392.61l-16.87,3.18c-16.71-1.36-29.85-15.42-29.85-32.57,0-8.85,3.51-16.88,9.19-22.77,2.58,4.07,5.1,8,7.55,11.75-2.17,3.13-3.44,6.92-3.44,11.02,0,10.67,8.6,19.32,19.2,19.32,1.8,0,3.54-.27,5.19-.74,4.55,5.63,8.13,9.21,10.4,10.11"/></svg>